  0
SECTION
  2
HEADER
  9
$ACADVER
  1
AC1032
  9
$ACADMAINTVER
 90
      266
  9
$DWGCODEPAGE
  3
ANSI_1252
  9
$REQUIREDVERSIONS
160
                 0
  9
$INSBASE
 10
0.0
 20
0.0
 30
0.0
  9
$EXTMIN
 10
1.000000000000000E+20
 20
1.000000000000000E+20
 30
1.000000000000000E+20
  9
$EXTMAX
 10
-1.000000000000000E+20
 20
-1.000000000000000E+20
 30
-1.000000000000000E+20
  9
$LIMMIN
 10
0.0
 20
0.0
  9
$LIMMAX
 10
12.0
 20
9.0
  9
$ORTHOMODE
 70
     0
  9
$REGENMODE
 70
     1
  9
$FILLMODE
 70
     1
  9
$QTEXTMODE
 70
     0
  9
$MIRRTEXT
 70
     0
  9
$LTSCALE
 40
1.0
  9
$ATTMODE
 70
     1
  9
$TEXTSIZE
 40
0.2
  9
$TRACEWID
 40
0.05
  9
$TEXTSTYLE
  7
Standard
  9
$CLAYER
  8
0
  9
$CELTYPE
  6
ByLayer
  9
$CECOLOR
 62
   256
  9
$CELTSCALE
 40
1.0
  9
$DISPSILH
 70
     0
  9
$DIMSCALE
 40
1.0
  9
$DIMASZ
 40
0.18
  9
$DIMEXO
 40
0.0625
  9
$DIMDLI
 40
0.38
  9
$DIMRND
 40
0.0
  9
$DIMDLE
 40
0.0
  9
$DIMEXE
 40
0.18
  9
$DIMTP
 40
0.0
  9
$DIMTM
 40
0.0
  9
$DIMTXT
 40
0.18
  9
$DIMCEN
 40
0.09
  9
$DIMTSZ
 40
0.0
  9
$DIMTOL
 70
     0
  9
$DIMLIM
 70
     0
  9
$DIMTIH
 70
     1
  9
$DIMTOH
 70
     1
  9
$DIMSE1
 70
     0
  9
$DIMSE2
 70
     0
  9
$DIMTAD
 70
     0
  9
$DIMZIN
 70
     0
  9
$DIMBLK
  1

  9
$DIMASO
 70
     1
  9
$DIMSHO
 70
     1
  9
$DIMPOST
  1

  9
$DIMAPOST
  1

  9
$DIMALT
 70
     0
  9
$DIMALTD
 70
     2
  9
$DIMALTF
 40
25.4
  9
$DIMLFAC
 40
1.0
  9
$DIMTOFL
 70
     0
  9
$DIMTVP
 40
0.0
  9
$DIMTIX
 70
     0
  9
$DIMSOXD
 70
     0
  9
$DIMSAH
 70
     0
  9
$DIMBLK1
  1

  9
$DIMBLK2
  1

  9
$DIMSTYLE
  2
Standard
  9
$DIMCLRD
 70
     0
  9
$DIMCLRE
 70
     0
  9
$DIMCLRT
 70
     0
  9
$DIMTFAC
 40
1.0
  9
$DIMGAP
 40
0.09
  9
$DIMJUST
 70
     0
  9
$DIMSD1
 70
     0
  9
$DIMSD2
 70
     0
  9
$DIMTOLJ
 70
     1
  9
$DIMTZIN
 70
     0
  9
$DIMALTZ
 70
     0
  9
$DIMALTTZ
 70
     0
  9
$DIMUPT
 70
     0
  9
$DIMDEC
 70
     4
  9
$DIMTDEC
 70
     4
  9
$DIMALTU
 70
     2
  9
$DIMALTTD
 70
     2
  9
$DIMTXSTY
  7
Standard
  9
$DIMAUNIT
 70
     0
  9
$DIMADEC
 70
     0
  9
$DIMALTRND
 40
0.0
  9
$DIMAZIN
 70
     0
  9
$DIMDSEP
 70
    46
  9
$DIMATFIT
 70
     3
  9
$DIMFRAC
 70
     0
  9
$DIMLDRBLK
  1

  9
$DIMLUNIT
 70
     2
  9
$DIMLWD
 70
    -2
  9
$DIMLWE
 70
    -2
  9
$DIMTMOVE
 70
     0
  9
$DIMFXL
 40
1.0
  9
$DIMFXLON
 70
     0
  9
$DIMJOGANG
 40
0.7853981633974483
  9
$DIMTFILL
 70
     0
  9
$DIMTFILLCLR
 70
     0
  9
$DIMARCSYM
 70
     0
  9
$DIMLTYPE
  6

  9
$DIMLTEX1
  6

  9
$DIMLTEX2
  6

  9
$DIMTXTDIRECTION
 70
     0
  9
$LUNITS
 70
     2
  9
$LUPREC
 70
     4
  9
$SKETCHINC
 40
0.1
  9
$FILLETRAD
 40
0.0
  9
$AUNITS
 70
     0
  9
$AUPREC
 70
     0
  9
$MENU
  1
.
  9
$ELEVATION
 40
0.0
  9
$PELEVATION
 40
0.0
  9
$THICKNESS
 40
0.0
  9
$LIMCHECK
 70
     0
  9
$CHAMFERA
 40
0.0
  9
$CHAMFERB
 40
0.0
  9
$CHAMFERC
 40
0.0
  9
$CHAMFERD
 40
0.0
  9
$SKPOLY
 70
     0
  9
$TDCREATE
 40
2461118.690659722
  9
$TDUCREATE
 40
2461118.648993056
  9
$TDUPDATE
 40
2461118.690659722
  9
$TDUUPDATE
 40
2461118.648993056
  9
$TDINDWG
 40
0.0000000000
  9
$TDUSRTIMER
 40
0.0000000000
  9
$USRTIMER
 70
     1
  9
$ANGBASE
 50
0.0
  9
$ANGDIR
 70
     0
  9
$PDMODE
 70
     0
  9
$PDSIZE
 40
0.0
  9
$PLINEWID
 40
0.0
  9
$SPLFRAME
 70
     0
  9
$SPLINETYPE
 70
     6
  9
$SPLINESEGS
 70
     8
  9
$HANDSEED
  5
8B
  9
$SURFTAB1
 70
     6
  9
$SURFTAB2
 70
     6
  9
$SURFTYPE
 70
     6
  9
$SURFU
 70
     6
  9
$SURFV
 70
     6
  9
$UCSBASE
  2

  9
$UCSNAME
  2

  9
$UCSORG
 10
0.0
 20
0.0
 30
0.0
  9
$UCSXDIR
 10
1.0
 20
0.0
 30
0.0
  9
$UCSYDIR
 10
0.0
 20
1.0
 30
0.0
  9
$UCSORTHOREF
  2

  9
$UCSORTHOVIEW
 70
     0
  9
$UCSORGTOP
 10
0.0
 20
0.0
 30
0.0
  9
$UCSORGBOTTOM
 10
0.0
 20
0.0
 30
0.0
  9
$UCSORGLEFT
 10
0.0
 20
0.0
 30
0.0
  9
$UCSORGRIGHT
 10
0.0
 20
0.0
 30
0.0
  9
$UCSORGFRONT
 10
0.0
 20
0.0
 30
0.0
  9
$UCSORGBACK
 10
0.0
 20
0.0
 30
0.0
  9
$PUCSBASE
  2

  9
$PUCSNAME
  2

  9
$PUCSORG
 10
0.0
 20
0.0
 30
0.0
  9
$PUCSXDIR
 10
1.0
 20
0.0
 30
0.0
  9
$PUCSYDIR
 10
0.0
 20
1.0
 30
0.0
  9
$PUCSORTHOREF
  2

  9
$PUCSORTHOVIEW
 70
     0
  9
$PUCSORGTOP
 10
0.0
 20
0.0
 30
0.0
  9
$PUCSORGBOTTOM
 10
0.0
 20
0.0
 30
0.0
  9
$PUCSORGLEFT
 10
0.0
 20
0.0
 30
0.0
  9
$PUCSORGRIGHT
 10
0.0
 20
0.0
 30
0.0
  9
$PUCSORGFRONT
 10
0.0
 20
0.0
 30
0.0
  9
$PUCSORGBACK
 10
0.0
 20
0.0
 30
0.0
  9
$USERI1
 70
     0
  9
$USERI2
 70
     0
  9
$USERI3
 70
     0
  9
$USERI4
 70
     0
  9
$USERI5
 70
     0
  9
$USERR1
 40
0.0
  9
$USERR2
 40
0.0
  9
$USERR3
 40
0.0
  9
$USERR4
 40
0.0
  9
$USERR5
 40
0.0
  9
$WORLDVIEW
 70
     1
  9
$SHADEDGE
 70
     3
  9
$SHADEDIF
 70
    70
  9
$TILEMODE
 70
     1
  9
$MAXACTVP
 70
    64
  9
$PINSBASE
 10
0.0
 20
0.0
 30
0.0
  9
$PLIMCHECK
 70
     0
  9
$PEXTMIN
 10
1.000000000000000E+20
 20
1.000000000000000E+20
 30
1.000000000000000E+20
  9
$PEXTMAX
 10
-1.000000000000000E+20
 20
-1.000000000000000E+20
 30
-1.000000000000000E+20
  9
$PLIMMIN
 10
0.0
 20
0.0
  9
$PLIMMAX
 10
12.0
 20
9.0
  9
$UNITMODE
 70
     0
  9
$VISRETAIN
 70
     1
  9
$PLINEGEN
 70
     0
  9
$PSLTSCALE
 70
     1
  9
$TREEDEPTH
 70
  3020
  9
$CMLSTYLE
  2
Standard
  9
$CMLJUST
 70
     0
  9
$CMLSCALE
 40
1.0
  9
$PROXYGRAPHICS
 70
     1
  9
$MEASUREMENT
 70
     0
  9
$CELWEIGHT
370
    -1
  9
$ENDCAPS
280
     0
  9
$JOINSTYLE
280
     0
  9
$LWDISPLAY
290
     1
  9
$INSUNITS
 70
     4
  9
$HYPERLINKBASE
  1

  9
$STYLESHEET
  1

  9
$XEDIT
290
     1
  9
$CEPSNTYPE
380
     0
  9
$PSTYLEMODE
290
     1
  9
$FINGERPRINTGUID
  2
{9256B7F4-FA6D-C245-8751-913125D9EBAB}
  9
$VERSIONGUID
  2
{54637F4D-C7FC-5244-8002-C2DD3E6B00D8}
  9
$EXTNAMES
290
     1
  9
$PSVPSCALE
 40
0.0
  9
$OLESTARTUP
290
     0
  9
$SORTENTS
280
   127
  9
$INDEXCTL
280
     0
  9
$HIDETEXT
280
     1
  9
$XCLIPFRAME
280
     2
  9
$HALOGAP
280
     0
  9
$OBSCOLOR
 70
   257
  9
$OBSLTYPE
280
     0
  9
$INTERSECTIONDISPLAY
280
     0
  9
$INTERSECTIONCOLOR
 70
   257
  9
$DIMASSOC
280
     2
  9
$PROJECTNAME
  1

  9
$CAMERADISPLAY
290
     0
  9
$LENSLENGTH
 40
50.0
  9
$CAMERAHEIGHT
 40
0.0
  9
$STEPSPERSEC
 40
2.0
  9
$STEPSIZE
 40
6.0
  9
$3DDWFPREC
 40
2.0
  9
$PSOLWIDTH
 40
0.25
  9
$PSOLHEIGHT
 40
4.0
  9
$LOFTANG1
 40
1.570796326794896
  9
$LOFTANG2
 40
1.570796326794896
  9
$LOFTMAG1
 40
0.0
  9
$LOFTMAG2
 40
0.0
  9
$LOFTPARAM
 70
     7
  9
$LOFTNORMALS
280
     1
  9
$LATITUDE
 40
37.795
  9
$LONGITUDE
 40
-122.394
  9
$NORTHDIRECTION
 40
0.0
  9
$TIMEZONE
 70
 -8000
  9
$LIGHTGLYPHDISPLAY
280
     1
  9
$TILEMODELIGHTSYNCH
280
     1
  9
$CMATERIAL
347
11
  9
$SOLIDHIST
280
     0
  9
$SHOWHIST
280
     1
  9
$DWFFRAME
280
     2
  9
$DGNFRAME
280
     0
  9
$REALWORLDSCALE
290
     1
  9
$INTERFERECOLOR
 62
     1
  9
$INTERFEREOBJVS
345
33
  9
$INTERFEREVPVS
346
30
  9
$CSHADOW
280
     0
  9
$SHADOWPLANELOCATION
 40
0.0
  0
ENDSEC
  0
SECTION
  2
CLASSES
  0
CLASS
  1
ACDBDICTIONARYWDFLT
  2
AcDbDictionaryWithDefault
  3
ObjectDBX Classes
 90
        0
 91
        1
280
     0
281
     0
  0
CLASS
  1
MATERIAL
  2
AcDbMaterial
  3
ObjectDBX Classes
 90
     1153
 91
        3
280
     0
281
     0
  0
CLASS
  1
VISUALSTYLE
  2
AcDbVisualStyle
  3
ObjectDBX Classes
 90
     4095
 91
       24
280
     0
281
     0
  0
CLASS
  1
SCALE
  2
AcDbScale
  3
ObjectDBX Classes
 90
     1153
 91
       17
280
     0
281
     0
  0
CLASS
  1
TABLESTYLE
  2
AcDbTableStyle
  3
ObjectDBX Classes
 90
     4095
 91
        1
280
     0
281
     0
  0
CLASS
  1
MLEADERSTYLE
  2
AcDbMLeaderStyle
  3
ACDB_MLEADERSTYLE_CLASS
 90
     4095
 91
        1
280
     0
281
     0
  0
CLASS
  1
ACDBSECTIONVIEWSTYLE
  2
AcDbSectionViewStyle
  3
ObjectDBX Classes
 90
     1025
 91
        1
280
     0
281
     0
  0
CLASS
  1
ACDBDETAILVIEWSTYLE
  2
AcDbDetailViewStyle
  3
ObjectDBX Classes
 90
     1025
 91
        1
280
     0
281
     0
  0
CLASS
  1
DICTIONARYVAR
  2
AcDbDictionaryVar
  3
ObjectDBX Classes
 90
        0
 91
        5
280
     0
281
     0
  0
CLASS
  1
CELLSTYLEMAP
  2
AcDbCellStyleMap
  3
ObjectDBX Classes
 90
     1152
 91
        1
280
     0
281
     0
  0
ENDSEC
  0
SECTION
  2
TABLES
  0
TABLE
  2
VPORT
  5
8
330
0
100
AcDbSymbolTable
 70
     1
  0
VPORT
  5
57
330
8
100
AcDbSymbolTableRecord
100
AcDbViewportTableRecord
  2
*Active
 70
     0
 10
0.0
 20
0.0
 11
1.0
 21
1.0
 12
0.0
 22
0.0
 13
0.0
 23
0.0
 14
1.0
 24
1.0
 15
0.0
 25
0.0
 16
0.0
 26
0.0
 36
1.0
 17
3.499999999124846
 27
-3.499999999124846
 37
0.0
 40
7.139999998214686
 41
1.0
 42
50.0
 43
0.0
 44
0.0
 50
0.0
 51
0.0
 71
     0
 72
   100
 73
     1
 74
     1
 75
     0
 76
     0
 77
     0
 78
     0
281
     0
 65
     1
110
0.0
120
0.0
130
0.0
111
1.0
121
0.0
131
0.0
112
0.0
122
1.0
132
0.0
 79
     0
146
0.0
 60
     3
 61
     5
292
     1
282
     1
141
0.0
142
0.0
 63
   250
421
  3355443
  0
ENDTAB
  0
TABLE
  2
LTYPE
  5
5
330
0
100
AcDbSymbolTable
 70
     1
  0
LTYPE
  5
5B
330
5
100
AcDbSymbolTableRecord
100
AcDbLinetypeTableRecord
  2
ByBlock
 70
     0
  3

 72
    65
 73
     0
 40
0.0
  0
LTYPE
  5
5C
330
5
100
AcDbSymbolTableRecord
100
AcDbLinetypeTableRecord
  2
ByLayer
 70
     0
  3

 72
    65
 73
     0
 40
0.0
  0
LTYPE
  5
5D
330
5
100
AcDbSymbolTableRecord
100
AcDbLinetypeTableRecord
  2
Continuous
 70
     0
  3
Solid line
 72
    65
 73
     0
 40
0.0
  0
ENDTAB
  0
TABLE
  2
LAYER
  5
2
330
0
100
AcDbSymbolTable
 70
     3
  0
LAYER
  5
54
330
2
100
AcDbSymbolTableRecord
100
AcDbLayerTableRecord
  2
0
 70
     0
 62
     7
  6
Continuous
370
    -3
390
F
347
21
348
0
  0
LAYER
  5
78
330
2
100
AcDbSymbolTableRecord
100
AcDbLayerTableRecord
  2
Stroke
 70
     1
 62
     7
  6
Continuous
370
     0
390
F
347
21
348
0
  0
LAYER
  5
7B
330
2
100
AcDbSymbolTableRecord
100
AcDbLayerTableRecord
  2
Outlines
 70
     0
 62
     7
  6
Continuous
370
     0
390
F
347
21
348
0
  0
ENDTAB
  0
TABLE
  2
STYLE
  5
3
330
0
100
AcDbSymbolTable
 70
     2
  0
STYLE
  5
55
330
3
100
AcDbSymbolTableRecord
100
AcDbTextStyleTableRecord
  2
Standard
 70
     0
 40
0.0
 41
1.0
 50
0.0
 71
     0
 42
0.2
  3
txt
  4

  0
STYLE
  5
5A
330
3
100
AcDbSymbolTableRecord
100
AcDbTextStyleTableRecord
  2
Annotative
 70
     0
 40
0.0
 41
1.0
 50
0.0
 71
     0
 42
0.2
  3
txt
  4

1001
AcadAnnotative
1000
AnnotativeData
1002
{
1070
     1
1070
     1
1002
}
  0
ENDTAB
  0
TABLE
  2
VIEW
  5
6
330
0
100
AcDbSymbolTable
 70
     0
  0
ENDTAB
  0
TABLE
  2
UCS
  5
7
330
0
100
AcDbSymbolTable
 70
     0
  0
ENDTAB
  0
TABLE
  2
APPID
  5
9
330
0
100
AcDbSymbolTable
 70
     2
  0
APPID
  5
56
330
9
100
AcDbSymbolTableRecord
100
AcDbRegAppTableRecord
  2
ACAD
 70
     0
  0
APPID
  5
5E
330
9
100
AcDbSymbolTableRecord
100
AcDbRegAppTableRecord
  2
AcadAnnotative
 70
     0
  0
ENDTAB
  0
TABLE
  2
DIMSTYLE
  5
A
330
0
100
AcDbSymbolTable
 70
     2
100
AcDbDimStyleTable
 71
     0
  0
DIMSTYLE
105
58
330
A
100
AcDbSymbolTableRecord
100
AcDbDimStyleTableRecord
  2
Standard
 70
     0
340
55
  0
DIMSTYLE
105
59
330
A
100
AcDbSymbolTableRecord
100
AcDbDimStyleTableRecord
  2
Annotative
 70
     0
340
55
1001
AcadAnnotative
1000
AnnotativeData
1002
{
1070
     1
1070
     1
1002
}
  0
ENDTAB
  0
TABLE
  2
BLOCK_RECORD
  5
1
330
0
100
AcDbSymbolTable
 70
     1
  0
BLOCK_RECORD
  5
70
330
1
100
AcDbSymbolTableRecord
100
AcDbBlockTableRecord
  2
*Model_Space
340
73
 70
     0
280
     1
281
     0
  0
BLOCK_RECORD
  5
6C
330
1
100
AcDbSymbolTableRecord
100
AcDbBlockTableRecord
  2
*Paper_Space
340
6F
 70
     0
280
     1
281
     0
  0
BLOCK_RECORD
  5
74
330
1
100
AcDbSymbolTableRecord
100
AcDbBlockTableRecord
  2
*Paper_Space0
340
77
 70
     0
280
     1
281
     0
  0
ENDTAB
  0
ENDSEC
  0
SECTION
  2
BLOCKS
  0
BLOCK
  5
71
330
70
100
AcDbEntity
  8
0
100
AcDbBlockBegin
  2
*Model_Space
 70
     0
 10
0.0
 20
0.0
 30
0.0
  3
*Model_Space
  1

  0
ENDBLK
  5
72
330
70
100
AcDbEntity
  8
0
100
AcDbBlockEnd
  0
BLOCK
  5
6D
330
6C
100
AcDbEntity
 67
     1
  8
0
100
AcDbBlockBegin
  2
*Paper_Space
 70
     0
 10
0.0
 20
0.0
 30
0.0
  3
*Paper_Space
  1

  0
ENDBLK
  5
6E
330
6C
100
AcDbEntity
 67
     1
  8
0
100
AcDbBlockEnd
  0
BLOCK
  5
75
330
74
100
AcDbEntity
 67
     1
  8
0
100
AcDbBlockBegin
  2
*Paper_Space0
 70
     0
 10
0.0
 20
0.0
 30
0.0
  3
*Paper_Space0
  1

  0
ENDBLK
  5
76
330
74
100
AcDbEntity
 67
     1
  8
0
100
AcDbBlockEnd
  0
ENDSEC
  0
SECTION
  2
ENTITIES
  0
LWPOLYLINE
  5
79
330
70
100
AcDbEntity
  8
Stroke
 62
   250
420
  2301728
370
     5
100
AcDbPolyline
 90
        6
 70
     0
 43
0.0
 10
3.566347712595136
 20
-2.64586412636367
 10
3.596872635266564
 20
-3.146732214842654
 10
4.075096423781644
 20
-3.543556209567688
 10
3.62739755793735
 20
-4.143879688768159
 10
3.128823820974758
 20
-3.584256106463032
 10
3.596872635266564
 20
-3.146732214842654
  0
CIRCLE
  5
7A
330
70
100
AcDbEntity
  8
Stroke
 62
   250
420
  2301728
370
     5
100
AcDbCircle
 10
3.611611584796043
 20
-3.473623694014345
 30
0.0
 40
1.193583464774651
  0
SPLINE
  5
7C
330
70
100
AcDbEntity
  8
Outlines
100
AcDbSpline
210
0.0
220
0.0
230
1.0
 70
    11
 71
     3
 72
    29
 73
    25
 74
     0
 42
0.0000000001
 43
0.0000000001
 40
0.0
 40
0.0
 40
0.0
 40
0.0
 40
1.0
 40
1.0
 40
1.0
 40
2.0
 40
2.0
 40
2.0
 40
3.0
 40
3.0
 40
3.0
 40
4.0
 40
4.0
 40
4.0
 40
5.0
 40
5.0
 40
5.0
 40
6.0
 40
6.0
 40
6.0
 40
7.0
 40
7.0
 40
7.0
 40
8.0
 40
8.0
 40
8.0
 40
8.0
 10
3.175403584763188
 20
-3.629863453216163
 30
0.0
 10
3.175403584763188
 20
-3.629863453216163
 30
0.0
 10
3.625446233902666
 20
-4.100697156092881
 30
0.0
 10
3.625446233902666
 20
-4.100697156092881
 30
0.0
 10
3.625446233902666
 20
-4.100697156092881
 30
0.0
 10
3.763077798538397
 20
-3.932576496412689
 30
0.0
 10
3.763077798538397
 20
-3.932576496412689
 30
0.0
 10
3.763077798538397
 20
-3.932576496412689
 30
0.0
 10
3.91190592350119
 20
-3.732760958268198
 30
0.0
 10
3.91190592350119
 20
-3.732760958268198
 30
0.0
 10
3.91190592350119
 20
-3.732760958268198
 30
0.0
 10
4.035584851421659
 20
-3.550170897549957
 30
0.0
 10
4.035584851421659
 20
-3.550170897549957
 30
0.0
 10
4.035584851421659
 20
-3.550170897549957
 30
0.0
 10
3.590134005178855
 20
-3.151573349906551
 30
0.0
 10
3.590134005178855
 20
-3.151573349906551
 30
0.0
 10
3.590134005178855
 20
-3.151573349906551
 30
0.0
 10
3.445439994798362
 20
-3.296784124609831
 30
0.0
 10
3.445439994798362
 20
-3.296784124609831
 30
0.0
 10
3.445439994798362
 20
-3.296784124609831
 30
0.0
 10
3.306602646742793
 20
-3.459392631513624
 30
0.0
 10
3.306602646742793
 20
-3.459392631513624
 30
0.0
 10
3.306602646742793
 20
-3.459392631513624
 30
0.0
 10
3.175403584763188
 20
-3.629863453216163
 30
0.0
 10
3.175403584763188
 20
-3.629863453216163
 30
0.0
  0
SPLINE
  5
7D
330
70
100
AcDbEntity
  8
Outlines
100
AcDbSpline
210
0.0
220
0.0
230
1.0
 70
    11
 71
     3
 72
    50
 73
    46
 74
     0
 42
0.0000000001
 43
0.0000000001
 40
0.0
 40
0.0
 40
0.0
 40
0.0
 40
1.0
 40
1.0
 40
1.0
 40
2.0
 40
2.0
 40
2.0
 40
3.0
 40
3.0
 40
3.0
 40
4.0
 40
4.0
 40
4.0
 40
5.0
 40
5.0
 40
5.0
 40
6.0
 40
6.0
 40
6.0
 40
7.0
 40
7.0
 40
7.0
 40
8.0
 40
8.0
 40
8.0
 40
9.0
 40
9.0
 40
9.0
 40
10.0
 40
10.0
 40
10.0
 40
11.0
 40
11.0
 40
11.0
 40
12.0
 40
12.0
 40
12.0
 40
13.0
 40
13.0
 40
13.0
 40
14.0
 40
14.0
 40
14.0
 40
15.0
 40
15.0
 40
15.0
 40
15.0
 10
3.627857800742341
 20
-4.153751626565728
 30
0.0
 10
3.627857800742341
 20
-4.153751626565728
 30
0.0
 10
3.121487840419028
 20
-3.625040319536814
 30
0.0
 10
3.121487840419028
 20
-3.625040319536814
 30
0.0
 10
3.121487840419028
 20
-3.625040319536814
 30
0.0
 10
3.283003742668832
 20
-3.433726670148512
 30
0.0
 10
3.283003742668832
 20
-3.433726670148512
 30
0.0
 10
3.283003742668832
 20
-3.433726670148512
 30
0.0
 10
3.419429523884726
 20
-3.273012965761608
 30
0.0
 10
3.419429523884726
 20
-3.273012965761608
 30
0.0
 10
3.419429523884726
 20
-3.273012965761608
 30
0.0
 10
3.571358234784244
 20
-3.12039523576504
 30
0.0
 10
3.571358234784244
 20
-3.12039523576504
 30
0.0
 10
3.571358234784244
 20
-3.12039523576504
 30
0.0
 10
3.584893532308875
 20
-3.112636121868111
 30
0.0
 10
3.584893532308875
 20
-3.112636121868111
 30
0.0
 10
3.584893532308875
 20
-3.112636121868111
 30
0.0
 10
3.568085394073256
 20
-2.897497557869375
 30
0.0
 10
3.568085394073256
 20
-2.897497557869375
 30
0.0
 10
3.568085394073256
 20
-2.897497557869375
 30
0.0
 10
3.527088757798783
 20
-2.650139702028437
 30
0.0
 10
3.527088757798783
 20
-2.650139702028437
 30
0.0
 10
3.527088757798783
 20
-2.650139702028437
 30
0.0
 10
3.561884222199807
 20
-2.644283039703512
 30
0.0
 10
3.561884222199807
 20
-2.644283039703512
 30
0.0
 10
3.561884222199807
 20
-2.644283039703512
 30
0.0
 10
3.603053113248542
 20
-2.893191188512813
 30
0.0
 10
3.603053113248542
 20
-2.893191188512813
 30
0.0
 10
3.603053113248542
 20
-2.893191188512813
 30
0.0
 10
3.622690157514466
 20
-3.133314343834727
 30
0.0
 10
3.622690157514466
 20
-3.133314343834727
 30
0.0
 10
3.622690157514466
 20
-3.133314343834727
 30
0.0
 10
4.082438150021057
 20
-3.544314235225032
 30
0.0
 10
4.082438150021057
 20
-3.544314235225032
 30
0.0
 10
4.082438150021057
 20
-3.544314235225032
 30
0.0
 10
4.073480901759407
 20
-3.557061088520457
 30
0.0
 10
4.073480901759407
 20
-3.557061088520457
 30
0.0
 10
4.073480901759407
 20
-3.557061088520457
 30
0.0
 10
3.940500216028763
 20
-3.753087021631172
 30
0.0
 10
3.940500216028763
 20
-3.753087021631172
 30
0.0
 10
3.940500216028763
 20
-3.753087021631172
 30
0.0
 10
3.790810817194658
 20
-3.954280597969763
 30
0.0
 10
3.790810817194658
 20
-3.954280597969763
 30
0.0
 10
3.790810817194658
 20
-3.954280597969763
 30
0.0
 10
3.627857800742341
 20
-4.153751626565728
 30
0.0
 10
3.627857800742341
 20
-4.153751626565728
 30
0.0
  0
HATCH
  5
7E
330
70
100
AcDbEntity
  8
Outlines
 62
   250
420
  2301728
440
 33554687
100
AcDbHatch
 10
0.0
 20
0.0
 30
0.0
210
0.0
220
0.0
230
1.0
  2
SOLID
 70
     1
 71
     1
 91
        2
 92
        1
 93
        1
 72
     4
 94
        3
 73
     0
 74
     0
 95
       29
 96
       25
 40
0.0
 40
0.0
 40
0.0
 40
0.0
 40
1.0
 40
1.0
 40
1.0
 40
2.0
 40
2.0
 40
2.0
 40
3.0
 40
3.0
 40
3.0
 40
4.0
 40
4.0
 40
4.0
 40
5.0
 40
5.0
 40
5.0
 40
6.0
 40
6.0
 40
6.0
 40
7.0
 40
7.0
 40
7.0
 40
8.0
 40
8.0
 40
8.0
 40
8.0
 10
3.175403584763188
 20
-3.629863453216163
 10
3.175403584763188
 20
-3.629863453216163
 10
3.625446233902666
 20
-4.100697156092881
 10
3.625446233902666
 20
-4.100697156092881
 10
3.625446233902666
 20
-4.100697156092881
 10
3.763077798538397
 20
-3.932576496412689
 10
3.763077798538397
 20
-3.932576496412689
 10
3.763077798538397
 20
-3.932576496412689
 10
3.91190592350119
 20
-3.732760958268198
 10
3.91190592350119
 20
-3.732760958268198
 10
3.91190592350119
 20
-3.732760958268198
 10
4.035584851421659
 20
-3.550170897549957
 10
4.035584851421659
 20
-3.550170897549957
 10
4.035584851421659
 20
-3.550170897549957
 10
3.590134005178855
 20
-3.151573349906551
 10
3.590134005178855
 20
-3.151573349906551
 10
3.590134005178855
 20
-3.151573349906551
 10
3.445439994798362
 20
-3.296784124609831
 10
3.445439994798362
 20
-3.296784124609831
 10
3.445439994798362
 20
-3.296784124609831
 10
3.306602646742793
 20
-3.459392631513624
 10
3.306602646742793
 20
-3.459392631513624
 10
3.306602646742793
 20
-3.459392631513624
 10
3.175403584763188
 20
-3.629863453216163
 10
3.175403584763188
 20
-3.629863453216163
 97
        0
 97
        1
330
7C
 92
        1
 93
        1
 72
     4
 94
        3
 73
     0
 74
     0
 95
       50
 96
       46
 40
0.0
 40
0.0
 40
0.0
 40
0.0
 40
1.0
 40
1.0
 40
1.0
 40
2.0
 40
2.0
 40
2.0
 40
3.0
 40
3.0
 40
3.0
 40
4.0
 40
4.0
 40
4.0
 40
5.0
 40
5.0
 40
5.0
 40
6.0
 40
6.0
 40
6.0
 40
7.0
 40
7.0
 40
7.0
 40
8.0
 40
8.0
 40
8.0
 40
9.0
 40
9.0
 40
9.0
 40
10.0
 40
10.0
 40
10.0
 40
11.0
 40
11.0
 40
11.0
 40
12.0
 40
12.0
 40
12.0
 40
13.0
 40
13.0
 40
13.0
 40
14.0
 40
14.0
 40
14.0
 40
15.0
 40
15.0
 40
15.0
 40
15.0
 10
3.627857800742341
 20
-4.153751626565728
 10
3.627857800742341
 20
-4.153751626565728
 10
3.121487840419028
 20
-3.625040319536814
 10
3.121487840419028
 20
-3.625040319536814
 10
3.121487840419028
 20
-3.625040319536814
 10
3.283003742668832
 20
-3.433726670148512
 10
3.283003742668832
 20
-3.433726670148512
 10
3.283003742668832
 20
-3.433726670148512
 10
3.419429523884726
 20
-3.273012965761608
 10
3.419429523884726
 20
-3.273012965761608
 10
3.419429523884726
 20
-3.273012965761608
 10
3.571358234784244
 20
-3.12039523576504
 10
3.571358234784244
 20
-3.12039523576504
 10
3.571358234784244
 20
-3.12039523576504
 10
3.584893532308875
 20
-3.112636121868111
 10
3.584893532308875
 20
-3.112636121868111
 10
3.584893532308875
 20
-3.112636121868111
 10
3.568085394073256
 20
-2.897497557869375
 10
3.568085394073256
 20
-2.897497557869375
 10
3.568085394073256
 20
-2.897497557869375
 10
3.527088757798783
 20
-2.650139702028437
 10
3.527088757798783
 20
-2.650139702028437
 10
3.527088757798783
 20
-2.650139702028437
 10
3.561884222199807
 20
-2.644283039703512
 10
3.561884222199807
 20
-2.644283039703512
 10
3.561884222199807
 20
-2.644283039703512
 10
3.603053113248542
 20
-2.893191188512813
 10
3.603053113248542
 20
-2.893191188512813
 10
3.603053113248542
 20
-2.893191188512813
 10
3.622690157514466
 20
-3.133314343834727
 10
3.622690157514466
 20
-3.133314343834727
 10
3.622690157514466
 20
-3.133314343834727
 10
4.082438150021057
 20
-3.544314235225032
 10
4.082438150021057
 20
-3.544314235225032
 10
4.082438150021057
 20
-3.544314235225032
 10
4.073480901759407
 20
-3.557061088520457
 10
4.073480901759407
 20
-3.557061088520457
 10
4.073480901759407
 20
-3.557061088520457
 10
3.940500216028763
 20
-3.753087021631172
 10
3.940500216028763
 20
-3.753087021631172
 10
3.940500216028763
 20
-3.753087021631172
 10
3.790810817194658
 20
-3.954280597969763
 10
3.790810817194658
 20
-3.954280597969763
 10
3.790810817194658
 20
-3.954280597969763
 10
3.627857800742341
 20
-4.153751626565728
 10
3.627857800742341
 20
-4.153751626565728
 97
        0
 97
        1
330
7D
 75
     2
 76
     1
 98
        1
 10
0.0
 20
0.0
450
        0
451
        0
460
0.0
461
0.0
452
        0
462
0.0
453
        0
470

  0
SPLINE
  5
7F
330
70
100
AcDbEntity
  8
Outlines
100
AcDbSpline
210
0.0
220
0.0
230
1.0
 70
     9
 71
     3
 72
   164
 73
   160
 74
     0
 42
0.0000000001
 43
0.0000000001
 40
0.0
 40
0.0
 40
0.0
 40
0.0
 40
1.0
 40
1.0
 40
1.0
 40
2.0
 40
2.0
 40
2.0
 40
3.0
 40
3.0
 40
3.0
 40
4.0
 40
4.0
 40
4.0
 40
5.0
 40
5.0
 40
5.0
 40
6.0
 40
6.0
 40
6.0
 40
7.0
 40
7.0
 40
7.0
 40
8.0
 40
8.0
 40
8.0
 40
9.0
 40
9.0
 40
9.0
 40
10.0
 40
10.0
 40
10.0
 40
11.0
 40
11.0
 40
11.0
 40
12.0
 40
12.0
 40
12.0
 40
13.0
 40
13.0
 40
13.0
 40
14.0
 40
14.0
 40
14.0
 40
15.0
 40
15.0
 40
15.0
 40
16.0
 40
16.0
 40
16.0
 40
17.0
 40
17.0
 40
17.0
 40
18.0
 40
18.0
 40
18.0
 40
19.0
 40
19.0
 40
19.0
 40
20.0
 40
20.0
 40
20.0
 40
21.0
 40
21.0
 40
21.0
 40
22.0
 40
22.0
 40
22.0
 40
23.0
 40
23.0
 40
23.0
 40
24.0
 40
24.0
 40
24.0
 40
25.0
 40
25.0
 40
25.0
 40
26.0
 40
26.0
 40
26.0
 40
27.0
 40
27.0
 40
27.0
 40
28.0
 40
28.0
 40
28.0
 40
29.0
 40
29.0
 40
29.0
 40
30.0
 40
30.0
 40
30.0
 40
31.0
 40
31.0
 40
31.0
 40
32.0
 40
32.0
 40
32.0
 40
33.0
 40
33.0
 40
33.0
 40
34.0
 40
34.0
 40
34.0
 40
35.0
 40
35.0
 40
35.0
 40
36.0
 40
36.0
 40
36.0
 40
37.0
 40
37.0
 40
37.0
 40
38.0
 40
38.0
 40
38.0
 40
39.0
 40
39.0
 40
39.0
 40
40.0
 40
40.0
 40
40.0
 40
41.0
 40
41.0
 40
41.0
 40
42.0
 40
42.0
 40
42.0
 40
43.0
 40
43.0
 40
43.0
 40
44.0
 40
44.0
 40
44.0
 40
45.0
 40
45.0
 40
45.0
 40
46.0
 40
46.0
 40
46.0
 40
47.0
 40
47.0
 40
47.0
 40
48.0
 40
48.0
 40
48.0
 40
49.0
 40
49.0
 40
49.0
 40
50.0
 40
50.0
 40
50.0
 40
51.0
 40
51.0
 40
51.0
 40
52.0
 40
52.0
 40
52.0
 40
53.0
 40
53.0
 40
53.0
 40
53.0
 10
3.649045137976627
 20
-2.307869465568865
 30
0.0
 10
3.586172145370818
 20
-2.307869465568865
 30
0.0
 10
3.525193955281896
 20
-2.31441514699084
 30
0.0
 10
3.467144096355436
 20
-2.321649847509865
 30
0.0
 10
3.373782008705165
 20
-2.333190917385452
 30
0.0
 10
3.288171385896707
 20
-2.361440700364501
 30
0.0
 10
3.21651339980351
 20
-2.387623426052399
 30
0.0
 10
3.190675183664136
 20
-2.397097438636836
 30
0.0
 10
3.164147948427713
 20
-2.405365667801436
 30
0.0
 10
3.137792967965551
 20
-2.413461642191773
 30
0.0
 10
3.077676051747942
 20
-2.43189290303786
 30
0.0
 10
3.021004231015582
 20
-2.449462890012634
 30
0.0
 10
2.971222601253722
 20
-2.48167453279972
 30
0.0
 10
2.971222601253722
 20
-2.48167453279972
 30
0.0
 10
2.934015570013023
 20
-2.505273436873681
 30
0.0
 10
2.934015570013023
 20
-2.505273436873681
 30
0.0
 10
2.871142577407214
 20
-2.545064289728317
 30
0.0
 10
2.806202527510254
 20
-2.58606092600279
 30
0.0
 10
2.755215114328557
 20
-2.638254122604325
 30
0.0
 10
2.681490070944211
 20
-2.713701713731297
 30
0.0
 10
2.626368543180213
 20
-2.782086859113506
 30
0.0
 10
2.586577690325577
 20
-2.847026909010465
 30
0.0
 10
2.559705945540629
 20
-2.891124131221663
 30
0.0
 10
2.549026149536354
 20
-2.944178601694511
 30
0.0
 10
2.538001843983554
 20
-3.000333658104083
 30
0.0
 10
2.531111653013055
 20
-3.034784612956581
 30
0.0
 10
2.524049207268293
 20
-3.070441351228917
 30
0.0
 10
2.512680392166968
 20
-3.104203286984366
 30
0.0
 10
2.507340494164831
 20
-3.119878471442252
 30
0.0
 10
2.501828341388431
 20
-3.135553655900139
 30
0.0
 10
2.496316188612031
 20
-3.151401095132288
 30
0.0
 10
2.47340630363512
 20
-3.217030164126298
 30
0.0
 10
2.449635144786896
 20
-3.284898545185719
 30
0.0
 10
2.442572699042134
 20
-3.356556531278916
 30
0.0
 10
2.436543781942947
 20
-3.416501192722263
 30
0.0
 10
2.447740342270009
 20
-3.475929089842823
 30
0.0
 10
2.458592393048546
 20
-3.533462184446495
 30
0.0
 10
2.463760036276421
 20
-3.561195203102756
 30
0.0
 10
2.469099934278558
 20
-3.588755966984755
 30
0.0
 10
2.472545029763808
 20
-3.616316730866754
 30
0.0
 10
2.475301106152008
 20
-3.639915634940715
 30
0.0
 10
2.47754041821742
 20
-3.663170029466152
 30
0.0
 10
2.47960747550857
 20
-3.686252169217326
 30
0.0
 10
2.485636392607757
 20
-3.752053492985597
 30
0.0
 10
2.491320800158419
 20
-3.814065211720095
 30
0.0
 10
2.513024901715493
 20
-3.873320854066392
 30
0.0
 10
2.523532442945505
 20
-3.901915146593965
 30
0.0
 10
2.531972926884368
 20
-3.931887477315639
 30
0.0
 10
2.540241156048967
 20
-3.961170788940263
 30
0.0
 10
2.556260850055379
 20
-4.018014864446885
 30
0.0
 10
2.572797308384578
 20
-4.076581487696132
 30
0.0
 10
2.603803167751827
 20
-4.12412380539258
 30
0.0
 10
2.63170844118235
 20
-4.167532008506728
 30
0.0
 10
2.675116644296498
 20
-4.199226886971026
 30
0.0
 10
2.720936414250321
 20
-4.232644313177949
 30
0.0
 10
2.749702961552157
 20
-4.253659395637973
 30
0.0
 10
2.779503037499568
 20
-4.275363497195048
 30
0.0
 10
2.805168998864679
 20
-4.300168184688846
 30
0.0
 10
2.826356336098966
 20
-4.321183267148871
 30
0.0
 10
2.846510144687678
 20
-4.343576387802994
 30
0.0
 10
2.865802679405076
 20
-4.365280489360069
 30
0.0
 10
2.906454806131025
 20
-4.410755749765367
 30
0.0
 10
2.944695366017298
 20
-4.453819443330989
 30
0.0
 10
2.993960231456371
 20
-4.483791774052662
 30
0.0
 10
3.074575465811217
 20
-4.53340114904026
 30
0.0
 10
3.165698241396075
 20
-4.566474065698659
 30
0.0
 10
3.236150444069434
 20
-4.589900714998358
 30
0.0
 10
3.263538953177171
 20
-4.599202472808532
 30
0.0
 10
3.291444226607694
 20
-4.610571287909857
 30
0.0
 10
3.318315971392643
 20
-4.621940103011182
 30
0.0
 10
3.374298773027953
 20
-4.645022242762355
 30
0.0
 10
3.432348631954412
 20
-4.668793401610579
 30
0.0
 10
3.491432019526447
 20
-4.674650063935504
 30
0.0
 10
3.572219508655556
 20
-4.683262802648629
 30
0.0
 10
3.656107583721389
 20
-4.672583006644354
 30
0.0
 10
3.737411837173286
 20
-4.66190321064008
 30
0.0
 10
3.737411837173286
 20
-4.66190321064008
 30
0.0
 10
3.760321722150197
 20
-4.659147134251879
 30
0.0
 10
3.760321722150197
 20
-4.659147134251879
 30
0.0
 10
3.810792371009107
 20
-4.65294596237843
 30
0.0
 10
3.856095376640142
 20
-4.626763236690531
 30
0.0
 10
3.903982203885115
 20
-4.598857963260007
 30
0.0
 10
3.935677082349414
 20
-4.580598957188183
 30
0.0
 10
3.968405489459287
 20
-4.561650932019309
 30
0.0
 10
4.002856444311785
 20
-4.549248588272409
 30
0.0
 10
4.033173284581984
 20
-4.53822428271961
 30
0.0
 10
4.064523653497758
 20
-4.529956053555011
 30
0.0
 10
4.094495984219431
 20
-4.522032333938936
 30
0.0
 10
4.150651040629004
 20
-4.506873913803837
 30
0.0
 10
4.204050020650376
 20
-4.492749022314312
 30
0.0
 10
4.250214300152724
 20
-4.462776691592639
 30
0.0
 10
4.302579751528521
 20
-4.42901475583719
 30
0.0
 10
4.343576387802994
 20
-4.383539495431892
 30
0.0
 10
4.386984590917142
 20
-4.335308158638395
 30
0.0
 10
4.403865558794866
 20
-4.316704643018046
 30
0.0
 10
4.420746526672591
 20
-4.297756617849172
 30
0.0
 10
4.43797200409884
 20
-4.279842121325873
 30
0.0
 10
4.463810220238213
 20
-4.253659395637973
 30
0.0
 10
4.495505098702512
 20
-4.230921765435325
 30
0.0
 10
4.525821938972711
 20
-4.209217663878251
 30
0.0
 10
4.571297199378009
 20
-4.176489256768378
 30
0.0
 10
4.614360892943632
 20
-4.145827906949654
 30
0.0
 10
4.64054361863153
 20
-4.10276421338403
 30
0.0
 10
4.673961044838454
 20
-4.048331704717083
 30
0.0
 10
4.694287108201428
 20
-3.982185871400286
 30
0.0
 10
4.713924152467352
 20
-3.917762585826114
 30
0.0
 10
4.720814343437852
 20
-3.895369465171991
 30
0.0
 10
4.727704534408351
 20
-3.872976344517867
 30
0.0
 10
4.734939234927376
 20
-3.85109998818653
 30
0.0
 10
4.734939234927376
 20
-3.85109998818653
 30
0.0
 10
4.74699706912575
 20
-3.815443249914194
 30
0.0
 10
4.74699706912575
 20
-3.815443249914194
 30
0.0
 10
4.771457247071024
 20
-3.743440754272473
 30
0.0
 10
4.796606444113348
 20
-3.669026691791076
 30
0.0
 10
4.804530163729423
 20
-3.593062336341318
 30
0.0
 10
4.809697806957298
 20
-3.541902668385357
 30
0.0
 10
4.792816839079574
 20
-3.48953721700956
 30
0.0
 10
4.776624890298899
 20
-3.438722058602125
 30
0.0
 10
4.7656005847461
 20
-3.403582084652577
 30
0.0
 10
4.754231769644775
 20
-3.36723632728319
 30
0.0
 10
4.749408635965425
 20
-3.331062824688067
 30
0.0
 10
4.739762368606726
 20
-3.250964354656009
 30
0.0
 10
4.726326496214252
 20
-3.165181477073288
 30
0.0
 10
4.694976127298478
 20
-3.079398599490567
 30
0.0
 10
4.668448892062055
 20
-3.00705159430032
 30
0.0
 10
4.628830293981681
 20
-2.946073404211398
 30
0.0
 10
4.586800129061633
 20
-2.881650118637226
 30
0.0
 10
4.586800129061633
 20
-2.881650118637226
 30
0.0
 10
4.569574651635384
 20
-2.855295138175065
 30
0.0
 10
4.569574651635384
 20
-2.855295138175065
 30
0.0
 10
4.54855956917536
 20
-2.822566731065191
 30
0.0
 10
4.534090168137311
 20
-2.78518744505023
 30
0.0
 10
4.520309786196311
 20
-2.748841687680845
 30
0.0
 10
4.501017251478912
 20
-2.698198784047672
 30
0.0
 10
4.482758245407088
 20
-2.650139702028437
 30
0.0
 10
4.447962781006064
 20
-2.616205511498726
 30
0.0
 10
4.404210068343392
 20
-2.573486327481628
 30
0.0
 10
4.347021483288244
 20
-2.541619194243067
 30
0.0
 10
4.291555445975722
 20
-2.510957844424344
 30
0.0
 10
4.268817815773073
 20
-2.498210991128919
 30
0.0
 10
4.245735676021899
 20
-2.485636392607757
 30
0.0
 10
4.2236870649163
 20
-2.47202826544102
 30
0.0
 10
4.208528644781201
 20
-2.462898762405108
 30
0.0
 10
4.193370224646102
 20
-2.453252495046409
 30
0.0
 10
4.178211804511002
 20
-2.443606227687709
 30
0.0
 10
4.118956162164705
 20
-2.406054686898486
 30
0.0
 10
4.057633462527258
 20
-2.367297362689425
 30
0.0
 10
3.991143119661936
 20
-2.344904242035301
 30
0.0
 10
3.933265515509739
 20
-2.325611707317902
 30
0.0
 10
3.870909287226717
 20
-2.321649847509865
 30
0.0
 10
3.80476345390992
 20
-2.317515732927565
 30
0.0
 10
3.779097492544809
 20
-2.31579318518494
 30
0.0
 10
3.753431531179697
 20
-2.314242892216578
 30
0.0
 10
3.727937824588849
 20
-2.31165907060264
 30
0.0
 10
3.727937824588849
 20
-2.31165907060264
 30
0.0
 10
3.727937824588849
 20
-2.31165907060264
 30
0.0
 10
3.727937824588849
 20
-2.31165907060264
 30
0.0
 10
3.701238334578162
 20
-2.308902994214441
 30
0.0
 10
3.675055608890263
 20
-2.307869465568865
 30
0.0
 10
3.649045137976627
 20
-2.307869465568865
 30
0.0
  0
SPLINE
  5
80
330
70
100
AcDbEntity
  8
Outlines
100
AcDbSpline
210
0.0
220
0.0
230
1.0
 70
     9
 71
     3
 72
   161
 73
   157
 74
     0
 42
0.0000000001
 43
0.0000000001
 40
0.0
 40
0.0
 40
0.0
 40
0.0
 40
1.0
 40
1.0
 40
1.0
 40
2.0
 40
2.0
 40
2.0
 40
3.0
 40
3.0
 40
3.0
 40
4.0
 40
4.0
 40
4.0
 40
5.0
 40
5.0
 40
5.0
 40
6.0
 40
6.0
 40
6.0
 40
7.0
 40
7.0
 40
7.0
 40
8.0
 40
8.0
 40
8.0
 40
9.0
 40
9.0
 40
9.0
 40
10.0
 40
10.0
 40
10.0
 40
11.0
 40
11.0
 40
11.0
 40
12.0
 40
12.0
 40
12.0
 40
13.0
 40
13.0
 40
13.0
 40
14.0
 40
14.0
 40
14.0
 40
15.0
 40
15.0
 40
15.0
 40
16.0
 40
16.0
 40
16.0
 40
17.0
 40
17.0
 40
17.0
 40
18.0
 40
18.0
 40
18.0
 40
19.0
 40
19.0
 40
19.0
 40
20.0
 40
20.0
 40
20.0
 40
21.0
 40
21.0
 40
21.0
 40
22.0
 40
22.0
 40
22.0
 40
23.0
 40
23.0
 40
23.0
 40
24.0
 40
24.0
 40
24.0
 40
25.0
 40
25.0
 40
25.0
 40
26.0
 40
26.0
 40
26.0
 40
27.0
 40
27.0
 40
27.0
 40
28.0
 40
28.0
 40
28.0
 40
29.0
 40
29.0
 40
29.0
 40
30.0
 40
30.0
 40
30.0
 40
31.0
 40
31.0
 40
31.0
 40
32.0
 40
32.0
 40
32.0
 40
33.0
 40
33.0
 40
33.0
 40
34.0
 40
34.0
 40
34.0
 40
35.0
 40
35.0
 40
35.0
 40
36.0
 40
36.0
 40
36.0
 40
37.0
 40
37.0
 40
37.0
 40
38.0
 40
38.0
 40
38.0
 40
39.0
 40
39.0
 40
39.0
 40
40.0
 40
40.0
 40
40.0
 40
41.0
 40
41.0
 40
41.0
 40
42.0
 40
42.0
 40
42.0
 40
43.0
 40
43.0
 40
43.0
 40
44.0
 40
44.0
 40
44.0
 40
45.0
 40
45.0
 40
45.0
 40
46.0
 40
46.0
 40
46.0
 40
47.0
 40
47.0
 40
47.0
 40
48.0
 40
48.0
 40
48.0
 40
49.0
 40
49.0
 40
49.0
 40
50.0
 40
50.0
 40
50.0
 40
51.0
 40
51.0
 40
51.0
 40
52.0
 40
52.0
 40
52.0
 40
52.0
 10
3.552065700066844
 20
-4.712890623821777
 30
0.0
 10
3.530706108058295
 20
-4.712890623821777
 30
0.0
 10
3.509346516049746
 20
-4.711857095176202
 30
0.0
 10
3.487986924041198
 20
-4.709790037885052
 30
0.0
 10
3.423735893241288
 20
-4.703588866011602
 30
0.0
 10
3.363274467475153
 20
-4.678439668969279
 30
0.0
 10
3.304880099000169
 20
-4.65432400057253
 30
0.0
 10
3.27800835421522
 20
-4.64329969501973
 30
0.0
 10
3.251481118978796
 20
-4.632275389466931
 30
0.0
 10
3.224953883742372
 20
-4.623662650753806
 30
0.0
 10
3.152779133326388
 20
-4.599546982357058
 30
0.0
 10
3.059072536127593
 20
-4.565096027504559
 30
0.0
 10
2.975528970610284
 20
-4.514108614322862
 30
0.0
 10
2.921785481040386
 20
-4.481035697664463
 30
0.0
 10
2.879927570894601
 20
-4.434182399065065
 30
0.0
 10
2.839619953717178
 20
-4.388707138659768
 30
0.0
 10
2.820499673774041
 20
-4.367347546651219
 30
0.0
 10
2.800862629508117
 20
-4.34529893554562
 30
0.0
 10
2.780364311370881
 20
-4.325661891279695
 30
0.0
 10
2.756593152522657
 20
-4.302235241979996
 30
0.0
 10
2.729204643414921
 20
-4.282253688165547
 30
0.0
 10
2.700093586564559
 20
-4.261238605705523
 30
0.0
 10
2.653584797513687
 20
-4.22713216040155
 30
0.0
 10
2.605697970268714
 20
-4.192336696000527
 30
0.0
 10
2.574175346578678
 20
-4.143416340109979
 30
0.0
 10
2.54041341082323
 20
-4.091395398282706
 30
0.0
 10
2.523015678622718
 20
-4.030072698645259
 30
0.0
 10
2.506306965519256
 20
-3.970817056298962
 30
0.0
 10
2.498210991128919
 20
-3.942222763771388
 30
0.0
 10
2.489770507190057
 20
-3.912939452146765
 30
0.0
 10
2.479951985057095
 20
-3.885378688264766
 30
0.0
 10
2.456697590531659
 20
-3.821816676561907
 30
0.0
 10
2.450496418658209
 20
-3.754637314599535
 30
0.0
 10
2.444467501559022
 20
-3.689525009928313
 30
0.0
 10
2.442400444267872
 20
-3.666787379725664
 30
0.0
 10
2.440333386976722
 20
-3.64370523997449
 30
0.0
 10
2.437405055814259
 20
-3.620623100223316
 30
0.0
 10
2.434132215103272
 20
-3.593751355438367
 30
0.0
 10
2.428964571875397
 20
-3.567051865427681
 30
0.0
 10
2.423969183421785
 20
-3.54000786586847
 30
0.0
 10
2.412600368320461
 20
-3.480063204425123
 30
0.0
 10
2.400887043670611
 20
-3.418051485690626
 30
0.0
 10
2.407432725092586
 20
-3.353111435793666
 30
0.0
 10
2.414839680385873
 20
-3.277147080343907
 30
0.0
 10
2.439472113105409
 20
-3.207383896767598
 30
0.0
 10
2.463071017179371
 20
-3.139687770482439
 30
0.0
 10
2.46858316995577
 20
-3.124184840798815
 30
0.0
 10
2.473923067957908
 20
-3.108509656340928
 30
0.0
 10
2.479262965960045
 20
-3.092834471883041
 30
0.0
 10
2.489770507190057
 20
-3.061311848193005
 30
0.0
 10
2.496660698160557
 20
-3.026860893340507
 30
0.0
 10
2.503378634356794
 20
-2.993443467133583
 30
0.0
 10
2.514575194683856
 20
-2.936771646401223
 30
0.0
 10
2.526288519333705
 20
-2.878032768377714
 30
0.0
 10
2.556605359603904
 20
-2.828595648164379
 30
0.0
 10
2.597601995878377
 20
-2.761416286202007
 30
0.0
 10
2.654446071384999
 20
-2.690964083528648
 30
0.0
 10
2.730065917286233
 20
-2.613449435110526
 30
0.0
 10
2.783809406856131
 20
-2.558500162120791
 30
0.0
 10
2.850644259269977
 20
-2.516297742426481
 30
0.0
 10
2.915239799618412
 20
-2.47547336092627
 30
0.0
 10
2.915239799618412
 20
-2.47547336092627
 30
0.0
 10
2.952102321310585
 20
-2.452046711626571
 30
0.0
 10
2.952102321310585
 20
-2.452046711626571
 30
0.0
 10
3.006018065654745
 20
-2.417078992451286
 30
0.0
 10
3.067685274840717
 20
-2.398130967282411
 30
0.0
 10
3.127457681509802
 20
-2.379699706436325
 30
0.0
 10
3.153123642874913
 20
-2.37177598682025
 30
0.0
 10
3.17913411378855
 20
-2.363852267204175
 30
0.0
 10
3.204455565605136
 20
-2.354550509394001
 30
0.0
 10
3.277836099440957
 20
-2.327678764609052
 30
0.0
 10
3.366030543863353
 20
-2.298739962532954
 30
0.0
 10
3.462837726998873
 20
-2.286509873560317
 30
0.0
 10
3.547070311613232
 20
-2.276346841878829
 30
0.0
 10
3.636987303778253
 20
-2.26738959361718
 30
0.0
 10
3.731382920074098
 20
-2.276519096653092
 30
0.0
 10
3.756532117116422
 20
-2.279102918267029
 30
0.0
 10
3.781853568933009
 20
-2.280653211235392
 30
0.0
 10
3.807002765975332
 20
-2.282203504203754
 30
0.0
 10
3.872459580195079
 20
-2.286509873560317
 30
0.0
 10
3.940155706480238
 20
-2.290643988142616
 30
0.0
 10
4.002167425214736
 20
-2.311486815828378
 30
0.0
 10
4.072791882662357
 20
-2.335085719902339
 30
0.0
 10
4.136181639590954
 20
-2.3752210823055
 30
0.0
 10
4.197159829679876
 20
-2.413806151740298
 30
0.0
 10
4.212318249814976
 20
-2.423280164324735
 30
0.0
 10
4.22713216040155
 20
-2.432754176909172
 30
0.0
 10
4.242290580536649
 20
-2.442055934719347
 30
0.0
 10
4.263650172545198
 20
-2.455147297563296
 30
0.0
 10
4.286387802747847
 20
-2.467721896084458
 30
0.0
 10
4.308780923401971
 20
-2.480124239831357
 30
0.0
 10
4.366314018005644
 20
-2.511991373069919
 30
0.0
 10
4.425569660351941
 20
-2.544892034954054
 30
0.0
 10
4.472767468499863
 20
-2.591056314456402
 30
0.0
 10
4.513075085677287
 20
-2.630330402988251
 30
0.0
 10
4.53340114904026
 20
-2.68424614733241
 30
0.0
 10
4.55338270285471
 20
-2.736267089159683
 30
0.0
 10
4.567163084795709
 20
-2.772440591754806
 30
0.0
 10
4.580254447639658
 20
-2.80654703705878
 30
0.0
 10
4.599202472808532
 20
-2.836002603457666
 30
0.0
 10
4.599202472808532
 20
-2.836002603457666
 30
0.0
 10
4.616427950234782
 20
-2.862357583919827
 30
0.0
 10
4.616427950234782
 20
-2.862357583919827
 30
0.0
 10
4.659491643800405
 20
-2.928675672010886
 30
0.0
 10
4.700488280074877
 20
-2.991204155068171
 30
0.0
 10
4.728049043956876
 20
-3.067340765292192
 30
0.0
 10
4.760432941518224
 20
-3.156396483585901
 30
0.0
 10
4.774557833007749
 20
-3.244590928008296
 30
0.0
 10
4.784548609914974
 20
-3.326756455331505
 30
0.0
 10
4.788682724497274
 20
-3.359657117215641
 30
0.0
 10
4.799362520501548
 20
-3.392902288648302
 30
0.0
 10
4.810386826054347
 20
-3.42804226259785
 30
0.0
 10
4.827612303480597
 20
-3.482302516490535
 30
0.0
 10
4.845526800003896
 20
-3.538113063351583
 30
0.0
 10
4.839670137678971
 20
-3.596507431826567
 30
0.0
 10
4.831401908514371
 20
-3.676605901858626
 30
0.0
 10
4.805563692374998
 20
-3.75291476685691
 30
0.0
 10
4.780414495332673
 20
-3.826812065015519
 30
0.0
 10
4.780414495332673
 20
-3.826812065015519
 30
0.0
 10
4.768701170682825
 20
-3.862296548513592
 30
0.0
 10
4.768701170682825
 20
-3.862296548513592
 30
0.0
 10
4.761121960615275
 20
-3.884000650070666
 30
0.0
 10
4.7545762791933
 20
-3.906049261176265
 30
0.0
 10
4.747686088222801
 20
-3.928097872281864
 30
0.0
 10
4.727360024859827
 20
-3.994588215147186
 30
0.0
 10
4.706344942399803
 20
-4.063145615303658
 30
0.0
 10
4.670860458901729
 20
-4.12136772900438
 30
0.0
 10
4.640888128180056
 20
-4.170288084894927
 30
0.0
 10
4.592656791386557
 20
-4.204739039747426
 30
0.0
 10
4.546148002335685
 20
-4.237811956405825
 30
0.0
 10
4.515831162065486
 20
-4.259860567511424
 30
0.0
 10
4.486892359989388
 20
-4.280531140422922
 30
0.0
 10
4.463465710689689
 20
-4.304646808819671
 30
0.0
 10
4.44624023326344
 20
-4.322216795794446
 30
0.0
 10
4.429703774934241
 20
-4.340475801866269
 30
0.0
 10
4.413167316605041
 20
-4.358734807938094
 30
0.0
 10
4.370103623039418
 20
-4.406621635183067
 30
0.0
 10
4.325661891279695
 20
-4.455886500622139
 30
0.0
 10
4.269506834870123
 20
-4.492404512765787
 30
0.0
 10
4.218519421688426
 20
-4.525477429424186
 30
0.0
 10
4.159952798439178
 20
-4.54098035910781
 30
0.0
 10
4.103453232481081
 20
-4.555794269694384
 30
0.0
 10
4.074169920856458
 20
-4.563717989310459
 30
0.0
 10
4.043853080586258
 20
-4.571986218475059
 30
0.0
 10
4.01491427851016
 20
-4.582321504930808
 30
0.0
 10
3.983563909594387
 20
-4.594034829580658
 30
0.0
 10
3.953591578872713
 20
-4.611260307006907
 30
0.0
 10
3.921552190859889
 20
-4.629519313078731
 30
0.0
 10
3.872804089743604
 20
-4.65776909605778
 30
0.0
 10
3.822161186110432
 20
-4.687052407682403
 30
0.0
 10
3.76462809150676
 20
-4.694287108201428
 30
0.0
 10
3.76462809150676
 20
-4.694287108201428
 30
0.0
 10
3.741718206529848
 20
-4.697043184589627
 30
0.0
 10
3.741718206529848
 20
-4.697043184589627
 30
0.0
 10
3.679534233021088
 20
-4.704966904205702
 30
0.0
 10
3.615799966543966
 20
-4.712890623821777
 30
0.0
 10
3.552065700066844
 20
-4.712890623821777
 30
0.0
  0
HATCH
  5
81
330
70
100
AcDbEntity
  8
Outlines
 62
   250
420
  2301728
440
 33554687
100
AcDbHatch
 10
0.0
 20
0.0
 30
0.0
210
0.0
220
0.0
230
1.0
  2
SOLID
 70
     1
 71
     1
 91
        2
 92
        1
 93
        1
 72
     4
 94
        3
 73
     0
 74
     0
 95
      164
 96
      160
 40
0.0
 40
0.0
 40
0.0
 40
0.0
 40
1.0
 40
1.0
 40
1.0
 40
2.0
 40
2.0
 40
2.0
 40
3.0
 40
3.0
 40
3.0
 40
4.0
 40
4.0
 40
4.0
 40
5.0
 40
5.0
 40
5.0
 40
6.0
 40
6.0
 40
6.0
 40
7.0
 40
7.0
 40
7.0
 40
8.0
 40
8.0
 40
8.0
 40
9.0
 40
9.0
 40
9.0
 40
10.0
 40
10.0
 40
10.0
 40
11.0
 40
11.0
 40
11.0
 40
12.0
 40
12.0
 40
12.0
 40
13.0
 40
13.0
 40
13.0
 40
14.0
 40
14.0
 40
14.0
 40
15.0
 40
15.0
 40
15.0
 40
16.0
 40
16.0
 40
16.0
 40
17.0
 40
17.0
 40
17.0
 40
18.0
 40
18.0
 40
18.0
 40
19.0
 40
19.0
 40
19.0
 40
20.0
 40
20.0
 40
20.0
 40
21.0
 40
21.0
 40
21.0
 40
22.0
 40
22.0
 40
22.0
 40
23.0
 40
23.0
 40
23.0
 40
24.0
 40
24.0
 40
24.0
 40
25.0
 40
25.0
 40
25.0
 40
26.0
 40
26.0
 40
26.0
 40
27.0
 40
27.0
 40
27.0
 40
28.0
 40
28.0
 40
28.0
 40
29.0
 40
29.0
 40
29.0
 40
30.0
 40
30.0
 40
30.0
 40
31.0
 40
31.0
 40
31.0
 40
32.0
 40
32.0
 40
32.0
 40
33.0
 40
33.0
 40
33.0
 40
34.0
 40
34.0
 40
34.0
 40
35.0
 40
35.0
 40
35.0
 40
36.0
 40
36.0
 40
36.0
 40
37.0
 40
37.0
 40
37.0
 40
38.0
 40
38.0
 40
38.0
 40
39.0
 40
39.0
 40
39.0
 40
40.0
 40
40.0
 40
40.0
 40
41.0
 40
41.0
 40
41.0
 40
42.0
 40
42.0
 40
42.0
 40
43.0
 40
43.0
 40
43.0
 40
44.0
 40
44.0
 40
44.0
 40
45.0
 40
45.0
 40
45.0
 40
46.0
 40
46.0
 40
46.0
 40
47.0
 40
47.0
 40
47.0
 40
48.0
 40
48.0
 40
48.0
 40
49.0
 40
49.0
 40
49.0
 40
50.0
 40
50.0
 40
50.0
 40
51.0
 40
51.0
 40
51.0
 40
52.0
 40
52.0
 40
52.0
 40
53.0
 40
53.0
 40
53.0
 40
53.0
 10
3.649045137976627
 20
-2.307869465568865
 10
3.586172145370818
 20
-2.307869465568865
 10
3.525193955281896
 20
-2.31441514699084
 10
3.467144096355436
 20
-2.321649847509865
 10
3.373782008705165
 20
-2.333190917385452
 10
3.288171385896707
 20
-2.361440700364501
 10
3.21651339980351
 20
-2.387623426052399
 10
3.190675183664136
 20
-2.397097438636836
 10
3.164147948427713
 20
-2.405365667801436
 10
3.137792967965551
 20
-2.413461642191773
 10
3.077676051747942
 20
-2.43189290303786
 10
3.021004231015582
 20
-2.449462890012634
 10
2.971222601253722
 20
-2.48167453279972
 10
2.971222601253722
 20
-2.48167453279972
 10
2.934015570013023
 20
-2.505273436873681
 10
2.934015570013023
 20
-2.505273436873681
 10
2.871142577407214
 20
-2.545064289728317
 10
2.806202527510254
 20
-2.58606092600279
 10
2.755215114328557
 20
-2.638254122604325
 10
2.681490070944211
 20
-2.713701713731297
 10
2.626368543180213
 20
-2.782086859113506
 10
2.586577690325577
 20
-2.847026909010465
 10
2.559705945540629
 20
-2.891124131221663
 10
2.549026149536354
 20
-2.944178601694511
 10
2.538001843983554
 20
-3.000333658104083
 10
2.531111653013055
 20
-3.034784612956581
 10
2.524049207268293
 20
-3.070441351228917
 10
2.512680392166968
 20
-3.104203286984366
 10
2.507340494164831
 20
-3.119878471442252
 10
2.501828341388431
 20
-3.135553655900139
 10
2.496316188612031
 20
-3.151401095132288
 10
2.47340630363512
 20
-3.217030164126298
 10
2.449635144786896
 20
-3.284898545185719
 10
2.442572699042134
 20
-3.356556531278916
 10
2.436543781942947
 20
-3.416501192722263
 10
2.447740342270009
 20
-3.475929089842823
 10
2.458592393048546
 20
-3.533462184446495
 10
2.463760036276421
 20
-3.561195203102756
 10
2.469099934278558
 20
-3.588755966984755
 10
2.472545029763808
 20
-3.616316730866754
 10
2.475301106152008
 20
-3.639915634940715
 10
2.47754041821742
 20
-3.663170029466152
 10
2.47960747550857
 20
-3.686252169217326
 10
2.485636392607757
 20
-3.752053492985597
 10
2.491320800158419
 20
-3.814065211720095
 10
2.513024901715493
 20
-3.873320854066392
 10
2.523532442945505
 20
-3.901915146593965
 10
2.531972926884368
 20
-3.931887477315639
 10
2.540241156048967
 20
-3.961170788940263
 10
2.556260850055379
 20
-4.018014864446885
 10
2.572797308384578
 20
-4.076581487696132
 10
2.603803167751827
 20
-4.12412380539258
 10
2.63170844118235
 20
-4.167532008506728
 10
2.675116644296498
 20
-4.199226886971026
 10
2.720936414250321
 20
-4.232644313177949
 10
2.749702961552157
 20
-4.253659395637973
 10
2.779503037499568
 20
-4.275363497195048
 10
2.805168998864679
 20
-4.300168184688846
 10
2.826356336098966
 20
-4.321183267148871
 10
2.846510144687678
 20
-4.343576387802994
 10
2.865802679405076
 20
-4.365280489360069
 10
2.906454806131025
 20
-4.410755749765367
 10
2.944695366017298
 20
-4.453819443330989
 10
2.993960231456371
 20
-4.483791774052662
 10
3.074575465811217
 20
-4.53340114904026
 10
3.165698241396075
 20
-4.566474065698659
 10
3.236150444069434
 20
-4.589900714998358
 10
3.263538953177171
 20
-4.599202472808532
 10
3.291444226607694
 20
-4.610571287909857
 10
3.318315971392643
 20
-4.621940103011182
 10
3.374298773027953
 20
-4.645022242762355
 10
3.432348631954412
 20
-4.668793401610579
 10
3.491432019526447
 20
-4.674650063935504
 10
3.572219508655556
 20
-4.683262802648629
 10
3.656107583721389
 20
-4.672583006644354
 10
3.737411837173286
 20
-4.66190321064008
 10
3.737411837173286
 20
-4.66190321064008
 10
3.760321722150197
 20
-4.659147134251879
 10
3.760321722150197
 20
-4.659147134251879
 10
3.810792371009107
 20
-4.65294596237843
 10
3.856095376640142
 20
-4.626763236690531
 10
3.903982203885115
 20
-4.598857963260007
 10
3.935677082349414
 20
-4.580598957188183
 10
3.968405489459287
 20
-4.561650932019309
 10
4.002856444311785
 20
-4.549248588272409
 10
4.033173284581984
 20
-4.53822428271961
 10
4.064523653497758
 20
-4.529956053555011
 10
4.094495984219431
 20
-4.522032333938936
 10
4.150651040629004
 20
-4.506873913803837
 10
4.204050020650376
 20
-4.492749022314312
 10
4.250214300152724
 20
-4.462776691592639
 10
4.302579751528521
 20
-4.42901475583719
 10
4.343576387802994
 20
-4.383539495431892
 10
4.386984590917142
 20
-4.335308158638395
 10
4.403865558794866
 20
-4.316704643018046
 10
4.420746526672591
 20
-4.297756617849172
 10
4.43797200409884
 20
-4.279842121325873
 10
4.463810220238213
 20
-4.253659395637973
 10
4.495505098702512
 20
-4.230921765435325
 10
4.525821938972711
 20
-4.209217663878251
 10
4.571297199378009
 20
-4.176489256768378
 10
4.614360892943632
 20
-4.145827906949654
 10
4.64054361863153
 20
-4.10276421338403
 10
4.673961044838454
 20
-4.048331704717083
 10
4.694287108201428
 20
-3.982185871400286
 10
4.713924152467352
 20
-3.917762585826114
 10
4.720814343437852
 20
-3.895369465171991
 10
4.727704534408351
 20
-3.872976344517867
 10
4.734939234927376
 20
-3.85109998818653
 10
4.734939234927376
 20
-3.85109998818653
 10
4.74699706912575
 20
-3.815443249914194
 10
4.74699706912575
 20
-3.815443249914194
 10
4.771457247071024
 20
-3.743440754272473
 10
4.796606444113348
 20
-3.669026691791076
 10
4.804530163729423
 20
-3.593062336341318
 10
4.809697806957298
 20
-3.541902668385357
 10
4.792816839079574
 20
-3.48953721700956
 10
4.776624890298899
 20
-3.438722058602125
 10
4.7656005847461
 20
-3.403582084652577
 10
4.754231769644775
 20
-3.36723632728319
 10
4.749408635965425
 20
-3.331062824688067
 10
4.739762368606726
 20
-3.250964354656009
 10
4.726326496214252
 20
-3.165181477073288
 10
4.694976127298478
 20
-3.079398599490567
 10
4.668448892062055
 20
-3.00705159430032
 10
4.628830293981681
 20
-2.946073404211398
 10
4.586800129061633
 20
-2.881650118637226
 10
4.586800129061633
 20
-2.881650118637226
 10
4.569574651635384
 20
-2.855295138175065
 10
4.569574651635384
 20
-2.855295138175065
 10
4.54855956917536
 20
-2.822566731065191
 10
4.534090168137311
 20
-2.78518744505023
 10
4.520309786196311
 20
-2.748841687680845
 10
4.501017251478912
 20
-2.698198784047672
 10
4.482758245407088
 20
-2.650139702028437
 10
4.447962781006064
 20
-2.616205511498726
 10
4.404210068343392
 20
-2.573486327481628
 10
4.347021483288244
 20
-2.541619194243067
 10
4.291555445975722
 20
-2.510957844424344
 10
4.268817815773073
 20
-2.498210991128919
 10
4.245735676021899
 20
-2.485636392607757
 10
4.2236870649163
 20
-2.47202826544102
 10
4.208528644781201
 20
-2.462898762405108
 10
4.193370224646102
 20
-2.453252495046409
 10
4.178211804511002
 20
-2.443606227687709
 10
4.118956162164705
 20
-2.406054686898486
 10
4.057633462527258
 20
-2.367297362689425
 10
3.991143119661936
 20
-2.344904242035301
 10
3.933265515509739
 20
-2.325611707317902
 10
3.870909287226717
 20
-2.321649847509865
 10
3.80476345390992
 20
-2.317515732927565
 10
3.779097492544809
 20
-2.31579318518494
 10
3.753431531179697
 20
-2.314242892216578
 10
3.727937824588849
 20
-2.31165907060264
 10
3.727937824588849
 20
-2.31165907060264
 10
3.727937824588849
 20
-2.31165907060264
 10
3.727937824588849
 20
-2.31165907060264
 10
3.701238334578162
 20
-2.308902994214441
 10
3.675055608890263
 20
-2.307869465568865
 10
3.649045137976627
 20
-2.307869465568865
 97
        0
 97
        1
330
7F
 92
        1
 93
        1
 72
     4
 94
        3
 73
     0
 74
     0
 95
      161
 96
      157
 40
0.0
 40
0.0
 40
0.0
 40
0.0
 40
1.0
 40
1.0
 40
1.0
 40
2.0
 40
2.0
 40
2.0
 40
3.0
 40
3.0
 40
3.0
 40
4.0
 40
4.0
 40
4.0
 40
5.0
 40
5.0
 40
5.0
 40
6.0
 40
6.0
 40
6.0
 40
7.0
 40
7.0
 40
7.0
 40
8.0
 40
8.0
 40
8.0
 40
9.0
 40
9.0
 40
9.0
 40
10.0
 40
10.0
 40
10.0
 40
11.0
 40
11.0
 40
11.0
 40
12.0
 40
12.0
 40
12.0
 40
13.0
 40
13.0
 40
13.0
 40
14.0
 40
14.0
 40
14.0
 40
15.0
 40
15.0
 40
15.0
 40
16.0
 40
16.0
 40
16.0
 40
17.0
 40
17.0
 40
17.0
 40
18.0
 40
18.0
 40
18.0
 40
19.0
 40
19.0
 40
19.0
 40
20.0
 40
20.0
 40
20.0
 40
21.0
 40
21.0
 40
21.0
 40
22.0
 40
22.0
 40
22.0
 40
23.0
 40
23.0
 40
23.0
 40
24.0
 40
24.0
 40
24.0
 40
25.0
 40
25.0
 40
25.0
 40
26.0
 40
26.0
 40
26.0
 40
27.0
 40
27.0
 40
27.0
 40
28.0
 40
28.0
 40
28.0
 40
29.0
 40
29.0
 40
29.0
 40
30.0
 40
30.0
 40
30.0
 40
31.0
 40
31.0
 40
31.0
 40
32.0
 40
32.0
 40
32.0
 40
33.0
 40
33.0
 40
33.0
 40
34.0
 40
34.0
 40
34.0
 40
35.0
 40
35.0
 40
35.0
 40
36.0
 40
36.0
 40
36.0
 40
37.0
 40
37.0
 40
37.0
 40
38.0
 40
38.0
 40
38.0
 40
39.0
 40
39.0
 40
39.0
 40
40.0
 40
40.0
 40
40.0
 40
41.0
 40
41.0
 40
41.0
 40
42.0
 40
42.0
 40
42.0
 40
43.0
 40
43.0
 40
43.0
 40
44.0
 40
44.0
 40
44.0
 40
45.0
 40
45.0
 40
45.0
 40
46.0
 40
46.0
 40
46.0
 40
47.0
 40
47.0
 40
47.0
 40
48.0
 40
48.0
 40
48.0
 40
49.0
 40
49.0
 40
49.0
 40
50.0
 40
50.0
 40
50.0
 40
51.0
 40
51.0
 40
51.0
 40
52.0
 40
52.0
 40
52.0
 40
52.0
 10
3.552065700066844
 20
-4.712890623821777
 10
3.530706108058295
 20
-4.712890623821777
 10
3.509346516049746
 20
-4.711857095176202
 10
3.487986924041198
 20
-4.709790037885052
 10
3.423735893241288
 20
-4.703588866011602
 10
3.363274467475153
 20
-4.678439668969279
 10
3.304880099000169
 20
-4.65432400057253
 10
3.27800835421522
 20
-4.64329969501973
 10
3.251481118978796
 20
-4.632275389466931
 10
3.224953883742372
 20
-4.623662650753806
 10
3.152779133326388
 20
-4.599546982357058
 10
3.059072536127593
 20
-4.565096027504559
 10
2.975528970610284
 20
-4.514108614322862
 10
2.921785481040386
 20
-4.481035697664463
 10
2.879927570894601
 20
-4.434182399065065
 10
2.839619953717178
 20
-4.388707138659768
 10
2.820499673774041
 20
-4.367347546651219
 10
2.800862629508117
 20
-4.34529893554562
 10
2.780364311370881
 20
-4.325661891279695
 10
2.756593152522657
 20
-4.302235241979996
 10
2.729204643414921
 20
-4.282253688165547
 10
2.700093586564559
 20
-4.261238605705523
 10
2.653584797513687
 20
-4.22713216040155
 10
2.605697970268714
 20
-4.192336696000527
 10
2.574175346578678
 20
-4.143416340109979
 10
2.54041341082323
 20
-4.091395398282706
 10
2.523015678622718
 20
-4.030072698645259
 10
2.506306965519256
 20
-3.970817056298962
 10
2.498210991128919
 20
-3.942222763771388
 10
2.489770507190057
 20
-3.912939452146765
 10
2.479951985057095
 20
-3.885378688264766
 10
2.456697590531659
 20
-3.821816676561907
 10
2.450496418658209
 20
-3.754637314599535
 10
2.444467501559022
 20
-3.689525009928313
 10
2.442400444267872
 20
-3.666787379725664
 10
2.440333386976722
 20
-3.64370523997449
 10
2.437405055814259
 20
-3.620623100223316
 10
2.434132215103272
 20
-3.593751355438367
 10
2.428964571875397
 20
-3.567051865427681
 10
2.423969183421785
 20
-3.54000786586847
 10
2.412600368320461
 20
-3.480063204425123
 10
2.400887043670611
 20
-3.418051485690626
 10
2.407432725092586
 20
-3.353111435793666
 10
2.414839680385873
 20
-3.277147080343907
 10
2.439472113105409
 20
-3.207383896767598
 10
2.463071017179371
 20
-3.139687770482439
 10
2.46858316995577
 20
-3.124184840798815
 10
2.473923067957908
 20
-3.108509656340928
 10
2.479262965960045
 20
-3.092834471883041
 10
2.489770507190057
 20
-3.061311848193005
 10
2.496660698160557
 20
-3.026860893340507
 10
2.503378634356794
 20
-2.993443467133583
 10
2.514575194683856
 20
-2.936771646401223
 10
2.526288519333705
 20
-2.878032768377714
 10
2.556605359603904
 20
-2.828595648164379
 10
2.597601995878377
 20
-2.761416286202007
 10
2.654446071384999
 20
-2.690964083528648
 10
2.730065917286233
 20
-2.613449435110526
 10
2.783809406856131
 20
-2.558500162120791
 10
2.850644259269977
 20
-2.516297742426481
 10
2.915239799618412
 20
-2.47547336092627
 10
2.915239799618412
 20
-2.47547336092627
 10
2.952102321310585
 20
-2.452046711626571
 10
2.952102321310585
 20
-2.452046711626571
 10
3.006018065654745
 20
-2.417078992451286
 10
3.067685274840717
 20
-2.398130967282411
 10
3.127457681509802
 20
-2.379699706436325
 10
3.153123642874913
 20
-2.37177598682025
 10
3.17913411378855
 20
-2.363852267204175
 10
3.204455565605136
 20
-2.354550509394001
 10
3.277836099440957
 20
-2.327678764609052
 10
3.366030543863353
 20
-2.298739962532954
 10
3.462837726998873
 20
-2.286509873560317
 10
3.547070311613232
 20
-2.276346841878829
 10
3.636987303778253
 20
-2.26738959361718
 10
3.731382920074098
 20
-2.276519096653092
 10
3.756532117116422
 20
-2.279102918267029
 10
3.781853568933009
 20
-2.280653211235392
 10
3.807002765975332
 20
-2.282203504203754
 10
3.872459580195079
 20
-2.286509873560317
 10
3.940155706480238
 20
-2.290643988142616
 10
4.002167425214736
 20
-2.311486815828378
 10
4.072791882662357
 20
-2.335085719902339
 10
4.136181639590954
 20
-2.3752210823055
 10
4.197159829679876
 20
-2.413806151740298
 10
4.212318249814976
 20
-2.423280164324735
 10
4.22713216040155
 20
-2.432754176909172
 10
4.242290580536649
 20
-2.442055934719347
 10
4.263650172545198
 20
-2.455147297563296
 10
4.286387802747847
 20
-2.467721896084458
 10
4.308780923401971
 20
-2.480124239831357
 10
4.366314018005644
 20
-2.511991373069919
 10
4.425569660351941
 20
-2.544892034954054
 10
4.472767468499863
 20
-2.591056314456402
 10
4.513075085677287
 20
-2.630330402988251
 10
4.53340114904026
 20
-2.68424614733241
 10
4.55338270285471
 20
-2.736267089159683
 10
4.567163084795709
 20
-2.772440591754806
 10
4.580254447639658
 20
-2.80654703705878
 10
4.599202472808532
 20
-2.836002603457666
 10
4.599202472808532
 20
-2.836002603457666
 10
4.616427950234782
 20
-2.862357583919827
 10
4.616427950234782
 20
-2.862357583919827
 10
4.659491643800405
 20
-2.928675672010886
 10
4.700488280074877
 20
-2.991204155068171
 10
4.728049043956876
 20
-3.067340765292192
 10
4.760432941518224
 20
-3.156396483585901
 10
4.774557833007749
 20
-3.244590928008296
 10
4.784548609914974
 20
-3.326756455331505
 10
4.788682724497274
 20
-3.359657117215641
 10
4.799362520501548
 20
-3.392902288648302
 10
4.810386826054347
 20
-3.42804226259785
 10
4.827612303480597
 20
-3.482302516490535
 10
4.845526800003896
 20
-3.538113063351583
 10
4.839670137678971
 20
-3.596507431826567
 10
4.831401908514371
 20
-3.676605901858626
 10
4.805563692374998
 20
-3.75291476685691
 10
4.780414495332673
 20
-3.826812065015519
 10
4.780414495332673
 20
-3.826812065015519
 10
4.768701170682825
 20
-3.862296548513592
 10
4.768701170682825
 20
-3.862296548513592
 10
4.761121960615275
 20
-3.884000650070666
 10
4.7545762791933
 20
-3.906049261176265
 10
4.747686088222801
 20
-3.928097872281864
 10
4.727360024859827
 20
-3.994588215147186
 10
4.706344942399803
 20
-4.063145615303658
 10
4.670860458901729
 20
-4.12136772900438
 10
4.640888128180056
 20
-4.170288084894927
 10
4.592656791386557
 20
-4.204739039747426
 10
4.546148002335685
 20
-4.237811956405825
 10
4.515831162065486
 20
-4.259860567511424
 10
4.486892359989388
 20
-4.280531140422922
 10
4.463465710689689
 20
-4.304646808819671
 10
4.44624023326344
 20
-4.322216795794446
 10
4.429703774934241
 20
-4.340475801866269
 10
4.413167316605041
 20
-4.358734807938094
 10
4.370103623039418
 20
-4.406621635183067
 10
4.325661891279695
 20
-4.455886500622139
 10
4.269506834870123
 20
-4.492404512765787
 10
4.218519421688426
 20
-4.525477429424186
 10
4.159952798439178
 20
-4.54098035910781
 10
4.103453232481081
 20
-4.555794269694384
 10
4.074169920856458
 20
-4.563717989310459
 10
4.043853080586258
 20
-4.571986218475059
 10
4.01491427851016
 20
-4.582321504930808
 10
3.983563909594387
 20
-4.594034829580658
 10
3.953591578872713
 20
-4.611260307006907
 10
3.921552190859889
 20
-4.629519313078731
 10
3.872804089743604
 20
-4.65776909605778
 10
3.822161186110432
 20
-4.687052407682403
 10
3.76462809150676
 20
-4.694287108201428
 10
3.76462809150676
 20
-4.694287108201428
 10
3.741718206529848
 20
-4.697043184589627
 10
3.741718206529848
 20
-4.697043184589627
 10
3.679534233021088
 20
-4.704966904205702
 10
3.615799966543966
 20
-4.712890623821777
 10
3.552065700066844
 20
-4.712890623821777
 97
        0
 97
        1
330
80
 75
     2
 76
     1
 98
        1
 10
0.0
 20
0.0
450
        0
451
        0
460
0.0
461
0.0
452
        0
462
0.0
453
        0
470

  0
ENDSEC
  0
SECTION
  2
OBJECTS
  0
DICTIONARY
  5
C
330
0
100
AcDbDictionary
281
     1
  3
ACAD_COLOR
350
63
  3
ACAD_DETAILVIEWSTYLE
350
6A
  3
ACAD_GROUP
350
D
  3
ACAD_LAYOUT
350
62
  3
ACAD_MATERIAL
350
10
  3
ACAD_MLEADERSTYLE
350
66
  3
ACAD_MLINESTYLE
350
5F
  3
ACAD_PLOTSETTINGS
350
61
  3
ACAD_PLOTSTYLENAME
350
E
  3
ACAD_SCALELIST
350
42
  3
ACAD_SECTIONVIEWSTYLE
350
68
  3
ACAD_TABLESTYLE
350
64
  3
ACAD_VISUALSTYLE
350
29
  3
ACDB_RECOMPOSE_DATA
350
8A
  3
AcDbVariableDictionary
350
82
  0
DICTIONARY
  5
63
102
{ACAD_REACTORS
330
C
102
}
330
C
100
AcDbDictionary
281
     1
  0
DICTIONARY
  5
6A
102
{ACAD_REACTORS
330
C
102
}
330
C
100
AcDbDictionary
281
     1
  3
Imperial24
350
6B
  0
DICTIONARY
  5
D
102
{ACAD_REACTORS
330
C
102
}
330
C
100
AcDbDictionary
281
     1
  0
DICTIONARY
  5
62
102
{ACAD_REACTORS
330
C
102
}
330
C
100
AcDbDictionary
281
     1
  3
Layout1
350
6F
  3
Layout2
350
77
  3
Model
350
73
  0
DICTIONARY
  5
10
102
{ACAD_REACTORS
330
C
102
}
330
C
100
AcDbDictionary
281
     1
  3
ByBlock
350
19
  3
ByLayer
350
11
  3
Global
350
21
  0
DICTIONARY
  5
66
102
{ACAD_REACTORS
330
C
102
}
330
C
100
AcDbDictionary
281
     1
  3
Standard
350
67
  0
DICTIONARY
  5
5F
102
{ACAD_REACTORS
330
C
102
}
330
C
100
AcDbDictionary
281
     1
  3
Standard
350
60
  0
DICTIONARY
  5
61
102
{ACAD_REACTORS
330
C
102
}
330
C
100
AcDbDictionary
281
     1
  0
ACDBDICTIONARYWDFLT
  5
E
102
{ACAD_REACTORS
330
C
102
}
330
C
100
AcDbDictionary
281
     1
  3
Normal
350
F
100
AcDbDictionaryWithDefault
340
F
  0
DICTIONARY
  5
42
102
{ACAD_REACTORS
330
C
102
}
330
C
100
AcDbDictionary
281
     1
  3
A0
350
43
  3
A1
350
44
  3
A2
350
45
  3
A3
350
46
  3
A4
350
47
  3
A5
350
48
  3
A6
350
49
  3
A7
350
4A
  3
A8
350
4B
  3
A9
350
4C
  3
B0
350
4D
  3
B1
350
4E
  3
B2
350
4F
  3
B3
350
50
  3
B4
350
51
  3
B5
350
52
  3
B6
350
53
  0
DICTIONARY
  5
68
102
{ACAD_REACTORS
330
C
102
}
330
C
100
AcDbDictionary
281
     1
  3
Imperial24
350
69
  0
DICTIONARY
  5
64
102
{ACAD_REACTORS
330
C
102
}
330
C
100
AcDbDictionary
281
     1
  3
Standard
350
65
  0
DICTIONARY
  5
29
102
{ACAD_REACTORS
330
C
102
}
330
C
100
AcDbDictionary
281
     1
  3
2dWireframe
350
2F
  3
Basic
350
2E
  3
Brighten
350
35
  3
ColorChange
350
39
  3
Conceptual
350
32
  3
Dim
350
34
  3
EdgeColorOff
350
41
  3
Facepattern
350
38
  3
Flat
350
2A
  3
FlatWithEdges
350
2B
  3
Gouraud
350
2C
  3
GouraudWithEdges
350
2D
  3
Hidden
350
31
  3
JitterOff
350
3F
  3
Linepattern
350
37
  3
OverhangOff
350
40
  3
Realistic
350
33
  3
Shaded
350
3E
  3
Shaded with edges
350
3D
  3
Shades of Gray
350
3A
  3
Sketchy
350
3B
  3
Thicken
350
36
  3
Wireframe
350
30
  3
X-Ray
350
3C
  0
XRECORD
  5
8A
102
{ACAD_REACTORS
330
C
102
}
330
C
100
AcDbXrecord
280
     1
 90
        1
330
65
  0
DICTIONARY
  5
82
102
{ACAD_REACTORS
330
C
102
}
330
C
100
AcDbDictionary
281
     1
  3
CANNOSCALE
350
87
  3
CMLEADERSTYLE
350
84
  3
CTABLESTYLE
350
83
  3
CVIEWDETAILSTYLE
350
85
  3
CVIEWSECTIONSTYLE
350
86
  0
ACDBDETAILVIEWSTYLE
  5
6B
102
{ACAD_REACTORS
330
6A
102
}
330
6A
100
AcDbModelDocViewStyle
 70
     0
  3
Imperial24
290
     1
300
Imperial24
 90
        0
100
AcDbDetailViewStyle
 70
     0
 71
     0
 90
        3
 71
     1
340
55
 62
   256
 40
0.24
340
0
 62
   256
 40
0.24
300

 40
0.36
280
     3
 71
     2
340
5D
 90
       25
 62
   256
 71
     3
340
55
 62
   256
 40
0.24
 90
        1
 40
0.75
 90
        1
300
%<\AcVar ViewType \f "%tc1">% %<\AcVar ViewDetailId>%\PSCALE %<\AcVar ViewScale \f "%sn">%
 71
     4
340
5D
 90
       25
 62
   256
340
5D
 90
       25
 62
   256
280
     0
  0
LAYOUT
  5
6F
102
{ACAD_REACTORS
330
62
102
}
330
62
100
AcDbPlotSettings
  1

  2

  4

  6

 40
0.0
 41
0.0
 42
0.0
 43
0.0
 44
0.0
 45
0.0
 46
0.0
 47
0.0
 48
0.0
 49
0.0
140
0.0
141
0.0
142
1.0
143
1.0
 70
   688
 72
     0
 73
     0
 74
     5
  7

 75
    16
147
1.0
 76
     0
 77
     2
 78
   300
148
0.0
149
0.0
100
AcDbLayout
  1
Layout1
 70
     1
 71
     1
 10
0.0
 20
0.0
 11
12.0
 21
9.0
 12
0.0
 22
0.0
 32
0.0
 14
0.0
 24
0.0
 34
0.0
 15
0.0
 25
0.0
 35
0.0
146
0.0
 13
0.0
 23
0.0
 33
0.0
 16
1.0
 26
0.0
 36
0.0
 17
0.0
 27
1.0
 37
0.0
 76
     0
330
6C
  0
LAYOUT
  5
77
102
{ACAD_REACTORS
330
62
102
}
330
62
100
AcDbPlotSettings
  1

  2

  4

  6

 40
0.0
 41
0.0
 42
0.0
 43
0.0
 44
0.0
 45
0.0
 46
0.0
 47
0.0
 48
0.0
 49
0.0
140
0.0
141
0.0
142
1.0
143
1.0
 70
   688
 72
     0
 73
     0
 74
     5
  7

 75
    16
147
1.0
 76
     0
 77
     2
 78
   300
148
0.0
149
0.0
100
AcDbLayout
  1
Layout2
 70
     1
 71
     2
 10
0.0
 20
0.0
 11
12.0
 21
9.0
 12
0.0
 22
0.0
 32
0.0
 14
0.0
 24
0.0
 34
0.0
 15
0.0
 25
0.0
 35
0.0
146
0.0
 13
0.0
 23
0.0
 33
0.0
 16
1.0
 26
0.0
 36
0.0
 17
0.0
 27
1.0
 37
0.0
 76
     0
330
74
  0
LAYOUT
  5
73
102
{ACAD_REACTORS
330
62
102
}
330
62
100
AcDbPlotSettings
  1

  2

  4

  6

 40
0.0
 41
0.0
 42
0.0
 43
0.0
 44
0.0
 45
0.0
 46
0.0
 47
0.0
 48
0.0
 49
0.0
140
0.0
141
0.0
142
1.0
143
1.0
 70
  1712
 72
     0
 73
     0
 74
     0
  7

 75
     0
147
1.0
 76
     0
 77
     2
 78
   300
148
0.0
149
0.0
100
AcDbLayout
  1
Model
 70
     1
 71
     0
 10
0.0
 20
0.0
 11
12.0
 21
9.0
 12
0.0
 22
0.0
 32
0.0
 14
0.0
 24
0.0
 34
0.0
 15
0.0
 25
0.0
 35
0.0
146
0.0
 13
0.0
 23
0.0
 33
0.0
 16
1.0
 26
0.0
 36
0.0
 17
0.0
 27
1.0
 37
0.0
 76
     0
330
70
  0
MATERIAL
  5
19
102
{ACAD_XDICTIONARY
360
1A
102
}
102
{ACAD_REACTORS
330
10
102
}
330
10
100
AcDbMaterial
  1
ByBlock
 72
     0
 43
0.0208333333333333
 43
0.0
 43
0.0
 43
0.0
 43
0.0
 43
0.0208333333333333
 43
0.0
 43
0.0
 43
0.0
 43
0.0
 43
1.0
 43
0.0
 43
0.0
 43
0.0
 43
0.0
 43
1.0
 77
     0
 47
0.0208333333333333
 47
0.0
 47
0.0
 47
0.0
 47
0.0
 47
0.0208333333333333
 47
0.0
 47
0.0
 47
0.0
 47
0.0
 47
1.0
 47
0.0
 47
0.0
 47
0.0
 47
0.0
 47
1.0
171
     0
 49
0.0208333333333333
 49
0.0
 49
0.0
 49
0.0
 49
0.0
 49
0.0208333333333333
 49
0.0
 49
0.0
 49
0.0
 49
0.0
 49
1.0
 49
0.0
 49
0.0
 49
0.0
 49
0.0
 49
1.0
175
     0
142
0.0208333333333333
142
0.0
142
0.0
142
0.0
142
0.0
142
0.0208333333333333
142
0.0
142
0.0
142
0.0
142
0.0
142
1.0
142
0.0
142
0.0
142
0.0
142
0.0
142
1.0
179
     0
144
0.0208333333333333
144
0.0
144
0.0
144
0.0
144
0.0
144
0.0208333333333333
144
0.0
144
0.0
144
0.0
144
0.0
144
1.0
144
0.0
144
0.0
144
0.0
144
0.0
144
1.0
147
0.0208333333333333
147
0.0
147
0.0
147
0.0
147
0.0
147
0.0208333333333333
147
0.0
147
0.0
147
0.0
147
0.0
147
1.0
147
0.0
147
0.0
147
0.0
147
0.0
147
1.0
  0
MATERIAL
  5
11
102
{ACAD_XDICTIONARY
360
12
102
}
102
{ACAD_REACTORS
330
10
102
}
330
10
100
AcDbMaterial
  1
ByLayer
 72
     0
 43
0.0208333333333333
 43
0.0
 43
0.0
 43
0.0
 43
0.0
 43
0.0208333333333333
 43
0.0
 43
0.0
 43
0.0
 43
0.0
 43
1.0
 43
0.0
 43
0.0
 43
0.0
 43
0.0
 43
1.0
 77
     0
 47
0.0208333333333333
 47
0.0
 47
0.0
 47
0.0
 47
0.0
 47
0.0208333333333333
 47
0.0
 47
0.0
 47
0.0
 47
0.0
 47
1.0
 47
0.0
 47
0.0
 47
0.0
 47
0.0
 47
1.0
171
     0
 49
0.0208333333333333
 49
0.0
 49
0.0
 49
0.0
 49
0.0
 49
0.0208333333333333
 49
0.0
 49
0.0
 49
0.0
 49
0.0
 49
1.0
 49
0.0
 49
0.0
 49
0.0
 49
0.0
 49
1.0
175
     0
142
0.0208333333333333
142
0.0
142
0.0
142
0.0
142
0.0
142
0.0208333333333333
142
0.0
142
0.0
142
0.0
142
0.0
142
1.0
142
0.0
142
0.0
142
0.0
142
0.0
142
1.0
179
     0
144
0.0208333333333333
144
0.0
144
0.0
144
0.0
144
0.0
144
0.0208333333333333
144
0.0
144
0.0
144
0.0
144
0.0
144
1.0
144
0.0
144
0.0
144
0.0
144
0.0
144
1.0
147
0.0208333333333333
147
0.0
147
0.0
147
0.0
147
0.0
147
0.0208333333333333
147
0.0
147
0.0
147
0.0
147
0.0
147
1.0
147
0.0
147
0.0
147
0.0
147
0.0
147
1.0
  0
MATERIAL
  5
21
102
{ACAD_XDICTIONARY
360
22
102
}
102
{ACAD_REACTORS
330
10
102
}
330
10
100
AcDbMaterial
  1
Global
 72
     0
 43
0.0208333333333333
 43
0.0
 43
0.0
 43
0.0
 43
0.0
 43
0.0208333333333333
 43
0.0
 43
0.0
 43
0.0
 43
0.0
 43
1.0
 43
0.0
 43
0.0
 43
0.0
 43
0.0
 43
1.0
 77
     0
 47
0.0208333333333333
 47
0.0
 47
0.0
 47
0.0
 47
0.0
 47
0.0208333333333333
 47
0.0
 47
0.0
 47
0.0
 47
0.0
 47
1.0
 47
0.0
 47
0.0
 47
0.0
 47
0.0
 47
1.0
171
     0
 49
0.0208333333333333
 49
0.0
 49
0.0
 49
0.0
 49
0.0
 49
0.0208333333333333
 49
0.0
 49
0.0
 49
0.0
 49
0.0
 49
1.0
 49
0.0
 49
0.0
 49
0.0
 49
0.0
 49
1.0
175
     0
142
0.0208333333333333
142
0.0
142
0.0
142
0.0
142
0.0
142
0.0208333333333333
142
0.0
142
0.0
142
0.0
142
0.0
142
1.0
142
0.0
142
0.0
142
0.0
142
0.0
142
1.0
179
     0
144
0.0208333333333333
144
0.0
144
0.0
144
0.0
144
0.0
144
0.0208333333333333
144
0.0
144
0.0
144
0.0
144
0.0
144
1.0
144
0.0
144
0.0
144
0.0
144
0.0
144
1.0
147
0.0208333333333333
147
0.0
147
0.0
147
0.0
147
0.0
147
0.0208333333333333
147
0.0
147
0.0
147
0.0
147
0.0
147
1.0
147
0.0
147
0.0
147
0.0
147
0.0
147
1.0
  0
MLEADERSTYLE
  5
67
102
{ACAD_REACTORS
330
66
102
}
330
66
100
AcDbMLeaderStyle
179
     2
170
     2
171
     1
172
     0
 90
        2
 40
0.0
 41
0.0
173
     1
 91
-1056964608
340
5B
 92
       -2
290
     1
 42
0.09
291
     1
 43
0.36
  3
Standard
 44
0.18
300

342
55
174
     1
178
     6
175
     1
176
     0
 93
-1056964608
 45
0.18
292
     0
297
     0
 46
0.18
 94
-1056964608
 47
1.0
 49
1.0
140
1.0
293
     1
141
0.0
294
     1
177
     0
142
1.0
295
     1
296
     0
143
0.125
271
     0
272
     9
273
     9
298
     1
  0
MLINESTYLE
  5
60
102
{ACAD_REACTORS
330
5F
102
}
330
5F
100
AcDbMlineStyle
  2
STANDARD
 70
     0
  3

 62
   256
 51
90.0
 52
90.0
 71
     2
 49
0.5
 62
   256
  6
BYLAYER
 49
-0.5
 62
   256
  6
BYLAYER
  0
ACDBPLACEHOLDER
  5
F
102
{ACAD_REACTORS
330
E
102
}
330
E
  0
SCALE
  5
43
102
{ACAD_REACTORS
330
42
102
}
330
42
100
AcDbScale
 70
     0
300
1:1
140
1.0
141
1.0
290
     1
  0
SCALE
  5
44
102
{ACAD_REACTORS
330
42
102
}
330
42
100
AcDbScale
 70
     0
300
1/128" = 1'-0"
140
0.0078125
141
12.0
290
     0
  0
SCALE
  5
45
102
{ACAD_REACTORS
330
42
102
}
330
42
100
AcDbScale
 70
     0
300
1/64" = 1'-0"
140
0.015625
141
12.0
290
     0
  0
SCALE
  5
46
102
{ACAD_REACTORS
330
42
102
}
330
42
100
AcDbScale
 70
     0
300
1/32" = 1'-0"
140
0.03125
141
12.0
290
     0
  0
SCALE
  5
47
102
{ACAD_REACTORS
330
42
102
}
330
42
100
AcDbScale
 70
     0
300
1/16" = 1'-0"
140
0.0625
141
12.0
290
     0
  0
SCALE
  5
48
102
{ACAD_REACTORS
330
42
102
}
330
42
100
AcDbScale
 70
     0
300
3/32" = 1'-0"
140
0.09375
141
12.0
290
     0
  0
SCALE
  5
49
102
{ACAD_REACTORS
330
42
102
}
330
42
100
AcDbScale
 70
     0
300
1/8" = 1'-0"
140
0.125
141
12.0
290
     0
  0
SCALE
  5
4A
102
{ACAD_REACTORS
330
42
102
}
330
42
100
AcDbScale
 70
     0
300
3/16" = 1'-0"
140
0.1875
141
12.0
290
     0
  0
SCALE
  5
4B
102
{ACAD_REACTORS
330
42
102
}
330
42
100
AcDbScale
 70
     0
300
1/4" = 1'-0"
140
0.25
141
12.0
290
     0
  0
SCALE
  5
4C
102
{ACAD_REACTORS
330
42
102
}
330
42
100
AcDbScale
 70
     0
300
3/8" = 1'-0"
140
0.375
141
12.0
290
     0
  0
SCALE
  5
4D
102
{ACAD_REACTORS
330
42
102
}
330
42
100
AcDbScale
 70
     0
300
1/2" = 1'-0"
140
0.5
141
12.0
290
     0
  0
SCALE
  5
4E
102
{ACAD_REACTORS
330
42
102
}
330
42
100
AcDbScale
 70
     0
300
3/4" = 1'-0"
140
0.75
141
12.0
290
     0
  0
SCALE
  5
4F
102
{ACAD_REACTORS
330
42
102
}
330
42
100
AcDbScale
 70
     0
300
1" = 1'-0"
140
1.0
141
12.0
290
     0
  0
SCALE
  5
50
102
{ACAD_REACTORS
330
42
102
}
330
42
100
AcDbScale
 70
     0
300
1-1/2" = 1'-0"
140
1.5
141
12.0
290
     0
  0
SCALE
  5
51
102
{ACAD_REACTORS
330
42
102
}
330
42
100
AcDbScale
 70
     0
300
3" = 1'-0"
140
3.0
141
12.0
290
     0
  0
SCALE
  5
52
102
{ACAD_REACTORS
330
42
102
}
330
42
100
AcDbScale
 70
     0
300
6" = 1'-0"
140
6.0
141
12.0
290
     0
  0
SCALE
  5
53
102
{ACAD_REACTORS
330
42
102
}
330
42
100
AcDbScale
 70
     0
300
1'-0" = 1'-0"
140
12.0
141
12.0
290
     0
  0
ACDBSECTIONVIEWSTYLE
  5
69
102
{ACAD_REACTORS
330
68
102
}
330
68
100
AcDbModelDocViewStyle
 70
     0
  3
Imperial24
290
     1
300
Imperial24
 90
        0
100
AcDbSectionViewStyle
 70
     0
 71
     0
 90
       78
 71
     1
340
55
 62
   256
 40
0.24
340
0
340
0
 62
   256
 40
0.24
300
I, O, Q, S, X, Z
 40
0.48
 90
        3
 40
0.18
 90
        1
 71
     2
340
5D
 90
       25
 62
   256
340
5D
 90
       50
 62
   256
 40
0.24
 40
0.0
 40
0.24
 71
     3
340
55
 62
   256
 40
0.24
 90
        1
 40
0.75
 90
        1
300
%<\AcVar ViewType \f "%tc1">% %<\AcVar ViewSectionStartId>%-%<\AcVar ViewSectionEndId>%\PSCALE %<\AcVar ViewScale \f "%sn">%
 71
     4
 62
   256
 62
   257
300
ANSI31
 40
1.0
 90
        0
290
     0
290
     0
 90
        6
 40
0.0
 40
1.570796326794896
 40
0.2617993877991494
 40
1.308996938995747
 40
-0.2617993877991494
 40
1.832595714594046
  0
TABLESTYLE
  5
65
102
{ACAD_XDICTIONARY
360
88
102
}
102
{ACAD_REACTORS
330
64
102
}
330
64
100
AcDbTableStyle
280
     0
  3
Standard
 70
     0
 71
     0
 40
0.06
 41
0.06
280
     0
281
     0
  7
Standard
140
0.18
170
     2
 62
     0
 63
     7
283
     0
 90
      512
 91
        0
  1

274
    -2
284
     1
 64
     0
275
    -2
285
     1
 65
     0
276
    -2
286
     1
 66
     0
277
    -2
287
     1
 67
     0
278
    -2
288
     1
 68
     0
279
    -2
289
     1
 69
     0
  7
Standard
140
0.25
170
     5
 62
     0
 63
     7
283
     0
 90
      512
 91
        0
  1

274
    -2
284
     1
 64
     0
275
    -2
285
     1
 65
     0
276
    -2
286
     1
 66
     0
277
    -2
287
     1
 67
     0
278
    -2
288
     1
 68
     0
279
    -2
289
     1
 69
     0
  7
Standard
140
0.18
170
     5
 62
     0
 63
     7
283
     0
 90
      512
 91
        0
  1

274
    -2
284
     1
 64
     0
275
    -2
285
     1
 65
     0
276
    -2
286
     1
 66
     0
277
    -2
287
     1
 67
     0
278
    -2
288
     1
 68
     0
279
    -2
289
     1
 69
     0
  0
VISUALSTYLE
  5
2F
102
{ACAD_REACTORS
330
29
102
}
330
29
100
AcDbVisualStyle
  2
2dWireframe
 70
     4
177
     3
291
     0
 70
    58
 90
        0
176
     1
 90
        2
176
     1
 90
        0
176
     1
 90
        0
176
     1
 40
0.6
176
     1
 40
30.0
176
     1
 62
     7
420
 16777215
176
     1
 90
        1
176
     1
 90
        4
176
     1
 62
     7
176
     1
 62
   257
176
     1
 90
        1
176
     1
 90
        1
176
     1
 40
1.0
176
     1
 90
        0
176
     1
 62
   257
176
     1
 40
1.0
176
     1
 90
        1
176
     1
 90
        6
176
     1
 90
        2
176
     1
 62
     7
176
     1
 90
        5
176
     1
 90
        0
176
     1
 90
        0
176
     1
290
     0
176
     1
 90
        1
176
     1
 40
0.0
176
     1
 90
        0
176
     1
290
     1
176
     1
290
     1
176
     1
290
     0
176
     1
290
     0
176
     1
290
     0
176
     1
290
     0
176
     1
290
     0
176
     1
290
     0
176
     1
290
     0
176
     1
 90
       50
176
     1
 40
0.0
176
     1
 40
1.0
176
     1
 90
        0
176
     1
 62
    18
420
        0
176
     1
 90
       50
176
     1
 90
        3
176
     1
 62
     5
420
      255
176
     1
290
     0
176
     1
 90
       50
176
     1
 90
       50
176
     1
 90
       50
176
     1
290
     0
176
     1
 90
       50
176
     1
 62
   256
176
     0
 40
1.0
176
     0
 90
        2
176
     1
  1
strokes_ogs.tif
176
     1
290
     0
176
     1
 40
1.0
176
     1
 40
1.0
176
     1
  0
VISUALSTYLE
  5
2E
102
{ACAD_REACTORS
330
29
102
}
330
29
100
AcDbVisualStyle
  2
Basic
 70
     7
177
     3
291
     1
 70
    58
 90
        1
176
     1
 90
        0
176
     1
 90
        1
176
     1
 90
        0
176
     1
 40
0.6
176
     1
 40
30.0
176
     1
 62
     7
420
 16777215
176
     1
 90
        0
176
     1
 90
        4
176
     1
 62
     7
176
     1
 62
   257
176
     1
 90
        1
176
     1
 90
        1
176
     1
 40
1.0
176
     1
 90
        8
176
     1
 62
     7
176
     1
 40
1.0
176
     1
 90
        1
176
     1
 90
        6
176
     1
 90
        2
176
     1
 62
     7
176
     1
 90
        5
176
     1
 90
        0
176
     1
 90
        0
176
     1
290
     0
176
     1
 90
        1
176
     1
 40
0.0
176
     1
 90
        0
176
     1
290
     0
176
     1
290
     1
176
     1
290
     1
176
     1
290
     0
176
     1
290
     0
176
     1
290
     0
176
     1
290
     0
176
     1
290
     0
176
     1
290
     0
176
     1
 90
       50
176
     1
 40
0.0
176
     1
 40
1.0
176
     1
 90
        0
176
     1
 62
    18
420
        0
176
     1
 90
       50
176
     1
 90
        3
176
     1
 62
     5
420
      255
176
     1
290
     0
176
     1
 90
       50
176
     1
 90
       50
176
     1
 90
       50
176
     1
290
     0
176
     1
 90
       50
176
     1
 62
   256
176
     0
 40
1.0
176
     0
 90
        2
176
     1
  1
strokes_ogs.tif
176
     1
290
     0
176
     1
 40
1.0
176
     1
 40
1.0
176
     1
  0
VISUALSTYLE
  5
35
102
{ACAD_REACTORS
330
29
102
}
330
29
100
AcDbVisualStyle
  2
Brighten
 70
    12
177
     3
291
     1
 70
    58
 90
        2
176
     1
 90
        2
176
     1
 90
        0
176
     1
 90
        0
176
     1
 40
0.6
176
     1
 40
30.0
176
     1
 62
     7
420
 16777215
176
     1
 90
        1
176
     1
 90
        4
176
     1
 62
     7
176
     1
 62
   257
176
     1
 90
        1
176
     1
 90
        1
176
     1
 40
1.0
176
     1
 90
        8
176
     1
 62
     7
176
     1
 40
1.0
176
     1
 90
        1
176
     1
 90
        6
176
     1
 90
        2
176
     1
 62
     7
176
     1
 90
        5
176
     1
 90
        0
176
     1
 90
        0
176
     1
290
     0
176
     1
 90
        1
176
     1
 40
50.0
176
     1
 90
        0
176
     1
290
     0
176
     1
290
     1
176
     1
290
     1
176
     1
290
     0
176
     1
290
     0
176
     1
290
     0
176
     1
290
     0
176
     1
290
     0
176
     1
290
     0
176
     1
 90
       50
176
     1
 40
0.0
176
     1
 40
1.0
176
     1
 90
        0
176
     1
 62
    18
420
        0
176
     1
 90
       50
176
     1
 90
        3
176
     1
 62
     5
420
      255
176
     1
290
     0
176
     1
 90
       50
176
     1
 90
       50
176
     1
 90
       50
176
     1
290
     0
176
     1
 90
       50
176
     1
 62
   256
176
     0
 40
1.0
176
     0
 90
        2
176
     1
  1
strokes_ogs.tif
176
     1
290
     0
176
     1
 40
1.0
176
     1
 40
1.0
176
     1
  0
VISUALSTYLE
  5
39
102
{ACAD_REACTORS
330
29
102
}
330
29
100
AcDbVisualStyle
  2
ColorChange
 70
    16
177
     3
291
     1
 70
    58
 90
        2
176
     1
 90
        2
176
     1
 90
        3
176
     1
 90
        0
176
     1
 40
0.6
176
     1
 40
30.0
176
     1
 62
     8
420
  8421504
176
     1
 90
        1
176
     1
 90
        4
176
     1
 62
     7
176
     1
 62
   257
176
     1
 90
        1
176
     1
 90
        1
176
     1
 40
1.0
176
     1
 90
        8
176
     1
 62
     8
420
  8421504
176
     1
 40
1.0
176
     1
 90
        1
176
     1
 90
        6
176
     1
 90
        2
176
     1
 62
     7
176
     1
 90
        5
176
     1
 90
        0
176
     1
 90
        0
176
     1
290
     0
176
     1
 90
        1
176
     1
 40
0.0
176
     1
 90
        0
176
     1
290
     0
176
     1
290
     1
176
     1
290
     1
176
     1
290
     0
176
     1
290
     0
176
     1
290
     0
176
     1
290
     0
176
     1
290
     0
176
     1
290
     0
176
     1
 90
       50
176
     1
 40
0.0
176
     1
 40
1.0
176
     1
 90
        0
176
     1
 62
    18
420
        0
176
     1
 90
       50
176
     1
 90
        3
176
     1
 62
     5
420
      255
176
     1
290
     0
176
     1
 90
       50
176
     1
 90
       50
176
     1
 90
       50
176
     1
290
     0
176
     1
 90
       50
176
     1
 62
   256
176
     0
 40
1.0
176
     0
 90
        2
176
     1
  1
strokes_ogs.tif
176
     1
290
     0
176
     1
 40
1.0
176
     1
 40
1.0
176
     1
  0
VISUALSTYLE
  5
32
102
{ACAD_REACTORS
330
29
102
}
330
29
100
AcDbVisualStyle
  2
Conceptual
 70
     9
177
     3
291
     0
 70
    58
 90
        3
176
     1
 90
        2
176
     1
 90
        0
176
     1
 90
        0
176
     1
 40
0.6
176
     1
 40
30.0
176
     1
 62
     7
420
 16777215
176
     1
 90
        2
176
     1
 90
        2
176
     1
 62
     7
176
     1
 62
   257
176
     1
 90
        1
176
     1
 90
        1
176
     1
 40
179.0
176
     1
 90
        8
176
     1
 62
     7
176
     1
 40
1.0
176
     1
 90
        1
176
     1
 90
        6
176
     1
 90
        2
176
     1
 62
     7
176
     1
 90
        3
176
     1
 90
        0
176
     1
 90
        0
176
     1
290
     0
176
     1
 90
        1
176
     1
 40
0.0
176
     1
 90
        0
176
     1
290
     0
176
     1
290
     1
176
     1
290
     1
176
     1
290
     0
176
     1
290
     0
176
     1
290
     0
176
     1
290
     0
176
     1
290
     0
176
     1
290
     0
176
     1
 90
       50
176
     1
 40
0.0
176
     1
 40
1.0
176
     1
 90
        0
176
     1
 62
    18
420
        0
176
     1
 90
       50
176
     1
 90
        3
176
     1
 62
     5
420
      255
176
     1
290
     0
176
     1
 90
       50
176
     1
 90
       50
176
     1
 90
       50
176
     1
290
     0
176
     1
 90
       50
176
     1
 62
   256
176
     0
 40
1.0
176
     0
 90
        2
176
     1
  1
strokes_ogs.tif
176
     1
290
     0
176
     1
 40
1.0
176
     1
 40
1.0
176
     1
  0
VISUALSTYLE
  5
34
102
{ACAD_REACTORS
330
29
102
}
330
29
100
AcDbVisualStyle
  2
Dim
 70
    11
177
     3
291
     1
 70
    58
 90
        2
176
     1
 90
        2
176
     1
 90
        0
176
     1
 90
        0
176
     1
 40
0.6
176
     1
 40
30.0
176
     1
 62
     7
420
 16777215
176
     1
 90
        1
176
     1
 90
        4
176
     1
 62
     7
176
     1
 62
   257
176
     1
 90
        1
176
     1
 90
        1
176
     1
 40
1.0
176
     1
 90
        8
176
     1
 62
     7
176
     1
 40
1.0
176
     1
 90
        1
176
     1
 90
        6
176
     1
 90
        2
176
     1
 62
     7
176
     1
 90
        5
176
     1
 90
        0
176
     1
 90
        0
176
     1
290
     0
176
     1
 90
        1
176
     1
 40
-50.0
176
     1
 90
        0
176
     1
290
     0
176
     1
290
     1
176
     1
290
     1
176
     1
290
     0
176
     1
290
     0
176
     1
290
     0
176
     1
290
     0
176
     1
290
     0
176
     1
290
     0
176
     1
 90
       50
176
     1
 40
0.0
176
     1
 40
1.0
176
     1
 90
        0
176
     1
 62
    18
420
        0
176
     1
 90
       50
176
     1
 90
        3
176
     1
 62
     5
420
      255
176
     1
290
     0
176
     1
 90
       50
176
     1
 90
       50
176
     1
 90
       50
176
     1
290
     0
176
     1
 90
       50
176
     1
 62
   256
176
     0
 40
1.0
176
     0
 90
        2
176
     1
  1
strokes_ogs.tif
176
     1
290
     0
176
     1
 40
1.0
176
     1
 40
1.0
176
     1
  0
VISUALSTYLE
  5
41
102
{ACAD_REACTORS
330
29
102
}
330
29
100
AcDbVisualStyle
  2
EdgeColorOff
 70
    22
177
     3
291
     1
 70
    58
 90
        2
176
     0
 90
        2
176
     0
 90
        0
176
     0
 90
        0
176
     0
 40
0.6
176
     0
 40
30.0
176
     0
 62
     7
420
 16777215
176
     0
 90
        1
176
     0
 90
        4
176
     0
 62
     7
176
     0
 62
   257
176
     0
 90
        1
176
     0
 90
        1
176
     0
 40
1.0
176
     0
 90
        8
176
     2
 62
     7
176
     0
 40
1.0
176
     0
 90
        1
176
     0
 90
        6
176
     0
 90
        2
176
     0
 62
     7
176
     0
 90
        5
176
     0
 90
        0
176
     0
 90
        0
176
     0
290
     0
176
     0
 90
        1
176
     0
 40
0.0
176
     0
 90
        0
176
     0
290
     0
176
     0
290
     1
176
     0
290
     1
176
     0
290
     0
176
     0
290
     0
176
     0
290
     0
176
     0
290
     0
176
     0
290
     0
176
     0
290
     0
176
     0
 90
       50
176
     0
 40
0.0
176
     0
 40
1.0
176
     0
 90
        0
176
     0
 62
    18
420
        0
176
     0
 90
       50
176
     0
 90
        3
176
     0
 62
     5
420
      255
176
     0
290
     0
176
     0
 90
       50
176
     0
 90
       50
176
     0
 90
       50
176
     0
290
     0
176
     0
 90
       50
176
     0
 62
   256
176
     0
 40
1.0
176
     0
 90
        2
176
     0
  1
strokes_ogs.tif
176
     0
290
     0
176
     0
 40
1.0
176
     0
 40
1.0
176
     0
  0
VISUALSTYLE
  5
38
102
{ACAD_REACTORS
330
29
102
}
330
29
100
AcDbVisualStyle
  2
Facepattern
 70
    15
177
     3
291
     1
 70
    58
 90
        2
176
     1
 90
        2
176
     1
 90
        0
176
     1
 90
        0
176
     1
 40
0.6
176
     1
 40
30.0
176
     1
 62
     7
420
 16777215
176
     1
 90
        1
176
     1
 90
        4
176
     1
 62
     7
176
     1
 62
   257
176
     1
 90
        1
176
     1
 90
        1
176
     1
 40
1.0
176
     1
 90
        8
176
     1
 62
     7
176
     1
 40
1.0
176
     1
 90
        1
176
     1
 90
        6
176
     1
 90
        2
176
     1
 62
     7
176
     1
 90
        5
176
     1
 90
        0
176
     1
 90
        0
176
     1
290
     0
176
     1
 90
        1
176
     1
 40
0.0
176
     1
 90
        0
176
     1
290
     0
176
     1
290
     1
176
     1
290
     1
176
     1
290
     0
176
     1
290
     0
176
     1
290
     0
176
     1
290
     0
176
     1
290
     0
176
     1
290
     0
176
     1
 90
       50
176
     1
 40
0.0
176
     1
 40
1.0
176
     1
 90
        0
176
     1
 62
    18
420
        0
176
     1
 90
       50
176
     1
 90
        3
176
     1
 62
     5
420
      255
176
     1
290
     0
176
     1
 90
       50
176
     1
 90
       50
176
     1
 90
       50
176
     1
290
     0
176
     1
 90
       50
176
     1
 62
   256
176
     0
 40
1.0
176
     0
 90
        2
176
     1
  1
strokes_ogs.tif
176
     1
290
     0
176
     1
 40
1.0
176
     1
 40
1.0
176
     1
  0
VISUALSTYLE
  5
2A
102
{ACAD_REACTORS
330
29
102
}
330
29
100
AcDbVisualStyle
  2
Flat
 70
     0
177
     3
291
     1
 70
    58
 90
        2
176
     1
 90
        1
176
     1
 90
        1
176
     1
 90
        2
176
     1
 40
0.6
176
     1
 40
30.0
176
     1
 62
     7
420
 16777215
176
     1
 90
        0
176
     1
 90
        0
176
     1
 62
     7
176
     1
 62
   257
176
     1
 90
        1
176
     1
 90
        1
176
     1
 40
1.0
176
     1
 90
        8
176
     1
 62
     7
176
     1
 40
1.0
176
     1
 90
        1
176
     1
 90
        6
176
     1
 90
        2
176
     1
 62
     7
176
     1
 90
        5
176
     1
 90
        0
176
     1
 90
        0
176
     1
290
     0
176
     1
 90
       13
176
     1
 40
0.0
176
     1
 90
        0
176
     1
290
     0
176
     1
290
     1
176
     1
290
     1
176
     1
290
     0
176
     1
290
     0
176
     1
290
     0
176
     1
290
     0
176
     1
290
     0
176
     1
290
     0
176
     1
 90
       50
176
     1
 40
0.0
176
     1
 40
1.0
176
     1
 90
        0
176
     1
 62
    18
420
        0
176
     1
 90
       50
176
     1
 90
        3
176
     1
 62
     5
420
      255
176
     1
290
     0
176
     1
 90
       50
176
     1
 90
       50
176
     1
 90
       50
176
     1
290
     0
176
     1
 90
       50
176
     1
 62
   256
176
     0
 40
1.0
176
     0
 90
        2
176
     1
  1
strokes_ogs.tif
176
     1
290
     0
176
     1
 40
1.0
176
     1
 40
1.0
176
     1
  0
VISUALSTYLE
  5
2B
102
{ACAD_REACTORS
330
29
102
}
330
29
100
AcDbVisualStyle
  2
FlatWithEdges
 70
     1
177
     3
291
     1
 70
    58
 90
        2
176
     1
 90
        1
176
     1
 90
        1
176
     1
 90
        2
176
     1
 40
0.6
176
     1
 40
30.0
176
     1
 62
     7
420
 16777215
176
     1
 90
        1
176
     1
 90
        0
176
     1
 62
     7
176
     1
 62
   257
176
     1
 90
        1
176
     1
 90
        1
176
     1
 40
1.0
176
     1
 90
        0
176
     1
 62
   257
176
     1
 40
1.0
176
     1
 90
        1
176
     1
 90
        6
176
     1
 90
        2
176
     1
 62
     7
176
     1
 90
        5
176
     1
 90
        0
176
     1
 90
        0
176
     1
290
     0
176
     1
 90
       13
176
     1
 40
0.0
176
     1
 90
        0
176
     1
290
     0
176
     1
290
     1
176
     1
290
     1
176
     1
290
     0
176
     1
290
     0
176
     1
290
     0
176
     1
290
     0
176
     1
290
     0
176
     1
290
     0
176
     1
 90
       50
176
     1
 40
0.0
176
     1
 40
1.0
176
     1
 90
        0
176
     1
 62
    18
420
        0
176
     1
 90
       50
176
     1
 90
        3
176
     1
 62
     5
420
      255
176
     1
290
     0
176
     1
 90
       50
176
     1
 90
       50
176
     1
 90
       50
176
     1
290
     0
176
     1
 90
       50
176
     1
 62
   256
176
     0
 40
1.0
176
     0
 90
        2
176
     1
  1
strokes_ogs.tif
176
     1
290
     0
176
     1
 40
1.0
176
     1
 40
1.0
176
     1
  0
VISUALSTYLE
  5
2C
102
{ACAD_REACTORS
330
29
102
}
330
29
100
AcDbVisualStyle
  2
Gouraud
 70
     2
177
     3
291
     1
 70
    58
 90
        2
176
     1
 90
        2
176
     1
 90
        1
176
     1
 90
        2
176
     1
 40
0.6
176
     1
 40
30.0
176
     1
 62
     7
420
 16777215
176
     1
 90
        0
176
     1
 90
        0
176
     1
 62
     7
176
     1
 62
   257
176
     1
 90
        1
176
     1
 90
        1
176
     1
 40
1.0
176
     1
 90
        0
176
     1
 62
     7
176
     1
 40
1.0
176
     1
 90
        1
176
     1
 90
        6
176
     1
 90
        2
176
     1
 62
     7
176
     1
 90
        5
176
     1
 90
        0
176
     1
 90
        0
176
     1
290
     0
176
     1
 90
       13
176
     1
 40
0.0
176
     1
 90
        0
176
     1
290
     0
176
     1
290
     1
176
     1
290
     1
176
     1
290
     0
176
     1
290
     0
176
     1
290
     0
176
     1
290
     0
176
     1
290
     0
176
     1
290
     0
176
     1
 90
       50
176
     1
 40
0.0
176
     1
 40
1.0
176
     1
 90
        0
176
     1
 62
    18
420
        0
176
     1
 90
       50
176
     1
 90
        3
176
     1
 62
     5
420
      255
176
     1
290
     0
176
     1
 90
       50
176
     1
 90
       50
176
     1
 90
       50
176
     1
290
     0
176
     1
 90
       50
176
     1
 62
   256
176
     0
 40
1.0
176
     0
 90
        2
176
     1
  1
strokes_ogs.tif
176
     1
290
     0
176
     1
 40
1.0
176
     1
 40
1.0
176
     1
  0
VISUALSTYLE
  5
2D
102
{ACAD_REACTORS
330
29
102
}
330
29
100
AcDbVisualStyle
  2
GouraudWithEdges
 70
     3
177
     3
291
     1
 70
    58
 90
        2
176
     1
 90
        2
176
     1
 90
        1
176
     1
 90
        2
176
     1
 40
0.6
176
     1
 40
30.0
176
     1
 62
     7
420
 16777215
176
     1
 90
        1
176
     1
 90
        0
176
     1
 62
     7
176
     1
 62
   257
176
     1
 90
        1
176
     1
 90
        1
176
     1
 40
1.0
176
     1
 90
        0
176
     1
 62
   257
176
     1
 40
1.0
176
     1
 90
        1
176
     1
 90
        6
176
     1
 90
        2
176
     1
 62
     7
176
     1
 90
        5
176
     1
 90
        0
176
     1
 90
        0
176
     1
290
     0
176
     1
 90
       13
176
     1
 40
0.0
176
     1
 90
        0
176
     1
290
     0
176
     1
290
     1
176
     1
290
     1
176
     1
290
     0
176
     1
290
     0
176
     1
290
     0
176
     1
290
     0
176
     1
290
     0
176
     1
290
     0
176
     1
 90
       50
176
     1
 40
0.0
176
     1
 40
1.0
176
     1
 90
        0
176
     1
 62
    18
420
        0
176
     1
 90
       50
176
     1
 90
        3
176
     1
 62
     5
420
      255
176
     1
290
     0
176
     1
 90
       50
176
     1
 90
       50
176
     1
 90
       50
176
     1
290
     0
176
     1
 90
       50
176
     1
 62
   256
176
     0
 40
1.0
176
     0
 90
        2
176
     1
  1
strokes_ogs.tif
176
     1
290
     0
176
     1
 40
1.0
176
     1
 40
1.0
176
     1
  0
VISUALSTYLE
  5
31
102
{ACAD_REACTORS
330
29
102
}
330
29
100
AcDbVisualStyle
  2
Hidden
 70
     6
177
     3
291
     0
 70
    58
 90
        1
176
     1
 90
        2
176
     1
 90
        2
176
     1
 90
        0
176
     1
 40
0.6
176
     1
 40
30.0
176
     1
 62
     7
420
 16777215
176
     1
 90
        2
176
     1
 90
        2
176
     1
 62
     7
176
     1
 62
   257
176
     1
 90
        2
176
     1
 90
        1
176
     1
 40
40.0
176
     1
 90
        0
176
     1
 62
   257
176
     1
 40
1.0
176
     1
 90
        1
176
     1
 90
        6
176
     1
 90
        2
176
     1
 62
     7
176
     1
 90
        3
176
     1
 90
        0
176
     1
 90
        0
176
     1
290
     0
176
     1
 90
        1
176
     1
 40
0.0
176
     1
 90
        0
176
     1
290
     0
176
     1
290
     1
176
     1
290
     1
176
     1
290
     0
176
     1
290
     0
176
     1
290
     0
176
     1
290
     0
176
     1
290
     0
176
     1
290
     0
176
     1
 90
       50
176
     1
 40
0.0
176
     1
 40
1.0
176
     1
 90
        0
176
     1
 62
    18
420
        0
176
     1
 90
       50
176
     1
 90
        3
176
     1
 62
     5
420
      255
176
     1
290
     0
176
     1
 90
       50
176
     1
 90
       50
176
     1
 90
       50
176
     1
290
     0
176
     1
 90
       50
176
     1
 62
   256
176
     0
 40
1.0
176
     0
 90
        2
176
     1
  1
strokes_ogs.tif
176
     1
290
     0
176
     1
 40
1.0
176
     1
 40
1.0
176
     1
  0
VISUALSTYLE
  5
3F
102
{ACAD_REACTORS
330
29
102
}
330
29
100
AcDbVisualStyle
  2
JitterOff
 70
    20
177
     3
291
     1
 70
    58
 90
        2
176
     0
 90
        2
176
     0
 90
        0
176
     0
 90
        0
176
     0
 40
0.6
176
     0
 40
30.0
176
     0
 62
     7
420
 16777215
176
     0
 90
        1
176
     0
 90
        4
176
     0
 62
     7
176
     0
 62
   257
176
     0
 90
        1
176
     0
 90
        1
176
     0
 40
1.0
176
     0
 90
       10
176
     2
 62
     7
176
     0
 40
1.0
176
     0
 90
        1
176
     0
 90
        6
176
     0
 90
        2
176
     0
 62
     7
176
     0
 90
        5
176
     0
 90
        0
176
     0
 90
        0
176
     0
290
     0
176
     0
 90
        1
176
     0
 40
0.0
176
     0
 90
        0
176
     0
290
     0
176
     0
290
     1
176
     0
290
     1
176
     0
290
     0
176
     0
290
     0
176
     0
290
     0
176
     0
290
     0
176
     0
290
     0
176
     0
290
     0
176
     0
 90
       50
176
     0
 40
0.0
176
     0
 40
1.0
176
     0
 90
        0
176
     0
 62
    18
420
        0
176
     0
 90
       50
176
     0
 90
        3
176
     0
 62
     5
420
      255
176
     0
290
     0
176
     0
 90
       50
176
     0
 90
       50
176
     0
 90
       50
176
     0
290
     0
176
     0
 90
       50
176
     0
 62
   256
176
     0
 40
1.0
176
     0
 90
        2
176
     0
  1
strokes_ogs.tif
176
     0
290
     0
176
     0
 40
1.0
176
     0
 40
1.0
176
     0
  0
VISUALSTYLE
  5
37
102
{ACAD_REACTORS
330
29
102
}
330
29
100
AcDbVisualStyle
  2
Linepattern
 70
    14
177
     3
291
     1
 70
    58
 90
        2
176
     1
 90
        2
176
     1
 90
        0
176
     1
 90
        0
176
     1
 40
0.6
176
     1
 40
30.0
176
     1
 62
     7
420
 16777215
176
     1
 90
        1
176
     1
 90
        4
176
     1
 62
     7
176
     1
 62
   257
176
     1
 90
        7
176
     1
 90
        7
176
     1
 40
1.0
176
     1
 90
        8
176
     1
 62
     7
176
     1
 40
1.0
176
     1
 90
        1
176
     1
 90
        6
176
     1
 90
        2
176
     1
 62
     7
176
     1
 90
        5
176
     1
 90
        0
176
     1
 90
        0
176
     1
290
     0
176
     1
 90
        1
176
     1
 40
0.0
176
     1
 90
        0
176
     1
290
     0
176
     1
290
     1
176
     1
290
     1
176
     1
290
     0
176
     1
290
     0
176
     1
290
     0
176
     1
290
     0
176
     1
290
     0
176
     1
290
     0
176
     1
 90
       50
176
     1
 40
0.0
176
     1
 40
1.0
176
     1
 90
        0
176
     1
 62
    18
420
        0
176
     1
 90
       50
176
     1
 90
        3
176
     1
 62
     5
420
      255
176
     1
290
     0
176
     1
 90
       50
176
     1
 90
       50
176
     1
 90
       50
176
     1
290
     0
176
     1
 90
       50
176
     1
 62
   256
176
     0
 40
1.0
176
     0
 90
        2
176
     1
  1
strokes_ogs.tif
176
     1
290
     0
176
     1
 40
1.0
176
     1
 40
1.0
176
     1
  0
VISUALSTYLE
  5
40
102
{ACAD_REACTORS
330
29
102
}
330
29
100
AcDbVisualStyle
  2
OverhangOff
 70
    21
177
     3
291
     1
 70
    58
 90
        2
176
     0
 90
        2
176
     0
 90
        0
176
     0
 90
        0
176
     0
 40
0.6
176
     0
 40
30.0
176
     0
 62
     7
420
 16777215
176
     0
 90
        1
176
     0
 90
        4
176
     0
 62
     7
176
     0
 62
   257
176
     0
 90
        1
176
     0
 90
        1
176
     0
 40
1.0
176
     0
 90
        9
176
     2
 62
     7
176
     0
 40
1.0
176
     0
 90
        1
176
     0
 90
        6
176
     0
 90
        2
176
     0
 62
     7
176
     0
 90
        5
176
     0
 90
        0
176
     0
 90
        0
176
     0
290
     0
176
     0
 90
        1
176
     0
 40
0.0
176
     0
 90
        0
176
     0
290
     0
176
     0
290
     1
176
     0
290
     1
176
     0
290
     0
176
     0
290
     0
176
     0
290
     0
176
     0
290
     0
176
     0
290
     0
176
     0
290
     0
176
     0
 90
       50
176
     0
 40
0.0
176
     0
 40
1.0
176
     0
 90
        0
176
     0
 62
    18
420
        0
176
     0
 90
       50
176
     0
 90
        3
176
     0
 62
     5
420
      255
176
     0
290
     0
176
     0
 90
       50
176
     0
 90
       50
176
     0
 90
       50
176
     0
290
     0
176
     0
 90
       50
176
     0
 62
   256
176
     0
 40
1.0
176
     0
 90
        2
176
     0
  1
strokes_ogs.tif
176
     0
290
     0
176
     0
 40
1.0
176
     0
 40
1.0
176
     0
  0
VISUALSTYLE
  5
33
102
{ACAD_REACTORS
330
29
102
}
330
29
100
AcDbVisualStyle
  2
Realistic
 70
     8
177
     3
291
     0
 70
    58
 90
        2
176
     1
 90
        3
176
     1
 90
        0
176
     1
 90
        2
176
     1
 40
0.6
176
     1
 40
30.0
176
     1
 62
     7
420
 16777215
176
     1
 90
        0
176
     1
 90
        0
176
     1
 62
     7
176
     1
 62
   257
176
     1
 90
        1
176
     1
 90
        1
176
     1
 40
1.0
176
     1
 90
        8
176
     1
 62
   257
176
     1
 40
1.0
176
     1
 90
        1
176
     1
 90
        6
176
     1
 90
        2
176
     1
 62
     7
176
     1
 90
        3
176
     1
 90
        0
176
     1
 90
        0
176
     1
290
     0
176
     1
 90
       13
176
     1
 40
0.0
176
     1
 90
        0
176
     1
290
     0
176
     1
290
     1
176
     1
290
     1
176
     1
290
     0
176
     1
290
     0
176
     1
290
     0
176
     1
290
     0
176
     1
290
     0
176
     1
290
     0
176
     1
 90
       50
176
     1
 40
0.0
176
     1
 40
1.0
176
     1
 90
        0
176
     1
 62
    18
420
        0
176
     1
 90
       50
176
     1
 90
        3
176
     1
 62
     5
420
      255
176
     1
290
     0
176
     1
 90
       50
176
     1
 90
       50
176
     1
 90
       50
176
     1
290
     0
176
     1
 90
       50
176
     1
 62
   256
176
     0
 40
1.0
176
     0
 90
        2
176
     1
  1
strokes_ogs.tif
176
     1
290
     0
176
     1
 40
1.0
176
     1
 40
1.0
176
     1
  0
VISUALSTYLE
  5
3E
102
{ACAD_REACTORS
330
29
102
}
330
29
100
AcDbVisualStyle
  2
Shaded
 70
    27
177
     3
291
     0
 70
    58
 90
        2
176
     1
 90
        2
176
     1
 90
        1
176
     1
 90
        2
176
     1
 40
0.6
176
     1
 40
30.0
176
     1
 62
     7
420
 16777215
176
     1
 90
        0
176
     1
 90
        4
176
     1
 62
     7
176
     1
 62
   257
176
     1
 90
        1
176
     1
 90
        1
176
     1
 40
1.0
176
     1
 90
        8
176
     1
 62
   257
176
     1
 40
1.0
176
     1
 90
        1
176
     1
 90
        6
176
     1
 90
        2
176
     1
 62
     8
420
  7895160
176
     1
 90
        3
176
     1
 90
        0
176
     1
 90
        0
176
     1
290
     0
176
     1
 90
        5
176
     1
 40
0.0
176
     1
 90
        0
176
     1
290
     0
176
     1
290
     1
176
     1
290
     1
176
     1
290
     0
176
     1
290
     0
176
     1
290
     0
176
     1
290
     0
176
     1
290
     0
176
     1
290
     0
176
     1
 90
       50
176
     1
 40
0.0
176
     1
 40
1.0
176
     1
 90
        0
176
     1
 62
    18
420
        0
176
     1
 90
       50
176
     1
 90
        3
176
     1
 62
     5
420
      255
176
     1
290
     0
176
     1
 90
       50
176
     1
 90
       50
176
     1
 90
       50
176
     1
290
     0
176
     1
 90
       50
176
     1
 62
   256
176
     0
 40
1.0
176
     0
 90
        2
176
     1
  1
strokes_ogs.tif
176
     1
290
     0
176
     1
 40
1.0
176
     1
 40
1.0
176
     1
  0
VISUALSTYLE
  5
3D
102
{ACAD_REACTORS
330
29
102
}
330
29
100
AcDbVisualStyle
  2
Shaded with edges
 70
    26
177
     3
291
     0
 70
    58
 90
        2
176
     1
 90
        2
176
     1
 90
        1
176
     1
 90
        2
176
     1
 40
0.6
176
     1
 40
30.0
176
     1
 62
     7
420
 16777215
176
     1
 90
        1
176
     1
 90
        2
176
     1
 62
     7
176
     1
 62
   257
176
     1
 90
        2
176
     1
 90
        1
176
     1
 40
1.0
176
     1
 90
        8
176
     1
 62
   257
176
     1
 40
1.0
176
     1
 90
        1
176
     1
 90
        6
176
     1
 90
        2
176
     1
 62
     7
176
     1
 90
        3
176
     1
 90
        0
176
     1
 90
        0
176
     1
290
     0
176
     1
 90
        5
176
     1
 40
0.0
176
     1
 90
        0
176
     1
290
     0
176
     1
290
     1
176
     1
290
     1
176
     1
290
     0
176
     1
290
     0
176
     1
290
     0
176
     1
290
     0
176
     1
290
     0
176
     1
290
     0
176
     1
 90
       50
176
     1
 40
0.0
176
     1
 40
1.0
176
     1
 90
        0
176
     1
 62
    18
420
        0
176
     1
 90
       50
176
     1
 90
        3
176
     1
 62
     5
420
      255
176
     1
290
     0
176
     1
 90
       50
176
     1
 90
       50
176
     1
 90
       50
176
     1
290
     0
176
     1
 90
       50
176
     1
 62
   256
176
     0
 40
1.0
176
     0
 90
        2
176
     1
  1
strokes_ogs.tif
176
     1
290
     0
176
     1
 40
1.0
176
     1
 40
1.0
176
     1
  0
VISUALSTYLE
  5
3A
102
{ACAD_REACTORS
330
29
102
}
330
29
100
AcDbVisualStyle
  2
Shades of Gray
 70
    23
177
     3
291
     0
 70
    58
 90
        2
176
     1
 90
        2
176
     1
 90
        3
176
     1
 90
        0
176
     1
 40
0.6
176
     1
 40
30.0
176
     1
 62
     7
420
 16777215
176
     1
 90
        2
176
     1
 90
        2
176
     1
 62
     7
176
     1
 62
     7
176
     1
 90
        1
176
     1
 90
        1
176
     1
 40
40.0
176
     1
 90
        8
176
     1
 62
     7
176
     1
 40
1.0
176
     1
 90
        1
176
     1
 90
        6
176
     1
 90
        2
176
     1
 62
     7
176
     1
 90
        3
176
     1
 90
        0
176
     1
 90
        0
176
     1
290
     0
176
     1
 90
        1
176
     1
 40
0.0
176
     1
 90
        0
176
     1
290
     0
176
     1
290
     1
176
     1
290
     1
176
     1
290
     0
176
     1
290
     0
176
     1
290
     0
176
     1
290
     0
176
     1
290
     0
176
     1
290
     0
176
     1
 90
       50
176
     1
 40
0.0
176
     1
 40
1.0
176
     1
 90
        0
176
     1
 62
    18
420
        0
176
     1
 90
       50
176
     1
 90
        3
176
     1
 62
     5
420
      255
176
     1
290
     0
176
     1
 90
       50
176
     1
 90
       50
176
     1
 90
       50
176
     1
290
     0
176
     1
 90
       50
176
     1
 62
   256
176
     0
 40
1.0
176
     0
 90
        2
176
     1
  1
strokes_ogs.tif
176
     1
290
     0
176
     1
 40
1.0
176
     1
 40
1.0
176
     1
  0
VISUALSTYLE
  5
3B
102
{ACAD_REACTORS
330
29
102
}
330
29
100
AcDbVisualStyle
  2
Sketchy
 70
    24
177
     3
291
     0
 70
    58
 90
        1
176
     1
 90
        2
176
     1
 90
        2
176
     1
 90
        0
176
     1
 40
0.6
176
     1
 40
30.0
176
     1
 62
     7
420
 16777215
176
     1
 90
        2
176
     1
 90
        2
176
     1
 62
     7
176
     1
 62
     7
176
     1
 90
        1
176
     1
 90
        1
176
     1
 40
40.0
176
     1
 90
       11
176
     1
 62
     7
176
     1
 40
1.0
176
     1
 90
        1
176
     1
 90
        6
176
     1
 90
        2
176
     1
 62
     7
176
     1
 90
        6
176
     1
 90
        0
176
     1
 90
        0
176
     1
290
     0
176
     1
 90
        1
176
     1
 40
0.0
176
     1
 90
        0
176
     1
290
     0
176
     1
290
     1
176
     1
290
     1
176
     1
290
     0
176
     1
290
     0
176
     1
290
     0
176
     1
290
     0
176
     1
290
     0
176
     1
290
     0
176
     1
 90
       50
176
     1
 40
0.0
176
     1
 40
1.0
176
     1
 90
        0
176
     1
 62
    18
420
        0
176
     1
 90
       50
176
     1
 90
        3
176
     1
 62
     5
420
      255
176
     1
290
     0
176
     1
 90
       50
176
     1
 90
       50
176
     1
 90
       50
176
     1
290
     0
176
     1
 90
       50
176
     1
 62
   256
176
     0
 40
1.0
176
     0
 90
        2
176
     1
  1
strokes_ogs.tif
176
     1
290
     0
176
     1
 40
1.0
176
     1
 40
1.0
176
     1
  0
VISUALSTYLE
  5
36
102
{ACAD_REACTORS
330
29
102
}
330
29
100
AcDbVisualStyle
  2
Thicken
 70
    13
177
     3
291
     1
 70
    58
 90
        2
176
     1
 90
        2
176
     1
 90
        0
176
     1
 90
        0
176
     1
 40
0.6
176
     1
 40
30.0
176
     1
 62
     7
420
 16777215
176
     1
 90
        1
176
     1
 90
        4
176
     1
 62
     7
176
     1
 62
   257
176
     1
 90
        1
176
     1
 90
        1
176
     1
 40
1.0
176
     1
 90
       12
176
     1
 62
     7
176
     1
 40
1.0
176
     1
 90
        1
176
     1
 90
        6
176
     1
 90
        2
176
     1
 62
     7
176
     1
 90
        5
176
     1
 90
        0
176
     1
 90
        0
176
     1
290
     0
176
     1
 90
        1
176
     1
 40
0.0
176
     1
 90
        0
176
     1
290
     0
176
     1
290
     1
176
     1
290
     1
176
     1
290
     0
176
     1
290
     0
176
     1
290
     0
176
     1
290
     0
176
     1
290
     0
176
     1
290
     0
176
     1
 90
       50
176
     1
 40
0.0
176
     1
 40
1.0
176
     1
 90
        0
176
     1
 62
    18
420
        0
176
     1
 90
       50
176
     1
 90
        3
176
     1
 62
     5
420
      255
176
     1
290
     0
176
     1
 90
       50
176
     1
 90
       50
176
     1
 90
       50
176
     1
290
     0
176
     1
 90
       50
176
     1
 62
   256
176
     0
 40
1.0
176
     0
 90
        2
176
     1
  1
strokes_ogs.tif
176
     1
290
     0
176
     1
 40
1.0
176
     1
 40
1.0
176
     1
  0
VISUALSTYLE
  5
30
102
{ACAD_REACTORS
330
29
102
}
330
29
100
AcDbVisualStyle
  2
Wireframe
 70
     5
177
     3
291
     0
 70
    58
 90
        0
176
     1
 90
        2
176
     1
 90
        0
176
     1
 90
        0
176
     1
 40
0.6
176
     1
 40
30.0
176
     1
 62
     7
420
 16777215
176
     1
 90
        1
176
     1
 90
        4
176
     1
 62
     7
176
     1
 62
   257
176
     1
 90
        1
176
     1
 90
        1
176
     1
 40
1.0
176
     1
 90
        0
176
     1
 62
   257
176
     1
 40
1.0
176
     1
 90
        1
176
     1
 90
        6
176
     1
 90
        2
176
     1
 62
     7
176
     1
 90
        3
176
     1
 90
        0
176
     1
 90
        0
176
     1
290
     0
176
     1
 90
        1
176
     1
 40
0.0
176
     1
 90
        0
176
     1
290
     0
176
     1
290
     1
176
     1
290
     1
176
     1
290
     0
176
     1
290
     0
176
     1
290
     0
176
     1
290
     0
176
     1
290
     0
176
     1
290
     0
176
     1
 90
       50
176
     1
 40
0.0
176
     1
 40
1.0
176
     1
 90
        0
176
     1
 62
    18
420
        0
176
     1
 90
       50
176
     1
 90
        3
176
     1
 62
     5
420
      255
176
     1
290
     0
176
     1
 90
       50
176
     1
 90
       50
176
     1
 90
       50
176
     1
290
     0
176
     1
 90
       50
176
     1
 62
   256
176
     0
 40
1.0
176
     0
 90
        2
176
     1
  1
strokes_ogs.tif
176
     1
290
     0
176
     1
 40
1.0
176
     1
 40
1.0
176
     1
  0
VISUALSTYLE
  5
3C
102
{ACAD_REACTORS
330
29
102
}
330
29
100
AcDbVisualStyle
  2
X-Ray
 70
    25
177
     3
291
     0
 70
    58
 90
        2
176
     1
 90
        2
176
     1
 90
        1
176
     1
 90
        1
176
     1
 40
0.5
176
     1
 40
30.0
176
     1
 62
     7
420
 16777215
176
     1
 90
        1
176
     1
 90
        0
176
     1
 62
     7
176
     1
 62
   257
176
     1
 90
        1
176
     1
 90
        1
176
     1
 40
1.0
176
     1
 90
        8
176
     1
 62
     7
176
     1
 40
1.0
176
     1
 90
        1
176
     1
 90
        6
176
     1
 90
        2
176
     1
 62
     7
176
     1
 90
        3
176
     1
 90
        0
176
     1
 90
        0
176
     1
290
     0
176
     1
 90
       13
176
     1
 40
0.0
176
     1
 90
        0
176
     1
290
     0
176
     1
290
     1
176
     1
290
     1
176
     1
290
     0
176
     1
290
     0
176
     1
290
     0
176
     1
290
     0
176
     1
290
     0
176
     1
290
     0
176
     1
 90
       50
176
     1
 40
0.0
176
     1
 40
1.0
176
     1
 90
        0
176
     1
 62
    18
420
        0
176
     1
 90
       50
176
     1
 90
        3
176
     1
 62
     5
420
      255
176
     1
290
     0
176
     1
 90
       50
176
     1
 90
       50
176
     1
 90
       50
176
     1
290
     0
176
     1
 90
       50
176
     1
 62
   256
176
     0
 40
1.0
176
     0
 90
        2
176
     1
  1
strokes_ogs.tif
176
     1
290
     0
176
     1
 40
1.0
176
     1
 40
1.0
176
     1
  0
DICTIONARYVAR
  5
87
102
{ACAD_REACTORS
330
82
102
}
330
82
100
DictionaryVariables
280
     0
  1
1:1
  0
DICTIONARYVAR
  5
84
102
{ACAD_REACTORS
330
82
102
}
330
82
100
DictionaryVariables
280
     0
  1
STANDARD
  0
DICTIONARYVAR
  5
83
102
{ACAD_REACTORS
330
82
102
}
330
82
100
DictionaryVariables
280
     0
  1
STANDARD
  0
DICTIONARYVAR
  5
85
102
{ACAD_REACTORS
330
82
102
}
330
82
100
DictionaryVariables
280
     0
  1
Imperial24
  0
DICTIONARYVAR
  5
86
102
{ACAD_REACTORS
330
82
102
}
330
82
100
DictionaryVariables
280
     0
  1
Imperial24
  0
DICTIONARY
  5
1A
330
19
100
AcDbDictionary
280
     1
281
     1
  3
BUMPTILE
360
1C
  3
DIFFUSETILE
360
1B
  3
OPACITYTILE
360
1F
  3
REFLECTIONTILE
360
1E
  3
REFRACTIONTILE
360
20
  3
SPECULARTILE
360
1D
  0
DICTIONARY
  5
12
330
11
100
AcDbDictionary
280
     1
281
     1
  3
BUMPTILE
360
14
  3
DIFFUSETILE
360
13
  3
OPACITYTILE
360
17
  3
REFLECTIONTILE
360
16
  3
REFRACTIONTILE
360
18
  3
SPECULARTILE
360
15
  0
DICTIONARY
  5
22
330
21
100
AcDbDictionary
280
     1
281
     1
  3
BUMPTILE
360
24
  3
DIFFUSETILE
360
23
  3
OPACITYTILE
360
27
  3
REFLECTIONTILE
360
26
  3
REFRACTIONTILE
360
28
  3
SPECULARTILE
360
25
  0
DICTIONARY
  5
88
330
65
100
AcDbDictionary
280
     1
281
     1
  3
ACAD_ROUNDTRIP_2008_TABLESTYLE_CELLSTYLEMAP
360
89
  0
XRECORD
  5
1C
102
{ACAD_REACTORS
330
1A
102
}
330
1A
100
AcDbXrecord
280
     1
270
     1
271
     1
  0
XRECORD
  5
1B
102
{ACAD_REACTORS
330
1A
102
}
330
1A
100
AcDbXrecord
280
     1
270
     1
271
     1
  0
XRECORD
  5
1F
102
{ACAD_REACTORS
330
1A
102
}
330
1A
100
AcDbXrecord
280
     1
270
     1
271
     1
  0
XRECORD
  5
1E
102
{ACAD_REACTORS
330
1A
102
}
330
1A
100
AcDbXrecord
280
     1
270
     1
271
     1
  0
XRECORD
  5
20
102
{ACAD_REACTORS
330
1A
102
}
330
1A
100
AcDbXrecord
280
     1
270
     1
271
     1
  0
XRECORD
  5
1D
102
{ACAD_REACTORS
330
1A
102
}
330
1A
100
AcDbXrecord
280
     1
270
     1
271
     1
  0
XRECORD
  5
14
102
{ACAD_REACTORS
330
12
102
}
330
12
100
AcDbXrecord
280
     1
270
     1
271
     1
  0
XRECORD
  5
13
102
{ACAD_REACTORS
330
12
102
}
330
12
100
AcDbXrecord
280
     1
270
     1
271
     1
  0
XRECORD
  5
17
102
{ACAD_REACTORS
330
12
102
}
330
12
100
AcDbXrecord
280
     1
270
     1
271
     1
  0
XRECORD
  5
16
102
{ACAD_REACTORS
330
12
102
}
330
12
100
AcDbXrecord
280
     1
270
     1
271
     1
  0
XRECORD
  5
18
102
{ACAD_REACTORS
330
12
102
}
330
12
100
AcDbXrecord
280
     1
270
     1
271
     1
  0
XRECORD
  5
15
102
{ACAD_REACTORS
330
12
102
}
330
12
100
AcDbXrecord
280
     1
270
     1
271
     1
  0
XRECORD
  5
24
102
{ACAD_REACTORS
330
22
102
}
330
22
100
AcDbXrecord
280
     1
270
     1
271
     1
  0
XRECORD
  5
23
102
{ACAD_REACTORS
330
22
102
}
330
22
100
AcDbXrecord
280
     1
270
     1
271
     1
  0
XRECORD
  5
27
102
{ACAD_REACTORS
330
22
102
}
330
22
100
AcDbXrecord
280
     1
270
     1
271
     1
  0
XRECORD
  5
26
102
{ACAD_REACTORS
330
22
102
}
330
22
100
AcDbXrecord
280
     1
270
     1
271
     1
  0
XRECORD
  5
28
102
{ACAD_REACTORS
330
22
102
}
330
22
100
AcDbXrecord
280
     1
270
     1
271
     1
  0
XRECORD
  5
25
102
{ACAD_REACTORS
330
22
102
}
330
22
100
AcDbXrecord
280
     1
270
     1
271
     1
  0
CELLSTYLEMAP
  5
89
102
{ACAD_REACTORS
330
88
102
}
330
88
100
AcDbCellStyleMap
 90
        3
300
CELLSTYLE
  1
TABLEFORMAT_BEGIN
 90
        5
170
     1
 91
        0
 92
    32768
 62
   257
 93
        1
300
CONTENTFORMAT
  1
CONTENTFORMAT_BEGIN
 90
        0
 91
        0
 92
      512
 93
        0
300

 40
0.0
140
1.0
 94
        5
 62
     0
340
55
144
0.25
309
CONTENTFORMAT_END
171
     0
 94
        0
309
TABLEFORMAT_END
  1
CELLSTYLE_BEGIN
 90
        1
 91
        1
300
_TITLE
309
CELLSTYLE_END
300
CELLSTYLE
  1
TABLEFORMAT_BEGIN
 90
        5
170
     1
 91
        0
 92
        0
 62
   257
 93
        1
300
CONTENTFORMAT
  1
CONTENTFORMAT_BEGIN
 90
        0
 91
        0
 92
      512
 93
        0
300

 40
0.0
140
1.0
 94
        5
 62
     0
340
55
144
0.18
309
CONTENTFORMAT_END
171
     0
 94
        0
309
TABLEFORMAT_END
  1
CELLSTYLE_BEGIN
 90
        2
 91
        1
300
_HEADER
309
CELLSTYLE_END
300
CELLSTYLE
  1
TABLEFORMAT_BEGIN
 90
        5
170
     1
 91
        0
 92
        0
 62
   257
 93
        1
300
CONTENTFORMAT
  1
CONTENTFORMAT_BEGIN
 90
        0
 91
        0
 92
      512
 93
        0
300

 40
0.0
140
1.0
 94
        2
 62
     0
340
55
144
0.18
309
CONTENTFORMAT_END
171
     0
 94
        0
309
TABLEFORMAT_END
  1
CELLSTYLE_BEGIN
 90
        3
 91
        2
300
_DATA
309
CELLSTYLE_END
  0
ENDSEC
  0
EOF
