  0
SECTION
  2
HEADER
  9
$ACADVER
  1
AC1032
  9
$ACADMAINTVER
 90
      266
  9
$DWGCODEPAGE
  3
ANSI_1252
  9
$REQUIREDVERSIONS
160
                 0
  9
$INSBASE
 10
0.0
 20
0.0
 30
0.0
  9
$EXTMIN
 10
1.000000000000000E+20
 20
1.000000000000000E+20
 30
1.000000000000000E+20
  9
$EXTMAX
 10
-1.000000000000000E+20
 20
-1.000000000000000E+20
 30
-1.000000000000000E+20
  9
$LIMMIN
 10
0.0
 20
0.0
  9
$LIMMAX
 10
12.0
 20
9.0
  9
$ORTHOMODE
 70
     0
  9
$REGENMODE
 70
     1
  9
$FILLMODE
 70
     1
  9
$QTEXTMODE
 70
     0
  9
$MIRRTEXT
 70
     0
  9
$LTSCALE
 40
1.0
  9
$ATTMODE
 70
     1
  9
$TEXTSIZE
 40
0.2
  9
$TRACEWID
 40
0.05
  9
$TEXTSTYLE
  7
Standard
  9
$CLAYER
  8
0
  9
$CELTYPE
  6
ByLayer
  9
$CECOLOR
 62
   256
  9
$CELTSCALE
 40
1.0
  9
$DISPSILH
 70
     0
  9
$DIMSCALE
 40
1.0
  9
$DIMASZ
 40
0.18
  9
$DIMEXO
 40
0.0625
  9
$DIMDLI
 40
0.38
  9
$DIMRND
 40
0.0
  9
$DIMDLE
 40
0.0
  9
$DIMEXE
 40
0.18
  9
$DIMTP
 40
0.0
  9
$DIMTM
 40
0.0
  9
$DIMTXT
 40
0.18
  9
$DIMCEN
 40
0.09
  9
$DIMTSZ
 40
0.0
  9
$DIMTOL
 70
     0
  9
$DIMLIM
 70
     0
  9
$DIMTIH
 70
     1
  9
$DIMTOH
 70
     1
  9
$DIMSE1
 70
     0
  9
$DIMSE2
 70
     0
  9
$DIMTAD
 70
     0
  9
$DIMZIN
 70
     0
  9
$DIMBLK
  1

  9
$DIMASO
 70
     1
  9
$DIMSHO
 70
     1
  9
$DIMPOST
  1

  9
$DIMAPOST
  1

  9
$DIMALT
 70
     0
  9
$DIMALTD
 70
     2
  9
$DIMALTF
 40
25.4
  9
$DIMLFAC
 40
1.0
  9
$DIMTOFL
 70
     0
  9
$DIMTVP
 40
0.0
  9
$DIMTIX
 70
     0
  9
$DIMSOXD
 70
     0
  9
$DIMSAH
 70
     0
  9
$DIMBLK1
  1

  9
$DIMBLK2
  1

  9
$DIMSTYLE
  2
Standard
  9
$DIMCLRD
 70
     0
  9
$DIMCLRE
 70
     0
  9
$DIMCLRT
 70
     0
  9
$DIMTFAC
 40
1.0
  9
$DIMGAP
 40
0.09
  9
$DIMJUST
 70
     0
  9
$DIMSD1
 70
     0
  9
$DIMSD2
 70
     0
  9
$DIMTOLJ
 70
     1
  9
$DIMTZIN
 70
     0
  9
$DIMALTZ
 70
     0
  9
$DIMALTTZ
 70
     0
  9
$DIMUPT
 70
     0
  9
$DIMDEC
 70
     4
  9
$DIMTDEC
 70
     4
  9
$DIMALTU
 70
     2
  9
$DIMALTTD
 70
     2
  9
$DIMTXSTY
  7
Standard
  9
$DIMAUNIT
 70
     0
  9
$DIMADEC
 70
     0
  9
$DIMALTRND
 40
0.0
  9
$DIMAZIN
 70
     0
  9
$DIMDSEP
 70
    46
  9
$DIMATFIT
 70
     3
  9
$DIMFRAC
 70
     0
  9
$DIMLDRBLK
  1

  9
$DIMLUNIT
 70
     2
  9
$DIMLWD
 70
    -2
  9
$DIMLWE
 70
    -2
  9
$DIMTMOVE
 70
     0
  9
$DIMFXL
 40
1.0
  9
$DIMFXLON
 70
     0
  9
$DIMJOGANG
 40
0.7853981633974483
  9
$DIMTFILL
 70
     0
  9
$DIMTFILLCLR
 70
     0
  9
$DIMARCSYM
 70
     0
  9
$DIMLTYPE
  6

  9
$DIMLTEX1
  6

  9
$DIMLTEX2
  6

  9
$DIMTXTDIRECTION
 70
     0
  9
$LUNITS
 70
     2
  9
$LUPREC
 70
     4
  9
$SKETCHINC
 40
0.1
  9
$FILLETRAD
 40
0.0
  9
$AUNITS
 70
     0
  9
$AUPREC
 70
     0
  9
$MENU
  1
.
  9
$ELEVATION
 40
0.0
  9
$PELEVATION
 40
0.0
  9
$THICKNESS
 40
0.0
  9
$LIMCHECK
 70
     0
  9
$CHAMFERA
 40
0.0
  9
$CHAMFERB
 40
0.0
  9
$CHAMFERC
 40
0.0
  9
$CHAMFERD
 40
0.0
  9
$SKPOLY
 70
     0
  9
$TDCREATE
 40
2461118.690810185
  9
$TDUCREATE
 40
2461118.649143518
  9
$TDUPDATE
 40
2461118.690810185
  9
$TDUUPDATE
 40
2461118.649143518
  9
$TDINDWG
 40
0.0000000000
  9
$TDUSRTIMER
 40
0.0000000000
  9
$USRTIMER
 70
     1
  9
$ANGBASE
 50
0.0
  9
$ANGDIR
 70
     0
  9
$PDMODE
 70
     0
  9
$PDSIZE
 40
0.0
  9
$PLINEWID
 40
0.0
  9
$SPLFRAME
 70
     0
  9
$SPLINETYPE
 70
     6
  9
$SPLINESEGS
 70
     8
  9
$HANDSEED
  5
9E
  9
$SURFTAB1
 70
     6
  9
$SURFTAB2
 70
     6
  9
$SURFTYPE
 70
     6
  9
$SURFU
 70
     6
  9
$SURFV
 70
     6
  9
$UCSBASE
  2

  9
$UCSNAME
  2

  9
$UCSORG
 10
0.0
 20
0.0
 30
0.0
  9
$UCSXDIR
 10
1.0
 20
0.0
 30
0.0
  9
$UCSYDIR
 10
0.0
 20
1.0
 30
0.0
  9
$UCSORTHOREF
  2

  9
$UCSORTHOVIEW
 70
     0
  9
$UCSORGTOP
 10
0.0
 20
0.0
 30
0.0
  9
$UCSORGBOTTOM
 10
0.0
 20
0.0
 30
0.0
  9
$UCSORGLEFT
 10
0.0
 20
0.0
 30
0.0
  9
$UCSORGRIGHT
 10
0.0
 20
0.0
 30
0.0
  9
$UCSORGFRONT
 10
0.0
 20
0.0
 30
0.0
  9
$UCSORGBACK
 10
0.0
 20
0.0
 30
0.0
  9
$PUCSBASE
  2

  9
$PUCSNAME
  2

  9
$PUCSORG
 10
0.0
 20
0.0
 30
0.0
  9
$PUCSXDIR
 10
1.0
 20
0.0
 30
0.0
  9
$PUCSYDIR
 10
0.0
 20
1.0
 30
0.0
  9
$PUCSORTHOREF
  2

  9
$PUCSORTHOVIEW
 70
     0
  9
$PUCSORGTOP
 10
0.0
 20
0.0
 30
0.0
  9
$PUCSORGBOTTOM
 10
0.0
 20
0.0
 30
0.0
  9
$PUCSORGLEFT
 10
0.0
 20
0.0
 30
0.0
  9
$PUCSORGRIGHT
 10
0.0
 20
0.0
 30
0.0
  9
$PUCSORGFRONT
 10
0.0
 20
0.0
 30
0.0
  9
$PUCSORGBACK
 10
0.0
 20
0.0
 30
0.0
  9
$USERI1
 70
     0
  9
$USERI2
 70
     0
  9
$USERI3
 70
     0
  9
$USERI4
 70
     0
  9
$USERI5
 70
     0
  9
$USERR1
 40
0.0
  9
$USERR2
 40
0.0
  9
$USERR3
 40
0.0
  9
$USERR4
 40
0.0
  9
$USERR5
 40
0.0
  9
$WORLDVIEW
 70
     1
  9
$SHADEDGE
 70
     3
  9
$SHADEDIF
 70
    70
  9
$TILEMODE
 70
     1
  9
$MAXACTVP
 70
    64
  9
$PINSBASE
 10
0.0
 20
0.0
 30
0.0
  9
$PLIMCHECK
 70
     0
  9
$PEXTMIN
 10
1.000000000000000E+20
 20
1.000000000000000E+20
 30
1.000000000000000E+20
  9
$PEXTMAX
 10
-1.000000000000000E+20
 20
-1.000000000000000E+20
 30
-1.000000000000000E+20
  9
$PLIMMIN
 10
0.0
 20
0.0
  9
$PLIMMAX
 10
12.0
 20
9.0
  9
$UNITMODE
 70
     0
  9
$VISRETAIN
 70
     1
  9
$PLINEGEN
 70
     0
  9
$PSLTSCALE
 70
     1
  9
$TREEDEPTH
 70
  3020
  9
$CMLSTYLE
  2
Standard
  9
$CMLJUST
 70
     0
  9
$CMLSCALE
 40
1.0
  9
$PROXYGRAPHICS
 70
     1
  9
$MEASUREMENT
 70
     0
  9
$CELWEIGHT
370
    -1
  9
$ENDCAPS
280
     0
  9
$JOINSTYLE
280
     0
  9
$LWDISPLAY
290
     1
  9
$INSUNITS
 70
     4
  9
$HYPERLINKBASE
  1

  9
$STYLESHEET
  1

  9
$XEDIT
290
     1
  9
$CEPSNTYPE
380
     0
  9
$PSTYLEMODE
290
     1
  9
$FINGERPRINTGUID
  2
{1C354960-C37C-BD4D-8EED-C356DBAF1BB1}
  9
$VERSIONGUID
  2
{52C9AFC5-D089-E24D-B9A6-1AE0FF00F8E6}
  9
$EXTNAMES
290
     1
  9
$PSVPSCALE
 40
0.0
  9
$OLESTARTUP
290
     0
  9
$SORTENTS
280
   127
  9
$INDEXCTL
280
     0
  9
$HIDETEXT
280
     1
  9
$XCLIPFRAME
280
     2
  9
$HALOGAP
280
     0
  9
$OBSCOLOR
 70
   257
  9
$OBSLTYPE
280
     0
  9
$INTERSECTIONDISPLAY
280
     0
  9
$INTERSECTIONCOLOR
 70
   257
  9
$DIMASSOC
280
     2
  9
$PROJECTNAME
  1

  9
$CAMERADISPLAY
290
     0
  9
$LENSLENGTH
 40
50.0
  9
$CAMERAHEIGHT
 40
0.0
  9
$STEPSPERSEC
 40
2.0
  9
$STEPSIZE
 40
6.0
  9
$3DDWFPREC
 40
2.0
  9
$PSOLWIDTH
 40
0.25
  9
$PSOLHEIGHT
 40
4.0
  9
$LOFTANG1
 40
1.570796326794896
  9
$LOFTANG2
 40
1.570796326794896
  9
$LOFTMAG1
 40
0.0
  9
$LOFTMAG2
 40
0.0
  9
$LOFTPARAM
 70
     7
  9
$LOFTNORMALS
280
     1
  9
$LATITUDE
 40
37.795
  9
$LONGITUDE
 40
-122.394
  9
$NORTHDIRECTION
 40
0.0
  9
$TIMEZONE
 70
 -8000
  9
$LIGHTGLYPHDISPLAY
280
     1
  9
$TILEMODELIGHTSYNCH
280
     1
  9
$CMATERIAL
347
11
  9
$SOLIDHIST
280
     0
  9
$SHOWHIST
280
     1
  9
$DWFFRAME
280
     2
  9
$DGNFRAME
280
     0
  9
$REALWORLDSCALE
290
     1
  9
$INTERFERECOLOR
 62
     1
  9
$INTERFEREOBJVS
345
33
  9
$INTERFEREVPVS
346
30
  9
$CSHADOW
280
     0
  9
$SHADOWPLANELOCATION
 40
0.0
  0
ENDSEC
  0
SECTION
  2
CLASSES
  0
CLASS
  1
ACDBDICTIONARYWDFLT
  2
AcDbDictionaryWithDefault
  3
ObjectDBX Classes
 90
        0
 91
        1
280
     0
281
     0
  0
CLASS
  1
MATERIAL
  2
AcDbMaterial
  3
ObjectDBX Classes
 90
     1153
 91
        3
280
     0
281
     0
  0
CLASS
  1
VISUALSTYLE
  2
AcDbVisualStyle
  3
ObjectDBX Classes
 90
     4095
 91
       24
280
     0
281
     0
  0
CLASS
  1
SCALE
  2
AcDbScale
  3
ObjectDBX Classes
 90
     1153
 91
       17
280
     0
281
     0
  0
CLASS
  1
TABLESTYLE
  2
AcDbTableStyle
  3
ObjectDBX Classes
 90
     4095
 91
        1
280
     0
281
     0
  0
CLASS
  1
MLEADERSTYLE
  2
AcDbMLeaderStyle
  3
ACDB_MLEADERSTYLE_CLASS
 90
     4095
 91
        1
280
     0
281
     0
  0
CLASS
  1
ACDBSECTIONVIEWSTYLE
  2
AcDbSectionViewStyle
  3
ObjectDBX Classes
 90
     1025
 91
        1
280
     0
281
     0
  0
CLASS
  1
ACDBDETAILVIEWSTYLE
  2
AcDbDetailViewStyle
  3
ObjectDBX Classes
 90
     1025
 91
        1
280
     0
281
     0
  0
CLASS
  1
DICTIONARYVAR
  2
AcDbDictionaryVar
  3
ObjectDBX Classes
 90
        0
 91
        5
280
     0
281
     0
  0
CLASS
  1
CELLSTYLEMAP
  2
AcDbCellStyleMap
  3
ObjectDBX Classes
 90
     1152
 91
        1
280
     0
281
     0
  0
ENDSEC
  0
SECTION
  2
TABLES
  0
TABLE
  2
VPORT
  5
8
330
0
100
AcDbSymbolTable
 70
     1
  0
VPORT
  5
57
330
8
100
AcDbSymbolTableRecord
100
AcDbViewportTableRecord
  2
*Active
 70
     0
 10
0.0
 20
0.0
 11
1.0
 21
1.0
 12
0.0
 22
0.0
 13
0.0
 23
0.0
 14
1.0
 24
1.0
 15
0.0
 25
0.0
 16
0.0
 26
0.0
 36
1.0
 17
3.499999999124846
 27
-3.499999999124846
 37
0.0
 40
7.139999998214686
 41
1.0
 42
50.0
 43
0.0
 44
0.0
 50
0.0
 51
0.0
 71
     0
 72
   100
 73
     1
 74
     1
 75
     0
 76
     0
 77
     0
 78
     0
281
     0
 65
     1
110
0.0
120
0.0
130
0.0
111
1.0
121
0.0
131
0.0
112
0.0
122
1.0
132
0.0
 79
     0
146
0.0
 60
     3
 61
     5
292
     1
282
     1
141
0.0
142
0.0
 63
   250
421
  3355443
  0
ENDTAB
  0
TABLE
  2
LTYPE
  5
5
330
0
100
AcDbSymbolTable
 70
     1
  0
LTYPE
  5
5B
330
5
100
AcDbSymbolTableRecord
100
AcDbLinetypeTableRecord
  2
ByBlock
 70
     0
  3

 72
    65
 73
     0
 40
0.0
  0
LTYPE
  5
5C
330
5
100
AcDbSymbolTableRecord
100
AcDbLinetypeTableRecord
  2
ByLayer
 70
     0
  3

 72
    65
 73
     0
 40
0.0
  0
LTYPE
  5
5D
330
5
100
AcDbSymbolTableRecord
100
AcDbLinetypeTableRecord
  2
Continuous
 70
     0
  3
Solid line
 72
    65
 73
     0
 40
0.0
  0
ENDTAB
  0
TABLE
  2
LAYER
  5
2
330
0
100
AcDbSymbolTable
 70
     3
  0
LAYER
  5
54
330
2
100
AcDbSymbolTableRecord
100
AcDbLayerTableRecord
  2
0
 70
     0
 62
     7
  6
Continuous
370
    -3
390
F
347
21
348
0
  0
LAYER
  5
78
330
2
100
AcDbSymbolTableRecord
100
AcDbLayerTableRecord
  2
Stroke
 70
     1
 62
     7
  6
Continuous
370
     0
390
F
347
21
348
0
  0
LAYER
  5
7E
330
2
100
AcDbSymbolTableRecord
100
AcDbLayerTableRecord
  2
Outlines
 70
     0
 62
     7
  6
Continuous
370
     0
390
F
347
21
348
0
  0
ENDTAB
  0
TABLE
  2
STYLE
  5
3
330
0
100
AcDbSymbolTable
 70
     2
  0
STYLE
  5
55
330
3
100
AcDbSymbolTableRecord
100
AcDbTextStyleTableRecord
  2
Standard
 70
     0
 40
0.0
 41
1.0
 50
0.0
 71
     0
 42
0.2
  3
txt
  4

  0
STYLE
  5
5A
330
3
100
AcDbSymbolTableRecord
100
AcDbTextStyleTableRecord
  2
Annotative
 70
     0
 40
0.0
 41
1.0
 50
0.0
 71
     0
 42
0.2
  3
txt
  4

1001
AcadAnnotative
1000
AnnotativeData
1002
{
1070
     1
1070
     1
1002
}
  0
ENDTAB
  0
TABLE
  2
VIEW
  5
6
330
0
100
AcDbSymbolTable
 70
     0
  0
ENDTAB
  0
TABLE
  2
UCS
  5
7
330
0
100
AcDbSymbolTable
 70
     0
  0
ENDTAB
  0
TABLE
  2
APPID
  5
9
330
0
100
AcDbSymbolTable
 70
     2
  0
APPID
  5
56
330
9
100
AcDbSymbolTableRecord
100
AcDbRegAppTableRecord
  2
ACAD
 70
     0
  0
APPID
  5
5E
330
9
100
AcDbSymbolTableRecord
100
AcDbRegAppTableRecord
  2
AcadAnnotative
 70
     0
  0
ENDTAB
  0
TABLE
  2
DIMSTYLE
  5
A
330
0
100
AcDbSymbolTable
 70
     2
100
AcDbDimStyleTable
 71
     0
  0
DIMSTYLE
105
58
330
A
100
AcDbSymbolTableRecord
100
AcDbDimStyleTableRecord
  2
Standard
 70
     0
340
55
  0
DIMSTYLE
105
59
330
A
100
AcDbSymbolTableRecord
100
AcDbDimStyleTableRecord
  2
Annotative
 70
     0
340
55
1001
AcadAnnotative
1000
AnnotativeData
1002
{
1070
     1
1070
     1
1002
}
  0
ENDTAB
  0
TABLE
  2
BLOCK_RECORD
  5
1
330
0
100
AcDbSymbolTable
 70
     3
  0
BLOCK_RECORD
  5
70
330
1
100
AcDbSymbolTableRecord
100
AcDbBlockTableRecord
  2
*Model_Space
340
73
 70
     0
280
     1
281
     0
  0
BLOCK_RECORD
  5
6C
330
1
100
AcDbSymbolTableRecord
100
AcDbBlockTableRecord
  2
*Paper_Space
340
6F
 70
     0
280
     1
281
     0
  0
BLOCK_RECORD
  5
74
330
1
100
AcDbSymbolTableRecord
100
AcDbBlockTableRecord
  2
*Paper_Space0
340
77
 70
     0
280
     1
281
     0
  0
BLOCK_RECORD
  5
85
330
1
100
AcDbSymbolTableRecord
100
AcDbBlockTableRecord
  2
Block_0
340
0
102
{BLKREFS
331
86
102
}
 70
     0
280
     1
281
     0
  0
BLOCK_RECORD
  5
8D
330
1
100
AcDbSymbolTableRecord
100
AcDbBlockTableRecord
  2
Block_1
340
0
102
{BLKREFS
331
8E
102
}
 70
     0
280
     1
281
     0
  0
ENDTAB
  0
ENDSEC
  0
SECTION
  2
BLOCKS
  0
BLOCK
  5
71
330
70
100
AcDbEntity
  8
0
100
AcDbBlockBegin
  2
*Model_Space
 70
     0
 10
0.0
 20
0.0
 30
0.0
  3
*Model_Space
  1

  0
ENDBLK
  5
72
330
70
100
AcDbEntity
  8
0
100
AcDbBlockEnd
  0
BLOCK
  5
6D
330
6C
100
AcDbEntity
 67
     1
  8
0
100
AcDbBlockBegin
  2
*Paper_Space
 70
     0
 10
0.0
 20
0.0
 30
0.0
  3
*Paper_Space
  1

  0
ENDBLK
  5
6E
330
6C
100
AcDbEntity
 67
     1
  8
0
100
AcDbBlockEnd
  0
BLOCK
  5
75
330
74
100
AcDbEntity
 67
     1
  8
0
100
AcDbBlockBegin
  2
*Paper_Space0
 70
     0
 10
0.0
 20
0.0
 30
0.0
  3
*Paper_Space0
  1

  0
ENDBLK
  5
76
330
74
100
AcDbEntity
 67
     1
  8
0
100
AcDbBlockEnd
  0
BLOCK
  5
87
330
85
100
AcDbEntity
  8
0
100
AcDbBlockBegin
  2
Block_0
 70
     0
 10
0.0
 20
0.0
 30
0.0
  3
Block_0
  1

  0
SPLINE
  5
89
330
85
100
AcDbEntity
  8
Outlines
100
AcDbSpline
210
0.0
220
0.0
230
1.0
 70
     9
 71
     3
 72
   119
 73
   115
 74
     0
 42
0.0000000001
 43
0.0000000001
 40
0.0
 40
0.0
 40
0.0
 40
0.0
 40
1.0
 40
1.0
 40
1.0
 40
2.0
 40
2.0
 40
2.0
 40
3.0
 40
3.0
 40
3.0
 40
4.0
 40
4.0
 40
4.0
 40
5.0
 40
5.0
 40
5.0
 40
6.0
 40
6.0
 40
6.0
 40
7.0
 40
7.0
 40
7.0
 40
8.0
 40
8.0
 40
8.0
 40
9.0
 40
9.0
 40
9.0
 40
10.0
 40
10.0
 40
10.0
 40
11.0
 40
11.0
 40
11.0
 40
12.0
 40
12.0
 40
12.0
 40
13.0
 40
13.0
 40
13.0
 40
14.0
 40
14.0
 40
14.0
 40
15.0
 40
15.0
 40
15.0
 40
16.0
 40
16.0
 40
16.0
 40
17.0
 40
17.0
 40
17.0
 40
18.0
 40
18.0
 40
18.0
 40
19.0
 40
19.0
 40
19.0
 40
20.0
 40
20.0
 40
20.0
 40
21.0
 40
21.0
 40
21.0
 40
22.0
 40
22.0
 40
22.0
 40
23.0
 40
23.0
 40
23.0
 40
24.0
 40
24.0
 40
24.0
 40
25.0
 40
25.0
 40
25.0
 40
26.0
 40
26.0
 40
26.0
 40
27.0
 40
27.0
 40
27.0
 40
28.0
 40
28.0
 40
28.0
 40
29.0
 40
29.0
 40
29.0
 40
30.0
 40
30.0
 40
30.0
 40
31.0
 40
31.0
 40
31.0
 40
32.0
 40
32.0
 40
32.0
 40
33.0
 40
33.0
 40
33.0
 40
34.0
 40
34.0
 40
34.0
 40
35.0
 40
35.0
 40
35.0
 40
36.0
 40
36.0
 40
36.0
 40
37.0
 40
37.0
 40
37.0
 40
38.0
 40
38.0
 40
38.0
 40
38.0
 10
2.642215982412362
 20
-4.263305662996673
 30
0.0
 10
2.642215982412362
 20
-4.263305662996673
 30
0.0
 10
2.614655218530363
 20
-4.241257051891074
 30
0.0
 10
2.614655218530363
 20
-4.241257051891074
 30
0.0
 10
2.656168619127624
 20
-4.189236110063802
 30
0.0
 10
2.675977918167811
 20
-4.162708874827378
 30
0.0
 10
2.69595947198226
 20
-4.135837130042429
 30
0.0
 10
2.715596516248184
 20
-4.109309894806005
 30
0.0
 10
2.735578070062633
 20
-4.082782659569581
 30
0.0
 10
2.776746961111368
 20
-4.03076171774231
 30
0.0
 10
2.819121635579941
 20
-3.977362737720937
 30
0.0
 10
2.845476616042103
 20
-3.954280597969763
 30
0.0
 10
2.871142577407214
 20
-3.931542967767114
 30
0.0
 10
2.896636283998063
 20
-3.90914984711299
 30
0.0
 10
2.920751952394812
 20
-3.887790255104441
 30
0.0
 10
2.96140407912076
 20
-3.836630587148481
 30
0.0
 10
3.003261989266545
 20
-3.784092880998421
 30
0.0
 10
3.028238931534607
 20
-3.760149467375935
 30
0.0
 10
3.052354599931355
 20
-3.737067327624761
 30
0.0
 10
3.076814777876629
 20
-3.713640678325062
 30
0.0
 10
3.099896917627803
 20
-3.691592067219463
 30
0.0
 10
3.140549044353751
 20
-3.640604654037765
 30
0.0
 10
3.181717935402487
 20
-3.588755966984755
 30
0.0
 10
3.201699489216936
 20
-3.562228731748331
 30
0.0
 10
3.221681043031385
 20
-3.535701496511908
 30
0.0
 10
3.241662596845834
 20
-3.508829751726959
 30
0.0
 10
3.261644150660283
 20
-3.482130261716273
 30
0.0
 10
3.303329806031806
 20
-3.429764810340475
 30
0.0
 10
3.343120658886442
 20
-3.37963867103009
 30
0.0
 10
3.356384276504654
 20
-3.350183104631204
 30
0.0
 10
3.370164658445653
 20
-3.319004990489693
 30
0.0
 10
3.38446180470944
 20
-3.287137857251132
 30
0.0
 10
3.399103460521752
 20
-3.254237195366996
 30
0.0
 10
3.441994899313112
 20
-3.200321451022836
 30
0.0
 10
3.482991535587585
 20
-3.148817273518351
 30
0.0
 10
3.502973089402034
 20
-3.122117783507665
 30
0.0
 10
3.522782388442221
 20
-3.095762803045503
 30
0.0
 10
3.543108451805195
 20
-3.068718803486292
 30
0.0
 10
3.563262260393906
 20
-3.042019313475606
 30
0.0
 10
3.605464680088217
 20
-2.988964843002758
 30
0.0
 10
3.648700628428102
 20
-2.934704589110074
 30
0.0
 10
3.678500704375514
 20
-2.913517251875787
 30
0.0
 10
3.707267251677349
 20
-2.892846678964288
 30
0.0
 10
3.735344779882136
 20
-2.872865125149839
 30
0.0
 10
3.762044269892822
 20
-2.853917099980965
 30
0.0
 10
3.802179632295982
 20
-2.803274196347792
 30
0.0
 10
3.84352077811898
 20
-2.751425509294782
 30
0.0
 10
3.860918510319492
 20
-2.724209254961309
 30
0.0
 10
3.879177516391316
 20
-2.69527045288521
 30
0.0
 10
3.897092012914616
 20
-2.666848415131898
 30
0.0
 10
3.91604003808349
 20
-2.637565103507275
 30
0.0
 10
3.958070203003538
 20
-2.584510633034427
 30
0.0
 10
3.999066839278011
 20
-2.532661945981418
 30
0.0
 10
4.015947807155735
 20
-2.505101182099419
 30
0.0
 10
4.033862303679034
 20
-2.475645615700533
 30
0.0
 10
4.047298176071508
 20
-2.453252495046409
 30
0.0
 10
4.061423067561033
 20
-2.42982584574671
 30
0.0
 10
4.087261283700406
 20
-2.395374890894212
 30
0.0
 10
4.087261283700406
 20
-2.395374890894212
 30
0.0
 10
4.115511066679455
 20
-2.416389973354235
 30
0.0
 10
4.115511066679455
 20
-2.416389973354235
 30
0.0
 10
4.090706379185657
 20
-2.449635144786896
 30
0.0
 10
4.077615016341707
 20
-2.471166991569708
 30
0.0
 10
4.063834634400707
 20
-2.494076876546619
 30
0.0
 10
4.046264647425934
 20
-2.523015678622718
 30
0.0
 10
4.028350150902634
 20
-2.552988009344391
 30
0.0
 10
3.985630966885537
 20
-2.606559244140027
 30
0.0
 10
3.944634330611063
 20
-2.658063421644512
 30
0.0
 10
3.926375324539239
 20
-2.686657714172085
 30
0.0
 10
3.90914984711299
 20
-2.714218478054084
 30
0.0
 10
3.890890841041166
 20
-2.742640515807395
 30
0.0
 10
3.872287325420817
 20
-2.771923827432019
 30
0.0
 10
3.829740396177981
 20
-2.825322807453391
 30
0.0
 10
3.786504447838096
 20
-2.879755316120339
 30
0.0
 10
3.756704371890685
 20
-2.900942653354625
 30
0.0
 10
3.727765569814586
 20
-2.921613226266124
 30
0.0
 10
3.6996880416098
 20
-2.941594780080573
 30
0.0
 10
3.673160806373376
 20
-2.960542805249447
 30
0.0
 10
3.633025443970216
 20
-3.011013454108357
 30
0.0
 10
3.59116753382443
 20
-3.063551160258418
 30
0.0
 10
3.571185980009981
 20
-3.090250650269104
 30
0.0
 10
3.551032171421269
 20
-3.117122395054052
 30
0.0
 10
3.53105061760682
 20
-3.143649630290476
 30
0.0
 10
3.510896809018109
 20
-3.170349120301162
 30
0.0
 10
3.469555663195111
 20
-3.222370062128435
 30
0.0
 10
3.42942030079195
 20
-3.272668456213083
 30
0.0
 10
3.416328937948001
 20
-3.302124022611969
 30
0.0
 10
3.402376301232739
 20
-3.33330213675348
 30
0.0
 10
3.388251409743215
 20
-3.365169269992041
 30
0.0
 10
3.373609753930903
 20
-3.398069931876177
 30
0.0
 10
3.330890569913805
 20
-3.451813421446074
 30
0.0
 10
3.289721678865069
 20
-3.503662108499084
 30
0.0
 10
3.26974012505062
 20
-3.530189343735508
 30
0.0
 10
3.249758571236171
 20
-3.556716578971931
 30
0.0
 10
3.229777017421722
 20
-3.583588323756881
 30
0.0
 10
3.209795463607273
 20
-3.610287813767567
 30
0.0
 10
3.16810980823575
 20
-3.662653265143364
 30
0.0
 10
3.126079643315702
 20
-3.715535480841949
 30
0.0
 10
3.101102701047641
 20
-3.739478894464435
 30
0.0
 10
3.076814777876629
 20
-3.762561034215609
 30
0.0
 10
3.052526854705618
 20
-3.785815428741046
 30
0.0
 10
3.029444714954444
 20
-3.807864039846645
 30
0.0
 10
2.988964843002758
 20
-3.85867919825408
 30
0.0
 10
2.946417913759923
 20
-3.912250433049715
 30
0.0
 10
2.920062933297762
 20
-3.935677082349414
 30
0.0
 10
2.89439697193265
 20
-3.958070203003538
 30
0.0
 10
2.868903265341802
 20
-3.980463323657662
 30
0.0
 10
2.844787596945053
 20
-4.001822915666211
 30
0.0
 10
2.804307724993367
 20
-4.052810328847908
 30
0.0
 10
2.763483343493156
 20
-4.104142251578131
 30
0.0
 10
2.743846299227232
 20
-4.130669486814555
 30
0.0
 10
2.724209254961309
 20
-4.156852212502453
 30
0.0
 10
2.704055446372597
 20
-4.183723957287402
 30
0.0
 10
2.68424614733241
 20
-4.210595702072351
 30
0.0
 10
2.642215982412362
 20
-4.263305662996673
 30
0.0
  0
HATCH
  5
8A
330
85
100
AcDbEntity
  8
Outlines
 62
   250
420
  2301728
440
 33554687
100
AcDbHatch
 10
0.0
 20
0.0
 30
0.0
210
0.0
220
0.0
230
1.0
  2
SOLID
 70
     1
 71
     1
 91
        1
 92
        1
 93
        1
 72
     4
 94
        3
 73
     0
 74
     0
 95
      119
 96
      115
 40
0.0
 40
0.0
 40
0.0
 40
0.0
 40
1.0
 40
1.0
 40
1.0
 40
2.0
 40
2.0
 40
2.0
 40
3.0
 40
3.0
 40
3.0
 40
4.0
 40
4.0
 40
4.0
 40
5.0
 40
5.0
 40
5.0
 40
6.0
 40
6.0
 40
6.0
 40
7.0
 40
7.0
 40
7.0
 40
8.0
 40
8.0
 40
8.0
 40
9.0
 40
9.0
 40
9.0
 40
10.0
 40
10.0
 40
10.0
 40
11.0
 40
11.0
 40
11.0
 40
12.0
 40
12.0
 40
12.0
 40
13.0
 40
13.0
 40
13.0
 40
14.0
 40
14.0
 40
14.0
 40
15.0
 40
15.0
 40
15.0
 40
16.0
 40
16.0
 40
16.0
 40
17.0
 40
17.0
 40
17.0
 40
18.0
 40
18.0
 40
18.0
 40
19.0
 40
19.0
 40
19.0
 40
20.0
 40
20.0
 40
20.0
 40
21.0
 40
21.0
 40
21.0
 40
22.0
 40
22.0
 40
22.0
 40
23.0
 40
23.0
 40
23.0
 40
24.0
 40
24.0
 40
24.0
 40
25.0
 40
25.0
 40
25.0
 40
26.0
 40
26.0
 40
26.0
 40
27.0
 40
27.0
 40
27.0
 40
28.0
 40
28.0
 40
28.0
 40
29.0
 40
29.0
 40
29.0
 40
30.0
 40
30.0
 40
30.0
 40
31.0
 40
31.0
 40
31.0
 40
32.0
 40
32.0
 40
32.0
 40
33.0
 40
33.0
 40
33.0
 40
34.0
 40
34.0
 40
34.0
 40
35.0
 40
35.0
 40
35.0
 40
36.0
 40
36.0
 40
36.0
 40
37.0
 40
37.0
 40
37.0
 40
38.0
 40
38.0
 40
38.0
 40
38.0
 10
2.642215982412362
 20
-4.263305662996673
 10
2.642215982412362
 20
-4.263305662996673
 10
2.614655218530363
 20
-4.241257051891074
 10
2.614655218530363
 20
-4.241257051891074
 10
2.656168619127624
 20
-4.189236110063802
 10
2.675977918167811
 20
-4.162708874827378
 10
2.69595947198226
 20
-4.135837130042429
 10
2.715596516248184
 20
-4.109309894806005
 10
2.735578070062633
 20
-4.082782659569581
 10
2.776746961111368
 20
-4.03076171774231
 10
2.819121635579941
 20
-3.977362737720937
 10
2.845476616042103
 20
-3.954280597969763
 10
2.871142577407214
 20
-3.931542967767114
 10
2.896636283998063
 20
-3.90914984711299
 10
2.920751952394812
 20
-3.887790255104441
 10
2.96140407912076
 20
-3.836630587148481
 10
3.003261989266545
 20
-3.784092880998421
 10
3.028238931534607
 20
-3.760149467375935
 10
3.052354599931355
 20
-3.737067327624761
 10
3.076814777876629
 20
-3.713640678325062
 10
3.099896917627803
 20
-3.691592067219463
 10
3.140549044353751
 20
-3.640604654037765
 10
3.181717935402487
 20
-3.588755966984755
 10
3.201699489216936
 20
-3.562228731748331
 10
3.221681043031385
 20
-3.535701496511908
 10
3.241662596845834
 20
-3.508829751726959
 10
3.261644150660283
 20
-3.482130261716273
 10
3.303329806031806
 20
-3.429764810340475
 10
3.343120658886442
 20
-3.37963867103009
 10
3.356384276504654
 20
-3.350183104631204
 10
3.370164658445653
 20
-3.319004990489693
 10
3.38446180470944
 20
-3.287137857251132
 10
3.399103460521752
 20
-3.254237195366996
 10
3.441994899313112
 20
-3.200321451022836
 10
3.482991535587585
 20
-3.148817273518351
 10
3.502973089402034
 20
-3.122117783507665
 10
3.522782388442221
 20
-3.095762803045503
 10
3.543108451805195
 20
-3.068718803486292
 10
3.563262260393906
 20
-3.042019313475606
 10
3.605464680088217
 20
-2.988964843002758
 10
3.648700628428102
 20
-2.934704589110074
 10
3.678500704375514
 20
-2.913517251875787
 10
3.707267251677349
 20
-2.892846678964288
 10
3.735344779882136
 20
-2.872865125149839
 10
3.762044269892822
 20
-2.853917099980965
 10
3.802179632295982
 20
-2.803274196347792
 10
3.84352077811898
 20
-2.751425509294782
 10
3.860918510319492
 20
-2.724209254961309
 10
3.879177516391316
 20
-2.69527045288521
 10
3.897092012914616
 20
-2.666848415131898
 10
3.91604003808349
 20
-2.637565103507275
 10
3.958070203003538
 20
-2.584510633034427
 10
3.999066839278011
 20
-2.532661945981418
 10
4.015947807155735
 20
-2.505101182099419
 10
4.033862303679034
 20
-2.475645615700533
 10
4.047298176071508
 20
-2.453252495046409
 10
4.061423067561033
 20
-2.42982584574671
 10
4.087261283700406
 20
-2.395374890894212
 10
4.087261283700406
 20
-2.395374890894212
 10
4.115511066679455
 20
-2.416389973354235
 10
4.115511066679455
 20
-2.416389973354235
 10
4.090706379185657
 20
-2.449635144786896
 10
4.077615016341707
 20
-2.471166991569708
 10
4.063834634400707
 20
-2.494076876546619
 10
4.046264647425934
 20
-2.523015678622718
 10
4.028350150902634
 20
-2.552988009344391
 10
3.985630966885537
 20
-2.606559244140027
 10
3.944634330611063
 20
-2.658063421644512
 10
3.926375324539239
 20
-2.686657714172085
 10
3.90914984711299
 20
-2.714218478054084
 10
3.890890841041166
 20
-2.742640515807395
 10
3.872287325420817
 20
-2.771923827432019
 10
3.829740396177981
 20
-2.825322807453391
 10
3.786504447838096
 20
-2.879755316120339
 10
3.756704371890685
 20
-2.900942653354625
 10
3.727765569814586
 20
-2.921613226266124
 10
3.6996880416098
 20
-2.941594780080573
 10
3.673160806373376
 20
-2.960542805249447
 10
3.633025443970216
 20
-3.011013454108357
 10
3.59116753382443
 20
-3.063551160258418
 10
3.571185980009981
 20
-3.090250650269104
 10
3.551032171421269
 20
-3.117122395054052
 10
3.53105061760682
 20
-3.143649630290476
 10
3.510896809018109
 20
-3.170349120301162
 10
3.469555663195111
 20
-3.222370062128435
 10
3.42942030079195
 20
-3.272668456213083
 10
3.416328937948001
 20
-3.302124022611969
 10
3.402376301232739
 20
-3.33330213675348
 10
3.388251409743215
 20
-3.365169269992041
 10
3.373609753930903
 20
-3.398069931876177
 10
3.330890569913805
 20
-3.451813421446074
 10
3.289721678865069
 20
-3.503662108499084
 10
3.26974012505062
 20
-3.530189343735508
 10
3.249758571236171
 20
-3.556716578971931
 10
3.229777017421722
 20
-3.583588323756881
 10
3.209795463607273
 20
-3.610287813767567
 10
3.16810980823575
 20
-3.662653265143364
 10
3.126079643315702
 20
-3.715535480841949
 10
3.101102701047641
 20
-3.739478894464435
 10
3.076814777876629
 20
-3.762561034215609
 10
3.052526854705618
 20
-3.785815428741046
 10
3.029444714954444
 20
-3.807864039846645
 10
2.988964843002758
 20
-3.85867919825408
 10
2.946417913759923
 20
-3.912250433049715
 10
2.920062933297762
 20
-3.935677082349414
 10
2.89439697193265
 20
-3.958070203003538
 10
2.868903265341802
 20
-3.980463323657662
 10
2.844787596945053
 20
-4.001822915666211
 10
2.804307724993367
 20
-4.052810328847908
 10
2.763483343493156
 20
-4.104142251578131
 10
2.743846299227232
 20
-4.130669486814555
 10
2.724209254961309
 20
-4.156852212502453
 10
2.704055446372597
 20
-4.183723957287402
 10
2.68424614733241
 20
-4.210595702072351
 10
2.642215982412362
 20
-4.263305662996673
 97
        0
 97
        1
330
89
 75
     2
 76
     1
 98
        1
 10
0.0
 20
0.0
450
        0
451
        0
460
0.0
461
0.0
452
        0
462
0.0
453
        0
470

  0
LWPOLYLINE
  5
8B
330
85
100
AcDbEntity
  8
Outlines
100
AcDbPolyline
 90
        6
 70
     1
 43
0.0
 10
4.155331862258523
 20
-2.584396917968606
 10
4.120380291968325
 20
-2.589404081650927
 10
4.095901946527328
 20
-2.417193885039978
 10
3.925917099924892
 20
-2.454192158297415
 10
3.918440838999773
 20
-2.419684345912006
 10
4.12547257373246
 20
-2.374665459727971
  0
HATCH
  5
8C
330
85
100
AcDbEntity
  8
Outlines
 62
   250
420
  2301728
440
 33554687
100
AcDbHatch
 10
0.0
 20
0.0
 30
0.0
210
0.0
220
0.0
230
1.0
  2
SOLID
 70
     1
 71
     1
 91
        1
 92
        1
 93
        6
 72
     1
 10
4.155331862258523
 20
-2.584396917968606
 11
4.120380291968325
 21
-2.589404081650927
 72
     1
 10
4.120380291968325
 20
-2.589404081650927
 11
4.095901946527328
 21
-2.417193885039978
 72
     1
 10
4.095901946527328
 20
-2.417193885039978
 11
3.925917099924892
 21
-2.454192158297415
 72
     1
 10
3.925917099924892
 20
-2.454192158297415
 11
3.918440838999773
 21
-2.419684345912006
 72
     1
 10
3.918440838999773
 20
-2.419684345912006
 11
4.12547257373246
 21
-2.374665459727971
 72
     1
 10
4.12547257373246
 20
-2.374665459727971
 11
4.155331862258523
 21
-2.584396917968606
 97
        1
330
8B
 75
     2
 76
     1
 98
        1
 10
0.0
 20
0.0
450
        0
451
        0
460
0.0
461
0.0
452
        0
462
0.0
453
        0
470

  0
ENDBLK
  5
88
330
85
100
AcDbEntity
  8
0
100
AcDbBlockEnd
  0
BLOCK
  5
8F
330
8D
100
AcDbEntity
  8
0
100
AcDbBlockBegin
  2
Block_1
 70
     0
 10
0.0
 20
0.0
 30
0.0
  3
Block_1
  1

  0
SPLINE
  5
91
330
8D
100
AcDbEntity
  8
Outlines
100
AcDbSpline
210
0.0
220
0.0
230
1.0
 70
     9
 71
     3
 72
    95
 73
    91
 74
     0
 42
0.0000000001
 43
0.0000000001
 40
0.0
 40
0.0
 40
0.0
 40
0.0
 40
1.0
 40
1.0
 40
1.0
 40
2.0
 40
2.0
 40
2.0
 40
3.0
 40
3.0
 40
3.0
 40
4.0
 40
4.0
 40
4.0
 40
5.0
 40
5.0
 40
5.0
 40
6.0
 40
6.0
 40
6.0
 40
7.0
 40
7.0
 40
7.0
 40
8.0
 40
8.0
 40
8.0
 40
9.0
 40
9.0
 40
9.0
 40
10.0
 40
10.0
 40
10.0
 40
11.0
 40
11.0
 40
11.0
 40
12.0
 40
12.0
 40
12.0
 40
13.0
 40
13.0
 40
13.0
 40
14.0
 40
14.0
 40
14.0
 40
15.0
 40
15.0
 40
15.0
 40
16.0
 40
16.0
 40
16.0
 40
17.0
 40
17.0
 40
17.0
 40
18.0
 40
18.0
 40
18.0
 40
19.0
 40
19.0
 40
19.0
 40
20.0
 40
20.0
 40
20.0
 40
21.0
 40
21.0
 40
21.0
 40
22.0
 40
22.0
 40
22.0
 40
23.0
 40
23.0
 40
23.0
 40
24.0
 40
24.0
 40
24.0
 40
25.0
 40
25.0
 40
25.0
 40
26.0
 40
26.0
 40
26.0
 40
27.0
 40
27.0
 40
27.0
 40
28.0
 40
28.0
 40
28.0
 40
29.0
 40
29.0
 40
29.0
 40
30.0
 40
30.0
 40
30.0
 40
30.0
 10
3.283175997443095
 20
-4.401798501503717
 30
0.0
 10
3.283175997443095
 20
-4.401798501503717
 30
0.0
 10
3.255615233561096
 20
-4.379749890398118
 30
0.0
 10
3.255615233561096
 20
-4.379749890398118
 30
0.0
 10
3.294889322092944
 20
-4.330485024959045
 30
0.0
 10
3.310564506550831
 20
-4.303613280174096
 30
0.0
 10
3.326928710105768
 20
-4.275018987646522
 30
0.0
 10
3.343465168434966
 20
-4.246769204667474
 30
0.0
 10
3.360346136312691
 20
-4.217830402591375
 30
0.0
 10
3.401342772587164
 20
-4.166153970312628
 30
0.0
 10
3.442339408861637
 20
-4.11447753803388
 30
0.0
 10
3.466971841581173
 20
-4.091050888734182
 30
0.0
 10
3.490743000429397
 20
-4.068657768080058
 30
0.0
 10
3.514686414051884
 20
-4.045920137877408
 30
0.0
 10
3.53725178948027
 20
-4.024216036320335
 30
0.0
 10
3.576870387560643
 20
-3.974262151784212
 30
0.0
 10
3.616661240415279
 20
-3.924308267248089
 30
0.0
 10
3.635092501261365
 20
-3.897092012914616
 30
0.0
 10
3.652834743010402
 20
-3.870909287226717
 30
0.0
 10
3.671093749082226
 20
-3.844209797216031
 30
0.0
 10
3.689697264702575
 20
-3.816649033334032
 30
0.0
 10
3.730521646202786
 20
-3.765489365378072
 30
0.0
 10
3.771001518154471
 20
-3.714501952196374
 30
0.0
 10
3.791499836291708
 20
-3.689180500379788
 30
0.0
 10
3.811998154428945
 20
-3.663859048563201
 30
0.0
 10
3.832324217791919
 20
-3.638537596746615
 30
0.0
 10
3.852822535929155
 20
-3.613216144930029
 30
0.0
 10
3.893302407880841
 20
-3.562400986522594
 30
0.0
 10
3.934988063252364
 20
-3.510035535146796
 30
0.0
 10
3.961859808037313
 20
-3.487986924041198
 30
0.0
 10
3.988042533725211
 20
-3.466627332032648
 30
0.0
 10
4.013880749864585
 20
-3.445439994798362
 30
0.0
 10
4.038340927809858
 20
-3.425630695758175
 30
0.0
 10
4.077615016341707
 20
-3.375849065996315
 30
0.0
 10
4.117578123970605
 20
-3.325550671911667
 30
0.0
 10
4.134114582299805
 20
-3.298851181900981
 30
0.0
 10
4.151340059726053
 20
-3.27042914414767
 30
0.0
 10
4.168565537152303
 20
-3.242351615942884
 30
0.0
 10
4.186480033675602
 20
-3.213412813866785
 30
0.0
 10
4.2278211794986
 20
-3.161391872039513
 30
0.0
 10
4.269506834870123
 20
-3.109198675437978
 30
0.0
 10
4.293622503266872
 20
-3.085255261815492
 30
0.0
 10
4.31704915256657
 20
-3.062173122064317
 30
0.0
 10
4.335308158638395
 20
-3.044086370766756
 30
0.0
 10
4.352533636064644
 20
-3.026860893340507
 30
0.0
 10
4.378371852204018
 20
-2.99671630784457
 30
0.0
 10
4.378371852204018
 20
-2.99671630784457
 30
0.0
 10
4.405243596988967
 20
-3.019453938047219
 30
0.0
 10
4.405243596988967
 20
-3.019453938047219
 30
0.0
 10
4.378716361752543
 20
-3.050976561737256
 30
0.0
 10
4.359768336583669
 20
-3.069407822583342
 30
0.0
 10
4.34185384006037
 20
-3.087322319106641
 30
0.0
 10
4.318082681212145
 20
-3.11074896840634
 30
0.0
 10
4.295689560558022
 20
-3.132969834286202
 30
0.0
 10
4.255381943380599
 20
-3.183440483145112
 30
0.0
 10
4.215418835751701
 20
-3.233738877229759
 30
0.0
 10
4.198882377422501
 20
-3.260438367240446
 30
0.0
 10
4.181656899996252
 20
-3.288860404993757
 30
0.0
 10
4.164431422570003
 20
-3.316937933198543
 30
0.0
 10
4.146516926046704
 20
-3.345876735274642
 30
0.0
 10
4.105175780223706
 20
-3.397897677101914
 30
0.0
 10
4.063490124852183
 20
-3.450435383251974
 30
0.0
 10
4.036618380067234
 20
-3.472483994357573
 30
0.0
 10
4.010435654379335
 20
-3.494015841140384
 30
0.0
 10
3.984597438239962
 20
-3.515030923600408
 30
0.0
 10
3.960137260294688
 20
-3.535012477414858
 30
0.0
 10
3.92086317176284
 20
-3.584449597628193
 30
0.0
 10
3.880383299811154
 20
-3.63543701080989
 30
0.0
 10
3.859884981673917
 20
-3.660758462626477
 30
0.0
 10
3.839386663536681
 20
-3.686079914443063
 30
0.0
 10
3.819060600173706
 20
-3.711401366259649
 30
0.0
 10
3.79856228203647
 20
-3.736722818076235
 30
0.0
 10
3.758082410084785
 20
-3.787537976483671
 30
0.0
 10
3.718291557230149
 20
-3.837664115794056
 30
0.0
 10
3.699860296384062
 20
-3.864708115353267
 30
0.0
 10
3.682118054635026
 20
-3.890890841041166
 30
0.0
 10
3.663859048563201
 20
-3.91741807627759
 30
0.0
 10
3.645255532942853
 20
-3.944978840159588
 30
0.0
 10
3.604431151442642
 20
-3.996310762889811
 30
0.0
 10
3.563262260393906
 20
-4.047987195168558
 30
0.0
 10
3.538802082448632
 20
-4.071413844468257
 30
0.0
 10
3.515030923600408
 20
-4.094151474670907
 30
0.0
 10
3.491087509977922
 20
-4.116889104873555
 30
0.0
 10
3.468522134549536
 20
-4.138248696882104
 30
0.0
 10
3.428903536469163
 20
-4.188202581418227
 30
0.0
 10
3.389629447937315
 20
-4.2374674468573
 30
0.0
 10
3.373954263479428
 20
-4.264339191642248
 30
0.0
 10
3.357590059924491
 20
-4.292933484169822
 30
0.0
 10
3.341053601595292
 20
-4.321183267148871
 30
0.0
 10
3.324172633717568
 20
-4.350122069224969
 30
0.0
 10
3.283175997443095
 20
-4.401798501503717
 30
0.0
  0
HATCH
  5
92
330
8D
100
AcDbEntity
  8
Outlines
 62
   250
420
  2301728
440
 33554687
100
AcDbHatch
 10
0.0
 20
0.0
 30
0.0
210
0.0
220
0.0
230
1.0
  2
SOLID
 70
     1
 71
     1
 91
        1
 92
        1
 93
        1
 72
     4
 94
        3
 73
     0
 74
     0
 95
       95
 96
       91
 40
0.0
 40
0.0
 40
0.0
 40
0.0
 40
1.0
 40
1.0
 40
1.0
 40
2.0
 40
2.0
 40
2.0
 40
3.0
 40
3.0
 40
3.0
 40
4.0
 40
4.0
 40
4.0
 40
5.0
 40
5.0
 40
5.0
 40
6.0
 40
6.0
 40
6.0
 40
7.0
 40
7.0
 40
7.0
 40
8.0
 40
8.0
 40
8.0
 40
9.0
 40
9.0
 40
9.0
 40
10.0
 40
10.0
 40
10.0
 40
11.0
 40
11.0
 40
11.0
 40
12.0
 40
12.0
 40
12.0
 40
13.0
 40
13.0
 40
13.0
 40
14.0
 40
14.0
 40
14.0
 40
15.0
 40
15.0
 40
15.0
 40
16.0
 40
16.0
 40
16.0
 40
17.0
 40
17.0
 40
17.0
 40
18.0
 40
18.0
 40
18.0
 40
19.0
 40
19.0
 40
19.0
 40
20.0
 40
20.0
 40
20.0
 40
21.0
 40
21.0
 40
21.0
 40
22.0
 40
22.0
 40
22.0
 40
23.0
 40
23.0
 40
23.0
 40
24.0
 40
24.0
 40
24.0
 40
25.0
 40
25.0
 40
25.0
 40
26.0
 40
26.0
 40
26.0
 40
27.0
 40
27.0
 40
27.0
 40
28.0
 40
28.0
 40
28.0
 40
29.0
 40
29.0
 40
29.0
 40
30.0
 40
30.0
 40
30.0
 40
30.0
 10
3.283175997443095
 20
-4.401798501503717
 10
3.283175997443095
 20
-4.401798501503717
 10
3.255615233561096
 20
-4.379749890398118
 10
3.255615233561096
 20
-4.379749890398118
 10
3.294889322092944
 20
-4.330485024959045
 10
3.310564506550831
 20
-4.303613280174096
 10
3.326928710105768
 20
-4.275018987646522
 10
3.343465168434966
 20
-4.246769204667474
 10
3.360346136312691
 20
-4.217830402591375
 10
3.401342772587164
 20
-4.166153970312628
 10
3.442339408861637
 20
-4.11447753803388
 10
3.466971841581173
 20
-4.091050888734182
 10
3.490743000429397
 20
-4.068657768080058
 10
3.514686414051884
 20
-4.045920137877408
 10
3.53725178948027
 20
-4.024216036320335
 10
3.576870387560643
 20
-3.974262151784212
 10
3.616661240415279
 20
-3.924308267248089
 10
3.635092501261365
 20
-3.897092012914616
 10
3.652834743010402
 20
-3.870909287226717
 10
3.671093749082226
 20
-3.844209797216031
 10
3.689697264702575
 20
-3.816649033334032
 10
3.730521646202786
 20
-3.765489365378072
 10
3.771001518154471
 20
-3.714501952196374
 10
3.791499836291708
 20
-3.689180500379788
 10
3.811998154428945
 20
-3.663859048563201
 10
3.832324217791919
 20
-3.638537596746615
 10
3.852822535929155
 20
-3.613216144930029
 10
3.893302407880841
 20
-3.562400986522594
 10
3.934988063252364
 20
-3.510035535146796
 10
3.961859808037313
 20
-3.487986924041198
 10
3.988042533725211
 20
-3.466627332032648
 10
4.013880749864585
 20
-3.445439994798362
 10
4.038340927809858
 20
-3.425630695758175
 10
4.077615016341707
 20
-3.375849065996315
 10
4.117578123970605
 20
-3.325550671911667
 10
4.134114582299805
 20
-3.298851181900981
 10
4.151340059726053
 20
-3.27042914414767
 10
4.168565537152303
 20
-3.242351615942884
 10
4.186480033675602
 20
-3.213412813866785
 10
4.2278211794986
 20
-3.161391872039513
 10
4.269506834870123
 20
-3.109198675437978
 10
4.293622503266872
 20
-3.085255261815492
 10
4.31704915256657
 20
-3.062173122064317
 10
4.335308158638395
 20
-3.044086370766756
 10
4.352533636064644
 20
-3.026860893340507
 10
4.378371852204018
 20
-2.99671630784457
 10
4.378371852204018
 20
-2.99671630784457
 10
4.405243596988967
 20
-3.019453938047219
 10
4.405243596988967
 20
-3.019453938047219
 10
4.378716361752543
 20
-3.050976561737256
 10
4.359768336583669
 20
-3.069407822583342
 10
4.34185384006037
 20
-3.087322319106641
 10
4.318082681212145
 20
-3.11074896840634
 10
4.295689560558022
 20
-3.132969834286202
 10
4.255381943380599
 20
-3.183440483145112
 10
4.215418835751701
 20
-3.233738877229759
 10
4.198882377422501
 20
-3.260438367240446
 10
4.181656899996252
 20
-3.288860404993757
 10
4.164431422570003
 20
-3.316937933198543
 10
4.146516926046704
 20
-3.345876735274642
 10
4.105175780223706
 20
-3.397897677101914
 10
4.063490124852183
 20
-3.450435383251974
 10
4.036618380067234
 20
-3.472483994357573
 10
4.010435654379335
 20
-3.494015841140384
 10
3.984597438239962
 20
-3.515030923600408
 10
3.960137260294688
 20
-3.535012477414858
 10
3.92086317176284
 20
-3.584449597628193
 10
3.880383299811154
 20
-3.63543701080989
 10
3.859884981673917
 20
-3.660758462626477
 10
3.839386663536681
 20
-3.686079914443063
 10
3.819060600173706
 20
-3.711401366259649
 10
3.79856228203647
 20
-3.736722818076235
 10
3.758082410084785
 20
-3.787537976483671
 10
3.718291557230149
 20
-3.837664115794056
 10
3.699860296384062
 20
-3.864708115353267
 10
3.682118054635026
 20
-3.890890841041166
 10
3.663859048563201
 20
-3.91741807627759
 10
3.645255532942853
 20
-3.944978840159588
 10
3.604431151442642
 20
-3.996310762889811
 10
3.563262260393906
 20
-4.047987195168558
 10
3.538802082448632
 20
-4.071413844468257
 10
3.515030923600408
 20
-4.094151474670907
 10
3.491087509977922
 20
-4.116889104873555
 10
3.468522134549536
 20
-4.138248696882104
 10
3.428903536469163
 20
-4.188202581418227
 10
3.389629447937315
 20
-4.2374674468573
 10
3.373954263479428
 20
-4.264339191642248
 10
3.357590059924491
 20
-4.292933484169822
 10
3.341053601595292
 20
-4.321183267148871
 10
3.324172633717568
 20
-4.350122069224969
 10
3.283175997443095
 20
-4.401798501503717
 97
        0
 97
        1
330
91
 75
     2
 76
     1
 98
        1
 10
0.0
 20
0.0
450
        0
451
        0
460
0.0
461
0.0
452
        0
462
0.0
453
        0
470

  0
LWPOLYLINE
  5
93
330
8D
100
AcDbEntity
  8
Outlines
100
AcDbPolyline
 90
        6
 70
     1
 43
0.0
 10
4.420400334948536
 20
-3.189304210607262
 10
4.385097862842799
 20
-3.189954539667124
 10
4.382083404293205
 20
-3.016039458156614
 10
4.208829754201055
 20
-3.031752996216583
 10
4.205673992906948
 20
-2.99658577102345
 10
4.416681717722124
 20
-2.977490387278156
  0
HATCH
  5
94
330
8D
100
AcDbEntity
  8
Outlines
 62
   250
420
  2301728
440
 33554687
100
AcDbHatch
 10
0.0
 20
0.0
 30
0.0
210
0.0
220
0.0
230
1.0
  2
SOLID
 70
     1
 71
     1
 91
        1
 92
        1
 93
        6
 72
     1
 10
4.420400334948536
 20
-3.189304210607262
 11
4.385097862842799
 21
-3.189954539667124
 72
     1
 10
4.385097862842799
 20
-3.189954539667124
 11
4.382083404293205
 21
-3.016039458156614
 72
     1
 10
4.382083404293205
 20
-3.016039458156614
 11
4.208829754201055
 21
-3.031752996216583
 72
     1
 10
4.208829754201055
 20
-3.031752996216583
 11
4.205673992906948
 21
-2.99658577102345
 72
     1
 10
4.205673992906948
 20
-2.99658577102345
 11
4.416681717722124
 21
-2.977490387278156
 72
     1
 10
4.416681717722124
 20
-2.977490387278156
 11
4.420400334948536
 21
-3.189304210607262
 97
        1
330
93
 75
     2
 76
     1
 98
        1
 10
0.0
 20
0.0
450
        0
451
        0
460
0.0
461
0.0
452
        0
462
0.0
453
        0
470

  0
ENDBLK
  5
90
330
8D
100
AcDbEntity
  8
0
100
AcDbBlockEnd
  0
ENDSEC
  0
SECTION
  2
ENTITIES
  0
LINE
  5
79
330
70
100
AcDbEntity
  8
Stroke
 62
   250
420
  2301728
370
     5
100
AcDbLine
 10
4.681230140930368
 20
-3.98972610636355
 30
0.0
 11
2.986428450778809
 21
-2.490554571194776
 31
0.0
  0
LINE
  5
7A
330
70
100
AcDbEntity
  8
Stroke
 62
   250
420
  2301728
370
     5
100
AcDbLine
 10
4.053332095398234
 20
-4.570126343475179
 30
0.0
 11
2.533692311582376
 21
-3.131802752523759
 31
0.0
  0
LINE
  5
7B
330
70
100
AcDbEntity
  8
Stroke
 62
   250
420
  2301728
370
     5
100
AcDbLine
 10
2.595256047515019
 20
-2.617044590678629
 30
0.0
 11
4.53674969630148
 21
-4.509092433275161
 31
0.0
  0
LINE
  5
7C
330
70
100
AcDbEntity
  8
Stroke
 62
   250
420
  2301728
370
     5
100
AcDbLine
 10
2.638258142203579
 20
-4.260203749234478
 30
0.0
 11
4.133118418077242
 21
-2.380749717503217
 31
0.0
  0
LINE
  5
7D
330
70
100
AcDbEntity
  8
Stroke
 62
   250
420
  2301728
370
     5
100
AcDbLine
 10
3.267239103372695
 20
-4.389275426680965
 30
0.0
 11
4.400419488336481
 21
-2.96455336572899
 31
0.0
  0
LWPOLYLINE
  5
7F
330
70
100
AcDbEntity
  8
Outlines
100
AcDbPolyline
 90
       20
 70
     1
 43
0.0
 10
4.671204968450254
 20
-4.002167425214736
 10
4.476901583082163
 20
-3.843693032893243
 10
4.295345051009497
 20
-3.672299532502063
 10
4.105175780223706
 20
-3.511413573340896
 10
3.915006509437915
 20
-3.346393499597429
 10
3.751019964340022
 20
-3.153295897649176
 10
3.531222872381083
 20
-3.016870116433282
 10
3.366030543863353
 20
-2.822394476290929
 10
3.167076279590175
 20
-2.670638020165673
 10
2.984830728420459
 20
-2.490976290609895
 10
3.009635415914257
 20
-2.465827093567571
 10
3.190158419341349
 20
-2.64411078492925
 10
3.390146212260102
 20
-2.797073024474343
 10
3.556199814649144
 20
-2.991893174165221
 10
3.776169161382346
 20
-3.128318955381114
 10
3.940155706480238
 20
-3.321761066877893
 10
4.128257919974879
 20
-3.48471408333021
 10
4.318771700309196
 20
-3.646116806814165
 10
4.499983722833337
 20
-3.817338052431082
 10
4.693253579555853
 20
-3.974606661332737
  0
HATCH
  5
80
330
70
100
AcDbEntity
  8
Outlines
 62
   250
420
  2301728
440
 33554687
100
AcDbHatch
 10
0.0
 20
0.0
 30
0.0
210
0.0
220
0.0
230
1.0
  2
SOLID
 70
     1
 71
     1
 91
        1
 92
        1
 93
       20
 72
     1
 10
4.671204968450254
 20
-4.002167425214736
 11
4.476901583082163
 21
-3.843693032893243
 72
     1
 10
4.476901583082163
 20
-3.843693032893243
 11
4.295345051009497
 21
-3.672299532502063
 72
     1
 10
4.295345051009497
 20
-3.672299532502063
 11
4.105175780223706
 21
-3.511413573340896
 72
     1
 10
4.105175780223706
 20
-3.511413573340896
 11
3.915006509437915
 21
-3.346393499597429
 72
     1
 10
3.915006509437915
 20
-3.346393499597429
 11
3.751019964340022
 21
-3.153295897649176
 72
     1
 10
3.751019964340022
 20
-3.153295897649176
 11
3.531222872381083
 21
-3.016870116433282
 72
     1
 10
3.531222872381083
 20
-3.016870116433282
 11
3.366030543863353
 21
-2.822394476290929
 72
     1
 10
3.366030543863353
 20
-2.822394476290929
 11
3.167076279590175
 21
-2.670638020165673
 72
     1
 10
3.167076279590175
 20
-2.670638020165673
 11
2.984830728420459
 21
-2.490976290609895
 72
     1
 10
2.984830728420459
 20
-2.490976290609895
 11
3.009635415914257
 21
-2.465827093567571
 72
     1
 10
3.009635415914257
 20
-2.465827093567571
 11
3.190158419341349
 21
-2.64411078492925
 72
     1
 10
3.190158419341349
 20
-2.64411078492925
 11
3.390146212260102
 21
-2.797073024474343
 72
     1
 10
3.390146212260102
 20
-2.797073024474343
 11
3.556199814649144
 21
-2.991893174165221
 72
     1
 10
3.556199814649144
 20
-2.991893174165221
 11
3.776169161382346
 21
-3.128318955381114
 72
     1
 10
3.776169161382346
 20
-3.128318955381114
 11
3.940155706480238
 21
-3.321761066877893
 72
     1
 10
3.940155706480238
 20
-3.321761066877893
 11
4.128257919974879
 21
-3.48471408333021
 72
     1
 10
4.128257919974879
 20
-3.48471408333021
 11
4.318771700309196
 21
-3.646116806814165
 72
     1
 10
4.318771700309196
 20
-3.646116806814165
 11
4.499983722833337
 21
-3.817338052431082
 72
     1
 10
4.499983722833337
 20
-3.817338052431082
 11
4.693253579555853
 21
-3.974606661332737
 72
     1
 10
4.693253579555853
 20
-3.974606661332737
 11
4.671204968450254
 21
-4.002167425214736
 97
        1
330
7F
 75
     2
 76
     1
 98
        1
 10
0.0
 20
0.0
450
        0
451
        0
460
0.0
461
0.0
452
        0
462
0.0
453
        0
470

  0
SPLINE
  5
81
330
70
100
AcDbEntity
  8
Outlines
100
AcDbSpline
210
0.0
220
0.0
230
1.0
 70
     9
 71
     3
 72
   107
 73
   103
 74
     0
 42
0.0000000001
 43
0.0000000001
 40
0.0
 40
0.0
 40
0.0
 40
0.0
 40
1.0
 40
1.0
 40
1.0
 40
2.0
 40
2.0
 40
2.0
 40
3.0
 40
3.0
 40
3.0
 40
4.0
 40
4.0
 40
4.0
 40
5.0
 40
5.0
 40
5.0
 40
6.0
 40
6.0
 40
6.0
 40
7.0
 40
7.0
 40
7.0
 40
8.0
 40
8.0
 40
8.0
 40
9.0
 40
9.0
 40
9.0
 40
10.0
 40
10.0
 40
10.0
 40
11.0
 40
11.0
 40
11.0
 40
12.0
 40
12.0
 40
12.0
 40
13.0
 40
13.0
 40
13.0
 40
14.0
 40
14.0
 40
14.0
 40
15.0
 40
15.0
 40
15.0
 40
16.0
 40
16.0
 40
16.0
 40
17.0
 40
17.0
 40
17.0
 40
18.0
 40
18.0
 40
18.0
 40
19.0
 40
19.0
 40
19.0
 40
20.0
 40
20.0
 40
20.0
 40
21.0
 40
21.0
 40
21.0
 40
22.0
 40
22.0
 40
22.0
 40
23.0
 40
23.0
 40
23.0
 40
24.0
 40
24.0
 40
24.0
 40
25.0
 40
25.0
 40
25.0
 40
26.0
 40
26.0
 40
26.0
 40
27.0
 40
27.0
 40
27.0
 40
28.0
 40
28.0
 40
28.0
 40
29.0
 40
29.0
 40
29.0
 40
30.0
 40
30.0
 40
30.0
 40
31.0
 40
31.0
 40
31.0
 40
32.0
 40
32.0
 40
32.0
 40
33.0
 40
33.0
 40
33.0
 40
34.0
 40
34.0
 40
34.0
 40
34.0
 10
4.039029946906909
 20
-4.585422090867533
 30
0.0
 10
3.991143119661936
 20
-4.54029134001076
 30
0.0
 10
3.969783527653387
 20
-4.513764104774336
 30
0.0
 10
3.949457464290413
 20
-4.488614907732013
 30
0.0
 10
3.928786891378914
 20
-4.463121201141164
 30
0.0
 10
3.90914984711299
 20
-4.439005532744415
 30
0.0
 10
3.863330077159167
 20
-4.395252820081742
 30
0.0
 10
3.815443249914194
 20
-4.350122069224969
 30
0.0
 10
3.792188855388758
 20
-4.32600640082822
 30
0.0
 10
3.769795734734634
 20
-4.302579751528521
 30
0.0
 10
3.747747123629035
 20
-4.279842121325873
 30
0.0
 10
3.725181748200649
 20
-4.256070962477648
 30
0.0
 10
3.678672959149776
 20
-4.211973740266451
 30
0.0
 10
3.632164170098903
 20
-4.168221027603777
 30
0.0
 10
3.606842718282317
 20
-4.149962021531954
 30
0.0
 10
3.579798718723106
 20
-4.130324977266029
 30
0.0
 10
3.553099228712419
 20
-4.111032442548631
 30
0.0
 10
3.525366210056158
 20
-4.091050888734182
 30
0.0
 10
3.476962618488398
 20
-4.044886609231833
 30
0.0
 10
3.428903536469163
 20
-3.999755858375061
 30
0.0
 10
3.406854925363564
 20
-3.974262151784212
 30
0.0
 10
3.385495333355015
 20
-3.949457464290413
 30
0.0
 10
3.363618977023678
 20
-3.924308267248089
 30
0.0
 10
3.343120658886442
 20
-3.900537108399865
 30
0.0
 10
3.296267360287044
 20
-3.856267631414405
 30
0.0
 10
3.249758571236171
 20
-3.812342663977469
 30
0.0
 10
3.22340359077401
 20
-3.794772677002695
 30
0.0
 10
3.195498317343486
 20
-3.776341416156609
 30
0.0
 10
3.167593043912963
 20
-3.757910155310522
 30
0.0
 10
3.138654241836864
 20
-3.738789875367385
 30
0.0
 10
3.090078395494841
 20
-3.692625595865038
 30
0.0
 10
3.042708332572656
 20
-3.64783935455679
 30
0.0
 10
3.017903645078857
 20
-3.628030055516603
 30
0.0
 10
2.991720919390958
 20
-3.607187227830842
 30
0.0
 10
2.966054958025847
 20
-3.586688909693605
 30
0.0
 10
2.939699977563686
 20
-3.565673827233581
 30
0.0
 10
2.89164089554445
 20
-3.520026312054021
 30
0.0
 10
2.843754068299478
 20
-3.474895561197248
 30
0.0
 10
2.819810654676992
 20
-3.452502440543124
 30
0.0
 10
2.795694986280242
 20
-3.430109319889
 30
0.0
 10
2.771579317883494
 20
-3.407716199234876
 30
0.0
 10
2.747291394712482
 20
-3.385323078580752
 30
0.0
 10
2.699576822241772
 20
-3.339847818175454
 30
0.0
 10
2.649622937705649
 20
-3.292822264801794
 30
0.0
 10
2.63170844118235
 20
-3.261127386337495
 30
0.0
 10
2.614482963756101
 20
-3.230466036518772
 30
0.0
 10
2.597774250652639
 20
-3.200838215345624
 30
0.0
 10
2.58192681142049
 20
-3.172760687140837
 30
0.0
 10
2.536107041466667
 20
-3.129352484026689
 30
0.0
 10
2.536107041466667
 20
-3.129352484026689
 30
0.0
 10
2.560222709863416
 20
-3.10385877743584
 30
0.0
 10
2.560222709863416
 20
-3.10385877743584
 30
0.0
 10
2.610004339625276
 20
-3.150884330809501
 30
0.0
 10
2.627918836148575
 20
-3.182406954499537
 30
0.0
 10
2.645144313574824
 20
-3.213068304318261
 30
0.0
 10
2.662025281452549
 20
-3.242696125491409
 30
0.0
 10
2.677700465910436
 20
-3.270773653696195
 30
0.0
 10
2.723692490638521
 20
-3.314354111584606
 30
0.0
 10
2.771579317883494
 20
-3.359484862441378
 30
0.0
 10
2.79552273150598
 20
-3.381877983095503
 30
0.0
 10
2.819638399902729
 20
-3.404271103749626
 30
0.0
 10
2.843754068299478
 20
-3.42666422440375
 30
0.0
 10
2.868041991470489
 20
-3.449057345057874
 30
0.0
 10
2.915756563941199
 20
-3.494532605463172
 30
0.0
 10
2.96278211731486
 20
-3.538974337222895
 30
0.0
 10
2.988620333454234
 20
-3.559644910134394
 30
0.0
 10
3.013769530496557
 20
-3.579626463948843
 30
0.0
 10
3.039263237087406
 20
-3.599952527311817
 30
0.0
 10
3.06579047232383
 20
-3.621139864546103
 30
0.0
 10
3.11419406389159
 20
-3.667131889274189
 30
0.0
 10
3.160702852942463
 20
-3.711056856711124
 30
0.0
 10
3.187057833404624
 20
-3.728454588911636
 30
0.0
 10
3.214963106835148
 20
-3.746885849757723
 30
0.0
 10
3.242868380265671
 20
-3.765489365378072
 30
0.0
 10
3.27180718234177
 20
-3.784609645321209
 30
0.0
 10
3.320383028683793
 20
-3.830773924823556
 30
0.0
 10
3.368614365477291
 20
-3.876249185228854
 30
0.0
 10
3.390662976582889
 20
-3.90157063704544
 30
0.0
 10
3.412022568591439
 20
-3.926375324539239
 30
0.0
 10
3.433898924922775
 20
-3.951524521581563
 30
0.0
 10
3.454397243060011
 20
-3.975295680429787
 30
0.0
 10
3.501078286885147
 20
-4.019392902640984
 30
0.0
 10
3.547931585484545
 20
-4.063834634400707
 30
0.0
 10
3.573425292075393
 20
-4.082093640472532
 30
0.0
 10
3.600469291634605
 20
-4.101730684738456
 30
0.0
 10
3.627168781645291
 20
-4.121023219455855
 30
0.0
 10
3.65472954552729
 20
-4.141004773270304
 30
0.0
 10
3.702788627546525
 20
-4.186480033675602
 30
0.0
 10
3.749986435694447
 20
-4.230921765435325
 30
0.0
 10
3.772896320671359
 20
-4.255037433832074
 30
0.0
 10
3.795289441325483
 20
-4.278119573583247
 30
0.0
 10
3.818371581076657
 20
-4.302235241979996
 30
0.0
 10
3.840247937407993
 20
-4.324972872182645
 30
0.0
 10
3.887790255104441
 20
-4.369759113490894
 30
0.0
 10
3.935332572800889
 20
-4.414889864347666
 30
0.0
 10
3.956347655260913
 20
-4.441072590035565
 30
0.0
 10
3.977018228172412
 20
-4.466221787077889
 30
0.0
 10
3.997688801083911
 20
-4.492060003217263
 30
0.0
 10
4.01698133580131
 20
-4.516175671614012
 30
0.0
 10
4.063145615303658
 20
-4.559928384276684
 30
0.0
 10
4.063145615303658
 20
-4.559928384276684
 30
0.0
 10
4.039029946906909
 20
-4.585422090867533
 30
0.0
 10
4.039029946906909
 20
-4.585422090867533
 30
0.0
  0
HATCH
  5
82
330
70
100
AcDbEntity
  8
Outlines
 62
   250
420
  2301728
440
 33554687
100
AcDbHatch
 10
0.0
 20
0.0
 30
0.0
210
0.0
220
0.0
230
1.0
  2
SOLID
 70
     1
 71
     1
 91
        1
 92
        1
 93
        1
 72
     4
 94
        3
 73
     0
 74
     0
 95
      107
 96
      103
 40
0.0
 40
0.0
 40
0.0
 40
0.0
 40
1.0
 40
1.0
 40
1.0
 40
2.0
 40
2.0
 40
2.0
 40
3.0
 40
3.0
 40
3.0
 40
4.0
 40
4.0
 40
4.0
 40
5.0
 40
5.0
 40
5.0
 40
6.0
 40
6.0
 40
6.0
 40
7.0
 40
7.0
 40
7.0
 40
8.0
 40
8.0
 40
8.0
 40
9.0
 40
9.0
 40
9.0
 40
10.0
 40
10.0
 40
10.0
 40
11.0
 40
11.0
 40
11.0
 40
12.0
 40
12.0
 40
12.0
 40
13.0
 40
13.0
 40
13.0
 40
14.0
 40
14.0
 40
14.0
 40
15.0
 40
15.0
 40
15.0
 40
16.0
 40
16.0
 40
16.0
 40
17.0
 40
17.0
 40
17.0
 40
18.0
 40
18.0
 40
18.0
 40
19.0
 40
19.0
 40
19.0
 40
20.0
 40
20.0
 40
20.0
 40
21.0
 40
21.0
 40
21.0
 40
22.0
 40
22.0
 40
22.0
 40
23.0
 40
23.0
 40
23.0
 40
24.0
 40
24.0
 40
24.0
 40
25.0
 40
25.0
 40
25.0
 40
26.0
 40
26.0
 40
26.0
 40
27.0
 40
27.0
 40
27.0
 40
28.0
 40
28.0
 40
28.0
 40
29.0
 40
29.0
 40
29.0
 40
30.0
 40
30.0
 40
30.0
 40
31.0
 40
31.0
 40
31.0
 40
32.0
 40
32.0
 40
32.0
 40
33.0
 40
33.0
 40
33.0
 40
34.0
 40
34.0
 40
34.0
 40
34.0
 10
4.039029946906909
 20
-4.585422090867533
 10
3.991143119661936
 20
-4.54029134001076
 10
3.969783527653387
 20
-4.513764104774336
 10
3.949457464290413
 20
-4.488614907732013
 10
3.928786891378914
 20
-4.463121201141164
 10
3.90914984711299
 20
-4.439005532744415
 10
3.863330077159167
 20
-4.395252820081742
 10
3.815443249914194
 20
-4.350122069224969
 10
3.792188855388758
 20
-4.32600640082822
 10
3.769795734734634
 20
-4.302579751528521
 10
3.747747123629035
 20
-4.279842121325873
 10
3.725181748200649
 20
-4.256070962477648
 10
3.678672959149776
 20
-4.211973740266451
 10
3.632164170098903
 20
-4.168221027603777
 10
3.606842718282317
 20
-4.149962021531954
 10
3.579798718723106
 20
-4.130324977266029
 10
3.553099228712419
 20
-4.111032442548631
 10
3.525366210056158
 20
-4.091050888734182
 10
3.476962618488398
 20
-4.044886609231833
 10
3.428903536469163
 20
-3.999755858375061
 10
3.406854925363564
 20
-3.974262151784212
 10
3.385495333355015
 20
-3.949457464290413
 10
3.363618977023678
 20
-3.924308267248089
 10
3.343120658886442
 20
-3.900537108399865
 10
3.296267360287044
 20
-3.856267631414405
 10
3.249758571236171
 20
-3.812342663977469
 10
3.22340359077401
 20
-3.794772677002695
 10
3.195498317343486
 20
-3.776341416156609
 10
3.167593043912963
 20
-3.757910155310522
 10
3.138654241836864
 20
-3.738789875367385
 10
3.090078395494841
 20
-3.692625595865038
 10
3.042708332572656
 20
-3.64783935455679
 10
3.017903645078857
 20
-3.628030055516603
 10
2.991720919390958
 20
-3.607187227830842
 10
2.966054958025847
 20
-3.586688909693605
 10
2.939699977563686
 20
-3.565673827233581
 10
2.89164089554445
 20
-3.520026312054021
 10
2.843754068299478
 20
-3.474895561197248
 10
2.819810654676992
 20
-3.452502440543124
 10
2.795694986280242
 20
-3.430109319889
 10
2.771579317883494
 20
-3.407716199234876
 10
2.747291394712482
 20
-3.385323078580752
 10
2.699576822241772
 20
-3.339847818175454
 10
2.649622937705649
 20
-3.292822264801794
 10
2.63170844118235
 20
-3.261127386337495
 10
2.614482963756101
 20
-3.230466036518772
 10
2.597774250652639
 20
-3.200838215345624
 10
2.58192681142049
 20
-3.172760687140837
 10
2.536107041466667
 20
-3.129352484026689
 10
2.536107041466667
 20
-3.129352484026689
 10
2.560222709863416
 20
-3.10385877743584
 10
2.560222709863416
 20
-3.10385877743584
 10
2.610004339625276
 20
-3.150884330809501
 10
2.627918836148575
 20
-3.182406954499537
 10
2.645144313574824
 20
-3.213068304318261
 10
2.662025281452549
 20
-3.242696125491409
 10
2.677700465910436
 20
-3.270773653696195
 10
2.723692490638521
 20
-3.314354111584606
 10
2.771579317883494
 20
-3.359484862441378
 10
2.79552273150598
 20
-3.381877983095503
 10
2.819638399902729
 20
-3.404271103749626
 10
2.843754068299478
 20
-3.42666422440375
 10
2.868041991470489
 20
-3.449057345057874
 10
2.915756563941199
 20
-3.494532605463172
 10
2.96278211731486
 20
-3.538974337222895
 10
2.988620333454234
 20
-3.559644910134394
 10
3.013769530496557
 20
-3.579626463948843
 10
3.039263237087406
 20
-3.599952527311817
 10
3.06579047232383
 20
-3.621139864546103
 10
3.11419406389159
 20
-3.667131889274189
 10
3.160702852942463
 20
-3.711056856711124
 10
3.187057833404624
 20
-3.728454588911636
 10
3.214963106835148
 20
-3.746885849757723
 10
3.242868380265671
 20
-3.765489365378072
 10
3.27180718234177
 20
-3.784609645321209
 10
3.320383028683793
 20
-3.830773924823556
 10
3.368614365477291
 20
-3.876249185228854
 10
3.390662976582889
 20
-3.90157063704544
 10
3.412022568591439
 20
-3.926375324539239
 10
3.433898924922775
 20
-3.951524521581563
 10
3.454397243060011
 20
-3.975295680429787
 10
3.501078286885147
 20
-4.019392902640984
 10
3.547931585484545
 20
-4.063834634400707
 10
3.573425292075393
 20
-4.082093640472532
 10
3.600469291634605
 20
-4.101730684738456
 10
3.627168781645291
 20
-4.121023219455855
 10
3.65472954552729
 20
-4.141004773270304
 10
3.702788627546525
 20
-4.186480033675602
 10
3.749986435694447
 20
-4.230921765435325
 10
3.772896320671359
 20
-4.255037433832074
 10
3.795289441325483
 20
-4.278119573583247
 10
3.818371581076657
 20
-4.302235241979996
 10
3.840247937407993
 20
-4.324972872182645
 10
3.887790255104441
 20
-4.369759113490894
 10
3.935332572800889
 20
-4.414889864347666
 10
3.956347655260913
 20
-4.441072590035565
 10
3.977018228172412
 20
-4.466221787077889
 10
3.997688801083911
 20
-4.492060003217263
 10
4.01698133580131
 20
-4.516175671614012
 10
4.063145615303658
 20
-4.559928384276684
 10
4.063145615303658
 20
-4.559928384276684
 10
4.039029946906909
 20
-4.585422090867533
 10
4.039029946906909
 20
-4.585422090867533
 97
        0
 97
        1
330
81
 75
     2
 76
     1
 98
        1
 10
0.0
 20
0.0
450
        0
451
        0
460
0.0
461
0.0
452
        0
462
0.0
453
        0
470

  0
LWPOLYLINE
  5
83
330
70
100
AcDbEntity
  8
Outlines
100
AcDbPolyline
 90
       24
 70
     1
 43
0.0
 10
4.54098035910781
 20
-4.507907442449412
 10
4.340475801866269
 20
-4.357701279292519
 10
4.178556314059528
 20
-4.162364365278853
 10
3.994932724695711
 20
-3.999066839278011
 10
3.822850205207481
 20
-3.819405109722232
 10
3.633714463067266
 20
-3.663686793788939
 10
3.469211153646586
 20
-3.47506781597151
 10
3.286276583379819
 20
-3.314870875907393
 10
3.132280815189152
 20
-3.123668076476027
 10
2.926091850396949
 20
-2.986897785711608
 10
2.74987521632642
 20
-2.810681151641079
 10
2.578309461160978
 20
-2.633603243699238
 10
2.603803167751827
 20
-2.609143065753964
 10
2.775196668143006
 20
-2.786048718921543
 10
2.948484971051073
 20
-2.959853786152397
 10
3.158119031328526
 20
-3.099380153305016
 10
3.311770289970668
 20
-3.290582952736382
 10
3.494188095914647
 20
-3.450263128477712
 10
3.658174641012539
 20
-3.638537596746615
 10
3.846793618829968
 20
-3.793566893582858
 10
4.019392902640984
 20
-3.973917642235687
 10
4.203705511101851
 20
-4.137904187333579
 10
4.364591470263018
 20
-4.33220757270167
 10
4.562339951116359
 20
-4.479657659470363
  0
HATCH
  5
84
330
70
100
AcDbEntity
  8
Outlines
 62
   250
420
  2301728
440
 33554687
100
AcDbHatch
 10
0.0
 20
0.0
 30
0.0
210
0.0
220
0.0
230
1.0
  2
SOLID
 70
     1
 71
     1
 91
        1
 92
        1
 93
       24
 72
     1
 10
4.54098035910781
 20
-4.507907442449412
 11
4.340475801866269
 21
-4.357701279292519
 72
     1
 10
4.340475801866269
 20
-4.357701279292519
 11
4.178556314059528
 21
-4.162364365278853
 72
     1
 10
4.178556314059528
 20
-4.162364365278853
 11
3.994932724695711
 21
-3.999066839278011
 72
     1
 10
3.994932724695711
 20
-3.999066839278011
 11
3.822850205207481
 21
-3.819405109722232
 72
     1
 10
3.822850205207481
 20
-3.819405109722232
 11
3.633714463067266
 21
-3.663686793788939
 72
     1
 10
3.633714463067266
 20
-3.663686793788939
 11
3.469211153646586
 21
-3.47506781597151
 72
     1
 10
3.469211153646586
 20
-3.47506781597151
 11
3.286276583379819
 21
-3.314870875907393
 72
     1
 10
3.286276583379819
 20
-3.314870875907393
 11
3.132280815189152
 21
-3.123668076476027
 72
     1
 10
3.132280815189152
 20
-3.123668076476027
 11
2.926091850396949
 21
-2.986897785711608
 72
     1
 10
2.926091850396949
 20
-2.986897785711608
 11
2.74987521632642
 21
-2.810681151641079
 72
     1
 10
2.74987521632642
 20
-2.810681151641079
 11
2.578309461160978
 21
-2.633603243699238
 72
     1
 10
2.578309461160978
 20
-2.633603243699238
 11
2.603803167751827
 21
-2.609143065753964
 72
     1
 10
2.603803167751827
 20
-2.609143065753964
 11
2.775196668143006
 21
-2.786048718921543
 72
     1
 10
2.775196668143006
 20
-2.786048718921543
 11
2.948484971051073
 21
-2.959853786152397
 72
     1
 10
2.948484971051073
 20
-2.959853786152397
 11
3.158119031328526
 21
-3.099380153305016
 72
     1
 10
3.158119031328526
 20
-3.099380153305016
 11
3.311770289970668
 21
-3.290582952736382
 72
     1
 10
3.311770289970668
 20
-3.290582952736382
 11
3.494188095914647
 21
-3.450263128477712
 72
     1
 10
3.494188095914647
 20
-3.450263128477712
 11
3.658174641012539
 21
-3.638537596746615
 72
     1
 10
3.658174641012539
 20
-3.638537596746615
 11
3.846793618829968
 21
-3.793566893582858
 72
     1
 10
3.846793618829968
 20
-3.793566893582858
 11
4.019392902640984
 21
-3.973917642235687
 72
     1
 10
4.019392902640984
 20
-3.973917642235687
 11
4.203705511101851
 21
-4.137904187333579
 72
     1
 10
4.203705511101851
 20
-4.137904187333579
 11
4.364591470263018
 21
-4.33220757270167
 72
     1
 10
4.364591470263018
 20
-4.33220757270167
 11
4.562339951116359
 21
-4.479657659470363
 72
     1
 10
4.562339951116359
 20
-4.479657659470363
 11
4.54098035910781
 21
-4.507907442449412
 97
        1
330
83
 75
     2
 76
     1
 98
        1
 10
0.0
 20
0.0
450
        0
451
        0
460
0.0
461
0.0
452
        0
462
0.0
453
        0
470

  0
INSERT
  5
86
330
70
100
AcDbEntity
  8
Outlines
100
AcDbBlockReference
  2
Block_0
 10
0.0
 20
0.0
 30
0.0
  0
INSERT
  5
8E
330
70
100
AcDbEntity
  8
Outlines
100
AcDbBlockReference
  2
Block_1
 10
0.0
 20
0.0
 30
0.0
  0
ENDSEC
  0
SECTION
  2
OBJECTS
  0
DICTIONARY
  5
C
330
0
100
AcDbDictionary
281
     1
  3
ACAD_COLOR
350
63
  3
ACAD_DETAILVIEWSTYLE
350
6A
  3
ACAD_GROUP
350
D
  3
ACAD_LAYOUT
350
62
  3
ACAD_MATERIAL
350
10
  3
ACAD_MLEADERSTYLE
350
66
  3
ACAD_MLINESTYLE
350
5F
  3
ACAD_PLOTSETTINGS
350
61
  3
ACAD_PLOTSTYLENAME
350
E
  3
ACAD_SCALELIST
350
42
  3
ACAD_SECTIONVIEWSTYLE
350
68
  3
ACAD_TABLESTYLE
350
64
  3
ACAD_VISUALSTYLE
350
29
  3
ACDB_RECOMPOSE_DATA
350
9D
  3
AcDbVariableDictionary
350
95
  0
DICTIONARY
  5
63
102
{ACAD_REACTORS
330
C
102
}
330
C
100
AcDbDictionary
281
     1
  0
DICTIONARY
  5
6A
102
{ACAD_REACTORS
330
C
102
}
330
C
100
AcDbDictionary
281
     1
  3
Imperial24
350
6B
  0
DICTIONARY
  5
D
102
{ACAD_REACTORS
330
C
102
}
330
C
100
AcDbDictionary
281
     1
  0
DICTIONARY
  5
62
102
{ACAD_REACTORS
330
C
102
}
330
C
100
AcDbDictionary
281
     1
  3
Layout1
350
6F
  3
Layout2
350
77
  3
Model
350
73
  0
DICTIONARY
  5
10
102
{ACAD_REACTORS
330
C
102
}
330
C
100
AcDbDictionary
281
     1
  3
ByBlock
350
19
  3
ByLayer
350
11
  3
Global
350
21
  0
DICTIONARY
  5
66
102
{ACAD_REACTORS
330
C
102
}
330
C
100
AcDbDictionary
281
     1
  3
Standard
350
67
  0
DICTIONARY
  5
5F
102
{ACAD_REACTORS
330
C
102
}
330
C
100
AcDbDictionary
281
     1
  3
Standard
350
60
  0
DICTIONARY
  5
61
102
{ACAD_REACTORS
330
C
102
}
330
C
100
AcDbDictionary
281
     1
  0
ACDBDICTIONARYWDFLT
  5
E
102
{ACAD_REACTORS
330
C
102
}
330
C
100
AcDbDictionary
281
     1
  3
Normal
350
F
100
AcDbDictionaryWithDefault
340
F
  0
DICTIONARY
  5
42
102
{ACAD_REACTORS
330
C
102
}
330
C
100
AcDbDictionary
281
     1
  3
A0
350
43
  3
A1
350
44
  3
A2
350
45
  3
A3
350
46
  3
A4
350
47
  3
A5
350
48
  3
A6
350
49
  3
A7
350
4A
  3
A8
350
4B
  3
A9
350
4C
  3
B0
350
4D
  3
B1
350
4E
  3
B2
350
4F
  3
B3
350
50
  3
B4
350
51
  3
B5
350
52
  3
B6
350
53
  0
DICTIONARY
  5
68
102
{ACAD_REACTORS
330
C
102
}
330
C
100
AcDbDictionary
281
     1
  3
Imperial24
350
69
  0
DICTIONARY
  5
64
102
{ACAD_REACTORS
330
C
102
}
330
C
100
AcDbDictionary
281
     1
  3
Standard
350
65
  0
DICTIONARY
  5
29
102
{ACAD_REACTORS
330
C
102
}
330
C
100
AcDbDictionary
281
     1
  3
2dWireframe
350
2F
  3
Basic
350
2E
  3
Brighten
350
35
  3
ColorChange
350
39
  3
Conceptual
350
32
  3
Dim
350
34
  3
EdgeColorOff
350
41
  3
Facepattern
350
38
  3
Flat
350
2A
  3
FlatWithEdges
350
2B
  3
Gouraud
350
2C
  3
GouraudWithEdges
350
2D
  3
Hidden
350
31
  3
JitterOff
350
3F
  3
Linepattern
350
37
  3
OverhangOff
350
40
  3
Realistic
350
33
  3
Shaded
350
3E
  3
Shaded with edges
350
3D
  3
Shades of Gray
350
3A
  3
Sketchy
350
3B
  3
Thicken
350
36
  3
Wireframe
350
30
  3
X-Ray
350
3C
  0
XRECORD
  5
9D
102
{ACAD_REACTORS
330
C
102
}
330
C
100
AcDbXrecord
280
     1
 90
        1
330
65
  0
DICTIONARY
  5
95
102
{ACAD_REACTORS
330
C
102
}
330
C
100
AcDbDictionary
281
     1
  3
CANNOSCALE
350
9A
  3
CMLEADERSTYLE
350
97
  3
CTABLESTYLE
350
96
  3
CVIEWDETAILSTYLE
350
98
  3
CVIEWSECTIONSTYLE
350
99
  0
ACDBDETAILVIEWSTYLE
  5
6B
102
{ACAD_REACTORS
330
6A
102
}
330
6A
100
AcDbModelDocViewStyle
 70
     0
  3
Imperial24
290
     1
300
Imperial24
 90
        0
100
AcDbDetailViewStyle
 70
     0
 71
     0
 90
        3
 71
     1
340
55
 62
   256
 40
0.24
340
0
 62
   256
 40
0.24
300

 40
0.36
280
     3
 71
     2
340
5D
 90
       25
 62
   256
 71
     3
340
55
 62
   256
 40
0.24
 90
        1
 40
0.75
 90
        1
300
%<\AcVar ViewType \f "%tc1">% %<\AcVar ViewDetailId>%\PSCALE %<\AcVar ViewScale \f "%sn">%
 71
     4
340
5D
 90
       25
 62
   256
340
5D
 90
       25
 62
   256
280
     0
  0
LAYOUT
  5
6F
102
{ACAD_REACTORS
330
62
102
}
330
62
100
AcDbPlotSettings
  1

  2

  4

  6

 40
0.0
 41
0.0
 42
0.0
 43
0.0
 44
0.0
 45
0.0
 46
0.0
 47
0.0
 48
0.0
 49
0.0
140
0.0
141
0.0
142
1.0
143
1.0
 70
   688
 72
     0
 73
     0
 74
     5
  7

 75
    16
147
1.0
 76
     0
 77
     2
 78
   300
148
0.0
149
0.0
100
AcDbLayout
  1
Layout1
 70
     1
 71
     1
 10
0.0
 20
0.0
 11
12.0
 21
9.0
 12
0.0
 22
0.0
 32
0.0
 14
0.0
 24
0.0
 34
0.0
 15
0.0
 25
0.0
 35
0.0
146
0.0
 13
0.0
 23
0.0
 33
0.0
 16
1.0
 26
0.0
 36
0.0
 17
0.0
 27
1.0
 37
0.0
 76
     0
330
6C
  0
LAYOUT
  5
77
102
{ACAD_REACTORS
330
62
102
}
330
62
100
AcDbPlotSettings
  1

  2

  4

  6

 40
0.0
 41
0.0
 42
0.0
 43
0.0
 44
0.0
 45
0.0
 46
0.0
 47
0.0
 48
0.0
 49
0.0
140
0.0
141
0.0
142
1.0
143
1.0
 70
   688
 72
     0
 73
     0
 74
     5
  7

 75
    16
147
1.0
 76
     0
 77
     2
 78
   300
148
0.0
149
0.0
100
AcDbLayout
  1
Layout2
 70
     1
 71
     2
 10
0.0
 20
0.0
 11
12.0
 21
9.0
 12
0.0
 22
0.0
 32
0.0
 14
0.0
 24
0.0
 34
0.0
 15
0.0
 25
0.0
 35
0.0
146
0.0
 13
0.0
 23
0.0
 33
0.0
 16
1.0
 26
0.0
 36
0.0
 17
0.0
 27
1.0
 37
0.0
 76
     0
330
74
  0
LAYOUT
  5
73
102
{ACAD_REACTORS
330
62
102
}
330
62
100
AcDbPlotSettings
  1

  2

  4

  6

 40
0.0
 41
0.0
 42
0.0
 43
0.0
 44
0.0
 45
0.0
 46
0.0
 47
0.0
 48
0.0
 49
0.0
140
0.0
141
0.0
142
1.0
143
1.0
 70
  1712
 72
     0
 73
     0
 74
     0
  7

 75
     0
147
1.0
 76
     0
 77
     2
 78
   300
148
0.0
149
0.0
100
AcDbLayout
  1
Model
 70
     1
 71
     0
 10
0.0
 20
0.0
 11
12.0
 21
9.0
 12
0.0
 22
0.0
 32
0.0
 14
0.0
 24
0.0
 34
0.0
 15
0.0
 25
0.0
 35
0.0
146
0.0
 13
0.0
 23
0.0
 33
0.0
 16
1.0
 26
0.0
 36
0.0
 17
0.0
 27
1.0
 37
0.0
 76
     0
330
70
  0
MATERIAL
  5
19
102
{ACAD_XDICTIONARY
360
1A
102
}
102
{ACAD_REACTORS
330
10
102
}
330
10
100
AcDbMaterial
  1
ByBlock
 72
     0
 43
0.0208333333333333
 43
0.0
 43
0.0
 43
0.0
 43
0.0
 43
0.0208333333333333
 43
0.0
 43
0.0
 43
0.0
 43
0.0
 43
1.0
 43
0.0
 43
0.0
 43
0.0
 43
0.0
 43
1.0
 77
     0
 47
0.0208333333333333
 47
0.0
 47
0.0
 47
0.0
 47
0.0
 47
0.0208333333333333
 47
0.0
 47
0.0
 47
0.0
 47
0.0
 47
1.0
 47
0.0
 47
0.0
 47
0.0
 47
0.0
 47
1.0
171
     0
 49
0.0208333333333333
 49
0.0
 49
0.0
 49
0.0
 49
0.0
 49
0.0208333333333333
 49
0.0
 49
0.0
 49
0.0
 49
0.0
 49
1.0
 49
0.0
 49
0.0
 49
0.0
 49
0.0
 49
1.0
175
     0
142
0.0208333333333333
142
0.0
142
0.0
142
0.0
142
0.0
142
0.0208333333333333
142
0.0
142
0.0
142
0.0
142
0.0
142
1.0
142
0.0
142
0.0
142
0.0
142
0.0
142
1.0
179
     0
144
0.0208333333333333
144
0.0
144
0.0
144
0.0
144
0.0
144
0.0208333333333333
144
0.0
144
0.0
144
0.0
144
0.0
144
1.0
144
0.0
144
0.0
144
0.0
144
0.0
144
1.0
147
0.0208333333333333
147
0.0
147
0.0
147
0.0
147
0.0
147
0.0208333333333333
147
0.0
147
0.0
147
0.0
147
0.0
147
1.0
147
0.0
147
0.0
147
0.0
147
0.0
147
1.0
  0
MATERIAL
  5
11
102
{ACAD_XDICTIONARY
360
12
102
}
102
{ACAD_REACTORS
330
10
102
}
330
10
100
AcDbMaterial
  1
ByLayer
 72
     0
 43
0.0208333333333333
 43
0.0
 43
0.0
 43
0.0
 43
0.0
 43
0.0208333333333333
 43
0.0
 43
0.0
 43
0.0
 43
0.0
 43
1.0
 43
0.0
 43
0.0
 43
0.0
 43
0.0
 43
1.0
 77
     0
 47
0.0208333333333333
 47
0.0
 47
0.0
 47
0.0
 47
0.0
 47
0.0208333333333333
 47
0.0
 47
0.0
 47
0.0
 47
0.0
 47
1.0
 47
0.0
 47
0.0
 47
0.0
 47
0.0
 47
1.0
171
     0
 49
0.0208333333333333
 49
0.0
 49
0.0
 49
0.0
 49
0.0
 49
0.0208333333333333
 49
0.0
 49
0.0
 49
0.0
 49
0.0
 49
1.0
 49
0.0
 49
0.0
 49
0.0
 49
0.0
 49
1.0
175
     0
142
0.0208333333333333
142
0.0
142
0.0
142
0.0
142
0.0
142
0.0208333333333333
142
0.0
142
0.0
142
0.0
142
0.0
142
1.0
142
0.0
142
0.0
142
0.0
142
0.0
142
1.0
179
     0
144
0.0208333333333333
144
0.0
144
0.0
144
0.0
144
0.0
144
0.0208333333333333
144
0.0
144
0.0
144
0.0
144
0.0
144
1.0
144
0.0
144
0.0
144
0.0
144
0.0
144
1.0
147
0.0208333333333333
147
0.0
147
0.0
147
0.0
147
0.0
147
0.0208333333333333
147
0.0
147
0.0
147
0.0
147
0.0
147
1.0
147
0.0
147
0.0
147
0.0
147
0.0
147
1.0
  0
MATERIAL
  5
21
102
{ACAD_XDICTIONARY
360
22
102
}
102
{ACAD_REACTORS
330
10
102
}
330
10
100
AcDbMaterial
  1
Global
 72
     0
 43
0.0208333333333333
 43
0.0
 43
0.0
 43
0.0
 43
0.0
 43
0.0208333333333333
 43
0.0
 43
0.0
 43
0.0
 43
0.0
 43
1.0
 43
0.0
 43
0.0
 43
0.0
 43
0.0
 43
1.0
 77
     0
 47
0.0208333333333333
 47
0.0
 47
0.0
 47
0.0
 47
0.0
 47
0.0208333333333333
 47
0.0
 47
0.0
 47
0.0
 47
0.0
 47
1.0
 47
0.0
 47
0.0
 47
0.0
 47
0.0
 47
1.0
171
     0
 49
0.0208333333333333
 49
0.0
 49
0.0
 49
0.0
 49
0.0
 49
0.0208333333333333
 49
0.0
 49
0.0
 49
0.0
 49
0.0
 49
1.0
 49
0.0
 49
0.0
 49
0.0
 49
0.0
 49
1.0
175
     0
142
0.0208333333333333
142
0.0
142
0.0
142
0.0
142
0.0
142
0.0208333333333333
142
0.0
142
0.0
142
0.0
142
0.0
142
1.0
142
0.0
142
0.0
142
0.0
142
0.0
142
1.0
179
     0
144
0.0208333333333333
144
0.0
144
0.0
144
0.0
144
0.0
144
0.0208333333333333
144
0.0
144
0.0
144
0.0
144
0.0
144
1.0
144
0.0
144
0.0
144
0.0
144
0.0
144
1.0
147
0.0208333333333333
147
0.0
147
0.0
147
0.0
147
0.0
147
0.0208333333333333
147
0.0
147
0.0
147
0.0
147
0.0
147
1.0
147
0.0
147
0.0
147
0.0
147
0.0
147
1.0
  0
MLEADERSTYLE
  5
67
102
{ACAD_REACTORS
330
66
102
}
330
66
100
AcDbMLeaderStyle
179
     2
170
     2
171
     1
172
     0
 90
        2
 40
0.0
 41
0.0
173
     1
 91
-1056964608
340
5B
 92
       -2
290
     1
 42
0.09
291
     1
 43
0.36
  3
Standard
 44
0.18
300

342
55
174
     1
178
     6
175
     1
176
     0
 93
-1056964608
 45
0.18
292
     0
297
     0
 46
0.18
 94
-1056964608
 47
1.0
 49
1.0
140
1.0
293
     1
141
0.0
294
     1
177
     0
142
1.0
295
     1
296
     0
143
0.125
271
     0
272
     9
273
     9
298
     1
  0
MLINESTYLE
  5
60
102
{ACAD_REACTORS
330
5F
102
}
330
5F
100
AcDbMlineStyle
  2
STANDARD
 70
     0
  3

 62
   256
 51
90.0
 52
90.0
 71
     2
 49
0.5
 62
   256
  6
BYLAYER
 49
-0.5
 62
   256
  6
BYLAYER
  0
ACDBPLACEHOLDER
  5
F
102
{ACAD_REACTORS
330
E
102
}
330
E
  0
SCALE
  5
43
102
{ACAD_REACTORS
330
42
102
}
330
42
100
AcDbScale
 70
     0
300
1:1
140
1.0
141
1.0
290
     1
  0
SCALE
  5
44
102
{ACAD_REACTORS
330
42
102
}
330
42
100
AcDbScale
 70
     0
300
1/128" = 1'-0"
140
0.0078125
141
12.0
290
     0
  0
SCALE
  5
45
102
{ACAD_REACTORS
330
42
102
}
330
42
100
AcDbScale
 70
     0
300
1/64" = 1'-0"
140
0.015625
141
12.0
290
     0
  0
SCALE
  5
46
102
{ACAD_REACTORS
330
42
102
}
330
42
100
AcDbScale
 70
     0
300
1/32" = 1'-0"
140
0.03125
141
12.0
290
     0
  0
SCALE
  5
47
102
{ACAD_REACTORS
330
42
102
}
330
42
100
AcDbScale
 70
     0
300
1/16" = 1'-0"
140
0.0625
141
12.0
290
     0
  0
SCALE
  5
48
102
{ACAD_REACTORS
330
42
102
}
330
42
100
AcDbScale
 70
     0
300
3/32" = 1'-0"
140
0.09375
141
12.0
290
     0
  0
SCALE
  5
49
102
{ACAD_REACTORS
330
42
102
}
330
42
100
AcDbScale
 70
     0
300
1/8" = 1'-0"
140
0.125
141
12.0
290
     0
  0
SCALE
  5
4A
102
{ACAD_REACTORS
330
42
102
}
330
42
100
AcDbScale
 70
     0
300
3/16" = 1'-0"
140
0.1875
141
12.0
290
     0
  0
SCALE
  5
4B
102
{ACAD_REACTORS
330
42
102
}
330
42
100
AcDbScale
 70
     0
300
1/4" = 1'-0"
140
0.25
141
12.0
290
     0
  0
SCALE
  5
4C
102
{ACAD_REACTORS
330
42
102
}
330
42
100
AcDbScale
 70
     0
300
3/8" = 1'-0"
140
0.375
141
12.0
290
     0
  0
SCALE
  5
4D
102
{ACAD_REACTORS
330
42
102
}
330
42
100
AcDbScale
 70
     0
300
1/2" = 1'-0"
140
0.5
141
12.0
290
     0
  0
SCALE
  5
4E
102
{ACAD_REACTORS
330
42
102
}
330
42
100
AcDbScale
 70
     0
300
3/4" = 1'-0"
140
0.75
141
12.0
290
     0
  0
SCALE
  5
4F
102
{ACAD_REACTORS
330
42
102
}
330
42
100
AcDbScale
 70
     0
300
1" = 1'-0"
140
1.0
141
12.0
290
     0
  0
SCALE
  5
50
102
{ACAD_REACTORS
330
42
102
}
330
42
100
AcDbScale
 70
     0
300
1-1/2" = 1'-0"
140
1.5
141
12.0
290
     0
  0
SCALE
  5
51
102
{ACAD_REACTORS
330
42
102
}
330
42
100
AcDbScale
 70
     0
300
3" = 1'-0"
140
3.0
141
12.0
290
     0
  0
SCALE
  5
52
102
{ACAD_REACTORS
330
42
102
}
330
42
100
AcDbScale
 70
     0
300
6" = 1'-0"
140
6.0
141
12.0
290
     0
  0
SCALE
  5
53
102
{ACAD_REACTORS
330
42
102
}
330
42
100
AcDbScale
 70
     0
300
1'-0" = 1'-0"
140
12.0
141
12.0
290
     0
  0
ACDBSECTIONVIEWSTYLE
  5
69
102
{ACAD_REACTORS
330
68
102
}
330
68
100
AcDbModelDocViewStyle
 70
     0
  3
Imperial24
290
     1
300
Imperial24
 90
        0
100
AcDbSectionViewStyle
 70
     0
 71
     0
 90
       78
 71
     1
340
55
 62
   256
 40
0.24
340
0
340
0
 62
   256
 40
0.24
300
I, O, Q, S, X, Z
 40
0.48
 90
        3
 40
0.18
 90
        1
 71
     2
340
5D
 90
       25
 62
   256
340
5D
 90
       50
 62
   256
 40
0.24
 40
0.0
 40
0.24
 71
     3
340
55
 62
   256
 40
0.24
 90
        1
 40
0.75
 90
        1
300
%<\AcVar ViewType \f "%tc1">% %<\AcVar ViewSectionStartId>%-%<\AcVar ViewSectionEndId>%\PSCALE %<\AcVar ViewScale \f "%sn">%
 71
     4
 62
   256
 62
   257
300
ANSI31
 40
1.0
 90
        0
290
     0
290
     0
 90
        6
 40
0.0
 40
1.570796326794896
 40
0.2617993877991494
 40
1.308996938995747
 40
-0.2617993877991494
 40
1.832595714594046
  0
TABLESTYLE
  5
65
102
{ACAD_XDICTIONARY
360
9B
102
}
102
{ACAD_REACTORS
330
64
102
}
330
64
100
AcDbTableStyle
280
     0
  3
Standard
 70
     0
 71
     0
 40
0.06
 41
0.06
280
     0
281
     0
  7
Standard
140
0.18
170
     2
 62
     0
 63
     7
283
     0
 90
      512
 91
        0
  1

274
    -2
284
     1
 64
     0
275
    -2
285
     1
 65
     0
276
    -2
286
     1
 66
     0
277
    -2
287
     1
 67
     0
278
    -2
288
     1
 68
     0
279
    -2
289
     1
 69
     0
  7
Standard
140
0.25
170
     5
 62
     0
 63
     7
283
     0
 90
      512
 91
        0
  1

274
    -2
284
     1
 64
     0
275
    -2
285
     1
 65
     0
276
    -2
286
     1
 66
     0
277
    -2
287
     1
 67
     0
278
    -2
288
     1
 68
     0
279
    -2
289
     1
 69
     0
  7
Standard
140
0.18
170
     5
 62
     0
 63
     7
283
     0
 90
      512
 91
        0
  1

274
    -2
284
     1
 64
     0
275
    -2
285
     1
 65
     0
276
    -2
286
     1
 66
     0
277
    -2
287
     1
 67
     0
278
    -2
288
     1
 68
     0
279
    -2
289
     1
 69
     0
  0
VISUALSTYLE
  5
2F
102
{ACAD_REACTORS
330
29
102
}
330
29
100
AcDbVisualStyle
  2
2dWireframe
 70
     4
177
     3
291
     0
 70
    58
 90
        0
176
     1
 90
        2
176
     1
 90
        0
176
     1
 90
        0
176
     1
 40
0.6
176
     1
 40
30.0
176
     1
 62
     7
420
 16777215
176
     1
 90
        1
176
     1
 90
        4
176
     1
 62
     7
176
     1
 62
   257
176
     1
 90
        1
176
     1
 90
        1
176
     1
 40
1.0
176
     1
 90
        0
176
     1
 62
   257
176
     1
 40
1.0
176
     1
 90
        1
176
     1
 90
        6
176
     1
 90
        2
176
     1
 62
     7
176
     1
 90
        5
176
     1
 90
        0
176
     1
 90
        0
176
     1
290
     0
176
     1
 90
        1
176
     1
 40
0.0
176
     1
 90
        0
176
     1
290
     1
176
     1
290
     1
176
     1
290
     0
176
     1
290
     0
176
     1
290
     0
176
     1
290
     0
176
     1
290
     0
176
     1
290
     0
176
     1
290
     0
176
     1
 90
       50
176
     1
 40
0.0
176
     1
 40
1.0
176
     1
 90
        0
176
     1
 62
    18
420
        0
176
     1
 90
       50
176
     1
 90
        3
176
     1
 62
     5
420
      255
176
     1
290
     0
176
     1
 90
       50
176
     1
 90
       50
176
     1
 90
       50
176
     1
290
     0
176
     1
 90
       50
176
     1
 62
   256
176
     0
 40
1.0
176
     0
 90
        2
176
     1
  1
strokes_ogs.tif
176
     1
290
     0
176
     1
 40
1.0
176
     1
 40
1.0
176
     1
  0
VISUALSTYLE
  5
2E
102
{ACAD_REACTORS
330
29
102
}
330
29
100
AcDbVisualStyle
  2
Basic
 70
     7
177
     3
291
     1
 70
    58
 90
        1
176
     1
 90
        0
176
     1
 90
        1
176
     1
 90
        0
176
     1
 40
0.6
176
     1
 40
30.0
176
     1
 62
     7
420
 16777215
176
     1
 90
        0
176
     1
 90
        4
176
     1
 62
     7
176
     1
 62
   257
176
     1
 90
        1
176
     1
 90
        1
176
     1
 40
1.0
176
     1
 90
        8
176
     1
 62
     7
176
     1
 40
1.0
176
     1
 90
        1
176
     1
 90
        6
176
     1
 90
        2
176
     1
 62
     7
176
     1
 90
        5
176
     1
 90
        0
176
     1
 90
        0
176
     1
290
     0
176
     1
 90
        1
176
     1
 40
0.0
176
     1
 90
        0
176
     1
290
     0
176
     1
290
     1
176
     1
290
     1
176
     1
290
     0
176
     1
290
     0
176
     1
290
     0
176
     1
290
     0
176
     1
290
     0
176
     1
290
     0
176
     1
 90
       50
176
     1
 40
0.0
176
     1
 40
1.0
176
     1
 90
        0
176
     1
 62
    18
420
        0
176
     1
 90
       50
176
     1
 90
        3
176
     1
 62
     5
420
      255
176
     1
290
     0
176
     1
 90
       50
176
     1
 90
       50
176
     1
 90
       50
176
     1
290
     0
176
     1
 90
       50
176
     1
 62
   256
176
     0
 40
1.0
176
     0
 90
        2
176
     1
  1
strokes_ogs.tif
176
     1
290
     0
176
     1
 40
1.0
176
     1
 40
1.0
176
     1
  0
VISUALSTYLE
  5
35
102
{ACAD_REACTORS
330
29
102
}
330
29
100
AcDbVisualStyle
  2
Brighten
 70
    12
177
     3
291
     1
 70
    58
 90
        2
176
     1
 90
        2
176
     1
 90
        0
176
     1
 90
        0
176
     1
 40
0.6
176
     1
 40
30.0
176
     1
 62
     7
420
 16777215
176
     1
 90
        1
176
     1
 90
        4
176
     1
 62
     7
176
     1
 62
   257
176
     1
 90
        1
176
     1
 90
        1
176
     1
 40
1.0
176
     1
 90
        8
176
     1
 62
     7
176
     1
 40
1.0
176
     1
 90
        1
176
     1
 90
        6
176
     1
 90
        2
176
     1
 62
     7
176
     1
 90
        5
176
     1
 90
        0
176
     1
 90
        0
176
     1
290
     0
176
     1
 90
        1
176
     1
 40
50.0
176
     1
 90
        0
176
     1
290
     0
176
     1
290
     1
176
     1
290
     1
176
     1
290
     0
176
     1
290
     0
176
     1
290
     0
176
     1
290
     0
176
     1
290
     0
176
     1
290
     0
176
     1
 90
       50
176
     1
 40
0.0
176
     1
 40
1.0
176
     1
 90
        0
176
     1
 62
    18
420
        0
176
     1
 90
       50
176
     1
 90
        3
176
     1
 62
     5
420
      255
176
     1
290
     0
176
     1
 90
       50
176
     1
 90
       50
176
     1
 90
       50
176
     1
290
     0
176
     1
 90
       50
176
     1
 62
   256
176
     0
 40
1.0
176
     0
 90
        2
176
     1
  1
strokes_ogs.tif
176
     1
290
     0
176
     1
 40
1.0
176
     1
 40
1.0
176
     1
  0
VISUALSTYLE
  5
39
102
{ACAD_REACTORS
330
29
102
}
330
29
100
AcDbVisualStyle
  2
ColorChange
 70
    16
177
     3
291
     1
 70
    58
 90
        2
176
     1
 90
        2
176
     1
 90
        3
176
     1
 90
        0
176
     1
 40
0.6
176
     1
 40
30.0
176
     1
 62
     8
420
  8421504
176
     1
 90
        1
176
     1
 90
        4
176
     1
 62
     7
176
     1
 62
   257
176
     1
 90
        1
176
     1
 90
        1
176
     1
 40
1.0
176
     1
 90
        8
176
     1
 62
     8
420
  8421504
176
     1
 40
1.0
176
     1
 90
        1
176
     1
 90
        6
176
     1
 90
        2
176
     1
 62
     7
176
     1
 90
        5
176
     1
 90
        0
176
     1
 90
        0
176
     1
290
     0
176
     1
 90
        1
176
     1
 40
0.0
176
     1
 90
        0
176
     1
290
     0
176
     1
290
     1
176
     1
290
     1
176
     1
290
     0
176
     1
290
     0
176
     1
290
     0
176
     1
290
     0
176
     1
290
     0
176
     1
290
     0
176
     1
 90
       50
176
     1
 40
0.0
176
     1
 40
1.0
176
     1
 90
        0
176
     1
 62
    18
420
        0
176
     1
 90
       50
176
     1
 90
        3
176
     1
 62
     5
420
      255
176
     1
290
     0
176
     1
 90
       50
176
     1
 90
       50
176
     1
 90
       50
176
     1
290
     0
176
     1
 90
       50
176
     1
 62
   256
176
     0
 40
1.0
176
     0
 90
        2
176
     1
  1
strokes_ogs.tif
176
     1
290
     0
176
     1
 40
1.0
176
     1
 40
1.0
176
     1
  0
VISUALSTYLE
  5
32
102
{ACAD_REACTORS
330
29
102
}
330
29
100
AcDbVisualStyle
  2
Conceptual
 70
     9
177
     3
291
     0
 70
    58
 90
        3
176
     1
 90
        2
176
     1
 90
        0
176
     1
 90
        0
176
     1
 40
0.6
176
     1
 40
30.0
176
     1
 62
     7
420
 16777215
176
     1
 90
        2
176
     1
 90
        2
176
     1
 62
     7
176
     1
 62
   257
176
     1
 90
        1
176
     1
 90
        1
176
     1
 40
179.0
176
     1
 90
        8
176
     1
 62
     7
176
     1
 40
1.0
176
     1
 90
        1
176
     1
 90
        6
176
     1
 90
        2
176
     1
 62
     7
176
     1
 90
        3
176
     1
 90
        0
176
     1
 90
        0
176
     1
290
     0
176
     1
 90
        1
176
     1
 40
0.0
176
     1
 90
        0
176
     1
290
     0
176
     1
290
     1
176
     1
290
     1
176
     1
290
     0
176
     1
290
     0
176
     1
290
     0
176
     1
290
     0
176
     1
290
     0
176
     1
290
     0
176
     1
 90
       50
176
     1
 40
0.0
176
     1
 40
1.0
176
     1
 90
        0
176
     1
 62
    18
420
        0
176
     1
 90
       50
176
     1
 90
        3
176
     1
 62
     5
420
      255
176
     1
290
     0
176
     1
 90
       50
176
     1
 90
       50
176
     1
 90
       50
176
     1
290
     0
176
     1
 90
       50
176
     1
 62
   256
176
     0
 40
1.0
176
     0
 90
        2
176
     1
  1
strokes_ogs.tif
176
     1
290
     0
176
     1
 40
1.0
176
     1
 40
1.0
176
     1
  0
VISUALSTYLE
  5
34
102
{ACAD_REACTORS
330
29
102
}
330
29
100
AcDbVisualStyle
  2
Dim
 70
    11
177
     3
291
     1
 70
    58
 90
        2
176
     1
 90
        2
176
     1
 90
        0
176
     1
 90
        0
176
     1
 40
0.6
176
     1
 40
30.0
176
     1
 62
     7
420
 16777215
176
     1
 90
        1
176
     1
 90
        4
176
     1
 62
     7
176
     1
 62
   257
176
     1
 90
        1
176
     1
 90
        1
176
     1
 40
1.0
176
     1
 90
        8
176
     1
 62
     7
176
     1
 40
1.0
176
     1
 90
        1
176
     1
 90
        6
176
     1
 90
        2
176
     1
 62
     7
176
     1
 90
        5
176
     1
 90
        0
176
     1
 90
        0
176
     1
290
     0
176
     1
 90
        1
176
     1
 40
-50.0
176
     1
 90
        0
176
     1
290
     0
176
     1
290
     1
176
     1
290
     1
176
     1
290
     0
176
     1
290
     0
176
     1
290
     0
176
     1
290
     0
176
     1
290
     0
176
     1
290
     0
176
     1
 90
       50
176
     1
 40
0.0
176
     1
 40
1.0
176
     1
 90
        0
176
     1
 62
    18
420
        0
176
     1
 90
       50
176
     1
 90
        3
176
     1
 62
     5
420
      255
176
     1
290
     0
176
     1
 90
       50
176
     1
 90
       50
176
     1
 90
       50
176
     1
290
     0
176
     1
 90
       50
176
     1
 62
   256
176
     0
 40
1.0
176
     0
 90
        2
176
     1
  1
strokes_ogs.tif
176
     1
290
     0
176
     1
 40
1.0
176
     1
 40
1.0
176
     1
  0
VISUALSTYLE
  5
41
102
{ACAD_REACTORS
330
29
102
}
330
29
100
AcDbVisualStyle
  2
EdgeColorOff
 70
    22
177
     3
291
     1
 70
    58
 90
        2
176
     0
 90
        2
176
     0
 90
        0
176
     0
 90
        0
176
     0
 40
0.6
176
     0
 40
30.0
176
     0
 62
     7
420
 16777215
176
     0
 90
        1
176
     0
 90
        4
176
     0
 62
     7
176
     0
 62
   257
176
     0
 90
        1
176
     0
 90
        1
176
     0
 40
1.0
176
     0
 90
        8
176
     2
 62
     7
176
     0
 40
1.0
176
     0
 90
        1
176
     0
 90
        6
176
     0
 90
        2
176
     0
 62
     7
176
     0
 90
        5
176
     0
 90
        0
176
     0
 90
        0
176
     0
290
     0
176
     0
 90
        1
176
     0
 40
0.0
176
     0
 90
        0
176
     0
290
     0
176
     0
290
     1
176
     0
290
     1
176
     0
290
     0
176
     0
290
     0
176
     0
290
     0
176
     0
290
     0
176
     0
290
     0
176
     0
290
     0
176
     0
 90
       50
176
     0
 40
0.0
176
     0
 40
1.0
176
     0
 90
        0
176
     0
 62
    18
420
        0
176
     0
 90
       50
176
     0
 90
        3
176
     0
 62
     5
420
      255
176
     0
290
     0
176
     0
 90
       50
176
     0
 90
       50
176
     0
 90
       50
176
     0
290
     0
176
     0
 90
       50
176
     0
 62
   256
176
     0
 40
1.0
176
     0
 90
        2
176
     0
  1
strokes_ogs.tif
176
     0
290
     0
176
     0
 40
1.0
176
     0
 40
1.0
176
     0
  0
VISUALSTYLE
  5
38
102
{ACAD_REACTORS
330
29
102
}
330
29
100
AcDbVisualStyle
  2
Facepattern
 70
    15
177
     3
291
     1
 70
    58
 90
        2
176
     1
 90
        2
176
     1
 90
        0
176
     1
 90
        0
176
     1
 40
0.6
176
     1
 40
30.0
176
     1
 62
     7
420
 16777215
176
     1
 90
        1
176
     1
 90
        4
176
     1
 62
     7
176
     1
 62
   257
176
     1
 90
        1
176
     1
 90
        1
176
     1
 40
1.0
176
     1
 90
        8
176
     1
 62
     7
176
     1
 40
1.0
176
     1
 90
        1
176
     1
 90
        6
176
     1
 90
        2
176
     1
 62
     7
176
     1
 90
        5
176
     1
 90
        0
176
     1
 90
        0
176
     1
290
     0
176
     1
 90
        1
176
     1
 40
0.0
176
     1
 90
        0
176
     1
290
     0
176
     1
290
     1
176
     1
290
     1
176
     1
290
     0
176
     1
290
     0
176
     1
290
     0
176
     1
290
     0
176
     1
290
     0
176
     1
290
     0
176
     1
 90
       50
176
     1
 40
0.0
176
     1
 40
1.0
176
     1
 90
        0
176
     1
 62
    18
420
        0
176
     1
 90
       50
176
     1
 90
        3
176
     1
 62
     5
420
      255
176
     1
290
     0
176
     1
 90
       50
176
     1
 90
       50
176
     1
 90
       50
176
     1
290
     0
176
     1
 90
       50
176
     1
 62
   256
176
     0
 40
1.0
176
     0
 90
        2
176
     1
  1
strokes_ogs.tif
176
     1
290
     0
176
     1
 40
1.0
176
     1
 40
1.0
176
     1
  0
VISUALSTYLE
  5
2A
102
{ACAD_REACTORS
330
29
102
}
330
29
100
AcDbVisualStyle
  2
Flat
 70
     0
177
     3
291
     1
 70
    58
 90
        2
176
     1
 90
        1
176
     1
 90
        1
176
     1
 90
        2
176
     1
 40
0.6
176
     1
 40
30.0
176
     1
 62
     7
420
 16777215
176
     1
 90
        0
176
     1
 90
        0
176
     1
 62
     7
176
     1
 62
   257
176
     1
 90
        1
176
     1
 90
        1
176
     1
 40
1.0
176
     1
 90
        8
176
     1
 62
     7
176
     1
 40
1.0
176
     1
 90
        1
176
     1
 90
        6
176
     1
 90
        2
176
     1
 62
     7
176
     1
 90
        5
176
     1
 90
        0
176
     1
 90
        0
176
     1
290
     0
176
     1
 90
       13
176
     1
 40
0.0
176
     1
 90
        0
176
     1
290
     0
176
     1
290
     1
176
     1
290
     1
176
     1
290
     0
176
     1
290
     0
176
     1
290
     0
176
     1
290
     0
176
     1
290
     0
176
     1
290
     0
176
     1
 90
       50
176
     1
 40
0.0
176
     1
 40
1.0
176
     1
 90
        0
176
     1
 62
    18
420
        0
176
     1
 90
       50
176
     1
 90
        3
176
     1
 62
     5
420
      255
176
     1
290
     0
176
     1
 90
       50
176
     1
 90
       50
176
     1
 90
       50
176
     1
290
     0
176
     1
 90
       50
176
     1
 62
   256
176
     0
 40
1.0
176
     0
 90
        2
176
     1
  1
strokes_ogs.tif
176
     1
290
     0
176
     1
 40
1.0
176
     1
 40
1.0
176
     1
  0
VISUALSTYLE
  5
2B
102
{ACAD_REACTORS
330
29
102
}
330
29
100
AcDbVisualStyle
  2
FlatWithEdges
 70
     1
177
     3
291
     1
 70
    58
 90
        2
176
     1
 90
        1
176
     1
 90
        1
176
     1
 90
        2
176
     1
 40
0.6
176
     1
 40
30.0
176
     1
 62
     7
420
 16777215
176
     1
 90
        1
176
     1
 90
        0
176
     1
 62
     7
176
     1
 62
   257
176
     1
 90
        1
176
     1
 90
        1
176
     1
 40
1.0
176
     1
 90
        0
176
     1
 62
   257
176
     1
 40
1.0
176
     1
 90
        1
176
     1
 90
        6
176
     1
 90
        2
176
     1
 62
     7
176
     1
 90
        5
176
     1
 90
        0
176
     1
 90
        0
176
     1
290
     0
176
     1
 90
       13
176
     1
 40
0.0
176
     1
 90
        0
176
     1
290
     0
176
     1
290
     1
176
     1
290
     1
176
     1
290
     0
176
     1
290
     0
176
     1
290
     0
176
     1
290
     0
176
     1
290
     0
176
     1
290
     0
176
     1
 90
       50
176
     1
 40
0.0
176
     1
 40
1.0
176
     1
 90
        0
176
     1
 62
    18
420
        0
176
     1
 90
       50
176
     1
 90
        3
176
     1
 62
     5
420
      255
176
     1
290
     0
176
     1
 90
       50
176
     1
 90
       50
176
     1
 90
       50
176
     1
290
     0
176
     1
 90
       50
176
     1
 62
   256
176
     0
 40
1.0
176
     0
 90
        2
176
     1
  1
strokes_ogs.tif
176
     1
290
     0
176
     1
 40
1.0
176
     1
 40
1.0
176
     1
  0
VISUALSTYLE
  5
2C
102
{ACAD_REACTORS
330
29
102
}
330
29
100
AcDbVisualStyle
  2
Gouraud
 70
     2
177
     3
291
     1
 70
    58
 90
        2
176
     1
 90
        2
176
     1
 90
        1
176
     1
 90
        2
176
     1
 40
0.6
176
     1
 40
30.0
176
     1
 62
     7
420
 16777215
176
     1
 90
        0
176
     1
 90
        0
176
     1
 62
     7
176
     1
 62
   257
176
     1
 90
        1
176
     1
 90
        1
176
     1
 40
1.0
176
     1
 90
        0
176
     1
 62
     7
176
     1
 40
1.0
176
     1
 90
        1
176
     1
 90
        6
176
     1
 90
        2
176
     1
 62
     7
176
     1
 90
        5
176
     1
 90
        0
176
     1
 90
        0
176
     1
290
     0
176
     1
 90
       13
176
     1
 40
0.0
176
     1
 90
        0
176
     1
290
     0
176
     1
290
     1
176
     1
290
     1
176
     1
290
     0
176
     1
290
     0
176
     1
290
     0
176
     1
290
     0
176
     1
290
     0
176
     1
290
     0
176
     1
 90
       50
176
     1
 40
0.0
176
     1
 40
1.0
176
     1
 90
        0
176
     1
 62
    18
420
        0
176
     1
 90
       50
176
     1
 90
        3
176
     1
 62
     5
420
      255
176
     1
290
     0
176
     1
 90
       50
176
     1
 90
       50
176
     1
 90
       50
176
     1
290
     0
176
     1
 90
       50
176
     1
 62
   256
176
     0
 40
1.0
176
     0
 90
        2
176
     1
  1
strokes_ogs.tif
176
     1
290
     0
176
     1
 40
1.0
176
     1
 40
1.0
176
     1
  0
VISUALSTYLE
  5
2D
102
{ACAD_REACTORS
330
29
102
}
330
29
100
AcDbVisualStyle
  2
GouraudWithEdges
 70
     3
177
     3
291
     1
 70
    58
 90
        2
176
     1
 90
        2
176
     1
 90
        1
176
     1
 90
        2
176
     1
 40
0.6
176
     1
 40
30.0
176
     1
 62
     7
420
 16777215
176
     1
 90
        1
176
     1
 90
        0
176
     1
 62
     7
176
     1
 62
   257
176
     1
 90
        1
176
     1
 90
        1
176
     1
 40
1.0
176
     1
 90
        0
176
     1
 62
   257
176
     1
 40
1.0
176
     1
 90
        1
176
     1
 90
        6
176
     1
 90
        2
176
     1
 62
     7
176
     1
 90
        5
176
     1
 90
        0
176
     1
 90
        0
176
     1
290
     0
176
     1
 90
       13
176
     1
 40
0.0
176
     1
 90
        0
176
     1
290
     0
176
     1
290
     1
176
     1
290
     1
176
     1
290
     0
176
     1
290
     0
176
     1
290
     0
176
     1
290
     0
176
     1
290
     0
176
     1
290
     0
176
     1
 90
       50
176
     1
 40
0.0
176
     1
 40
1.0
176
     1
 90
        0
176
     1
 62
    18
420
        0
176
     1
 90
       50
176
     1
 90
        3
176
     1
 62
     5
420
      255
176
     1
290
     0
176
     1
 90
       50
176
     1
 90
       50
176
     1
 90
       50
176
     1
290
     0
176
     1
 90
       50
176
     1
 62
   256
176
     0
 40
1.0
176
     0
 90
        2
176
     1
  1
strokes_ogs.tif
176
     1
290
     0
176
     1
 40
1.0
176
     1
 40
1.0
176
     1
  0
VISUALSTYLE
  5
31
102
{ACAD_REACTORS
330
29
102
}
330
29
100
AcDbVisualStyle
  2
Hidden
 70
     6
177
     3
291
     0
 70
    58
 90
        1
176
     1
 90
        2
176
     1
 90
        2
176
     1
 90
        0
176
     1
 40
0.6
176
     1
 40
30.0
176
     1
 62
     7
420
 16777215
176
     1
 90
        2
176
     1
 90
        2
176
     1
 62
     7
176
     1
 62
   257
176
     1
 90
        2
176
     1
 90
        1
176
     1
 40
40.0
176
     1
 90
        0
176
     1
 62
   257
176
     1
 40
1.0
176
     1
 90
        1
176
     1
 90
        6
176
     1
 90
        2
176
     1
 62
     7
176
     1
 90
        3
176
     1
 90
        0
176
     1
 90
        0
176
     1
290
     0
176
     1
 90
        1
176
     1
 40
0.0
176
     1
 90
        0
176
     1
290
     0
176
     1
290
     1
176
     1
290
     1
176
     1
290
     0
176
     1
290
     0
176
     1
290
     0
176
     1
290
     0
176
     1
290
     0
176
     1
290
     0
176
     1
 90
       50
176
     1
 40
0.0
176
     1
 40
1.0
176
     1
 90
        0
176
     1
 62
    18
420
        0
176
     1
 90
       50
176
     1
 90
        3
176
     1
 62
     5
420
      255
176
     1
290
     0
176
     1
 90
       50
176
     1
 90
       50
176
     1
 90
       50
176
     1
290
     0
176
     1
 90
       50
176
     1
 62
   256
176
     0
 40
1.0
176
     0
 90
        2
176
     1
  1
strokes_ogs.tif
176
     1
290
     0
176
     1
 40
1.0
176
     1
 40
1.0
176
     1
  0
VISUALSTYLE
  5
3F
102
{ACAD_REACTORS
330
29
102
}
330
29
100
AcDbVisualStyle
  2
JitterOff
 70
    20
177
     3
291
     1
 70
    58
 90
        2
176
     0
 90
        2
176
     0
 90
        0
176
     0
 90
        0
176
     0
 40
0.6
176
     0
 40
30.0
176
     0
 62
     7
420
 16777215
176
     0
 90
        1
176
     0
 90
        4
176
     0
 62
     7
176
     0
 62
   257
176
     0
 90
        1
176
     0
 90
        1
176
     0
 40
1.0
176
     0
 90
       10
176
     2
 62
     7
176
     0
 40
1.0
176
     0
 90
        1
176
     0
 90
        6
176
     0
 90
        2
176
     0
 62
     7
176
     0
 90
        5
176
     0
 90
        0
176
     0
 90
        0
176
     0
290
     0
176
     0
 90
        1
176
     0
 40
0.0
176
     0
 90
        0
176
     0
290
     0
176
     0
290
     1
176
     0
290
     1
176
     0
290
     0
176
     0
290
     0
176
     0
290
     0
176
     0
290
     0
176
     0
290
     0
176
     0
290
     0
176
     0
 90
       50
176
     0
 40
0.0
176
     0
 40
1.0
176
     0
 90
        0
176
     0
 62
    18
420
        0
176
     0
 90
       50
176
     0
 90
        3
176
     0
 62
     5
420
      255
176
     0
290
     0
176
     0
 90
       50
176
     0
 90
       50
176
     0
 90
       50
176
     0
290
     0
176
     0
 90
       50
176
     0
 62
   256
176
     0
 40
1.0
176
     0
 90
        2
176
     0
  1
strokes_ogs.tif
176
     0
290
     0
176
     0
 40
1.0
176
     0
 40
1.0
176
     0
  0
VISUALSTYLE
  5
37
102
{ACAD_REACTORS
330
29
102
}
330
29
100
AcDbVisualStyle
  2
Linepattern
 70
    14
177
     3
291
     1
 70
    58
 90
        2
176
     1
 90
        2
176
     1
 90
        0
176
     1
 90
        0
176
     1
 40
0.6
176
     1
 40
30.0
176
     1
 62
     7
420
 16777215
176
     1
 90
        1
176
     1
 90
        4
176
     1
 62
     7
176
     1
 62
   257
176
     1
 90
        7
176
     1
 90
        7
176
     1
 40
1.0
176
     1
 90
        8
176
     1
 62
     7
176
     1
 40
1.0
176
     1
 90
        1
176
     1
 90
        6
176
     1
 90
        2
176
     1
 62
     7
176
     1
 90
        5
176
     1
 90
        0
176
     1
 90
        0
176
     1
290
     0
176
     1
 90
        1
176
     1
 40
0.0
176
     1
 90
        0
176
     1
290
     0
176
     1
290
     1
176
     1
290
     1
176
     1
290
     0
176
     1
290
     0
176
     1
290
     0
176
     1
290
     0
176
     1
290
     0
176
     1
290
     0
176
     1
 90
       50
176
     1
 40
0.0
176
     1
 40
1.0
176
     1
 90
        0
176
     1
 62
    18
420
        0
176
     1
 90
       50
176
     1
 90
        3
176
     1
 62
     5
420
      255
176
     1
290
     0
176
     1
 90
       50
176
     1
 90
       50
176
     1
 90
       50
176
     1
290
     0
176
     1
 90
       50
176
     1
 62
   256
176
     0
 40
1.0
176
     0
 90
        2
176
     1
  1
strokes_ogs.tif
176
     1
290
     0
176
     1
 40
1.0
176
     1
 40
1.0
176
     1
  0
VISUALSTYLE
  5
40
102
{ACAD_REACTORS
330
29
102
}
330
29
100
AcDbVisualStyle
  2
OverhangOff
 70
    21
177
     3
291
     1
 70
    58
 90
        2
176
     0
 90
        2
176
     0
 90
        0
176
     0
 90
        0
176
     0
 40
0.6
176
     0
 40
30.0
176
     0
 62
     7
420
 16777215
176
     0
 90
        1
176
     0
 90
        4
176
     0
 62
     7
176
     0
 62
   257
176
     0
 90
        1
176
     0
 90
        1
176
     0
 40
1.0
176
     0
 90
        9
176
     2
 62
     7
176
     0
 40
1.0
176
     0
 90
        1
176
     0
 90
        6
176
     0
 90
        2
176
     0
 62
     7
176
     0
 90
        5
176
     0
 90
        0
176
     0
 90
        0
176
     0
290
     0
176
     0
 90
        1
176
     0
 40
0.0
176
     0
 90
        0
176
     0
290
     0
176
     0
290
     1
176
     0
290
     1
176
     0
290
     0
176
     0
290
     0
176
     0
290
     0
176
     0
290
     0
176
     0
290
     0
176
     0
290
     0
176
     0
 90
       50
176
     0
 40
0.0
176
     0
 40
1.0
176
     0
 90
        0
176
     0
 62
    18
420
        0
176
     0
 90
       50
176
     0
 90
        3
176
     0
 62
     5
420
      255
176
     0
290
     0
176
     0
 90
       50
176
     0
 90
       50
176
     0
 90
       50
176
     0
290
     0
176
     0
 90
       50
176
     0
 62
   256
176
     0
 40
1.0
176
     0
 90
        2
176
     0
  1
strokes_ogs.tif
176
     0
290
     0
176
     0
 40
1.0
176
     0
 40
1.0
176
     0
  0
VISUALSTYLE
  5
33
102
{ACAD_REACTORS
330
29
102
}
330
29
100
AcDbVisualStyle
  2
Realistic
 70
     8
177
     3
291
     0
 70
    58
 90
        2
176
     1
 90
        3
176
     1
 90
        0
176
     1
 90
        2
176
     1
 40
0.6
176
     1
 40
30.0
176
     1
 62
     7
420
 16777215
176
     1
 90
        0
176
     1
 90
        0
176
     1
 62
     7
176
     1
 62
   257
176
     1
 90
        1
176
     1
 90
        1
176
     1
 40
1.0
176
     1
 90
        8
176
     1
 62
   257
176
     1
 40
1.0
176
     1
 90
        1
176
     1
 90
        6
176
     1
 90
        2
176
     1
 62
     7
176
     1
 90
        3
176
     1
 90
        0
176
     1
 90
        0
176
     1
290
     0
176
     1
 90
       13
176
     1
 40
0.0
176
     1
 90
        0
176
     1
290
     0
176
     1
290
     1
176
     1
290
     1
176
     1
290
     0
176
     1
290
     0
176
     1
290
     0
176
     1
290
     0
176
     1
290
     0
176
     1
290
     0
176
     1
 90
       50
176
     1
 40
0.0
176
     1
 40
1.0
176
     1
 90
        0
176
     1
 62
    18
420
        0
176
     1
 90
       50
176
     1
 90
        3
176
     1
 62
     5
420
      255
176
     1
290
     0
176
     1
 90
       50
176
     1
 90
       50
176
     1
 90
       50
176
     1
290
     0
176
     1
 90
       50
176
     1
 62
   256
176
     0
 40
1.0
176
     0
 90
        2
176
     1
  1
strokes_ogs.tif
176
     1
290
     0
176
     1
 40
1.0
176
     1
 40
1.0
176
     1
  0
VISUALSTYLE
  5
3E
102
{ACAD_REACTORS
330
29
102
}
330
29
100
AcDbVisualStyle
  2
Shaded
 70
    27
177
     3
291
     0
 70
    58
 90
        2
176
     1
 90
        2
176
     1
 90
        1
176
     1
 90
        2
176
     1
 40
0.6
176
     1
 40
30.0
176
     1
 62
     7
420
 16777215
176
     1
 90
        0
176
     1
 90
        4
176
     1
 62
     7
176
     1
 62
   257
176
     1
 90
        1
176
     1
 90
        1
176
     1
 40
1.0
176
     1
 90
        8
176
     1
 62
   257
176
     1
 40
1.0
176
     1
 90
        1
176
     1
 90
        6
176
     1
 90
        2
176
     1
 62
     8
420
  7895160
176
     1
 90
        3
176
     1
 90
        0
176
     1
 90
        0
176
     1
290
     0
176
     1
 90
        5
176
     1
 40
0.0
176
     1
 90
        0
176
     1
290
     0
176
     1
290
     1
176
     1
290
     1
176
     1
290
     0
176
     1
290
     0
176
     1
290
     0
176
     1
290
     0
176
     1
290
     0
176
     1
290
     0
176
     1
 90
       50
176
     1
 40
0.0
176
     1
 40
1.0
176
     1
 90
        0
176
     1
 62
    18
420
        0
176
     1
 90
       50
176
     1
 90
        3
176
     1
 62
     5
420
      255
176
     1
290
     0
176
     1
 90
       50
176
     1
 90
       50
176
     1
 90
       50
176
     1
290
     0
176
     1
 90
       50
176
     1
 62
   256
176
     0
 40
1.0
176
     0
 90
        2
176
     1
  1
strokes_ogs.tif
176
     1
290
     0
176
     1
 40
1.0
176
     1
 40
1.0
176
     1
  0
VISUALSTYLE
  5
3D
102
{ACAD_REACTORS
330
29
102
}
330
29
100
AcDbVisualStyle
  2
Shaded with edges
 70
    26
177
     3
291
     0
 70
    58
 90
        2
176
     1
 90
        2
176
     1
 90
        1
176
     1
 90
        2
176
     1
 40
0.6
176
     1
 40
30.0
176
     1
 62
     7
420
 16777215
176
     1
 90
        1
176
     1
 90
        2
176
     1
 62
     7
176
     1
 62
   257
176
     1
 90
        2
176
     1
 90
        1
176
     1
 40
1.0
176
     1
 90
        8
176
     1
 62
   257
176
     1
 40
1.0
176
     1
 90
        1
176
     1
 90
        6
176
     1
 90
        2
176
     1
 62
     7
176
     1
 90
        3
176
     1
 90
        0
176
     1
 90
        0
176
     1
290
     0
176
     1
 90
        5
176
     1
 40
0.0
176
     1
 90
        0
176
     1
290
     0
176
     1
290
     1
176
     1
290
     1
176
     1
290
     0
176
     1
290
     0
176
     1
290
     0
176
     1
290
     0
176
     1
290
     0
176
     1
290
     0
176
     1
 90
       50
176
     1
 40
0.0
176
     1
 40
1.0
176
     1
 90
        0
176
     1
 62
    18
420
        0
176
     1
 90
       50
176
     1
 90
        3
176
     1
 62
     5
420
      255
176
     1
290
     0
176
     1
 90
       50
176
     1
 90
       50
176
     1
 90
       50
176
     1
290
     0
176
     1
 90
       50
176
     1
 62
   256
176
     0
 40
1.0
176
     0
 90
        2
176
     1
  1
strokes_ogs.tif
176
     1
290
     0
176
     1
 40
1.0
176
     1
 40
1.0
176
     1
  0
VISUALSTYLE
  5
3A
102
{ACAD_REACTORS
330
29
102
}
330
29
100
AcDbVisualStyle
  2
Shades of Gray
 70
    23
177
     3
291
     0
 70
    58
 90
        2
176
     1
 90
        2
176
     1
 90
        3
176
     1
 90
        0
176
     1
 40
0.6
176
     1
 40
30.0
176
     1
 62
     7
420
 16777215
176
     1
 90
        2
176
     1
 90
        2
176
     1
 62
     7
176
     1
 62
     7
176
     1
 90
        1
176
     1
 90
        1
176
     1
 40
40.0
176
     1
 90
        8
176
     1
 62
     7
176
     1
 40
1.0
176
     1
 90
        1
176
     1
 90
        6
176
     1
 90
        2
176
     1
 62
     7
176
     1
 90
        3
176
     1
 90
        0
176
     1
 90
        0
176
     1
290
     0
176
     1
 90
        1
176
     1
 40
0.0
176
     1
 90
        0
176
     1
290
     0
176
     1
290
     1
176
     1
290
     1
176
     1
290
     0
176
     1
290
     0
176
     1
290
     0
176
     1
290
     0
176
     1
290
     0
176
     1
290
     0
176
     1
 90
       50
176
     1
 40
0.0
176
     1
 40
1.0
176
     1
 90
        0
176
     1
 62
    18
420
        0
176
     1
 90
       50
176
     1
 90
        3
176
     1
 62
     5
420
      255
176
     1
290
     0
176
     1
 90
       50
176
     1
 90
       50
176
     1
 90
       50
176
     1
290
     0
176
     1
 90
       50
176
     1
 62
   256
176
     0
 40
1.0
176
     0
 90
        2
176
     1
  1
strokes_ogs.tif
176
     1
290
     0
176
     1
 40
1.0
176
     1
 40
1.0
176
     1
  0
VISUALSTYLE
  5
3B
102
{ACAD_REACTORS
330
29
102
}
330
29
100
AcDbVisualStyle
  2
Sketchy
 70
    24
177
     3
291
     0
 70
    58
 90
        1
176
     1
 90
        2
176
     1
 90
        2
176
     1
 90
        0
176
     1
 40
0.6
176
     1
 40
30.0
176
     1
 62
     7
420
 16777215
176
     1
 90
        2
176
     1
 90
        2
176
     1
 62
     7
176
     1
 62
     7
176
     1
 90
        1
176
     1
 90
        1
176
     1
 40
40.0
176
     1
 90
       11
176
     1
 62
     7
176
     1
 40
1.0
176
     1
 90
        1
176
     1
 90
        6
176
     1
 90
        2
176
     1
 62
     7
176
     1
 90
        6
176
     1
 90
        0
176
     1
 90
        0
176
     1
290
     0
176
     1
 90
        1
176
     1
 40
0.0
176
     1
 90
        0
176
     1
290
     0
176
     1
290
     1
176
     1
290
     1
176
     1
290
     0
176
     1
290
     0
176
     1
290
     0
176
     1
290
     0
176
     1
290
     0
176
     1
290
     0
176
     1
 90
       50
176
     1
 40
0.0
176
     1
 40
1.0
176
     1
 90
        0
176
     1
 62
    18
420
        0
176
     1
 90
       50
176
     1
 90
        3
176
     1
 62
     5
420
      255
176
     1
290
     0
176
     1
 90
       50
176
     1
 90
       50
176
     1
 90
       50
176
     1
290
     0
176
     1
 90
       50
176
     1
 62
   256
176
     0
 40
1.0
176
     0
 90
        2
176
     1
  1
strokes_ogs.tif
176
     1
290
     0
176
     1
 40
1.0
176
     1
 40
1.0
176
     1
  0
VISUALSTYLE
  5
36
102
{ACAD_REACTORS
330
29
102
}
330
29
100
AcDbVisualStyle
  2
Thicken
 70
    13
177
     3
291
     1
 70
    58
 90
        2
176
     1
 90
        2
176
     1
 90
        0
176
     1
 90
        0
176
     1
 40
0.6
176
     1
 40
30.0
176
     1
 62
     7
420
 16777215
176
     1
 90
        1
176
     1
 90
        4
176
     1
 62
     7
176
     1
 62
   257
176
     1
 90
        1
176
     1
 90
        1
176
     1
 40
1.0
176
     1
 90
       12
176
     1
 62
     7
176
     1
 40
1.0
176
     1
 90
        1
176
     1
 90
        6
176
     1
 90
        2
176
     1
 62
     7
176
     1
 90
        5
176
     1
 90
        0
176
     1
 90
        0
176
     1
290
     0
176
     1
 90
        1
176
     1
 40
0.0
176
     1
 90
        0
176
     1
290
     0
176
     1
290
     1
176
     1
290
     1
176
     1
290
     0
176
     1
290
     0
176
     1
290
     0
176
     1
290
     0
176
     1
290
     0
176
     1
290
     0
176
     1
 90
       50
176
     1
 40
0.0
176
     1
 40
1.0
176
     1
 90
        0
176
     1
 62
    18
420
        0
176
     1
 90
       50
176
     1
 90
        3
176
     1
 62
     5
420
      255
176
     1
290
     0
176
     1
 90
       50
176
     1
 90
       50
176
     1
 90
       50
176
     1
290
     0
176
     1
 90
       50
176
     1
 62
   256
176
     0
 40
1.0
176
     0
 90
        2
176
     1
  1
strokes_ogs.tif
176
     1
290
     0
176
     1
 40
1.0
176
     1
 40
1.0
176
     1
  0
VISUALSTYLE
  5
30
102
{ACAD_REACTORS
330
29
102
}
330
29
100
AcDbVisualStyle
  2
Wireframe
 70
     5
177
     3
291
     0
 70
    58
 90
        0
176
     1
 90
        2
176
     1
 90
        0
176
     1
 90
        0
176
     1
 40
0.6
176
     1
 40
30.0
176
     1
 62
     7
420
 16777215
176
     1
 90
        1
176
     1
 90
        4
176
     1
 62
     7
176
     1
 62
   257
176
     1
 90
        1
176
     1
 90
        1
176
     1
 40
1.0
176
     1
 90
        0
176
     1
 62
   257
176
     1
 40
1.0
176
     1
 90
        1
176
     1
 90
        6
176
     1
 90
        2
176
     1
 62
     7
176
     1
 90
        3
176
     1
 90
        0
176
     1
 90
        0
176
     1
290
     0
176
     1
 90
        1
176
     1
 40
0.0
176
     1
 90
        0
176
     1
290
     0
176
     1
290
     1
176
     1
290
     1
176
     1
290
     0
176
     1
290
     0
176
     1
290
     0
176
     1
290
     0
176
     1
290
     0
176
     1
290
     0
176
     1
 90
       50
176
     1
 40
0.0
176
     1
 40
1.0
176
     1
 90
        0
176
     1
 62
    18
420
        0
176
     1
 90
       50
176
     1
 90
        3
176
     1
 62
     5
420
      255
176
     1
290
     0
176
     1
 90
       50
176
     1
 90
       50
176
     1
 90
       50
176
     1
290
     0
176
     1
 90
       50
176
     1
 62
   256
176
     0
 40
1.0
176
     0
 90
        2
176
     1
  1
strokes_ogs.tif
176
     1
290
     0
176
     1
 40
1.0
176
     1
 40
1.0
176
     1
  0
VISUALSTYLE
  5
3C
102
{ACAD_REACTORS
330
29
102
}
330
29
100
AcDbVisualStyle
  2
X-Ray
 70
    25
177
     3
291
     0
 70
    58
 90
        2
176
     1
 90
        2
176
     1
 90
        1
176
     1
 90
        1
176
     1
 40
0.5
176
     1
 40
30.0
176
     1
 62
     7
420
 16777215
176
     1
 90
        1
176
     1
 90
        0
176
     1
 62
     7
176
     1
 62
   257
176
     1
 90
        1
176
     1
 90
        1
176
     1
 40
1.0
176
     1
 90
        8
176
     1
 62
     7
176
     1
 40
1.0
176
     1
 90
        1
176
     1
 90
        6
176
     1
 90
        2
176
     1
 62
     7
176
     1
 90
        3
176
     1
 90
        0
176
     1
 90
        0
176
     1
290
     0
176
     1
 90
       13
176
     1
 40
0.0
176
     1
 90
        0
176
     1
290
     0
176
     1
290
     1
176
     1
290
     1
176
     1
290
     0
176
     1
290
     0
176
     1
290
     0
176
     1
290
     0
176
     1
290
     0
176
     1
290
     0
176
     1
 90
       50
176
     1
 40
0.0
176
     1
 40
1.0
176
     1
 90
        0
176
     1
 62
    18
420
        0
176
     1
 90
       50
176
     1
 90
        3
176
     1
 62
     5
420
      255
176
     1
290
     0
176
     1
 90
       50
176
     1
 90
       50
176
     1
 90
       50
176
     1
290
     0
176
     1
 90
       50
176
     1
 62
   256
176
     0
 40
1.0
176
     0
 90
        2
176
     1
  1
strokes_ogs.tif
176
     1
290
     0
176
     1
 40
1.0
176
     1
 40
1.0
176
     1
  0
DICTIONARYVAR
  5
9A
102
{ACAD_REACTORS
330
95
102
}
330
95
100
DictionaryVariables
280
     0
  1
1:1
  0
DICTIONARYVAR
  5
97
102
{ACAD_REACTORS
330
95
102
}
330
95
100
DictionaryVariables
280
     0
  1
STANDARD
  0
DICTIONARYVAR
  5
96
102
{ACAD_REACTORS
330
95
102
}
330
95
100
DictionaryVariables
280
     0
  1
STANDARD
  0
DICTIONARYVAR
  5
98
102
{ACAD_REACTORS
330
95
102
}
330
95
100
DictionaryVariables
280
     0
  1
Imperial24
  0
DICTIONARYVAR
  5
99
102
{ACAD_REACTORS
330
95
102
}
330
95
100
DictionaryVariables
280
     0
  1
Imperial24
  0
DICTIONARY
  5
1A
330
19
100
AcDbDictionary
280
     1
281
     1
  3
BUMPTILE
360
1C
  3
DIFFUSETILE
360
1B
  3
OPACITYTILE
360
1F
  3
REFLECTIONTILE
360
1E
  3
REFRACTIONTILE
360
20
  3
SPECULARTILE
360
1D
  0
DICTIONARY
  5
12
330
11
100
AcDbDictionary
280
     1
281
     1
  3
BUMPTILE
360
14
  3
DIFFUSETILE
360
13
  3
OPACITYTILE
360
17
  3
REFLECTIONTILE
360
16
  3
REFRACTIONTILE
360
18
  3
SPECULARTILE
360
15
  0
DICTIONARY
  5
22
330
21
100
AcDbDictionary
280
     1
281
     1
  3
BUMPTILE
360
24
  3
DIFFUSETILE
360
23
  3
OPACITYTILE
360
27
  3
REFLECTIONTILE
360
26
  3
REFRACTIONTILE
360
28
  3
SPECULARTILE
360
25
  0
DICTIONARY
  5
9B
330
65
100
AcDbDictionary
280
     1
281
     1
  3
ACAD_ROUNDTRIP_2008_TABLESTYLE_CELLSTYLEMAP
360
9C
  0
XRECORD
  5
1C
102
{ACAD_REACTORS
330
1A
102
}
330
1A
100
AcDbXrecord
280
     1
270
     1
271
     1
  0
XRECORD
  5
1B
102
{ACAD_REACTORS
330
1A
102
}
330
1A
100
AcDbXrecord
280
     1
270
     1
271
     1
  0
XRECORD
  5
1F
102
{ACAD_REACTORS
330
1A
102
}
330
1A
100
AcDbXrecord
280
     1
270
     1
271
     1
  0
XRECORD
  5
1E
102
{ACAD_REACTORS
330
1A
102
}
330
1A
100
AcDbXrecord
280
     1
270
     1
271
     1
  0
XRECORD
  5
20
102
{ACAD_REACTORS
330
1A
102
}
330
1A
100
AcDbXrecord
280
     1
270
     1
271
     1
  0
XRECORD
  5
1D
102
{ACAD_REACTORS
330
1A
102
}
330
1A
100
AcDbXrecord
280
     1
270
     1
271
     1
  0
XRECORD
  5
14
102
{ACAD_REACTORS
330
12
102
}
330
12
100
AcDbXrecord
280
     1
270
     1
271
     1
  0
XRECORD
  5
13
102
{ACAD_REACTORS
330
12
102
}
330
12
100
AcDbXrecord
280
     1
270
     1
271
     1
  0
XRECORD
  5
17
102
{ACAD_REACTORS
330
12
102
}
330
12
100
AcDbXrecord
280
     1
270
     1
271
     1
  0
XRECORD
  5
16
102
{ACAD_REACTORS
330
12
102
}
330
12
100
AcDbXrecord
280
     1
270
     1
271
     1
  0
XRECORD
  5
18
102
{ACAD_REACTORS
330
12
102
}
330
12
100
AcDbXrecord
280
     1
270
     1
271
     1
  0
XRECORD
  5
15
102
{ACAD_REACTORS
330
12
102
}
330
12
100
AcDbXrecord
280
     1
270
     1
271
     1
  0
XRECORD
  5
24
102
{ACAD_REACTORS
330
22
102
}
330
22
100
AcDbXrecord
280
     1
270
     1
271
     1
  0
XRECORD
  5
23
102
{ACAD_REACTORS
330
22
102
}
330
22
100
AcDbXrecord
280
     1
270
     1
271
     1
  0
XRECORD
  5
27
102
{ACAD_REACTORS
330
22
102
}
330
22
100
AcDbXrecord
280
     1
270
     1
271
     1
  0
XRECORD
  5
26
102
{ACAD_REACTORS
330
22
102
}
330
22
100
AcDbXrecord
280
     1
270
     1
271
     1
  0
XRECORD
  5
28
102
{ACAD_REACTORS
330
22
102
}
330
22
100
AcDbXrecord
280
     1
270
     1
271
     1
  0
XRECORD
  5
25
102
{ACAD_REACTORS
330
22
102
}
330
22
100
AcDbXrecord
280
     1
270
     1
271
     1
  0
CELLSTYLEMAP
  5
9C
102
{ACAD_REACTORS
330
9B
102
}
330
9B
100
AcDbCellStyleMap
 90
        3
300
CELLSTYLE
  1
TABLEFORMAT_BEGIN
 90
        5
170
     1
 91
        0
 92
    32768
 62
   257
 93
        1
300
CONTENTFORMAT
  1
CONTENTFORMAT_BEGIN
 90
        0
 91
        0
 92
      512
 93
        0
300

 40
0.0
140
1.0
 94
        5
 62
     0
340
55
144
0.25
309
CONTENTFORMAT_END
171
     0
 94
        0
309
TABLEFORMAT_END
  1
CELLSTYLE_BEGIN
 90
        1
 91
        1
300
_TITLE
309
CELLSTYLE_END
300
CELLSTYLE
  1
TABLEFORMAT_BEGIN
 90
        5
170
     1
 91
        0
 92
        0
 62
   257
 93
        1
300
CONTENTFORMAT
  1
CONTENTFORMAT_BEGIN
 90
        0
 91
        0
 92
      512
 93
        0
300

 40
0.0
140
1.0
 94
        5
 62
     0
340
55
144
0.18
309
CONTENTFORMAT_END
171
     0
 94
        0
309
TABLEFORMAT_END
  1
CELLSTYLE_BEGIN
 90
        2
 91
        1
300
_HEADER
309
CELLSTYLE_END
300
CELLSTYLE
  1
TABLEFORMAT_BEGIN
 90
        5
170
     1
 91
        0
 92
        0
 62
   257
 93
        1
300
CONTENTFORMAT
  1
CONTENTFORMAT_BEGIN
 90
        0
 91
        0
 92
      512
 93
        0
300

 40
0.0
140
1.0
 94
        2
 62
     0
340
55
144
0.18
309
CONTENTFORMAT_END
171
     0
 94
        0
309
TABLEFORMAT_END
  1
CELLSTYLE_BEGIN
 90
        3
 91
        2
300
_DATA
309
CELLSTYLE_END
  0
ENDSEC
  0
EOF
