  0
SECTION
  2
HEADER
  9
$ACADVER
  1
AC1032
  9
$ACADMAINTVER
 90
      266
  9
$DWGCODEPAGE
  3
ANSI_1252
  9
$REQUIREDVERSIONS
160
                 0
  9
$INSBASE
 10
0.0
 20
0.0
 30
0.0
  9
$EXTMIN
 10
1.000000000000000E+20
 20
1.000000000000000E+20
 30
1.000000000000000E+20
  9
$EXTMAX
 10
-1.000000000000000E+20
 20
-1.000000000000000E+20
 30
-1.000000000000000E+20
  9
$LIMMIN
 10
0.0
 20
0.0
  9
$LIMMAX
 10
12.0
 20
9.0
  9
$ORTHOMODE
 70
     0
  9
$REGENMODE
 70
     1
  9
$FILLMODE
 70
     1
  9
$QTEXTMODE
 70
     0
  9
$MIRRTEXT
 70
     0
  9
$LTSCALE
 40
1.0
  9
$ATTMODE
 70
     1
  9
$TEXTSIZE
 40
0.2
  9
$TRACEWID
 40
0.05
  9
$TEXTSTYLE
  7
Standard
  9
$CLAYER
  8
0
  9
$CELTYPE
  6
ByLayer
  9
$CECOLOR
 62
   256
  9
$CELTSCALE
 40
1.0
  9
$DISPSILH
 70
     0
  9
$DIMSCALE
 40
1.0
  9
$DIMASZ
 40
0.18
  9
$DIMEXO
 40
0.0625
  9
$DIMDLI
 40
0.38
  9
$DIMRND
 40
0.0
  9
$DIMDLE
 40
0.0
  9
$DIMEXE
 40
0.18
  9
$DIMTP
 40
0.0
  9
$DIMTM
 40
0.0
  9
$DIMTXT
 40
0.18
  9
$DIMCEN
 40
0.09
  9
$DIMTSZ
 40
0.0
  9
$DIMTOL
 70
     0
  9
$DIMLIM
 70
     0
  9
$DIMTIH
 70
     1
  9
$DIMTOH
 70
     1
  9
$DIMSE1
 70
     0
  9
$DIMSE2
 70
     0
  9
$DIMTAD
 70
     0
  9
$DIMZIN
 70
     0
  9
$DIMBLK
  1

  9
$DIMASO
 70
     1
  9
$DIMSHO
 70
     1
  9
$DIMPOST
  1

  9
$DIMAPOST
  1

  9
$DIMALT
 70
     0
  9
$DIMALTD
 70
     2
  9
$DIMALTF
 40
25.4
  9
$DIMLFAC
 40
1.0
  9
$DIMTOFL
 70
     0
  9
$DIMTVP
 40
0.0
  9
$DIMTIX
 70
     0
  9
$DIMSOXD
 70
     0
  9
$DIMSAH
 70
     0
  9
$DIMBLK1
  1

  9
$DIMBLK2
  1

  9
$DIMSTYLE
  2
Standard
  9
$DIMCLRD
 70
     0
  9
$DIMCLRE
 70
     0
  9
$DIMCLRT
 70
     0
  9
$DIMTFAC
 40
1.0
  9
$DIMGAP
 40
0.09
  9
$DIMJUST
 70
     0
  9
$DIMSD1
 70
     0
  9
$DIMSD2
 70
     0
  9
$DIMTOLJ
 70
     1
  9
$DIMTZIN
 70
     0
  9
$DIMALTZ
 70
     0
  9
$DIMALTTZ
 70
     0
  9
$DIMUPT
 70
     0
  9
$DIMDEC
 70
     4
  9
$DIMTDEC
 70
     4
  9
$DIMALTU
 70
     2
  9
$DIMALTTD
 70
     2
  9
$DIMTXSTY
  7
Standard
  9
$DIMAUNIT
 70
     0
  9
$DIMADEC
 70
     0
  9
$DIMALTRND
 40
0.0
  9
$DIMAZIN
 70
     0
  9
$DIMDSEP
 70
    46
  9
$DIMATFIT
 70
     3
  9
$DIMFRAC
 70
     0
  9
$DIMLDRBLK
  1

  9
$DIMLUNIT
 70
     2
  9
$DIMLWD
 70
    -2
  9
$DIMLWE
 70
    -2
  9
$DIMTMOVE
 70
     0
  9
$DIMFXL
 40
1.0
  9
$DIMFXLON
 70
     0
  9
$DIMJOGANG
 40
0.7853981633974483
  9
$DIMTFILL
 70
     0
  9
$DIMTFILLCLR
 70
     0
  9
$DIMARCSYM
 70
     0
  9
$DIMLTYPE
  6

  9
$DIMLTEX1
  6

  9
$DIMLTEX2
  6

  9
$DIMTXTDIRECTION
 70
     0
  9
$LUNITS
 70
     2
  9
$LUPREC
 70
     4
  9
$SKETCHINC
 40
0.1
  9
$FILLETRAD
 40
0.0
  9
$AUNITS
 70
     0
  9
$AUPREC
 70
     0
  9
$MENU
  1
.
  9
$ELEVATION
 40
0.0
  9
$PELEVATION
 40
0.0
  9
$THICKNESS
 40
0.0
  9
$LIMCHECK
 70
     0
  9
$CHAMFERA
 40
0.0
  9
$CHAMFERB
 40
0.0
  9
$CHAMFERC
 40
0.0
  9
$CHAMFERD
 40
0.0
  9
$SKPOLY
 70
     0
  9
$TDCREATE
 40
2461119.333993055
  9
$TDUCREATE
 40
2461119.292326389
  9
$TDUPDATE
 40
2461119.333993055
  9
$TDUUPDATE
 40
2461119.292326389
  9
$TDINDWG
 40
0.0000000000
  9
$TDUSRTIMER
 40
0.0000000000
  9
$USRTIMER
 70
     1
  9
$ANGBASE
 50
0.0
  9
$ANGDIR
 70
     0
  9
$PDMODE
 70
     0
  9
$PDSIZE
 40
0.0
  9
$PLINEWID
 40
0.0
  9
$SPLFRAME
 70
     0
  9
$SPLINETYPE
 70
     6
  9
$SPLINESEGS
 70
     8
  9
$HANDSEED
  5
8B
  9
$SURFTAB1
 70
     6
  9
$SURFTAB2
 70
     6
  9
$SURFTYPE
 70
     6
  9
$SURFU
 70
     6
  9
$SURFV
 70
     6
  9
$UCSBASE
  2

  9
$UCSNAME
  2

  9
$UCSORG
 10
0.0
 20
0.0
 30
0.0
  9
$UCSXDIR
 10
1.0
 20
0.0
 30
0.0
  9
$UCSYDIR
 10
0.0
 20
1.0
 30
0.0
  9
$UCSORTHOREF
  2

  9
$UCSORTHOVIEW
 70
     0
  9
$UCSORGTOP
 10
0.0
 20
0.0
 30
0.0
  9
$UCSORGBOTTOM
 10
0.0
 20
0.0
 30
0.0
  9
$UCSORGLEFT
 10
0.0
 20
0.0
 30
0.0
  9
$UCSORGRIGHT
 10
0.0
 20
0.0
 30
0.0
  9
$UCSORGFRONT
 10
0.0
 20
0.0
 30
0.0
  9
$UCSORGBACK
 10
0.0
 20
0.0
 30
0.0
  9
$PUCSBASE
  2

  9
$PUCSNAME
  2

  9
$PUCSORG
 10
0.0
 20
0.0
 30
0.0
  9
$PUCSXDIR
 10
1.0
 20
0.0
 30
0.0
  9
$PUCSYDIR
 10
0.0
 20
1.0
 30
0.0
  9
$PUCSORTHOREF
  2

  9
$PUCSORTHOVIEW
 70
     0
  9
$PUCSORGTOP
 10
0.0
 20
0.0
 30
0.0
  9
$PUCSORGBOTTOM
 10
0.0
 20
0.0
 30
0.0
  9
$PUCSORGLEFT
 10
0.0
 20
0.0
 30
0.0
  9
$PUCSORGRIGHT
 10
0.0
 20
0.0
 30
0.0
  9
$PUCSORGFRONT
 10
0.0
 20
0.0
 30
0.0
  9
$PUCSORGBACK
 10
0.0
 20
0.0
 30
0.0
  9
$USERI1
 70
     0
  9
$USERI2
 70
     0
  9
$USERI3
 70
     0
  9
$USERI4
 70
     0
  9
$USERI5
 70
     0
  9
$USERR1
 40
0.0
  9
$USERR2
 40
0.0
  9
$USERR3
 40
0.0
  9
$USERR4
 40
0.0
  9
$USERR5
 40
0.0
  9
$WORLDVIEW
 70
     1
  9
$SHADEDGE
 70
     3
  9
$SHADEDIF
 70
    70
  9
$TILEMODE
 70
     1
  9
$MAXACTVP
 70
    64
  9
$PINSBASE
 10
0.0
 20
0.0
 30
0.0
  9
$PLIMCHECK
 70
     0
  9
$PEXTMIN
 10
1.000000000000000E+20
 20
1.000000000000000E+20
 30
1.000000000000000E+20
  9
$PEXTMAX
 10
-1.000000000000000E+20
 20
-1.000000000000000E+20
 30
-1.000000000000000E+20
  9
$PLIMMIN
 10
0.0
 20
0.0
  9
$PLIMMAX
 10
12.0
 20
9.0
  9
$UNITMODE
 70
     0
  9
$VISRETAIN
 70
     1
  9
$PLINEGEN
 70
     0
  9
$PSLTSCALE
 70
     1
  9
$TREEDEPTH
 70
  3020
  9
$CMLSTYLE
  2
Standard
  9
$CMLJUST
 70
     0
  9
$CMLSCALE
 40
1.0
  9
$PROXYGRAPHICS
 70
     1
  9
$MEASUREMENT
 70
     0
  9
$CELWEIGHT
370
    -1
  9
$ENDCAPS
280
     0
  9
$JOINSTYLE
280
     0
  9
$LWDISPLAY
290
     1
  9
$INSUNITS
 70
     4
  9
$HYPERLINKBASE
  1

  9
$STYLESHEET
  1

  9
$XEDIT
290
     1
  9
$CEPSNTYPE
380
     0
  9
$PSTYLEMODE
290
     1
  9
$FINGERPRINTGUID
  2
{BE3138E1-FEBF-C745-ACAF-7947497A7BEF}
  9
$VERSIONGUID
  2
{F8920DCC-EAEF-9A4D-989E-AF00C5B6A06E}
  9
$EXTNAMES
290
     1
  9
$PSVPSCALE
 40
0.0
  9
$OLESTARTUP
290
     0
  9
$SORTENTS
280
   127
  9
$INDEXCTL
280
     0
  9
$HIDETEXT
280
     1
  9
$XCLIPFRAME
280
     2
  9
$HALOGAP
280
     0
  9
$OBSCOLOR
 70
   257
  9
$OBSLTYPE
280
     0
  9
$INTERSECTIONDISPLAY
280
     0
  9
$INTERSECTIONCOLOR
 70
   257
  9
$DIMASSOC
280
     2
  9
$PROJECTNAME
  1

  9
$CAMERADISPLAY
290
     0
  9
$LENSLENGTH
 40
50.0
  9
$CAMERAHEIGHT
 40
0.0
  9
$STEPSPERSEC
 40
2.0
  9
$STEPSIZE
 40
6.0
  9
$3DDWFPREC
 40
2.0
  9
$PSOLWIDTH
 40
0.25
  9
$PSOLHEIGHT
 40
4.0
  9
$LOFTANG1
 40
1.570796326794896
  9
$LOFTANG2
 40
1.570796326794896
  9
$LOFTMAG1
 40
0.0
  9
$LOFTMAG2
 40
0.0
  9
$LOFTPARAM
 70
     7
  9
$LOFTNORMALS
280
     1
  9
$LATITUDE
 40
37.795
  9
$LONGITUDE
 40
-122.394
  9
$NORTHDIRECTION
 40
0.0
  9
$TIMEZONE
 70
 -8000
  9
$LIGHTGLYPHDISPLAY
280
     1
  9
$TILEMODELIGHTSYNCH
280
     1
  9
$CMATERIAL
347
11
  9
$SOLIDHIST
280
     0
  9
$SHOWHIST
280
     1
  9
$DWFFRAME
280
     2
  9
$DGNFRAME
280
     0
  9
$REALWORLDSCALE
290
     1
  9
$INTERFERECOLOR
 62
     1
  9
$INTERFEREOBJVS
345
33
  9
$INTERFEREVPVS
346
30
  9
$CSHADOW
280
     0
  9
$SHADOWPLANELOCATION
 40
0.0
  0
ENDSEC
  0
SECTION
  2
CLASSES
  0
CLASS
  1
ACDBDICTIONARYWDFLT
  2
AcDbDictionaryWithDefault
  3
ObjectDBX Classes
 90
        0
 91
        1
280
     0
281
     0
  0
CLASS
  1
MATERIAL
  2
AcDbMaterial
  3
ObjectDBX Classes
 90
     1153
 91
        3
280
     0
281
     0
  0
CLASS
  1
VISUALSTYLE
  2
AcDbVisualStyle
  3
ObjectDBX Classes
 90
     4095
 91
       24
280
     0
281
     0
  0
CLASS
  1
SCALE
  2
AcDbScale
  3
ObjectDBX Classes
 90
     1153
 91
       17
280
     0
281
     0
  0
CLASS
  1
TABLESTYLE
  2
AcDbTableStyle
  3
ObjectDBX Classes
 90
     4095
 91
        1
280
     0
281
     0
  0
CLASS
  1
MLEADERSTYLE
  2
AcDbMLeaderStyle
  3
ACDB_MLEADERSTYLE_CLASS
 90
     4095
 91
        1
280
     0
281
     0
  0
CLASS
  1
ACDBSECTIONVIEWSTYLE
  2
AcDbSectionViewStyle
  3
ObjectDBX Classes
 90
     1025
 91
        1
280
     0
281
     0
  0
CLASS
  1
ACDBDETAILVIEWSTYLE
  2
AcDbDetailViewStyle
  3
ObjectDBX Classes
 90
     1025
 91
        1
280
     0
281
     0
  0
CLASS
  1
DICTIONARYVAR
  2
AcDbDictionaryVar
  3
ObjectDBX Classes
 90
        0
 91
        5
280
     0
281
     0
  0
CLASS
  1
CELLSTYLEMAP
  2
AcDbCellStyleMap
  3
ObjectDBX Classes
 90
     1152
 91
        1
280
     0
281
     0
  0
ENDSEC
  0
SECTION
  2
TABLES
  0
TABLE
  2
VPORT
  5
8
330
0
100
AcDbSymbolTable
 70
     1
  0
VPORT
  5
57
330
8
100
AcDbSymbolTableRecord
100
AcDbViewportTableRecord
  2
*Active
 70
     0
 10
0.0
 20
0.0
 11
1.0
 21
1.0
 12
0.0
 22
0.0
 13
0.0
 23
0.0
 14
1.0
 24
1.0
 15
0.0
 25
0.0
 16
0.0
 26
0.0
 36
1.0
 17
3.499999999124846
 27
-3.499999999124846
 37
0.0
 40
7.139999998214686
 41
1.0
 42
50.0
 43
0.0
 44
0.0
 50
0.0
 51
0.0
 71
     0
 72
   100
 73
     1
 74
     1
 75
     0
 76
     0
 77
     0
 78
     0
281
     0
 65
     1
110
0.0
120
0.0
130
0.0
111
1.0
121
0.0
131
0.0
112
0.0
122
1.0
132
0.0
 79
     0
146
0.0
 60
     3
 61
     5
292
     1
282
     1
141
0.0
142
0.0
 63
   250
421
  3355443
  0
ENDTAB
  0
TABLE
  2
LTYPE
  5
5
330
0
100
AcDbSymbolTable
 70
     1
  0
LTYPE
  5
5B
330
5
100
AcDbSymbolTableRecord
100
AcDbLinetypeTableRecord
  2
ByBlock
 70
     0
  3

 72
    65
 73
     0
 40
0.0
  0
LTYPE
  5
5C
330
5
100
AcDbSymbolTableRecord
100
AcDbLinetypeTableRecord
  2
ByLayer
 70
     0
  3

 72
    65
 73
     0
 40
0.0
  0
LTYPE
  5
5D
330
5
100
AcDbSymbolTableRecord
100
AcDbLinetypeTableRecord
  2
Continuous
 70
     0
  3
Solid line
 72
    65
 73
     0
 40
0.0
  0
ENDTAB
  0
TABLE
  2
LAYER
  5
2
330
0
100
AcDbSymbolTable
 70
     3
  0
LAYER
  5
54
330
2
100
AcDbSymbolTableRecord
100
AcDbLayerTableRecord
  2
0
 70
     0
 62
     7
  6
Continuous
370
    -3
390
F
347
21
348
0
  0
LAYER
  5
78
330
2
100
AcDbSymbolTableRecord
100
AcDbLayerTableRecord
  2
Stroke
 70
     1
 62
     7
  6
Continuous
370
     0
390
F
347
21
348
0
  0
LAYER
  5
7C
330
2
100
AcDbSymbolTableRecord
100
AcDbLayerTableRecord
  2
Outlines
 70
     0
 62
     7
  6
Continuous
370
     0
390
F
347
21
348
0
  0
ENDTAB
  0
TABLE
  2
STYLE
  5
3
330
0
100
AcDbSymbolTable
 70
     2
  0
STYLE
  5
55
330
3
100
AcDbSymbolTableRecord
100
AcDbTextStyleTableRecord
  2
Standard
 70
     0
 40
0.0
 41
1.0
 50
0.0
 71
     0
 42
0.2
  3
txt
  4

  0
STYLE
  5
5A
330
3
100
AcDbSymbolTableRecord
100
AcDbTextStyleTableRecord
  2
Annotative
 70
     0
 40
0.0
 41
1.0
 50
0.0
 71
     0
 42
0.2
  3
txt
  4

1001
AcadAnnotative
1000
AnnotativeData
1002
{
1070
     1
1070
     1
1002
}
  0
ENDTAB
  0
TABLE
  2
VIEW
  5
6
330
0
100
AcDbSymbolTable
 70
     0
  0
ENDTAB
  0
TABLE
  2
UCS
  5
7
330
0
100
AcDbSymbolTable
 70
     0
  0
ENDTAB
  0
TABLE
  2
APPID
  5
9
330
0
100
AcDbSymbolTable
 70
     2
  0
APPID
  5
56
330
9
100
AcDbSymbolTableRecord
100
AcDbRegAppTableRecord
  2
ACAD
 70
     0
  0
APPID
  5
5E
330
9
100
AcDbSymbolTableRecord
100
AcDbRegAppTableRecord
  2
AcadAnnotative
 70
     0
  0
ENDTAB
  0
TABLE
  2
DIMSTYLE
  5
A
330
0
100
AcDbSymbolTable
 70
     2
100
AcDbDimStyleTable
 71
     0
  0
DIMSTYLE
105
58
330
A
100
AcDbSymbolTableRecord
100
AcDbDimStyleTableRecord
  2
Standard
 70
     0
340
55
  0
DIMSTYLE
105
59
330
A
100
AcDbSymbolTableRecord
100
AcDbDimStyleTableRecord
  2
Annotative
 70
     0
340
55
1001
AcadAnnotative
1000
AnnotativeData
1002
{
1070
     1
1070
     1
1002
}
  0
ENDTAB
  0
TABLE
  2
BLOCK_RECORD
  5
1
330
0
100
AcDbSymbolTable
 70
     1
  0
BLOCK_RECORD
  5
70
330
1
100
AcDbSymbolTableRecord
100
AcDbBlockTableRecord
  2
*Model_Space
340
73
 70
     0
280
     1
281
     0
  0
BLOCK_RECORD
  5
6C
330
1
100
AcDbSymbolTableRecord
100
AcDbBlockTableRecord
  2
*Paper_Space
340
6F
 70
     0
280
     1
281
     0
  0
BLOCK_RECORD
  5
74
330
1
100
AcDbSymbolTableRecord
100
AcDbBlockTableRecord
  2
*Paper_Space0
340
77
 70
     0
280
     1
281
     0
  0
ENDTAB
  0
ENDSEC
  0
SECTION
  2
BLOCKS
  0
BLOCK
  5
71
330
70
100
AcDbEntity
  8
0
100
AcDbBlockBegin
  2
*Model_Space
 70
     0
 10
0.0
 20
0.0
 30
0.0
  3
*Model_Space
  1

  0
ENDBLK
  5
72
330
70
100
AcDbEntity
  8
0
100
AcDbBlockEnd
  0
BLOCK
  5
6D
330
6C
100
AcDbEntity
 67
     1
  8
0
100
AcDbBlockBegin
  2
*Paper_Space
 70
     0
 10
0.0
 20
0.0
 30
0.0
  3
*Paper_Space
  1

  0
ENDBLK
  5
6E
330
6C
100
AcDbEntity
 67
     1
  8
0
100
AcDbBlockEnd
  0
BLOCK
  5
75
330
74
100
AcDbEntity
 67
     1
  8
0
100
AcDbBlockBegin
  2
*Paper_Space0
 70
     0
 10
0.0
 20
0.0
 30
0.0
  3
*Paper_Space0
  1

  0
ENDBLK
  5
76
330
74
100
AcDbEntity
 67
     1
  8
0
100
AcDbBlockEnd
  0
ENDSEC
  0
SECTION
  2
ENTITIES
  0
SPLINE
  5
79
330
70
100
AcDbEntity
  8
Stroke
 62
   250
420
  2301728
370
     9
100
AcDbSpline
210
0.0
220
0.0
230
1.0
 70
     9
 71
     3
 72
    29
 73
    25
 74
     0
 42
0.0000000001
 43
0.0000000001
 40
0.0
 40
0.0
 40
0.0
 40
0.0
 40
1.0
 40
1.0
 40
1.0
 40
2.0
 40
2.0
 40
2.0
 40
3.0
 40
3.0
 40
3.0
 40
4.0
 40
4.0
 40
4.0
 40
5.0
 40
5.0
 40
5.0
 40
6.0
 40
6.0
 40
6.0
 40
7.0
 40
7.0
 40
7.0
 40
8.0
 40
8.0
 40
8.0
 40
8.0
 10
4.332232952752139
 20
-4.684795026220367
 30
0.0
 10
4.332232952752139
 20
-4.684795026220367
 30
0.0
 10
3.062328371276612
 20
-4.684795026220367
 30
0.0
 10
3.062328371276612
 20
-4.684795026220367
 30
0.0
 10
3.036624342380455
 20
-4.684795026220367
 30
0.0
 10
3.013538192689202
 20
-4.669066745830837
 30
0.0
 10
3.004131054076161
 20
-4.645145984040701
 30
0.0
 10
3.004131054076161
 20
-4.645145984040701
 30
0.0
 10
2.617080279601706
 20
-3.476108776383924
 30
0.0
 10
2.617080279601706
 20
-3.476108776383924
 30
0.0
 10
2.600945535728093
 20
-3.435080852740616
 30
0.0
 10
2.631191085504701
 20
-3.390686089148092
 30
0.0
 10
2.675277596801837
 20
-3.390686089148092
 30
0.0
 10
2.675277596801837
 20
-3.390686089148092
 30
0.0
 10
4.667884757818416
 20
-3.390686089148092
 30
0.0
 10
4.667884757818416
 20
-3.390686089148092
 30
0.0
 10
4.711971269115873
 20
-3.390686089148092
 30
0.0
 10
4.74221681889184
 20
-3.435080852740616
 30
0.0
 10
4.726082075018868
 20
-3.476108776383924
 30
0.0
 10
4.726082075018868
 20
-3.476108776383924
 30
0.0
 10
4.39043026995259
 20
-4.645145984040701
 30
0.0
 10
4.39043026995259
 20
-4.645145984040701
 30
0.0
 10
4.38102313133987
 20
-4.669066745830837
 30
0.0
 10
4.357936981648617
 20
-4.684795026220367
 30
0.0
 10
4.332232952752139
 20
-4.684795026220367
 30
0.0
  0
SPLINE
  5
7A
330
70
100
AcDbEntity
  8
Stroke
 62
   250
420
  2301728
370
     9
100
AcDbSpline
210
0.0
220
0.0
230
1.0
 70
     8
 71
     3
 72
    20
 73
    16
 74
     0
 42
0.0000000001
 43
0.0000000001
 40
0.0
 40
0.0
 40
0.0
 40
0.0
 40
1.0
 40
1.0
 40
1.0
 40
2.0
 40
2.0
 40
2.0
 40
3.0
 40
3.0
 40
3.0
 40
4.0
 40
4.0
 40
4.0
 40
5.0
 40
5.0
 40
5.0
 40
5.0
 10
2.627561551558998
 20
-3.433760907239706
 30
0.0
 10
2.627561551558998
 20
-3.433760907239706
 30
0.0
 10
3.192462690831855
 20
-3.94373185787108
 30
0.0
 10
3.192462690831855
 20
-3.94373185787108
 30
0.0
 10
3.259074442653306
 20
-4.00422578614275
 30
0.0
 10
3.345829952090666
 20
-4.03774055768455
 30
0.0
 10
3.43581128814734
 20
-4.03774055768455
 30
0.0
 10
3.43581128814734
 20
-4.03774055768455
 30
0.0
 10
3.909586415652753
 20
-4.03774055768455
 30
0.0
 10
3.909586415652753
 20
-4.03774055768455
 30
0.0
 10
3.998129320445304
 20
-4.03774055768455
 30
0.0
 10
4.083497966310554
 20
-4.004761549417123
 30
0.0
 10
4.149044870346115
 20
-3.945234670108077
 30
0.0
 10
4.149044870346115
 20
-3.945234670108077
 30
0.0
 10
4.716209303148588
 20
-3.436873646064917
 30
0.0
 10
4.716209303148588
 20
-3.436873646064917
 30
0.0
  0
SPLINE
  5
7B
330
70
100
AcDbEntity
  8
Stroke
 62
   250
420
  2301728
370
     9
100
AcDbSpline
210
0.0
220
0.0
230
1.0
 70
     8
 71
     3
 72
    38
 73
    34
 74
     0
 42
0.0000000001
 43
0.0000000001
 40
0.0
 40
0.0
 40
0.0
 40
0.0
 40
1.0
 40
1.0
 40
1.0
 40
2.0
 40
2.0
 40
2.0
 40
3.0
 40
3.0
 40
3.0
 40
4.0
 40
4.0
 40
4.0
 40
5.0
 40
5.0
 40
5.0
 40
6.0
 40
6.0
 40
6.0
 40
7.0
 40
7.0
 40
7.0
 40
8.0
 40
8.0
 40
8.0
 40
9.0
 40
9.0
 40
9.0
 40
10.0
 40
10.0
 40
10.0
 40
11.0
 40
11.0
 40
11.0
 40
11.0
 10
4.722967498180873
 20
-3.408120063088025
 30
0.0
 10
4.742848635266814
 20
-3.298033517465808
 30
0.0
 10
4.762739975054334
 20
-3.184925375723068
 30
0.0
 10
4.74167187635142
 20
-3.075059810800043
 30
0.0
 10
4.720603777647864
 20
-2.965194245876697
 30
0.0
 10
4.649130933587423
 20
-2.857645440645761
 30
0.0
 10
4.541526010467705
 20
-2.827059697901726
 30
0.0
 10
4.459444538690774
 20
-2.803728768069823
 30
0.0
 10
4.372524475126228
 20
-2.827741402569815
 30
0.0
 10
4.287756644951298
 20
-2.837545239079839
 30
0.0
 10
3.871247877900839
 20
-2.885716630529567
 30
0.0
 10
3.770211616465679
 20
-2.593310550297234
 30
0.0
 10
3.426496329012874
 20
-2.353185923381031
 30
0.0
 10
3.364674777148295
 20
-2.309996453050704
 30
0.0
 10
3.298178775933568
 20
-2.266624011047567
 30
0.0
 10
3.222965371131067
 20
-2.261130530791093
 30
0.0
 10
3.123225338094008
 20
-2.253845692811388
 30
0.0
 10
3.032518156878061
 20
-2.314032996599741
 30
0.0
 10
2.950736114985081
 20
-2.371590263500249
 30
0.0
 10
2.814520246952536
 20
-2.467457552242844
 30
0.0
 10
2.678304356654316
 20
-2.563324788518521
 30
0.0
 10
2.542088466355777
 20
-2.659192024794841
 30
0.0
 10
2.524719924488536
 20
-2.671415815904981
 30
0.0
 10
2.506042213969024
 20
-2.685535066179427
 30
0.0
 10
2.501491948879395
 20
-2.706280725962342
 30
0.0
 10
2.494468698717404
 20
-2.738301266136324
 30
0.0
 10
2.523651746237786
 20
-2.765406905407437
 30
0.0
 10
2.53799292831111
 20
-2.794885228487164
 30
0.0
 10
2.586049456114697
 20
-2.89366549138653
 30
0.0
 10
2.472967928692026
 20
-2.9981353911216
 30
0.0
 10
2.469950946879138
 20
-3.107943436057561
 30
0.0
 10
2.467066856933112
 20
-3.212913880604615
 30
0.0
 10
2.592933295405647
 20
-3.22990209199153
 30
0.0
 10
2.627561551558998
 20
-3.433760907239706
 30
0.0
  0
SPLINE
  5
7D
330
70
100
AcDbEntity
  8
Outlines
100
AcDbSpline
210
0.0
220
0.0
230
1.0
 70
     9
 71
     3
 72
   131
 73
   127
 74
     0
 42
0.0000000001
 43
0.0000000001
 40
0.0
 40
0.0
 40
0.0
 40
0.0
 40
1.0
 40
1.0
 40
1.0
 40
2.0
 40
2.0
 40
2.0
 40
3.0
 40
3.0
 40
3.0
 40
4.0
 40
4.0
 40
4.0
 40
5.0
 40
5.0
 40
5.0
 40
6.0
 40
6.0
 40
6.0
 40
7.0
 40
7.0
 40
7.0
 40
8.0
 40
8.0
 40
8.0
 40
9.0
 40
9.0
 40
9.0
 40
10.0
 40
10.0
 40
10.0
 40
11.0
 40
11.0
 40
11.0
 40
12.0
 40
12.0
 40
12.0
 40
13.0
 40
13.0
 40
13.0
 40
14.0
 40
14.0
 40
14.0
 40
15.0
 40
15.0
 40
15.0
 40
16.0
 40
16.0
 40
16.0
 40
17.0
 40
17.0
 40
17.0
 40
18.0
 40
18.0
 40
18.0
 40
19.0
 40
19.0
 40
19.0
 40
20.0
 40
20.0
 40
20.0
 40
21.0
 40
21.0
 40
21.0
 40
22.0
 40
22.0
 40
22.0
 40
23.0
 40
23.0
 40
23.0
 40
24.0
 40
24.0
 40
24.0
 40
25.0
 40
25.0
 40
25.0
 40
26.0
 40
26.0
 40
26.0
 40
27.0
 40
27.0
 40
27.0
 40
28.0
 40
28.0
 40
28.0
 40
29.0
 40
29.0
 40
29.0
 40
30.0
 40
30.0
 40
30.0
 40
31.0
 40
31.0
 40
31.0
 40
32.0
 40
32.0
 40
32.0
 40
33.0
 40
33.0
 40
33.0
 40
34.0
 40
34.0
 40
34.0
 40
35.0
 40
35.0
 40
35.0
 40
36.0
 40
36.0
 40
36.0
 40
37.0
 40
37.0
 40
37.0
 40
38.0
 40
38.0
 40
38.0
 40
39.0
 40
39.0
 40
39.0
 40
40.0
 40
40.0
 40
40.0
 40
41.0
 40
41.0
 40
41.0
 40
42.0
 40
42.0
 40
42.0
 40
42.0
 10
4.605059135133457
 20
-3.692970105413563
 30
0.0
 10
4.588522676804258
 20
-3.750675454791497
 30
0.0
 10
4.579565428542609
 20
-3.779269747319071
 30
0.0
 10
4.570608180280959
 20
-3.807864039846645
 30
0.0
 10
4.561306422470784
 20
-3.837147351471268
 30
0.0
 10
4.551660155112084
 20
-3.866430663095892
 30
0.0
 10
4.53477918723436
 20
-3.925341795893664
 30
0.0
 10
4.517553709808112
 20
-3.985975476434061
 30
0.0
 10
4.509974499740562
 20
-4.015947807155735
 30
0.0
 10
4.502050780124487
 20
-4.046609156974459
 30
0.0
 10
4.494816079605462
 20
-4.075203449502033
 30
0.0
 10
4.487581379086438
 20
-4.104142251578131
 30
0.0
 10
4.471389430305763
 20
-4.160641817536228
 30
0.0
 10
4.454852971976564
 20
-4.218519421688426
 30
0.0
 10
4.445895723714914
 20
-4.247458223764524
 30
0.0
 10
4.43659396590474
 20
-4.276397025840623
 30
0.0
 10
4.427636717643091
 20
-4.305680337465246
 30
0.0
 10
4.418334959832916
 20
-4.334963649089869
 30
0.0
 10
4.401109482406667
 20
-4.394219291436167
 30
0.0
 10
4.385951062271567
 20
-4.446929252360489
 30
0.0
 10
4.378027342655493
 20
-4.476557073533638
 30
0.0
 10
4.370792642136469
 20
-4.503084308770062
 30
0.0
 10
4.362179903423344
 20
-4.535812715879935
 30
0.0
 10
4.354256183807269
 20
-4.564407008407509
 30
0.0
 10
4.334619139541345
 20
-4.628830293981681
 30
0.0
 10
4.334619139541345
 20
-4.628830293981681
 30
0.0
 10
4.333930120444295
 20
-4.628830293981681
 30
0.0
 10
4.33220757270167
 20
-4.628830293981681
 30
0.0
 10
4.268473306224548
 20
-4.628830293981681
 30
0.0
 10
4.236778427760249
 20
-4.629519313078731
 30
0.0
 10
4.205083549295951
 20
-4.630208332175781
 30
0.0
 10
4.173733180380177
 20
-4.630897351272831
 30
0.0
 10
4.142382811464404
 20
-4.63158637036988
 30
0.0
 10
4.079682073632857
 20
-4.63158637036988
 30
0.0
 10
4.01491427851016
 20
-4.63158637036988
 30
0.0
 10
3.982874890497337
 20
-4.633308918112506
 30
0.0
 10
3.950490992935988
 20
-4.634686956306606
 30
0.0
 10
3.919485133568739
 20
-4.636064994500705
 30
0.0
 10
3.888134764652966
 20
-4.637443032694806
 30
0.0
 10
3.826123045918469
 20
-4.637443032694806
 30
0.0
 10
3.763422308086922
 20
-4.637443032694806
 30
0.0
 10
3.732071939171148
 20
-4.636409504049231
 30
0.0
 10
3.700893825029637
 20
-4.635375975403656
 30
0.0
 10
3.668682182242551
 20
-4.634342446758081
 30
0.0
 10
3.636470539455465
 20
-4.632964408563981
 30
0.0
 10
3.572047253881293
 20
-4.632964408563981
 30
0.0
 10
3.444406466152787
 20
-4.632619899015456
 30
0.0
 10
3.444234211378525
 20
-4.633997937209556
 30
0.0
 10
3.317110187972805
 20
-4.634342446758081
 30
0.0
 10
3.254237195366996
 20
-4.634342446758081
 30
0.0
 10
3.22271457167696
 20
-4.633653427661031
 30
0.0
 10
3.191191947986924
 20
-4.632619899015456
 30
0.0
 10
3.158980305199838
 20
-4.631930879918406
 30
0.0
 10
3.126768662412752
 20
-4.630897351272831
 30
0.0
 10
3.06027831954743
 20
-4.626074217593481
 30
0.0
 10
3.041330294378556
 20
-4.569919161183909
 30
0.0
 10
3.030478243600019
 20
-4.54098035910781
 30
0.0
 10
3.019970702370007
 20
-4.513075085677287
 30
0.0
 10
3.008946396817207
 20
-4.483447264504138
 30
0.0
 10
2.998438855587195
 20
-4.455541991073614
 30
0.0
 10
2.978801811321271
 20
-4.395941839178792
 30
0.0
 10
2.959681531378135
 20
-4.33840874457512
 30
0.0
 10
2.949518499696648
 20
-4.309125432950496
 30
0.0
 10
2.939527722789423
 20
-4.280531140422922
 30
0.0
 10
2.929364691107936
 20
-4.250903319249774
 30
0.0
 10
2.919373914200712
 20
-4.221964517173676
 30
0.0
 10
2.899736869934788
 20
-4.162708874827378
 30
0.0
 10
2.880272080443126
 20
-4.104142251578131
 30
0.0
 10
2.869764539213114
 20
-4.074858939953507
 30
0.0
 10
2.859256997983102
 20
-4.045920137877408
 30
0.0
 10
2.848921711527352
 20
-4.01698133580131
 30
0.0
 10
2.838586425071603
 20
-3.988042533725211
 30
0.0
 10
2.819293890354204
 20
-3.929820420024489
 30
0.0
 10
2.80034586518533
 20
-3.872631834969342
 30
0.0
 10
2.792938909892042
 20
-3.84352077811898
 30
0.0
 10
2.785531954598756
 20
-3.814237466494357
 30
0.0
 10
2.777780489756943
 20
-3.783403861901371
 30
0.0
 10
2.769856770140869
 20
-3.752570257308385
 30
0.0
 10
2.750047471100682
 20
-3.692281086316513
 30
0.0
 10
2.731853060569207
 20
-3.637568663641389
 30
0.0
 10
2.721797688121633
 20
-3.609146625888078
 30
0.0
 10
2.712065293375803
 20
-3.581844244167473
 30
0.0
 10
2.729635280350577
 20
-3.596981132455789
 30
0.0
 10
2.749487643084329
 20
-3.614292737269169
 30
0.0
 10
2.780364311370881
 20
-3.64232720178039
 30
0.0
 10
2.780364311370881
 20
-3.64232720178039
 30
0.0
 10
2.969500053511097
 20
-3.811825899654682
 30
0.0
 10
2.969500053511097
 20
-3.811825899654682
 30
0.0
 10
3.016353352110495
 20
-3.854200574123255
 30
0.0
 10
3.039435491861668
 20
-3.875560166131804
 30
0.0
 10
3.062689886387105
 20
-3.897092012914616
 30
0.0
 10
3.085944280912541
 20
-3.918796114471689
 30
0.0
 10
3.10937093021224
 20
-3.940500216028763
 30
0.0
 10
3.156568738360163
 20
-3.983219400045861
 30
0.0
 10
3.234600151101072
 20
-4.053843857493483
 30
0.0
 10
3.333646646302005
 20
-4.093117946025332
 30
0.0
 10
3.435793727439663
 20
-4.093117946025332
 30
0.0
 10
3.495566134108747
 20
-4.093117946025332
 30
0.0
 10
3.52553846483042
 20
-4.092428926928281
 30
0.0
 10
3.555338540777832
 20
-4.091739907831231
 30
0.0
 10
3.584794107176718
 20
-4.091050888734182
 30
0.0
 10
3.614077418801342
 20
-4.090706379185657
 30
0.0
 10
3.672644042050589
 20
-4.090706379185657
 30
0.0
 10
3.672644042050589
 20
-4.090706379185657
 30
0.0
 10
3.909494356661515
 20
-4.090706379185657
 30
0.0
 10
3.909494356661515
 20
-4.090706379185657
 30
0.0
 10
4.013880749864585
 20
-4.090706379185657
 30
0.0
 10
4.11241048074273
 20
-4.053499347944958
 30
0.0
 10
4.186135524127077
 20
-3.986319985982586
 30
0.0
 10
4.231610784532374
 20
-3.945323349708113
 30
0.0
 10
4.254692924283549
 20
-3.923619248151039
 30
0.0
 10
4.277086044937672
 20
-3.90294867523954
 30
0.0
 10
4.301201713334421
 20
-3.880555554585416
 30
0.0
 10
4.324283853085596
 20
-3.859023707802605
 30
0.0
 10
4.372859699427618
 20
-3.815443249914194
 30
0.0
 10
4.422469074415216
 20
-3.771173772928734
 30
0.0
 10
4.445895723714914
 20
-3.749641926145923
 30
0.0
 10
4.470355901660188
 20
-3.727248805491798
 30
0.0
 10
4.470355901660188
 20
-3.727248805491798
 30
0.0
 10
4.561306422470784
 20
-3.644911023394327
 30
0.0
 10
4.561306422470784
 20
-3.644911023394327
 30
0.0
 10
4.600149874066977
 20
-3.609771049444779
 30
0.0
 10
4.62215542147901
 20
-3.589552645315719
 30
0.0
 10
4.642050847906327
 20
-3.57109985262285
 30
0.0
 10
4.632189262079799
 20
-3.601998052756184
 30
0.0
 10
4.622952099809974
 20
-3.630807663751586
 30
0.0
 10
4.605059135133457
 20
-3.692970105413563
 30
0.0
  0
SPLINE
  5
7E
330
70
100
AcDbEntity
  8
Outlines
100
AcDbSpline
210
0.0
220
0.0
230
1.0
 70
     9
 71
     3
 72
    98
 73
    94
 74
     0
 42
0.0000000001
 43
0.0000000001
 40
0.0
 40
0.0
 40
0.0
 40
0.0
 40
1.0
 40
1.0
 40
1.0
 40
2.0
 40
2.0
 40
2.0
 40
3.0
 40
3.0
 40
3.0
 40
4.0
 40
4.0
 40
4.0
 40
5.0
 40
5.0
 40
5.0
 40
6.0
 40
6.0
 40
6.0
 40
7.0
 40
7.0
 40
7.0
 40
8.0
 40
8.0
 40
8.0
 40
9.0
 40
9.0
 40
9.0
 40
10.0
 40
10.0
 40
10.0
 40
11.0
 40
11.0
 40
11.0
 40
12.0
 40
12.0
 40
12.0
 40
13.0
 40
13.0
 40
13.0
 40
14.0
 40
14.0
 40
14.0
 40
15.0
 40
15.0
 40
15.0
 40
16.0
 40
16.0
 40
16.0
 40
17.0
 40
17.0
 40
17.0
 40
18.0
 40
18.0
 40
18.0
 40
19.0
 40
19.0
 40
19.0
 40
20.0
 40
20.0
 40
20.0
 40
21.0
 40
21.0
 40
21.0
 40
22.0
 40
22.0
 40
22.0
 40
23.0
 40
23.0
 40
23.0
 40
24.0
 40
24.0
 40
24.0
 40
25.0
 40
25.0
 40
25.0
 40
26.0
 40
26.0
 40
26.0
 40
27.0
 40
27.0
 40
27.0
 40
28.0
 40
28.0
 40
28.0
 40
29.0
 40
29.0
 40
29.0
 40
30.0
 40
30.0
 40
30.0
 40
31.0
 40
31.0
 40
31.0
 40
31.0
 10
4.623554991519892
 20
-3.443932765523565
 30
0.0
 10
4.607793679674874
 20
-3.458359102868049
 30
0.0
 10
4.595025294532667
 20
-3.470223150445378
 30
0.0
 10
4.582666014479333
 20
-3.481785752167747
 30
0.0
 10
4.559928384276684
 20
-3.502973089402034
 30
0.0
 10
4.53684624452551
 20
-3.524504936184845
 30
0.0
 10
4.490337455474637
 20
-3.566018336782106
 30
0.0
 10
4.490337455474637
 20
-3.566018336782106
 30
0.0
 10
4.399042425115517
 20
-3.64921739275089
 30
0.0
 10
4.399042425115517
 20
-3.64921739275089
 30
0.0
 10
4.374582247170243
 20
-3.671438258630751
 30
0.0
 10
4.351500107419069
 20
-3.6927978506393
 30
0.0
 10
4.302579751528521
 20
-3.736550563301973
 30
0.0
 10
4.252970376540924
 20
-3.780992295061696
 30
0.0
 10
4.229543727241225
 20
-3.80269639661877
 30
0.0
 10
4.205083549295951
 20
-3.825434026821419
 30
0.0
 10
4.183034938190352
 20
-3.845932344958655
 30
0.0
 10
4.159952798439178
 20
-3.867291936967204
 30
0.0
 10
4.115166557130931
 20
-3.90777180891889
 30
0.0
 10
4.060734048463983
 20
-3.957381183906488
 30
0.0
 10
3.987698024176686
 20
-3.984597438239962
 30
0.0
 10
3.909494356661515
 20
-3.984597438239962
 30
0.0
 10
3.909494356661515
 20
-3.984597438239962
 30
0.0
 10
3.672644042050589
 20
-3.984597438239962
 30
0.0
 10
3.672644042050589
 20
-3.984597438239962
 30
0.0
 10
3.613043890155767
 20
-3.984597438239962
 30
0.0
 10
3.583071559434093
 20
-3.985286457337011
 30
0.0
 10
3.553271483486682
 20
-3.985975476434061
 30
0.0
 10
3.523815917087796
 20
-3.986664495531111
 30
0.0
 10
3.494532605463172
 20
-3.987009005079636
 30
0.0
 10
3.435793727439663
 20
-3.987009005079636
 30
0.0
 10
3.360001626764166
 20
-3.987009005079636
 30
0.0
 10
3.286276583379819
 20
-3.958070203003538
 30
0.0
 10
3.227709960130572
 20
-3.904671222982165
 30
0.0
 10
3.180856661531175
 20
-3.862296548513592
 30
0.0
 10
3.15777452178
 20
-3.840936956505043
 30
0.0
 10
3.134520127254564
 20
-3.819405109722232
 30
0.0
 10
3.111265732729127
 20
-3.797701008165158
 30
0.0
 10
3.087839083429429
 20
-3.775996906608084
 30
0.0
 10
3.040469020507244
 20
-3.733277722590986
 30
0.0
 10
3.040469020507244
 20
-3.733277722590986
 30
0.0
 10
2.851333278367027
 20
-3.563779024716694
 30
0.0
 10
2.851333278367027
 20
-3.563779024716694
 30
0.0
 10
2.803446451122055
 20
-3.520543076376808
 30
0.0
 10
2.779158527951044
 20
-3.499700248691047
 30
0.0
 10
2.754526095231507
 20
-3.478685166231023
 30
0.0
 10
2.742812770581657
 20
-3.468758984864147
 30
0.0
 10
2.731013318544677
 20
-3.458703612416574
 30
0.0
 10
2.716479321966279
 20
-3.446042886508281
 30
0.0
 10
2.751554700375479
 20
-3.445612249572624
 30
0.0
 10
2.77890014578965
 20
-3.444880166782009
 30
0.0
 10
2.801896158153692
 20
-3.443889701829999
 30
0.0
 10
2.832385253198154
 20
-3.442683918410162
 30
0.0
 10
2.863046603016877
 20
-3.441305880216062
 30
0.0
 10
2.924197047880062
 20
-3.441305880216062
 30
0.0
 10
2.984830728420459
 20
-3.441305880216062
 30
0.0
 10
3.01531982346492
 20
-3.442856173184424
 30
0.0
 10
3.045636663735118
 20
-3.444578720927049
 30
0.0
 10
3.077331542199417
 20
-3.446129013895412
 30
0.0
 10
3.109026420663715
 20
-3.447851561638037
 30
0.0
 10
3.172588432366575
 20
-3.447851561638037
 30
0.0
 10
3.236150444069434
 20
-3.447851561638037
 30
0.0
 10
3.267845322533733
 20
-3.446301268669675
 30
0.0
 10
3.299540200998031
 20
-3.444578720927049
 30
0.0
 10
3.32985704126823
 20
-3.443028427958687
 30
0.0
 10
3.360173881538428
 20
-3.441478134990325
 30
0.0
 10
3.420807562078826
 20
-3.441478134990325
 30
0.0
 10
3.420807562078826
 20
-3.441478134990325
 30
0.0
 10
3.668682182242551
 20
-3.44044460634475
 30
0.0
 10
3.668682182242551
 20
-3.44044460634475
 30
0.0
 10
3.730177136654261
 20
-3.44044460634475
 30
0.0
 10
3.760838486472985
 20
-3.441478134990325
 30
0.0
 10
3.791499836291708
 20
-3.4425116636359
 30
0.0
 10
3.823022459981744
 20
-3.443372937507212
 30
0.0
 10
3.854717338446043
 20
-3.444406466152787
 30
0.0
 10
3.917762585826114
 20
-3.444406466152787
 30
0.0
 10
3.981496852303237
 20
-3.444406466152787
 30
0.0
 10
4.013191730767535
 20
-3.442683918410162
 30
0.0
 10
4.045231118780359
 20
-3.441133625441799
 30
0.0
 10
4.075892468599082
 20
-3.439411077699175
 30
0.0
 10
4.106209308869281
 20
-3.437860784730812
 30
0.0
 10
4.167532008506728
 20
-3.437860784730812
 30
0.0
 10
4.228165689047125
 20
-3.437860784730812
 30
0.0
 10
4.258482529317324
 20
-3.440100096796224
 30
0.0
 10
4.288799369587522
 20
-3.442339408861637
 30
0.0
 10
4.320838757600346
 20
-3.444750975701312
 30
0.0
 10
4.353222655161694
 20
-3.447162542540987
 30
0.0
 10
4.417645940735866
 20
-3.447162542540987
 30
0.0
 10
4.481380207212988
 20
-3.447162542540987
 30
0.0
 10
4.513419595225811
 20
-3.445612249572624
 30
0.0
 10
4.545458983238635
 20
-3.444061956604262
 30
0.0
 10
4.565397473359518
 20
-3.443136087192601
 30
0.0
 10
4.590783520716454
 20
-3.442920768724773
 30
0.0
 10
4.623554991519892
 20
-3.443932765523565
 30
0.0
  0
SPLINE
  5
7F
330
70
100
AcDbEntity
  8
Outlines
100
AcDbSpline
210
0.0
220
0.0
230
1.0
 70
     9
 71
     3
 72
   104
 73
   100
 74
     0
 42
0.0000000001
 43
0.0000000001
 40
0.0
 40
0.0
 40
0.0
 40
0.0
 40
1.0
 40
1.0
 40
1.0
 40
2.0
 40
2.0
 40
2.0
 40
3.0
 40
3.0
 40
3.0
 40
4.0
 40
4.0
 40
4.0
 40
5.0
 40
5.0
 40
5.0
 40
6.0
 40
6.0
 40
6.0
 40
7.0
 40
7.0
 40
7.0
 40
8.0
 40
8.0
 40
8.0
 40
9.0
 40
9.0
 40
9.0
 40
10.0
 40
10.0
 40
10.0
 40
11.0
 40
11.0
 40
11.0
 40
12.0
 40
12.0
 40
12.0
 40
13.0
 40
13.0
 40
13.0
 40
14.0
 40
14.0
 40
14.0
 40
15.0
 40
15.0
 40
15.0
 40
16.0
 40
16.0
 40
16.0
 40
17.0
 40
17.0
 40
17.0
 40
18.0
 40
18.0
 40
18.0
 40
19.0
 40
19.0
 40
19.0
 40
20.0
 40
20.0
 40
20.0
 40
21.0
 40
21.0
 40
21.0
 40
22.0
 40
22.0
 40
22.0
 40
23.0
 40
23.0
 40
23.0
 40
24.0
 40
24.0
 40
24.0
 40
25.0
 40
25.0
 40
25.0
 40
26.0
 40
26.0
 40
26.0
 40
27.0
 40
27.0
 40
27.0
 40
28.0
 40
28.0
 40
28.0
 40
29.0
 40
29.0
 40
29.0
 40
30.0
 40
30.0
 40
30.0
 40
31.0
 40
31.0
 40
31.0
 40
32.0
 40
32.0
 40
32.0
 40
33.0
 40
33.0
 40
33.0
 40
33.0
 10
2.522843423848455
 20
-3.10937093021224
 30
0.0
 10
2.523704697719768
 20
-3.074403211036954
 30
0.0
 10
2.54110242992028
 20
-3.036162651150681
 30
0.0
 10
2.559361435992104
 20
-2.995682779198995
 30
0.0
 10
2.590022785810827
 20
-2.928331162462361
 30
0.0
 10
2.624473740663326
 20
-2.851850042689815
 30
0.0
 10
2.585544161680002
 20
-2.771751572657756
 30
0.0
 10
2.580376518452128
 20
-2.761071776653482
 30
0.0
 10
2.573830837030153
 20
-2.750736490197732
 30
0.0
 10
2.567112900833916
 20
-2.740401203741983
 30
0.0
 10
2.561945257606041
 20
-2.732305229351645
 30
0.0
 10
2.554021537989966
 20
-2.720247395153271
 30
0.0
 10
2.552643499795867
 20
-2.719213866507696
 30
0.0
 10
2.555055066635541
 20
-2.714907497151134
 30
0.0
 10
2.567801919930966
 20
-2.705950248889484
 30
0.0
 10
2.572625053610316
 20
-2.702505153404235
 30
0.0
 10
2.572625053610316
 20
-2.702505153404235
 30
0.0
 10
2.981213378160946
 20
-2.414839680385873
 30
0.0
 10
2.981213378160946
 20
-2.414839680385873
 30
0.0
 10
3.064756943678255
 20
-2.356273057136626
 30
0.0
 10
3.141582572999326
 20
-2.307697210794603
 30
0.0
 10
3.219097221417448
 20
-2.313898382668053
 30
0.0
 10
3.279903156732107
 20
-2.318377006798878
 30
0.0
 10
3.337608506110042
 20
-2.355584038039576
 30
0.0
 10
3.396175129359289
 20
-2.396580674314049
 30
0.0
 10
3.498149955722684
 20
-2.46789415085872
 30
0.0
 10
3.577214897109168
 20
-2.542997232437167
 30
0.0
 10
3.653696016881715
 20
-2.615688747175938
 30
0.0
 10
3.828879122306669
 20
-2.782431368662031
 30
0.0
 10
3.980807833206187
 20
-2.926953124268262
 30
0.0
 10
4.293967012815397
 20
-2.890090602576088
 30
0.0
 10
4.313948566629846
 20
-2.887851290510676
 30
0.0
 10
4.333930120444295
 20
-2.884750704573951
 30
0.0
 10
4.354256183807269
 20
-2.881650118637226
 30
0.0
 10
4.416267902541766
 20
-2.872176106052789
 30
0.0
 10
4.474834525791013
 20
-2.863218857791139
 30
0.0
 10
4.52719997716681
 20
-2.877860513603451
 30
0.0
 10
4.622973631656757
 20
-2.905249022711188
 30
0.0
 10
4.674650063935504
 20
-3.006707084751795
 30
0.0
 10
4.689808484070603
 20
-3.085083007041229
 30
0.0
 10
4.705698986996318
 20
-3.167291598058003
 30
0.0
 10
4.694373235588559
 20
-3.253225198568204
 30
0.0
 10
4.680011493784424
 20
-3.338297525207092
 30
0.0
 10
4.67576971996821
 20
-3.337802292731087
 30
0.0
 10
4.67208777416835
 20
-3.335196939270367
 30
0.0
 10
4.667759872965004
 20
-3.335196939270367
 30
0.0
 10
4.604025606487883
 20
-3.335196939270367
 30
0.0
 10
4.571986218475059
 20
-3.336747232238729
 30
0.0
 10
4.539946830462235
 20
-3.338297525207092
 30
0.0
 10
4.509629990192037
 20
-3.339847818175454
 30
0.0
 10
4.478968640373313
 20
-3.341398111143817
 30
0.0
 10
4.417645940735866
 20
-3.341398111143817
 30
0.0
 10
4.357012260195469
 20
-3.341398111143817
 30
0.0
 10
4.32669541992527
 20
-3.339158799078405
 30
0.0
 10
4.296378579655072
 20
-3.336919487012992
 30
0.0
 10
4.264339191642248
 20
-3.334507920173317
 30
0.0
 10
4.2319552940809
 20
-3.332096353333642
 30
0.0
 10
4.167532008506728
 20
-3.332096353333642
 30
0.0
 10
4.103453232481081
 20
-3.332096353333642
 30
0.0
 10
4.071758354016782
 20
-3.333818901076267
 30
0.0
 10
4.039718966003959
 20
-3.33536919404463
 30
0.0
 10
4.009057616185235
 20
-3.337091741787255
 30
0.0
 10
3.978740775915037
 20
-3.338642034755617
 30
0.0
 10
3.917762585826114
 20
-3.338642034755617
 30
0.0
 10
3.856267631414405
 20
-3.338642034755617
 30
0.0
 10
3.825606281595682
 20
-3.337608506110042
 30
0.0
 10
3.794944931776958
 20
-3.336574977464467
 30
0.0
 10
3.763422308086922
 20
-3.335713703593154
 30
0.0
 10
3.731727429622623
 20
-3.33468017494758
 30
0.0
 10
3.668682182242551
 20
-3.33468017494758
 30
0.0
 10
3.668682182242551
 20
-3.33468017494758
 30
0.0
 10
3.420807562078826
 20
-3.335713703593154
 30
0.0
 10
3.420807562078826
 20
-3.335713703593154
 30
0.0
 10
3.357417805150229
 20
-3.335713703593154
 30
0.0
 10
3.32572292668593
 20
-3.337263996561517
 30
0.0
 10
3.294028048221631
 20
-3.338986544304142
 30
0.0
 10
3.263711207951433
 20
-3.340536837272504
 30
0.0
 10
3.233394367681234
 20
-3.342087130240867
 30
0.0
 10
3.172588432366575
 20
-3.342087130240867
 30
0.0
 10
3.111954751826178
 20
-3.342087130240867
 30
0.0
 10
3.081465656781717
 20
-3.340536837272504
 30
0.0
 10
3.051148816511518
 20
-3.338814289529879
 30
0.0
 10
3.019453938047219
 20
-3.337263996561517
 30
0.0
 10
2.987759059582921
 20
-3.335541448818892
 30
0.0
 10
2.924197047880062
 20
-3.335541448818892
 30
0.0
 10
2.860807290951465
 20
-3.335541448818892
 30
0.0
 10
2.829112412487166
 20
-3.336747232238729
 30
0.0
 10
2.797417534022867
 20
-3.33812527043283
 30
0.0
 10
2.766928438978407
 20
-3.339331053852667
 30
0.0
 10
2.736267089159683
 20
-3.340709092046767
 30
0.0
 10
2.675288899070761
 20
-3.340709092046767
 30
0.0
 10
2.669561427826533
 20
-3.340709092046767
 30
0.0
 10
2.664738294147183
 20
-3.343788146136709
 30
0.0
 10
2.659161545830435
 20
-3.344584824467673
 30
0.0
 10
2.632957288295753
 20
-3.269072637800353
 30
0.0
 10
2.594695196562697
 20
-3.222822230910874
 30
0.0
 10
2.564701333994241
 20
-3.187057833404624
 30
0.0
 10
2.535073512821092
 20
-3.152090114229338
 30
0.0
 10
2.522154404751406
 20
-3.135381401125877
 30
0.0
 10
2.522843423848455
 20
-3.10937093021224
 30
0.0
  0
SPLINE
  5
80
330
70
100
AcDbEntity
  8
Outlines
100
AcDbSpline
210
0.0
220
0.0
230
1.0
 70
     9
 71
     3
 72
   152
 73
   148
 74
     0
 42
0.0000000001
 43
0.0000000001
 40
0.0
 40
0.0
 40
0.0
 40
0.0
 40
1.0
 40
1.0
 40
1.0
 40
2.0
 40
2.0
 40
2.0
 40
3.0
 40
3.0
 40
3.0
 40
4.0
 40
4.0
 40
4.0
 40
5.0
 40
5.0
 40
5.0
 40
6.0
 40
6.0
 40
6.0
 40
7.0
 40
7.0
 40
7.0
 40
8.0
 40
8.0
 40
8.0
 40
9.0
 40
9.0
 40
9.0
 40
10.0
 40
10.0
 40
10.0
 40
11.0
 40
11.0
 40
11.0
 40
12.0
 40
12.0
 40
12.0
 40
13.0
 40
13.0
 40
13.0
 40
14.0
 40
14.0
 40
14.0
 40
15.0
 40
15.0
 40
15.0
 40
16.0
 40
16.0
 40
16.0
 40
17.0
 40
17.0
 40
17.0
 40
18.0
 40
18.0
 40
18.0
 40
19.0
 40
19.0
 40
19.0
 40
20.0
 40
20.0
 40
20.0
 40
21.0
 40
21.0
 40
21.0
 40
22.0
 40
22.0
 40
22.0
 40
23.0
 40
23.0
 40
23.0
 40
24.0
 40
24.0
 40
24.0
 40
25.0
 40
25.0
 40
25.0
 40
26.0
 40
26.0
 40
26.0
 40
27.0
 40
27.0
 40
27.0
 40
28.0
 40
28.0
 40
28.0
 40
29.0
 40
29.0
 40
29.0
 40
30.0
 40
30.0
 40
30.0
 40
31.0
 40
31.0
 40
31.0
 40
32.0
 40
32.0
 40
32.0
 40
33.0
 40
33.0
 40
33.0
 40
34.0
 40
34.0
 40
34.0
 40
35.0
 40
35.0
 40
35.0
 40
36.0
 40
36.0
 40
36.0
 40
37.0
 40
37.0
 40
37.0
 40
38.0
 40
38.0
 40
38.0
 40
39.0
 40
39.0
 40
39.0
 40
40.0
 40
40.0
 40
40.0
 40
41.0
 40
41.0
 40
41.0
 40
42.0
 40
42.0
 40
42.0
 40
43.0
 40
43.0
 40
43.0
 40
44.0
 40
44.0
 40
44.0
 40
45.0
 40
45.0
 40
45.0
 40
46.0
 40
46.0
 40
46.0
 40
47.0
 40
47.0
 40
47.0
 40
48.0
 40
48.0
 40
48.0
 40
49.0
 40
49.0
 40
49.0
 40
49.0
 10
4.793850367725148
 20
-3.064929198452517
 30
0.0
 10
4.76628960384315
 20
-2.922819009685961
 30
0.0
 10
4.672927516192879
 20
-2.809475368221242
 30
0.0
 10
4.556138779242909
 20
-2.776057942014318
 30
0.0
 10
4.481380207212988
 20
-2.754870604780032
 30
0.0
 10
4.408688692474217
 20
-2.765894910332832
 30
0.0
 10
4.338064235026595
 20
-2.777091470659894
 30
0.0
 10
4.319460719406245
 20
-2.779847547048093
 30
0.0
 10
4.300512694237371
 20
-2.782775878210556
 30
0.0
 10
4.281564669068497
 20
-2.785015190275968
 30
0.0
 10
4.017325845349835
 20
-2.815159775771904
 30
0.0
 10
3.895369465171991
 20
-2.69940456746751
 30
0.0
 10
3.726559786394749
 20
-2.53903537262913
 30
0.0
 10
3.650939940493515
 20
-2.467205131761671
 30
0.0
 10
3.565329317685056
 20
-2.385728623535512
 30
0.0
 10
3.456808809899686
 20
-2.309764268085753
 30
0.0
 10
3.388423664517477
 20
-2.262049695615043
 30
0.0
 10
3.314354111584606
 20
-2.21485188746712
 30
0.0
 10
3.22684868625926
 20
-2.208478460819408
 30
0.0
 10
3.100069172402066
 20
-2.200899250751858
 30
0.0
 10
2.997577581715883
 20
-2.273935275039155
 30
0.0
 10
2.920235188072024
 20
-2.328367783706102
 30
0.0
 10
2.920235188072024
 20
-2.328367783706102
 30
0.0
 10
2.511646863521393
 20
-2.616033256724464
 30
0.0
 10
2.511646863521393
 20
-2.616033256724464
 30
0.0
 10
2.491837564481207
 20
-2.629813638665463
 30
0.0
 10
2.458764647822809
 20
-2.653240287965162
 30
0.0
 10
2.449807399561159
 20
-2.694925943336685
 30
0.0
 10
2.439988877428197
 20
-2.739195420322145
 30
0.0
 10
2.463071017179371
 20
-2.774679903820219
 30
0.0
 10
2.478401692088732
 20
-2.798106553119918
 30
0.0
 10
2.482708061445295
 20
-2.804652234541892
 30
0.0
 10
2.48718668557612
 20
-2.811197915963867
 30
0.0
 10
2.490459526287107
 20
-2.817915852160104
 30
0.0
 10
2.506479220293519
 20
-2.850988768818502
 30
0.0
 10
2.490804035835632
 20
-2.890779621673138
 30
0.0
 10
2.463071017179371
 20
-2.952102321310585
 30
0.0
 10
2.442228189493609
 20
-2.998094346038671
 30
0.0
 10
2.418629285419648
 20
-3.050287542640206
 30
0.0
 10
2.417078992451286
 20
-3.106442599049778
 30
0.0
 10
2.415184189934398
 20
-3.173794215786412
 30
0.0
 10
2.449979654335421
 20
-3.21513536160941
 30
0.0
 10
2.483569335316607
 20
-3.255270724012571
 30
0.0
 10
2.515759446256911
 20
-3.293425156511713
 30
0.0
 10
2.549736700480187
 20
-3.340859814974247
 30
0.0
 10
2.568490939028016
 20
-3.422228663966491
 30
0.0
 10
2.56170840729143
 20
-3.445762972500104
 30
0.0
 10
2.559770541080977
 20
-3.470287745985726
 30
0.0
 10
2.568663193802278
 20
-3.492637802946285
 30
0.0
 10
2.58674994509984
 20
-3.545864528193395
 30
0.0
 10
2.597257486329852
 20
-3.574975585043756
 30
0.0
 10
2.606731498914289
 20
-3.601675075054442
 30
0.0
 10
2.618100314015614
 20
-3.633542208293003
 30
0.0
 10
2.628435600471363
 20
-3.661964246046314
 30
0.0
 10
2.649450682931387
 20
-3.725526257749174
 30
0.0
 10
2.668226453325999
 20
-3.782198078481533
 30
0.0
 10
2.675633408619286
 20
-3.811309135331894
 30
0.0
 10
2.68286810913831
 20
-3.840247937407993
 30
0.0
 10
2.690791828754385
 20
-3.871253796775242
 30
0.0
 10
2.698543293596197
 20
-3.90225965614249
 30
0.0
 10
2.718697102184909
 20
-3.962893336682888
 30
0.0
 10
2.738506401225095
 20
-4.022837998126234
 30
0.0
 10
2.749013942455107
 20
-4.052121309750858
 30
0.0
 10
2.759693738459382
 20
-4.081749130924007
 30
0.0
 10
2.769856770140869
 20
-4.109998913903056
 30
0.0
 10
2.780192056596618
 20
-4.138593206430629
 30
0.0
 10
2.799140081765493
 20
-4.195781791485776
 30
0.0
 10
2.819121635579941
 20
-4.256070962477648
 30
0.0
 10
2.829284667261429
 20
-4.285354274102272
 30
0.0
 10
2.839619953717178
 20
-4.315326604823946
 30
0.0
 10
2.84943847585014
 20
-4.343576387802994
 30
0.0
 10
2.859429252757365
 20
-4.372515189879093
 30
0.0
 10
2.878205023151976
 20
-4.42901475583719
 30
0.0
 10
2.898703341289213
 20
-4.490681965023163
 30
0.0
 10
2.90955539206775
 20
-4.519620767099262
 30
0.0
 10
2.920924207169074
 20
-4.550282116917985
 30
0.0
 10
2.931087238850561
 20
-4.577153861702933
 30
0.0
 10
2.941594780080573
 20
-4.605403644681982
 30
0.0
 10
2.96071506002371
 20
-4.66190321064008
 30
0.0
 10
2.978801811321271
 20
-4.708756509239477
 30
0.0
 10
3.016870116433282
 20
-4.737006292218526
 30
0.0
 10
3.06234537683858
 20
-4.737006292218526
 30
0.0
 10
3.125390624218652
 20
-4.737006292218526
 30
0.0
 10
3.156913247908688
 20
-4.737695311315576
 30
0.0
 10
3.188435871598724
 20
-4.738728839961151
 30
0.0
 10
3.22064751438581
 20
-4.739417859058201
 30
0.0
 10
3.252686902398633
 20
-4.740451387703775
 30
0.0
 10
3.317110187972805
 20
-4.740451387703775
 30
0.0
 10
3.444406466152787
 20
-4.740451387703775
 30
0.0
 10
3.444234211378525
 20
-4.739073349509676
 30
0.0
 10
3.572047253881293
 20
-4.739073349509676
 30
0.0
 10
3.634575736938578
 20
-4.739073349509676
 30
0.0
 10
3.665926105854352
 20
-4.740106878155251
 30
0.0
 10
3.697104219995862
 20
-4.741140406800826
 30
0.0
 10
3.729315862782948
 20
-4.742173935446401
 30
0.0
 10
3.761527505570034
 20
-4.7435519736405
 30
0.0
 10
3.826123045918469
 20
-4.7435519736405
 30
0.0
 10
3.890890841041166
 20
-4.7435519736405
 30
0.0
 10
3.92293022905399
 20
-4.741829425897876
 30
0.0
 10
3.955314126615338
 20
-4.740451387703775
 30
0.0
 10
3.986319985982586
 20
-4.739073349509676
 30
0.0
 10
4.01767035489836
 20
-4.737695311315576
 30
0.0
 10
4.079682073632857
 20
-4.737695311315576
 30
0.0
 10
4.143416340109979
 20
-4.737695311315576
 30
0.0
 10
4.175455728122803
 20
-4.737006292218526
 30
0.0
 10
4.207150606587101
 20
-4.736317273121476
 30
0.0
 10
4.238500975502875
 20
-4.735628254024426
 30
0.0
 10
4.269851344418648
 20
-4.734939234927376
 30
0.0
 10
4.33220757270167
 20
-4.734939234927376
 30
0.0
 10
4.379405380849592
 20
-4.734939234927376
 30
0.0
 10
4.417990450284391
 20
-4.707722980593902
 30
0.0
 10
4.43659396590474
 20
-4.658802624703355
 30
0.0
 10
4.456231010170665
 20
-4.593345810483608
 30
0.0
 10
4.464154729786739
 20
-4.564062498858984
 30
0.0
 10
4.473111978048389
 20
-4.530645072652061
 30
0.0
 10
4.480346678567413
 20
-4.504462346964162
 30
0.0
 10
4.487925888634963
 20
-4.475523544888063
 30
0.0
 10
4.503084308770062
 20
-4.423502603060791
 30
0.0
 10
4.519620767099262
 20
-4.365624998908593
 30
0.0
 10
4.528578015360911
 20
-4.336686196832495
 30
0.0
 10
4.537879773171085
 20
-4.307747394756396
 30
0.0
 10
4.546837021432735
 20
-4.278464083131773
 30
0.0
 10
4.556138779242909
 20
-4.249180771507149
 30
0.0
 10
4.573364256669159
 20
-4.189580619612327
 30
0.0
 10
4.589900714998358
 20
-4.131703015460129
 30
0.0
 10
4.597479925065908
 20
-4.101730684738456
 30
0.0
 10
4.604714625584932
 20
-4.072447373113832
 30
0.0
 10
4.612293835652482
 20
-4.042819551940683
 30
0.0
 10
4.619528536171507
 20
-4.01353624031606
 30
0.0
 10
4.636754013597756
 20
-3.954625107518288
 30
0.0
 10
4.653290471926955
 20
-3.897092012914616
 30
0.0
 10
4.662247720188604
 20
-3.868497720387042
 30
0.0
 10
4.671204968450254
 20
-3.839903427859468
 30
0.0
 10
4.680506726260428
 20
-3.810620116234844
 30
0.0
 10
4.690152993619128
 20
-3.781336804610221
 30
0.0
 10
4.707033961496852
 20
-3.722253417038186
 30
0.0
 10
4.725981986665726
 20
-3.655763074172865
 30
0.0
 10
4.734939234927376
 20
-3.628030055516603
 30
0.0
 10
4.745963540480175
 20
-3.594095864986893
 30
0.0
 10
4.75388726009625
 20
-3.569118922718831
 30
0.0
 10
4.763189017906425
 20
-3.540869139739782
 30
0.0
 10
4.776624890298899
 20
-3.495910643657272
 30
0.0
 10
4.786809453827169
 20
-3.470223150445378
 30
0.0
 10
4.783881122664706
 20
-3.442705450256945
 30
0.0
 10
4.775031533636971
 20
-3.416694979343309
 30
0.0
 10
4.794668577902895
 20
-3.308346726332201
 30
0.0
 10
4.816867911935974
 20
-3.185895113678352
 30
0.0
 10
4.793850367725148
 20
-3.064929198452517
 30
0.0
  0
HATCH
  5
81
330
70
100
AcDbEntity
  8
Outlines
 62
   250
420
  2301728
440
 33554687
100
AcDbHatch
 10
0.0
 20
0.0
 30
0.0
210
0.0
220
0.0
230
1.0
  2
SOLID
 70
     1
 71
     1
 91
        4
 92
        1
 93
        1
 72
     4
 94
        3
 73
     0
 74
     0
 95
      131
 96
      127
 40
0.0
 40
0.0
 40
0.0
 40
0.0
 40
1.0
 40
1.0
 40
1.0
 40
2.0
 40
2.0
 40
2.0
 40
3.0
 40
3.0
 40
3.0
 40
4.0
 40
4.0
 40
4.0
 40
5.0
 40
5.0
 40
5.0
 40
6.0
 40
6.0
 40
6.0
 40
7.0
 40
7.0
 40
7.0
 40
8.0
 40
8.0
 40
8.0
 40
9.0
 40
9.0
 40
9.0
 40
10.0
 40
10.0
 40
10.0
 40
11.0
 40
11.0
 40
11.0
 40
12.0
 40
12.0
 40
12.0
 40
13.0
 40
13.0
 40
13.0
 40
14.0
 40
14.0
 40
14.0
 40
15.0
 40
15.0
 40
15.0
 40
16.0
 40
16.0
 40
16.0
 40
17.0
 40
17.0
 40
17.0
 40
18.0
 40
18.0
 40
18.0
 40
19.0
 40
19.0
 40
19.0
 40
20.0
 40
20.0
 40
20.0
 40
21.0
 40
21.0
 40
21.0
 40
22.0
 40
22.0
 40
22.0
 40
23.0
 40
23.0
 40
23.0
 40
24.0
 40
24.0
 40
24.0
 40
25.0
 40
25.0
 40
25.0
 40
26.0
 40
26.0
 40
26.0
 40
27.0
 40
27.0
 40
27.0
 40
28.0
 40
28.0
 40
28.0
 40
29.0
 40
29.0
 40
29.0
 40
30.0
 40
30.0
 40
30.0
 40
31.0
 40
31.0
 40
31.0
 40
32.0
 40
32.0
 40
32.0
 40
33.0
 40
33.0
 40
33.0
 40
34.0
 40
34.0
 40
34.0
 40
35.0
 40
35.0
 40
35.0
 40
36.0
 40
36.0
 40
36.0
 40
37.0
 40
37.0
 40
37.0
 40
38.0
 40
38.0
 40
38.0
 40
39.0
 40
39.0
 40
39.0
 40
40.0
 40
40.0
 40
40.0
 40
41.0
 40
41.0
 40
41.0
 40
42.0
 40
42.0
 40
42.0
 40
42.0
 10
4.605059135133457
 20
-3.692970105413563
 10
4.588522676804258
 20
-3.750675454791497
 10
4.579565428542609
 20
-3.779269747319071
 10
4.570608180280959
 20
-3.807864039846645
 10
4.561306422470784
 20
-3.837147351471268
 10
4.551660155112084
 20
-3.866430663095892
 10
4.53477918723436
 20
-3.925341795893664
 10
4.517553709808112
 20
-3.985975476434061
 10
4.509974499740562
 20
-4.015947807155735
 10
4.502050780124487
 20
-4.046609156974459
 10
4.494816079605462
 20
-4.075203449502033
 10
4.487581379086438
 20
-4.104142251578131
 10
4.471389430305763
 20
-4.160641817536228
 10
4.454852971976564
 20
-4.218519421688426
 10
4.445895723714914
 20
-4.247458223764524
 10
4.43659396590474
 20
-4.276397025840623
 10
4.427636717643091
 20
-4.305680337465246
 10
4.418334959832916
 20
-4.334963649089869
 10
4.401109482406667
 20
-4.394219291436167
 10
4.385951062271567
 20
-4.446929252360489
 10
4.378027342655493
 20
-4.476557073533638
 10
4.370792642136469
 20
-4.503084308770062
 10
4.362179903423344
 20
-4.535812715879935
 10
4.354256183807269
 20
-4.564407008407509
 10
4.334619139541345
 20
-4.628830293981681
 10
4.334619139541345
 20
-4.628830293981681
 10
4.333930120444295
 20
-4.628830293981681
 10
4.33220757270167
 20
-4.628830293981681
 10
4.268473306224548
 20
-4.628830293981681
 10
4.236778427760249
 20
-4.629519313078731
 10
4.205083549295951
 20
-4.630208332175781
 10
4.173733180380177
 20
-4.630897351272831
 10
4.142382811464404
 20
-4.63158637036988
 10
4.079682073632857
 20
-4.63158637036988
 10
4.01491427851016
 20
-4.63158637036988
 10
3.982874890497337
 20
-4.633308918112506
 10
3.950490992935988
 20
-4.634686956306606
 10
3.919485133568739
 20
-4.636064994500705
 10
3.888134764652966
 20
-4.637443032694806
 10
3.826123045918469
 20
-4.637443032694806
 10
3.763422308086922
 20
-4.637443032694806
 10
3.732071939171148
 20
-4.636409504049231
 10
3.700893825029637
 20
-4.635375975403656
 10
3.668682182242551
 20
-4.634342446758081
 10
3.636470539455465
 20
-4.632964408563981
 10
3.572047253881293
 20
-4.632964408563981
 10
3.444406466152787
 20
-4.632619899015456
 10
3.444234211378525
 20
-4.633997937209556
 10
3.317110187972805
 20
-4.634342446758081
 10
3.254237195366996
 20
-4.634342446758081
 10
3.22271457167696
 20
-4.633653427661031
 10
3.191191947986924
 20
-4.632619899015456
 10
3.158980305199838
 20
-4.631930879918406
 10
3.126768662412752
 20
-4.630897351272831
 10
3.06027831954743
 20
-4.626074217593481
 10
3.041330294378556
 20
-4.569919161183909
 10
3.030478243600019
 20
-4.54098035910781
 10
3.019970702370007
 20
-4.513075085677287
 10
3.008946396817207
 20
-4.483447264504138
 10
2.998438855587195
 20
-4.455541991073614
 10
2.978801811321271
 20
-4.395941839178792
 10
2.959681531378135
 20
-4.33840874457512
 10
2.949518499696648
 20
-4.309125432950496
 10
2.939527722789423
 20
-4.280531140422922
 10
2.929364691107936
 20
-4.250903319249774
 10
2.919373914200712
 20
-4.221964517173676
 10
2.899736869934788
 20
-4.162708874827378
 10
2.880272080443126
 20
-4.104142251578131
 10
2.869764539213114
 20
-4.074858939953507
 10
2.859256997983102
 20
-4.045920137877408
 10
2.848921711527352
 20
-4.01698133580131
 10
2.838586425071603
 20
-3.988042533725211
 10
2.819293890354204
 20
-3.929820420024489
 10
2.80034586518533
 20
-3.872631834969342
 10
2.792938909892042
 20
-3.84352077811898
 10
2.785531954598756
 20
-3.814237466494357
 10
2.777780489756943
 20
-3.783403861901371
 10
2.769856770140869
 20
-3.752570257308385
 10
2.750047471100682
 20
-3.692281086316513
 10
2.731853060569207
 20
-3.637568663641389
 10
2.721797688121633
 20
-3.609146625888078
 10
2.712065293375803
 20
-3.581844244167473
 10
2.729635280350577
 20
-3.596981132455789
 10
2.749487643084329
 20
-3.614292737269169
 10
2.780364311370881
 20
-3.64232720178039
 10
2.780364311370881
 20
-3.64232720178039
 10
2.969500053511097
 20
-3.811825899654682
 10
2.969500053511097
 20
-3.811825899654682
 10
3.016353352110495
 20
-3.854200574123255
 10
3.039435491861668
 20
-3.875560166131804
 10
3.062689886387105
 20
-3.897092012914616
 10
3.085944280912541
 20
-3.918796114471689
 10
3.10937093021224
 20
-3.940500216028763
 10
3.156568738360163
 20
-3.983219400045861
 10
3.234600151101072
 20
-4.053843857493483
 10
3.333646646302005
 20
-4.093117946025332
 10
3.435793727439663
 20
-4.093117946025332
 10
3.495566134108747
 20
-4.093117946025332
 10
3.52553846483042
 20
-4.092428926928281
 10
3.555338540777832
 20
-4.091739907831231
 10
3.584794107176718
 20
-4.091050888734182
 10
3.614077418801342
 20
-4.090706379185657
 10
3.672644042050589
 20
-4.090706379185657
 10
3.672644042050589
 20
-4.090706379185657
 10
3.909494356661515
 20
-4.090706379185657
 10
3.909494356661515
 20
-4.090706379185657
 10
4.013880749864585
 20
-4.090706379185657
 10
4.11241048074273
 20
-4.053499347944958
 10
4.186135524127077
 20
-3.986319985982586
 10
4.231610784532374
 20
-3.945323349708113
 10
4.254692924283549
 20
-3.923619248151039
 10
4.277086044937672
 20
-3.90294867523954
 10
4.301201713334421
 20
-3.880555554585416
 10
4.324283853085596
 20
-3.859023707802605
 10
4.372859699427618
 20
-3.815443249914194
 10
4.422469074415216
 20
-3.771173772928734
 10
4.445895723714914
 20
-3.749641926145923
 10
4.470355901660188
 20
-3.727248805491798
 10
4.470355901660188
 20
-3.727248805491798
 10
4.561306422470784
 20
-3.644911023394327
 10
4.561306422470784
 20
-3.644911023394327
 10
4.600149874066977
 20
-3.609771049444779
 10
4.62215542147901
 20
-3.589552645315719
 10
4.642050847906327
 20
-3.57109985262285
 10
4.632189262079799
 20
-3.601998052756184
 10
4.622952099809974
 20
-3.630807663751586
 10
4.605059135133457
 20
-3.692970105413563
 97
        0
 97
        1
330
7D
 92
        1
 93
        1
 72
     4
 94
        3
 73
     0
 74
     0
 95
       98
 96
       94
 40
0.0
 40
0.0
 40
0.0
 40
0.0
 40
1.0
 40
1.0
 40
1.0
 40
2.0
 40
2.0
 40
2.0
 40
3.0
 40
3.0
 40
3.0
 40
4.0
 40
4.0
 40
4.0
 40
5.0
 40
5.0
 40
5.0
 40
6.0
 40
6.0
 40
6.0
 40
7.0
 40
7.0
 40
7.0
 40
8.0
 40
8.0
 40
8.0
 40
9.0
 40
9.0
 40
9.0
 40
10.0
 40
10.0
 40
10.0
 40
11.0
 40
11.0
 40
11.0
 40
12.0
 40
12.0
 40
12.0
 40
13.0
 40
13.0
 40
13.0
 40
14.0
 40
14.0
 40
14.0
 40
15.0
 40
15.0
 40
15.0
 40
16.0
 40
16.0
 40
16.0
 40
17.0
 40
17.0
 40
17.0
 40
18.0
 40
18.0
 40
18.0
 40
19.0
 40
19.0
 40
19.0
 40
20.0
 40
20.0
 40
20.0
 40
21.0
 40
21.0
 40
21.0
 40
22.0
 40
22.0
 40
22.0
 40
23.0
 40
23.0
 40
23.0
 40
24.0
 40
24.0
 40
24.0
 40
25.0
 40
25.0
 40
25.0
 40
26.0
 40
26.0
 40
26.0
 40
27.0
 40
27.0
 40
27.0
 40
28.0
 40
28.0
 40
28.0
 40
29.0
 40
29.0
 40
29.0
 40
30.0
 40
30.0
 40
30.0
 40
31.0
 40
31.0
 40
31.0
 40
31.0
 10
4.623554991519892
 20
-3.443932765523565
 10
4.607793679674874
 20
-3.458359102868049
 10
4.595025294532667
 20
-3.470223150445378
 10
4.582666014479333
 20
-3.481785752167747
 10
4.559928384276684
 20
-3.502973089402034
 10
4.53684624452551
 20
-3.524504936184845
 10
4.490337455474637
 20
-3.566018336782106
 10
4.490337455474637
 20
-3.566018336782106
 10
4.399042425115517
 20
-3.64921739275089
 10
4.399042425115517
 20
-3.64921739275089
 10
4.374582247170243
 20
-3.671438258630751
 10
4.351500107419069
 20
-3.6927978506393
 10
4.302579751528521
 20
-3.736550563301973
 10
4.252970376540924
 20
-3.780992295061696
 10
4.229543727241225
 20
-3.80269639661877
 10
4.205083549295951
 20
-3.825434026821419
 10
4.183034938190352
 20
-3.845932344958655
 10
4.159952798439178
 20
-3.867291936967204
 10
4.115166557130931
 20
-3.90777180891889
 10
4.060734048463983
 20
-3.957381183906488
 10
3.987698024176686
 20
-3.984597438239962
 10
3.909494356661515
 20
-3.984597438239962
 10
3.909494356661515
 20
-3.984597438239962
 10
3.672644042050589
 20
-3.984597438239962
 10
3.672644042050589
 20
-3.984597438239962
 10
3.613043890155767
 20
-3.984597438239962
 10
3.583071559434093
 20
-3.985286457337011
 10
3.553271483486682
 20
-3.985975476434061
 10
3.523815917087796
 20
-3.986664495531111
 10
3.494532605463172
 20
-3.987009005079636
 10
3.435793727439663
 20
-3.987009005079636
 10
3.360001626764166
 20
-3.987009005079636
 10
3.286276583379819
 20
-3.958070203003538
 10
3.227709960130572
 20
-3.904671222982165
 10
3.180856661531175
 20
-3.862296548513592
 10
3.15777452178
 20
-3.840936956505043
 10
3.134520127254564
 20
-3.819405109722232
 10
3.111265732729127
 20
-3.797701008165158
 10
3.087839083429429
 20
-3.775996906608084
 10
3.040469020507244
 20
-3.733277722590986
 10
3.040469020507244
 20
-3.733277722590986
 10
2.851333278367027
 20
-3.563779024716694
 10
2.851333278367027
 20
-3.563779024716694
 10
2.803446451122055
 20
-3.520543076376808
 10
2.779158527951044
 20
-3.499700248691047
 10
2.754526095231507
 20
-3.478685166231023
 10
2.742812770581657
 20
-3.468758984864147
 10
2.731013318544677
 20
-3.458703612416574
 10
2.716479321966279
 20
-3.446042886508281
 10
2.751554700375479
 20
-3.445612249572624
 10
2.77890014578965
 20
-3.444880166782009
 10
2.801896158153692
 20
-3.443889701829999
 10
2.832385253198154
 20
-3.442683918410162
 10
2.863046603016877
 20
-3.441305880216062
 10
2.924197047880062
 20
-3.441305880216062
 10
2.984830728420459
 20
-3.441305880216062
 10
3.01531982346492
 20
-3.442856173184424
 10
3.045636663735118
 20
-3.444578720927049
 10
3.077331542199417
 20
-3.446129013895412
 10
3.109026420663715
 20
-3.447851561638037
 10
3.172588432366575
 20
-3.447851561638037
 10
3.236150444069434
 20
-3.447851561638037
 10
3.267845322533733
 20
-3.446301268669675
 10
3.299540200998031
 20
-3.444578720927049
 10
3.32985704126823
 20
-3.443028427958687
 10
3.360173881538428
 20
-3.441478134990325
 10
3.420807562078826
 20
-3.441478134990325
 10
3.420807562078826
 20
-3.441478134990325
 10
3.668682182242551
 20
-3.44044460634475
 10
3.668682182242551
 20
-3.44044460634475
 10
3.730177136654261
 20
-3.44044460634475
 10
3.760838486472985
 20
-3.441478134990325
 10
3.791499836291708
 20
-3.4425116636359
 10
3.823022459981744
 20
-3.443372937507212
 10
3.854717338446043
 20
-3.444406466152787
 10
3.917762585826114
 20
-3.444406466152787
 10
3.981496852303237
 20
-3.444406466152787
 10
4.013191730767535
 20
-3.442683918410162
 10
4.045231118780359
 20
-3.441133625441799
 10
4.075892468599082
 20
-3.439411077699175
 10
4.106209308869281
 20
-3.437860784730812
 10
4.167532008506728
 20
-3.437860784730812
 10
4.228165689047125
 20
-3.437860784730812
 10
4.258482529317324
 20
-3.440100096796224
 10
4.288799369587522
 20
-3.442339408861637
 10
4.320838757600346
 20
-3.444750975701312
 10
4.353222655161694
 20
-3.447162542540987
 10
4.417645940735866
 20
-3.447162542540987
 10
4.481380207212988
 20
-3.447162542540987
 10
4.513419595225811
 20
-3.445612249572624
 10
4.545458983238635
 20
-3.444061956604262
 10
4.565397473359518
 20
-3.443136087192601
 10
4.590783520716454
 20
-3.442920768724773
 10
4.623554991519892
 20
-3.443932765523565
 97
        0
 97
        1
330
7E
 92
        1
 93
        1
 72
     4
 94
        3
 73
     0
 74
     0
 95
      104
 96
      100
 40
0.0
 40
0.0
 40
0.0
 40
0.0
 40
1.0
 40
1.0
 40
1.0
 40
2.0
 40
2.0
 40
2.0
 40
3.0
 40
3.0
 40
3.0
 40
4.0
 40
4.0
 40
4.0
 40
5.0
 40
5.0
 40
5.0
 40
6.0
 40
6.0
 40
6.0
 40
7.0
 40
7.0
 40
7.0
 40
8.0
 40
8.0
 40
8.0
 40
9.0
 40
9.0
 40
9.0
 40
10.0
 40
10.0
 40
10.0
 40
11.0
 40
11.0
 40
11.0
 40
12.0
 40
12.0
 40
12.0
 40
13.0
 40
13.0
 40
13.0
 40
14.0
 40
14.0
 40
14.0
 40
15.0
 40
15.0
 40
15.0
 40
16.0
 40
16.0
 40
16.0
 40
17.0
 40
17.0
 40
17.0
 40
18.0
 40
18.0
 40
18.0
 40
19.0
 40
19.0
 40
19.0
 40
20.0
 40
20.0
 40
20.0
 40
21.0
 40
21.0
 40
21.0
 40
22.0
 40
22.0
 40
22.0
 40
23.0
 40
23.0
 40
23.0
 40
24.0
 40
24.0
 40
24.0
 40
25.0
 40
25.0
 40
25.0
 40
26.0
 40
26.0
 40
26.0
 40
27.0
 40
27.0
 40
27.0
 40
28.0
 40
28.0
 40
28.0
 40
29.0
 40
29.0
 40
29.0
 40
30.0
 40
30.0
 40
30.0
 40
31.0
 40
31.0
 40
31.0
 40
32.0
 40
32.0
 40
32.0
 40
33.0
 40
33.0
 40
33.0
 40
33.0
 10
2.522843423848455
 20
-3.10937093021224
 10
2.523704697719768
 20
-3.074403211036954
 10
2.54110242992028
 20
-3.036162651150681
 10
2.559361435992104
 20
-2.995682779198995
 10
2.590022785810827
 20
-2.928331162462361
 10
2.624473740663326
 20
-2.851850042689815
 10
2.585544161680002
 20
-2.771751572657756
 10
2.580376518452128
 20
-2.761071776653482
 10
2.573830837030153
 20
-2.750736490197732
 10
2.567112900833916
 20
-2.740401203741983
 10
2.561945257606041
 20
-2.732305229351645
 10
2.554021537989966
 20
-2.720247395153271
 10
2.552643499795867
 20
-2.719213866507696
 10
2.555055066635541
 20
-2.714907497151134
 10
2.567801919930966
 20
-2.705950248889484
 10
2.572625053610316
 20
-2.702505153404235
 10
2.572625053610316
 20
-2.702505153404235
 10
2.981213378160946
 20
-2.414839680385873
 10
2.981213378160946
 20
-2.414839680385873
 10
3.064756943678255
 20
-2.356273057136626
 10
3.141582572999326
 20
-2.307697210794603
 10
3.219097221417448
 20
-2.313898382668053
 10
3.279903156732107
 20
-2.318377006798878
 10
3.337608506110042
 20
-2.355584038039576
 10
3.396175129359289
 20
-2.396580674314049
 10
3.498149955722684
 20
-2.46789415085872
 10
3.577214897109168
 20
-2.542997232437167
 10
3.653696016881715
 20
-2.615688747175938
 10
3.828879122306669
 20
-2.782431368662031
 10
3.980807833206187
 20
-2.926953124268262
 10
4.293967012815397
 20
-2.890090602576088
 10
4.313948566629846
 20
-2.887851290510676
 10
4.333930120444295
 20
-2.884750704573951
 10
4.354256183807269
 20
-2.881650118637226
 10
4.416267902541766
 20
-2.872176106052789
 10
4.474834525791013
 20
-2.863218857791139
 10
4.52719997716681
 20
-2.877860513603451
 10
4.622973631656757
 20
-2.905249022711188
 10
4.674650063935504
 20
-3.006707084751795
 10
4.689808484070603
 20
-3.085083007041229
 10
4.705698986996318
 20
-3.167291598058003
 10
4.694373235588559
 20
-3.253225198568204
 10
4.680011493784424
 20
-3.338297525207092
 10
4.67576971996821
 20
-3.337802292731087
 10
4.67208777416835
 20
-3.335196939270367
 10
4.667759872965004
 20
-3.335196939270367
 10
4.604025606487883
 20
-3.335196939270367
 10
4.571986218475059
 20
-3.336747232238729
 10
4.539946830462235
 20
-3.338297525207092
 10
4.509629990192037
 20
-3.339847818175454
 10
4.478968640373313
 20
-3.341398111143817
 10
4.417645940735866
 20
-3.341398111143817
 10
4.357012260195469
 20
-3.341398111143817
 10
4.32669541992527
 20
-3.339158799078405
 10
4.296378579655072
 20
-3.336919487012992
 10
4.264339191642248
 20
-3.334507920173317
 10
4.2319552940809
 20
-3.332096353333642
 10
4.167532008506728
 20
-3.332096353333642
 10
4.103453232481081
 20
-3.332096353333642
 10
4.071758354016782
 20
-3.333818901076267
 10
4.039718966003959
 20
-3.33536919404463
 10
4.009057616185235
 20
-3.337091741787255
 10
3.978740775915037
 20
-3.338642034755617
 10
3.917762585826114
 20
-3.338642034755617
 10
3.856267631414405
 20
-3.338642034755617
 10
3.825606281595682
 20
-3.337608506110042
 10
3.794944931776958
 20
-3.336574977464467
 10
3.763422308086922
 20
-3.335713703593154
 10
3.731727429622623
 20
-3.33468017494758
 10
3.668682182242551
 20
-3.33468017494758
 10
3.668682182242551
 20
-3.33468017494758
 10
3.420807562078826
 20
-3.335713703593154
 10
3.420807562078826
 20
-3.335713703593154
 10
3.357417805150229
 20
-3.335713703593154
 10
3.32572292668593
 20
-3.337263996561517
 10
3.294028048221631
 20
-3.338986544304142
 10
3.263711207951433
 20
-3.340536837272504
 10
3.233394367681234
 20
-3.342087130240867
 10
3.172588432366575
 20
-3.342087130240867
 10
3.111954751826178
 20
-3.342087130240867
 10
3.081465656781717
 20
-3.340536837272504
 10
3.051148816511518
 20
-3.338814289529879
 10
3.019453938047219
 20
-3.337263996561517
 10
2.987759059582921
 20
-3.335541448818892
 10
2.924197047880062
 20
-3.335541448818892
 10
2.860807290951465
 20
-3.335541448818892
 10
2.829112412487166
 20
-3.336747232238729
 10
2.797417534022867
 20
-3.33812527043283
 10
2.766928438978407
 20
-3.339331053852667
 10
2.736267089159683
 20
-3.340709092046767
 10
2.675288899070761
 20
-3.340709092046767
 10
2.669561427826533
 20
-3.340709092046767
 10
2.664738294147183
 20
-3.343788146136709
 10
2.659161545830435
 20
-3.344584824467673
 10
2.632957288295753
 20
-3.269072637800353
 10
2.594695196562697
 20
-3.222822230910874
 10
2.564701333994241
 20
-3.187057833404624
 10
2.535073512821092
 20
-3.152090114229338
 10
2.522154404751406
 20
-3.135381401125877
 10
2.522843423848455
 20
-3.10937093021224
 97
        0
 97
        1
330
7F
 92
        1
 93
        1
 72
     4
 94
        3
 73
     0
 74
     0
 95
      152
 96
      148
 40
0.0
 40
0.0
 40
0.0
 40
0.0
 40
1.0
 40
1.0
 40
1.0
 40
2.0
 40
2.0
 40
2.0
 40
3.0
 40
3.0
 40
3.0
 40
4.0
 40
4.0
 40
4.0
 40
5.0
 40
5.0
 40
5.0
 40
6.0
 40
6.0
 40
6.0
 40
7.0
 40
7.0
 40
7.0
 40
8.0
 40
8.0
 40
8.0
 40
9.0
 40
9.0
 40
9.0
 40
10.0
 40
10.0
 40
10.0
 40
11.0
 40
11.0
 40
11.0
 40
12.0
 40
12.0
 40
12.0
 40
13.0
 40
13.0
 40
13.0
 40
14.0
 40
14.0
 40
14.0
 40
15.0
 40
15.0
 40
15.0
 40
16.0
 40
16.0
 40
16.0
 40
17.0
 40
17.0
 40
17.0
 40
18.0
 40
18.0
 40
18.0
 40
19.0
 40
19.0
 40
19.0
 40
20.0
 40
20.0
 40
20.0
 40
21.0
 40
21.0
 40
21.0
 40
22.0
 40
22.0
 40
22.0
 40
23.0
 40
23.0
 40
23.0
 40
24.0
 40
24.0
 40
24.0
 40
25.0
 40
25.0
 40
25.0
 40
26.0
 40
26.0
 40
26.0
 40
27.0
 40
27.0
 40
27.0
 40
28.0
 40
28.0
 40
28.0
 40
29.0
 40
29.0
 40
29.0
 40
30.0
 40
30.0
 40
30.0
 40
31.0
 40
31.0
 40
31.0
 40
32.0
 40
32.0
 40
32.0
 40
33.0
 40
33.0
 40
33.0
 40
34.0
 40
34.0
 40
34.0
 40
35.0
 40
35.0
 40
35.0
 40
36.0
 40
36.0
 40
36.0
 40
37.0
 40
37.0
 40
37.0
 40
38.0
 40
38.0
 40
38.0
 40
39.0
 40
39.0
 40
39.0
 40
40.0
 40
40.0
 40
40.0
 40
41.0
 40
41.0
 40
41.0
 40
42.0
 40
42.0
 40
42.0
 40
43.0
 40
43.0
 40
43.0
 40
44.0
 40
44.0
 40
44.0
 40
45.0
 40
45.0
 40
45.0
 40
46.0
 40
46.0
 40
46.0
 40
47.0
 40
47.0
 40
47.0
 40
48.0
 40
48.0
 40
48.0
 40
49.0
 40
49.0
 40
49.0
 40
49.0
 10
4.793850367725148
 20
-3.064929198452517
 10
4.76628960384315
 20
-2.922819009685961
 10
4.672927516192879
 20
-2.809475368221242
 10
4.556138779242909
 20
-2.776057942014318
 10
4.481380207212988
 20
-2.754870604780032
 10
4.408688692474217
 20
-2.765894910332832
 10
4.338064235026595
 20
-2.777091470659894
 10
4.319460719406245
 20
-2.779847547048093
 10
4.300512694237371
 20
-2.782775878210556
 10
4.281564669068497
 20
-2.785015190275968
 10
4.017325845349835
 20
-2.815159775771904
 10
3.895369465171991
 20
-2.69940456746751
 10
3.726559786394749
 20
-2.53903537262913
 10
3.650939940493515
 20
-2.467205131761671
 10
3.565329317685056
 20
-2.385728623535512
 10
3.456808809899686
 20
-2.309764268085753
 10
3.388423664517477
 20
-2.262049695615043
 10
3.314354111584606
 20
-2.21485188746712
 10
3.22684868625926
 20
-2.208478460819408
 10
3.100069172402066
 20
-2.200899250751858
 10
2.997577581715883
 20
-2.273935275039155
 10
2.920235188072024
 20
-2.328367783706102
 10
2.920235188072024
 20
-2.328367783706102
 10
2.511646863521393
 20
-2.616033256724464
 10
2.511646863521393
 20
-2.616033256724464
 10
2.491837564481207
 20
-2.629813638665463
 10
2.458764647822809
 20
-2.653240287965162
 10
2.449807399561159
 20
-2.694925943336685
 10
2.439988877428197
 20
-2.739195420322145
 10
2.463071017179371
 20
-2.774679903820219
 10
2.478401692088732
 20
-2.798106553119918
 10
2.482708061445295
 20
-2.804652234541892
 10
2.48718668557612
 20
-2.811197915963867
 10
2.490459526287107
 20
-2.817915852160104
 10
2.506479220293519
 20
-2.850988768818502
 10
2.490804035835632
 20
-2.890779621673138
 10
2.463071017179371
 20
-2.952102321310585
 10
2.442228189493609
 20
-2.998094346038671
 10
2.418629285419648
 20
-3.050287542640206
 10
2.417078992451286
 20
-3.106442599049778
 10
2.415184189934398
 20
-3.173794215786412
 10
2.449979654335421
 20
-3.21513536160941
 10
2.483569335316607
 20
-3.255270724012571
 10
2.515759446256911
 20
-3.293425156511713
 10
2.549736700480187
 20
-3.340859814974247
 10
2.568490939028016
 20
-3.422228663966491
 10
2.56170840729143
 20
-3.445762972500104
 10
2.559770541080977
 20
-3.470287745985726
 10
2.568663193802278
 20
-3.492637802946285
 10
2.58674994509984
 20
-3.545864528193395
 10
2.597257486329852
 20
-3.574975585043756
 10
2.606731498914289
 20
-3.601675075054442
 10
2.618100314015614
 20
-3.633542208293003
 10
2.628435600471363
 20
-3.661964246046314
 10
2.649450682931387
 20
-3.725526257749174
 10
2.668226453325999
 20
-3.782198078481533
 10
2.675633408619286
 20
-3.811309135331894
 10
2.68286810913831
 20
-3.840247937407993
 10
2.690791828754385
 20
-3.871253796775242
 10
2.698543293596197
 20
-3.90225965614249
 10
2.718697102184909
 20
-3.962893336682888
 10
2.738506401225095
 20
-4.022837998126234
 10
2.749013942455107
 20
-4.052121309750858
 10
2.759693738459382
 20
-4.081749130924007
 10
2.769856770140869
 20
-4.109998913903056
 10
2.780192056596618
 20
-4.138593206430629
 10
2.799140081765493
 20
-4.195781791485776
 10
2.819121635579941
 20
-4.256070962477648
 10
2.829284667261429
 20
-4.285354274102272
 10
2.839619953717178
 20
-4.315326604823946
 10
2.84943847585014
 20
-4.343576387802994
 10
2.859429252757365
 20
-4.372515189879093
 10
2.878205023151976
 20
-4.42901475583719
 10
2.898703341289213
 20
-4.490681965023163
 10
2.90955539206775
 20
-4.519620767099262
 10
2.920924207169074
 20
-4.550282116917985
 10
2.931087238850561
 20
-4.577153861702933
 10
2.941594780080573
 20
-4.605403644681982
 10
2.96071506002371
 20
-4.66190321064008
 10
2.978801811321271
 20
-4.708756509239477
 10
3.016870116433282
 20
-4.737006292218526
 10
3.06234537683858
 20
-4.737006292218526
 10
3.125390624218652
 20
-4.737006292218526
 10
3.156913247908688
 20
-4.737695311315576
 10
3.188435871598724
 20
-4.738728839961151
 10
3.22064751438581
 20
-4.739417859058201
 10
3.252686902398633
 20
-4.740451387703775
 10
3.317110187972805
 20
-4.740451387703775
 10
3.444406466152787
 20
-4.740451387703775
 10
3.444234211378525
 20
-4.739073349509676
 10
3.572047253881293
 20
-4.739073349509676
 10
3.634575736938578
 20
-4.739073349509676
 10
3.665926105854352
 20
-4.740106878155251
 10
3.697104219995862
 20
-4.741140406800826
 10
3.729315862782948
 20
-4.742173935446401
 10
3.761527505570034
 20
-4.7435519736405
 10
3.826123045918469
 20
-4.7435519736405
 10
3.890890841041166
 20
-4.7435519736405
 10
3.92293022905399
 20
-4.741829425897876
 10
3.955314126615338
 20
-4.740451387703775
 10
3.986319985982586
 20
-4.739073349509676
 10
4.01767035489836
 20
-4.737695311315576
 10
4.079682073632857
 20
-4.737695311315576
 10
4.143416340109979
 20
-4.737695311315576
 10
4.175455728122803
 20
-4.737006292218526
 10
4.207150606587101
 20
-4.736317273121476
 10
4.238500975502875
 20
-4.735628254024426
 10
4.269851344418648
 20
-4.734939234927376
 10
4.33220757270167
 20
-4.734939234927376
 10
4.379405380849592
 20
-4.734939234927376
 10
4.417990450284391
 20
-4.707722980593902
 10
4.43659396590474
 20
-4.658802624703355
 10
4.456231010170665
 20
-4.593345810483608
 10
4.464154729786739
 20
-4.564062498858984
 10
4.473111978048389
 20
-4.530645072652061
 10
4.480346678567413
 20
-4.504462346964162
 10
4.487925888634963
 20
-4.475523544888063
 10
4.503084308770062
 20
-4.423502603060791
 10
4.519620767099262
 20
-4.365624998908593
 10
4.528578015360911
 20
-4.336686196832495
 10
4.537879773171085
 20
-4.307747394756396
 10
4.546837021432735
 20
-4.278464083131773
 10
4.556138779242909
 20
-4.249180771507149
 10
4.573364256669159
 20
-4.189580619612327
 10
4.589900714998358
 20
-4.131703015460129
 10
4.597479925065908
 20
-4.101730684738456
 10
4.604714625584932
 20
-4.072447373113832
 10
4.612293835652482
 20
-4.042819551940683
 10
4.619528536171507
 20
-4.01353624031606
 10
4.636754013597756
 20
-3.954625107518288
 10
4.653290471926955
 20
-3.897092012914616
 10
4.662247720188604
 20
-3.868497720387042
 10
4.671204968450254
 20
-3.839903427859468
 10
4.680506726260428
 20
-3.810620116234844
 10
4.690152993619128
 20
-3.781336804610221
 10
4.707033961496852
 20
-3.722253417038186
 10
4.725981986665726
 20
-3.655763074172865
 10
4.734939234927376
 20
-3.628030055516603
 10
4.745963540480175
 20
-3.594095864986893
 10
4.75388726009625
 20
-3.569118922718831
 10
4.763189017906425
 20
-3.540869139739782
 10
4.776624890298899
 20
-3.495910643657272
 10
4.786809453827169
 20
-3.470223150445378
 10
4.783881122664706
 20
-3.442705450256945
 10
4.775031533636971
 20
-3.416694979343309
 10
4.794668577902895
 20
-3.308346726332201
 10
4.816867911935974
 20
-3.185895113678352
 10
4.793850367725148
 20
-3.064929198452517
 97
        0
 97
        1
330
80
 75
     2
 76
     1
 98
        1
 10
0.0
 20
0.0
450
        0
451
        0
460
0.0
461
0.0
452
        0
462
0.0
453
        0
470

  0
ENDSEC
  0
SECTION
  2
OBJECTS
  0
DICTIONARY
  5
C
330
0
100
AcDbDictionary
281
     1
  3
ACAD_COLOR
350
63
  3
ACAD_DETAILVIEWSTYLE
350
6A
  3
ACAD_GROUP
350
D
  3
ACAD_LAYOUT
350
62
  3
ACAD_MATERIAL
350
10
  3
ACAD_MLEADERSTYLE
350
66
  3
ACAD_MLINESTYLE
350
5F
  3
ACAD_PLOTSETTINGS
350
61
  3
ACAD_PLOTSTYLENAME
350
E
  3
ACAD_SCALELIST
350
42
  3
ACAD_SECTIONVIEWSTYLE
350
68
  3
ACAD_TABLESTYLE
350
64
  3
ACAD_VISUALSTYLE
350
29
  3
ACDB_RECOMPOSE_DATA
350
8A
  3
AcDbVariableDictionary
350
82
  0
DICTIONARY
  5
63
102
{ACAD_REACTORS
330
C
102
}
330
C
100
AcDbDictionary
281
     1
  0
DICTIONARY
  5
6A
102
{ACAD_REACTORS
330
C
102
}
330
C
100
AcDbDictionary
281
     1
  3
Imperial24
350
6B
  0
DICTIONARY
  5
D
102
{ACAD_REACTORS
330
C
102
}
330
C
100
AcDbDictionary
281
     1
  0
DICTIONARY
  5
62
102
{ACAD_REACTORS
330
C
102
}
330
C
100
AcDbDictionary
281
     1
  3
Layout1
350
6F
  3
Layout2
350
77
  3
Model
350
73
  0
DICTIONARY
  5
10
102
{ACAD_REACTORS
330
C
102
}
330
C
100
AcDbDictionary
281
     1
  3
ByBlock
350
19
  3
ByLayer
350
11
  3
Global
350
21
  0
DICTIONARY
  5
66
102
{ACAD_REACTORS
330
C
102
}
330
C
100
AcDbDictionary
281
     1
  3
Standard
350
67
  0
DICTIONARY
  5
5F
102
{ACAD_REACTORS
330
C
102
}
330
C
100
AcDbDictionary
281
     1
  3
Standard
350
60
  0
DICTIONARY
  5
61
102
{ACAD_REACTORS
330
C
102
}
330
C
100
AcDbDictionary
281
     1
  0
ACDBDICTIONARYWDFLT
  5
E
102
{ACAD_REACTORS
330
C
102
}
330
C
100
AcDbDictionary
281
     1
  3
Normal
350
F
100
AcDbDictionaryWithDefault
340
F
  0
DICTIONARY
  5
42
102
{ACAD_REACTORS
330
C
102
}
330
C
100
AcDbDictionary
281
     1
  3
A0
350
43
  3
A1
350
44
  3
A2
350
45
  3
A3
350
46
  3
A4
350
47
  3
A5
350
48
  3
A6
350
49
  3
A7
350
4A
  3
A8
350
4B
  3
A9
350
4C
  3
B0
350
4D
  3
B1
350
4E
  3
B2
350
4F
  3
B3
350
50
  3
B4
350
51
  3
B5
350
52
  3
B6
350
53
  0
DICTIONARY
  5
68
102
{ACAD_REACTORS
330
C
102
}
330
C
100
AcDbDictionary
281
     1
  3
Imperial24
350
69
  0
DICTIONARY
  5
64
102
{ACAD_REACTORS
330
C
102
}
330
C
100
AcDbDictionary
281
     1
  3
Standard
350
65
  0
DICTIONARY
  5
29
102
{ACAD_REACTORS
330
C
102
}
330
C
100
AcDbDictionary
281
     1
  3
2dWireframe
350
2F
  3
Basic
350
2E
  3
Brighten
350
35
  3
ColorChange
350
39
  3
Conceptual
350
32
  3
Dim
350
34
  3
EdgeColorOff
350
41
  3
Facepattern
350
38
  3
Flat
350
2A
  3
FlatWithEdges
350
2B
  3
Gouraud
350
2C
  3
GouraudWithEdges
350
2D
  3
Hidden
350
31
  3
JitterOff
350
3F
  3
Linepattern
350
37
  3
OverhangOff
350
40
  3
Realistic
350
33
  3
Shaded
350
3E
  3
Shaded with edges
350
3D
  3
Shades of Gray
350
3A
  3
Sketchy
350
3B
  3
Thicken
350
36
  3
Wireframe
350
30
  3
X-Ray
350
3C
  0
XRECORD
  5
8A
102
{ACAD_REACTORS
330
C
102
}
330
C
100
AcDbXrecord
280
     1
 90
        1
330
65
  0
DICTIONARY
  5
82
102
{ACAD_REACTORS
330
C
102
}
330
C
100
AcDbDictionary
281
     1
  3
CANNOSCALE
350
87
  3
CMLEADERSTYLE
350
84
  3
CTABLESTYLE
350
83
  3
CVIEWDETAILSTYLE
350
85
  3
CVIEWSECTIONSTYLE
350
86
  0
ACDBDETAILVIEWSTYLE
  5
6B
102
{ACAD_REACTORS
330
6A
102
}
330
6A
100
AcDbModelDocViewStyle
 70
     0
  3
Imperial24
290
     1
300
Imperial24
 90
        0
100
AcDbDetailViewStyle
 70
     0
 71
     0
 90
        3
 71
     1
340
55
 62
   256
 40
0.24
340
0
 62
   256
 40
0.24
300

 40
0.36
280
     3
 71
     2
340
5D
 90
       25
 62
   256
 71
     3
340
55
 62
   256
 40
0.24
 90
        1
 40
0.75
 90
        1
300
%<\AcVar ViewType \f "%tc1">% %<\AcVar ViewDetailId>%\PSCALE %<\AcVar ViewScale \f "%sn">%
 71
     4
340
5D
 90
       25
 62
   256
340
5D
 90
       25
 62
   256
280
     0
  0
LAYOUT
  5
6F
102
{ACAD_REACTORS
330
62
102
}
330
62
100
AcDbPlotSettings
  1

  2

  4

  6

 40
0.0
 41
0.0
 42
0.0
 43
0.0
 44
0.0
 45
0.0
 46
0.0
 47
0.0
 48
0.0
 49
0.0
140
0.0
141
0.0
142
1.0
143
1.0
 70
   688
 72
     0
 73
     0
 74
     5
  7

 75
    16
147
1.0
 76
     0
 77
     2
 78
   300
148
0.0
149
0.0
100
AcDbLayout
  1
Layout1
 70
     1
 71
     1
 10
0.0
 20
0.0
 11
12.0
 21
9.0
 12
0.0
 22
0.0
 32
0.0
 14
0.0
 24
0.0
 34
0.0
 15
0.0
 25
0.0
 35
0.0
146
0.0
 13
0.0
 23
0.0
 33
0.0
 16
1.0
 26
0.0
 36
0.0
 17
0.0
 27
1.0
 37
0.0
 76
     0
330
6C
  0
LAYOUT
  5
77
102
{ACAD_REACTORS
330
62
102
}
330
62
100
AcDbPlotSettings
  1

  2

  4

  6

 40
0.0
 41
0.0
 42
0.0
 43
0.0
 44
0.0
 45
0.0
 46
0.0
 47
0.0
 48
0.0
 49
0.0
140
0.0
141
0.0
142
1.0
143
1.0
 70
   688
 72
     0
 73
     0
 74
     5
  7

 75
    16
147
1.0
 76
     0
 77
     2
 78
   300
148
0.0
149
0.0
100
AcDbLayout
  1
Layout2
 70
     1
 71
     2
 10
0.0
 20
0.0
 11
12.0
 21
9.0
 12
0.0
 22
0.0
 32
0.0
 14
0.0
 24
0.0
 34
0.0
 15
0.0
 25
0.0
 35
0.0
146
0.0
 13
0.0
 23
0.0
 33
0.0
 16
1.0
 26
0.0
 36
0.0
 17
0.0
 27
1.0
 37
0.0
 76
     0
330
74
  0
LAYOUT
  5
73
102
{ACAD_REACTORS
330
62
102
}
330
62
100
AcDbPlotSettings
  1

  2

  4

  6

 40
0.0
 41
0.0
 42
0.0
 43
0.0
 44
0.0
 45
0.0
 46
0.0
 47
0.0
 48
0.0
 49
0.0
140
0.0
141
0.0
142
1.0
143
1.0
 70
  1712
 72
     0
 73
     0
 74
     0
  7

 75
     0
147
1.0
 76
     0
 77
     2
 78
   300
148
0.0
149
0.0
100
AcDbLayout
  1
Model
 70
     1
 71
     0
 10
0.0
 20
0.0
 11
12.0
 21
9.0
 12
0.0
 22
0.0
 32
0.0
 14
0.0
 24
0.0
 34
0.0
 15
0.0
 25
0.0
 35
0.0
146
0.0
 13
0.0
 23
0.0
 33
0.0
 16
1.0
 26
0.0
 36
0.0
 17
0.0
 27
1.0
 37
0.0
 76
     0
330
70
  0
MATERIAL
  5
19
102
{ACAD_XDICTIONARY
360
1A
102
}
102
{ACAD_REACTORS
330
10
102
}
330
10
100
AcDbMaterial
  1
ByBlock
 72
     0
 43
0.0208333333333333
 43
0.0
 43
0.0
 43
0.0
 43
0.0
 43
0.0208333333333333
 43
0.0
 43
0.0
 43
0.0
 43
0.0
 43
1.0
 43
0.0
 43
0.0
 43
0.0
 43
0.0
 43
1.0
 77
     0
 47
0.0208333333333333
 47
0.0
 47
0.0
 47
0.0
 47
0.0
 47
0.0208333333333333
 47
0.0
 47
0.0
 47
0.0
 47
0.0
 47
1.0
 47
0.0
 47
0.0
 47
0.0
 47
0.0
 47
1.0
171
     0
 49
0.0208333333333333
 49
0.0
 49
0.0
 49
0.0
 49
0.0
 49
0.0208333333333333
 49
0.0
 49
0.0
 49
0.0
 49
0.0
 49
1.0
 49
0.0
 49
0.0
 49
0.0
 49
0.0
 49
1.0
175
     0
142
0.0208333333333333
142
0.0
142
0.0
142
0.0
142
0.0
142
0.0208333333333333
142
0.0
142
0.0
142
0.0
142
0.0
142
1.0
142
0.0
142
0.0
142
0.0
142
0.0
142
1.0
179
     0
144
0.0208333333333333
144
0.0
144
0.0
144
0.0
144
0.0
144
0.0208333333333333
144
0.0
144
0.0
144
0.0
144
0.0
144
1.0
144
0.0
144
0.0
144
0.0
144
0.0
144
1.0
147
0.0208333333333333
147
0.0
147
0.0
147
0.0
147
0.0
147
0.0208333333333333
147
0.0
147
0.0
147
0.0
147
0.0
147
1.0
147
0.0
147
0.0
147
0.0
147
0.0
147
1.0
  0
MATERIAL
  5
11
102
{ACAD_XDICTIONARY
360
12
102
}
102
{ACAD_REACTORS
330
10
102
}
330
10
100
AcDbMaterial
  1
ByLayer
 72
     0
 43
0.0208333333333333
 43
0.0
 43
0.0
 43
0.0
 43
0.0
 43
0.0208333333333333
 43
0.0
 43
0.0
 43
0.0
 43
0.0
 43
1.0
 43
0.0
 43
0.0
 43
0.0
 43
0.0
 43
1.0
 77
     0
 47
0.0208333333333333
 47
0.0
 47
0.0
 47
0.0
 47
0.0
 47
0.0208333333333333
 47
0.0
 47
0.0
 47
0.0
 47
0.0
 47
1.0
 47
0.0
 47
0.0
 47
0.0
 47
0.0
 47
1.0
171
     0
 49
0.0208333333333333
 49
0.0
 49
0.0
 49
0.0
 49
0.0
 49
0.0208333333333333
 49
0.0
 49
0.0
 49
0.0
 49
0.0
 49
1.0
 49
0.0
 49
0.0
 49
0.0
 49
0.0
 49
1.0
175
     0
142
0.0208333333333333
142
0.0
142
0.0
142
0.0
142
0.0
142
0.0208333333333333
142
0.0
142
0.0
142
0.0
142
0.0
142
1.0
142
0.0
142
0.0
142
0.0
142
0.0
142
1.0
179
     0
144
0.0208333333333333
144
0.0
144
0.0
144
0.0
144
0.0
144
0.0208333333333333
144
0.0
144
0.0
144
0.0
144
0.0
144
1.0
144
0.0
144
0.0
144
0.0
144
0.0
144
1.0
147
0.0208333333333333
147
0.0
147
0.0
147
0.0
147
0.0
147
0.0208333333333333
147
0.0
147
0.0
147
0.0
147
0.0
147
1.0
147
0.0
147
0.0
147
0.0
147
0.0
147
1.0
  0
MATERIAL
  5
21
102
{ACAD_XDICTIONARY
360
22
102
}
102
{ACAD_REACTORS
330
10
102
}
330
10
100
AcDbMaterial
  1
Global
 72
     0
 43
0.0208333333333333
 43
0.0
 43
0.0
 43
0.0
 43
0.0
 43
0.0208333333333333
 43
0.0
 43
0.0
 43
0.0
 43
0.0
 43
1.0
 43
0.0
 43
0.0
 43
0.0
 43
0.0
 43
1.0
 77
     0
 47
0.0208333333333333
 47
0.0
 47
0.0
 47
0.0
 47
0.0
 47
0.0208333333333333
 47
0.0
 47
0.0
 47
0.0
 47
0.0
 47
1.0
 47
0.0
 47
0.0
 47
0.0
 47
0.0
 47
1.0
171
     0
 49
0.0208333333333333
 49
0.0
 49
0.0
 49
0.0
 49
0.0
 49
0.0208333333333333
 49
0.0
 49
0.0
 49
0.0
 49
0.0
 49
1.0
 49
0.0
 49
0.0
 49
0.0
 49
0.0
 49
1.0
175
     0
142
0.0208333333333333
142
0.0
142
0.0
142
0.0
142
0.0
142
0.0208333333333333
142
0.0
142
0.0
142
0.0
142
0.0
142
1.0
142
0.0
142
0.0
142
0.0
142
0.0
142
1.0
179
     0
144
0.0208333333333333
144
0.0
144
0.0
144
0.0
144
0.0
144
0.0208333333333333
144
0.0
144
0.0
144
0.0
144
0.0
144
1.0
144
0.0
144
0.0
144
0.0
144
0.0
144
1.0
147
0.0208333333333333
147
0.0
147
0.0
147
0.0
147
0.0
147
0.0208333333333333
147
0.0
147
0.0
147
0.0
147
0.0
147
1.0
147
0.0
147
0.0
147
0.0
147
0.0
147
1.0
  0
MLEADERSTYLE
  5
67
102
{ACAD_REACTORS
330
66
102
}
330
66
100
AcDbMLeaderStyle
179
     2
170
     2
171
     1
172
     0
 90
        2
 40
0.0
 41
0.0
173
     1
 91
-1056964608
340
5B
 92
       -2
290
     1
 42
0.09
291
     1
 43
0.36
  3
Standard
 44
0.18
300

342
55
174
     1
178
     6
175
     1
176
     0
 93
-1056964608
 45
0.18
292
     0
297
     0
 46
0.18
 94
-1056964608
 47
1.0
 49
1.0
140
1.0
293
     1
141
0.0
294
     1
177
     0
142
1.0
295
     1
296
     0
143
0.125
271
     0
272
     9
273
     9
298
     1
  0
MLINESTYLE
  5
60
102
{ACAD_REACTORS
330
5F
102
}
330
5F
100
AcDbMlineStyle
  2
STANDARD
 70
     0
  3

 62
   256
 51
90.0
 52
90.0
 71
     2
 49
0.5
 62
   256
  6
BYLAYER
 49
-0.5
 62
   256
  6
BYLAYER
  0
ACDBPLACEHOLDER
  5
F
102
{ACAD_REACTORS
330
E
102
}
330
E
  0
SCALE
  5
43
102
{ACAD_REACTORS
330
42
102
}
330
42
100
AcDbScale
 70
     0
300
1:1
140
1.0
141
1.0
290
     1
  0
SCALE
  5
44
102
{ACAD_REACTORS
330
42
102
}
330
42
100
AcDbScale
 70
     0
300
1/128" = 1'-0"
140
0.0078125
141
12.0
290
     0
  0
SCALE
  5
45
102
{ACAD_REACTORS
330
42
102
}
330
42
100
AcDbScale
 70
     0
300
1/64" = 1'-0"
140
0.015625
141
12.0
290
     0
  0
SCALE
  5
46
102
{ACAD_REACTORS
330
42
102
}
330
42
100
AcDbScale
 70
     0
300
1/32" = 1'-0"
140
0.03125
141
12.0
290
     0
  0
SCALE
  5
47
102
{ACAD_REACTORS
330
42
102
}
330
42
100
AcDbScale
 70
     0
300
1/16" = 1'-0"
140
0.0625
141
12.0
290
     0
  0
SCALE
  5
48
102
{ACAD_REACTORS
330
42
102
}
330
42
100
AcDbScale
 70
     0
300
3/32" = 1'-0"
140
0.09375
141
12.0
290
     0
  0
SCALE
  5
49
102
{ACAD_REACTORS
330
42
102
}
330
42
100
AcDbScale
 70
     0
300
1/8" = 1'-0"
140
0.125
141
12.0
290
     0
  0
SCALE
  5
4A
102
{ACAD_REACTORS
330
42
102
}
330
42
100
AcDbScale
 70
     0
300
3/16" = 1'-0"
140
0.1875
141
12.0
290
     0
  0
SCALE
  5
4B
102
{ACAD_REACTORS
330
42
102
}
330
42
100
AcDbScale
 70
     0
300
1/4" = 1'-0"
140
0.25
141
12.0
290
     0
  0
SCALE
  5
4C
102
{ACAD_REACTORS
330
42
102
}
330
42
100
AcDbScale
 70
     0
300
3/8" = 1'-0"
140
0.375
141
12.0
290
     0
  0
SCALE
  5
4D
102
{ACAD_REACTORS
330
42
102
}
330
42
100
AcDbScale
 70
     0
300
1/2" = 1'-0"
140
0.5
141
12.0
290
     0
  0
SCALE
  5
4E
102
{ACAD_REACTORS
330
42
102
}
330
42
100
AcDbScale
 70
     0
300
3/4" = 1'-0"
140
0.75
141
12.0
290
     0
  0
SCALE
  5
4F
102
{ACAD_REACTORS
330
42
102
}
330
42
100
AcDbScale
 70
     0
300
1" = 1'-0"
140
1.0
141
12.0
290
     0
  0
SCALE
  5
50
102
{ACAD_REACTORS
330
42
102
}
330
42
100
AcDbScale
 70
     0
300
1-1/2" = 1'-0"
140
1.5
141
12.0
290
     0
  0
SCALE
  5
51
102
{ACAD_REACTORS
330
42
102
}
330
42
100
AcDbScale
 70
     0
300
3" = 1'-0"
140
3.0
141
12.0
290
     0
  0
SCALE
  5
52
102
{ACAD_REACTORS
330
42
102
}
330
42
100
AcDbScale
 70
     0
300
6" = 1'-0"
140
6.0
141
12.0
290
     0
  0
SCALE
  5
53
102
{ACAD_REACTORS
330
42
102
}
330
42
100
AcDbScale
 70
     0
300
1'-0" = 1'-0"
140
12.0
141
12.0
290
     0
  0
ACDBSECTIONVIEWSTYLE
  5
69
102
{ACAD_REACTORS
330
68
102
}
330
68
100
AcDbModelDocViewStyle
 70
     0
  3
Imperial24
290
     1
300
Imperial24
 90
        0
100
AcDbSectionViewStyle
 70
     0
 71
     0
 90
       78
 71
     1
340
55
 62
   256
 40
0.24
340
0
340
0
 62
   256
 40
0.24
300
I, O, Q, S, X, Z
 40
0.48
 90
        3
 40
0.18
 90
        1
 71
     2
340
5D
 90
       25
 62
   256
340
5D
 90
       50
 62
   256
 40
0.24
 40
0.0
 40
0.24
 71
     3
340
55
 62
   256
 40
0.24
 90
        1
 40
0.75
 90
        1
300
%<\AcVar ViewType \f "%tc1">% %<\AcVar ViewSectionStartId>%-%<\AcVar ViewSectionEndId>%\PSCALE %<\AcVar ViewScale \f "%sn">%
 71
     4
 62
   256
 62
   257
300
ANSI31
 40
1.0
 90
        0
290
     0
290
     0
 90
        6
 40
0.0
 40
1.570796326794896
 40
0.2617993877991494
 40
1.308996938995747
 40
-0.2617993877991494
 40
1.832595714594046
  0
TABLESTYLE
  5
65
102
{ACAD_XDICTIONARY
360
88
102
}
102
{ACAD_REACTORS
330
64
102
}
330
64
100
AcDbTableStyle
280
     0
  3
Standard
 70
     0
 71
     0
 40
0.06
 41
0.06
280
     0
281
     0
  7
Standard
140
0.18
170
     2
 62
     0
 63
     7
283
     0
 90
      512
 91
        0
  1

274
    -2
284
     1
 64
     0
275
    -2
285
     1
 65
     0
276
    -2
286
     1
 66
     0
277
    -2
287
     1
 67
     0
278
    -2
288
     1
 68
     0
279
    -2
289
     1
 69
     0
  7
Standard
140
0.25
170
     5
 62
     0
 63
     7
283
     0
 90
      512
 91
        0
  1

274
    -2
284
     1
 64
     0
275
    -2
285
     1
 65
     0
276
    -2
286
     1
 66
     0
277
    -2
287
     1
 67
     0
278
    -2
288
     1
 68
     0
279
    -2
289
     1
 69
     0
  7
Standard
140
0.18
170
     5
 62
     0
 63
     7
283
     0
 90
      512
 91
        0
  1

274
    -2
284
     1
 64
     0
275
    -2
285
     1
 65
     0
276
    -2
286
     1
 66
     0
277
    -2
287
     1
 67
     0
278
    -2
288
     1
 68
     0
279
    -2
289
     1
 69
     0
  0
VISUALSTYLE
  5
2F
102
{ACAD_REACTORS
330
29
102
}
330
29
100
AcDbVisualStyle
  2
2dWireframe
 70
     4
177
     3
291
     0
 70
    58
 90
        0
176
     1
 90
        2
176
     1
 90
        0
176
     1
 90
        0
176
     1
 40
0.6
176
     1
 40
30.0
176
     1
 62
     7
420
 16777215
176
     1
 90
        1
176
     1
 90
        4
176
     1
 62
     7
176
     1
 62
   257
176
     1
 90
        1
176
     1
 90
        1
176
     1
 40
1.0
176
     1
 90
        0
176
     1
 62
   257
176
     1
 40
1.0
176
     1
 90
        1
176
     1
 90
        6
176
     1
 90
        2
176
     1
 62
     7
176
     1
 90
        5
176
     1
 90
        0
176
     1
 90
        0
176
     1
290
     0
176
     1
 90
        1
176
     1
 40
0.0
176
     1
 90
        0
176
     1
290
     1
176
     1
290
     1
176
     1
290
     0
176
     1
290
     0
176
     1
290
     0
176
     1
290
     0
176
     1
290
     0
176
     1
290
     0
176
     1
290
     0
176
     1
 90
       50
176
     1
 40
0.0
176
     1
 40
1.0
176
     1
 90
        0
176
     1
 62
    18
420
        0
176
     1
 90
       50
176
     1
 90
        3
176
     1
 62
     5
420
      255
176
     1
290
     0
176
     1
 90
       50
176
     1
 90
       50
176
     1
 90
       50
176
     1
290
     0
176
     1
 90
       50
176
     1
 62
   256
176
     0
 40
1.0
176
     0
 90
        2
176
     1
  1
strokes_ogs.tif
176
     1
290
     0
176
     1
 40
1.0
176
     1
 40
1.0
176
     1
  0
VISUALSTYLE
  5
2E
102
{ACAD_REACTORS
330
29
102
}
330
29
100
AcDbVisualStyle
  2
Basic
 70
     7
177
     3
291
     1
 70
    58
 90
        1
176
     1
 90
        0
176
     1
 90
        1
176
     1
 90
        0
176
     1
 40
0.6
176
     1
 40
30.0
176
     1
 62
     7
420
 16777215
176
     1
 90
        0
176
     1
 90
        4
176
     1
 62
     7
176
     1
 62
   257
176
     1
 90
        1
176
     1
 90
        1
176
     1
 40
1.0
176
     1
 90
        8
176
     1
 62
     7
176
     1
 40
1.0
176
     1
 90
        1
176
     1
 90
        6
176
     1
 90
        2
176
     1
 62
     7
176
     1
 90
        5
176
     1
 90
        0
176
     1
 90
        0
176
     1
290
     0
176
     1
 90
        1
176
     1
 40
0.0
176
     1
 90
        0
176
     1
290
     0
176
     1
290
     1
176
     1
290
     1
176
     1
290
     0
176
     1
290
     0
176
     1
290
     0
176
     1
290
     0
176
     1
290
     0
176
     1
290
     0
176
     1
 90
       50
176
     1
 40
0.0
176
     1
 40
1.0
176
     1
 90
        0
176
     1
 62
    18
420
        0
176
     1
 90
       50
176
     1
 90
        3
176
     1
 62
     5
420
      255
176
     1
290
     0
176
     1
 90
       50
176
     1
 90
       50
176
     1
 90
       50
176
     1
290
     0
176
     1
 90
       50
176
     1
 62
   256
176
     0
 40
1.0
176
     0
 90
        2
176
     1
  1
strokes_ogs.tif
176
     1
290
     0
176
     1
 40
1.0
176
     1
 40
1.0
176
     1
  0
VISUALSTYLE
  5
35
102
{ACAD_REACTORS
330
29
102
}
330
29
100
AcDbVisualStyle
  2
Brighten
 70
    12
177
     3
291
     1
 70
    58
 90
        2
176
     1
 90
        2
176
     1
 90
        0
176
     1
 90
        0
176
     1
 40
0.6
176
     1
 40
30.0
176
     1
 62
     7
420
 16777215
176
     1
 90
        1
176
     1
 90
        4
176
     1
 62
     7
176
     1
 62
   257
176
     1
 90
        1
176
     1
 90
        1
176
     1
 40
1.0
176
     1
 90
        8
176
     1
 62
     7
176
     1
 40
1.0
176
     1
 90
        1
176
     1
 90
        6
176
     1
 90
        2
176
     1
 62
     7
176
     1
 90
        5
176
     1
 90
        0
176
     1
 90
        0
176
     1
290
     0
176
     1
 90
        1
176
     1
 40
50.0
176
     1
 90
        0
176
     1
290
     0
176
     1
290
     1
176
     1
290
     1
176
     1
290
     0
176
     1
290
     0
176
     1
290
     0
176
     1
290
     0
176
     1
290
     0
176
     1
290
     0
176
     1
 90
       50
176
     1
 40
0.0
176
     1
 40
1.0
176
     1
 90
        0
176
     1
 62
    18
420
        0
176
     1
 90
       50
176
     1
 90
        3
176
     1
 62
     5
420
      255
176
     1
290
     0
176
     1
 90
       50
176
     1
 90
       50
176
     1
 90
       50
176
     1
290
     0
176
     1
 90
       50
176
     1
 62
   256
176
     0
 40
1.0
176
     0
 90
        2
176
     1
  1
strokes_ogs.tif
176
     1
290
     0
176
     1
 40
1.0
176
     1
 40
1.0
176
     1
  0
VISUALSTYLE
  5
39
102
{ACAD_REACTORS
330
29
102
}
330
29
100
AcDbVisualStyle
  2
ColorChange
 70
    16
177
     3
291
     1
 70
    58
 90
        2
176
     1
 90
        2
176
     1
 90
        3
176
     1
 90
        0
176
     1
 40
0.6
176
     1
 40
30.0
176
     1
 62
     8
420
  8421504
176
     1
 90
        1
176
     1
 90
        4
176
     1
 62
     7
176
     1
 62
   257
176
     1
 90
        1
176
     1
 90
        1
176
     1
 40
1.0
176
     1
 90
        8
176
     1
 62
     8
420
  8421504
176
     1
 40
1.0
176
     1
 90
        1
176
     1
 90
        6
176
     1
 90
        2
176
     1
 62
     7
176
     1
 90
        5
176
     1
 90
        0
176
     1
 90
        0
176
     1
290
     0
176
     1
 90
        1
176
     1
 40
0.0
176
     1
 90
        0
176
     1
290
     0
176
     1
290
     1
176
     1
290
     1
176
     1
290
     0
176
     1
290
     0
176
     1
290
     0
176
     1
290
     0
176
     1
290
     0
176
     1
290
     0
176
     1
 90
       50
176
     1
 40
0.0
176
     1
 40
1.0
176
     1
 90
        0
176
     1
 62
    18
420
        0
176
     1
 90
       50
176
     1
 90
        3
176
     1
 62
     5
420
      255
176
     1
290
     0
176
     1
 90
       50
176
     1
 90
       50
176
     1
 90
       50
176
     1
290
     0
176
     1
 90
       50
176
     1
 62
   256
176
     0
 40
1.0
176
     0
 90
        2
176
     1
  1
strokes_ogs.tif
176
     1
290
     0
176
     1
 40
1.0
176
     1
 40
1.0
176
     1
  0
VISUALSTYLE
  5
32
102
{ACAD_REACTORS
330
29
102
}
330
29
100
AcDbVisualStyle
  2
Conceptual
 70
     9
177
     3
291
     0
 70
    58
 90
        3
176
     1
 90
        2
176
     1
 90
        0
176
     1
 90
        0
176
     1
 40
0.6
176
     1
 40
30.0
176
     1
 62
     7
420
 16777215
176
     1
 90
        2
176
     1
 90
        2
176
     1
 62
     7
176
     1
 62
   257
176
     1
 90
        1
176
     1
 90
        1
176
     1
 40
179.0
176
     1
 90
        8
176
     1
 62
     7
176
     1
 40
1.0
176
     1
 90
        1
176
     1
 90
        6
176
     1
 90
        2
176
     1
 62
     7
176
     1
 90
        3
176
     1
 90
        0
176
     1
 90
        0
176
     1
290
     0
176
     1
 90
        1
176
     1
 40
0.0
176
     1
 90
        0
176
     1
290
     0
176
     1
290
     1
176
     1
290
     1
176
     1
290
     0
176
     1
290
     0
176
     1
290
     0
176
     1
290
     0
176
     1
290
     0
176
     1
290
     0
176
     1
 90
       50
176
     1
 40
0.0
176
     1
 40
1.0
176
     1
 90
        0
176
     1
 62
    18
420
        0
176
     1
 90
       50
176
     1
 90
        3
176
     1
 62
     5
420
      255
176
     1
290
     0
176
     1
 90
       50
176
     1
 90
       50
176
     1
 90
       50
176
     1
290
     0
176
     1
 90
       50
176
     1
 62
   256
176
     0
 40
1.0
176
     0
 90
        2
176
     1
  1
strokes_ogs.tif
176
     1
290
     0
176
     1
 40
1.0
176
     1
 40
1.0
176
     1
  0
VISUALSTYLE
  5
34
102
{ACAD_REACTORS
330
29
102
}
330
29
100
AcDbVisualStyle
  2
Dim
 70
    11
177
     3
291
     1
 70
    58
 90
        2
176
     1
 90
        2
176
     1
 90
        0
176
     1
 90
        0
176
     1
 40
0.6
176
     1
 40
30.0
176
     1
 62
     7
420
 16777215
176
     1
 90
        1
176
     1
 90
        4
176
     1
 62
     7
176
     1
 62
   257
176
     1
 90
        1
176
     1
 90
        1
176
     1
 40
1.0
176
     1
 90
        8
176
     1
 62
     7
176
     1
 40
1.0
176
     1
 90
        1
176
     1
 90
        6
176
     1
 90
        2
176
     1
 62
     7
176
     1
 90
        5
176
     1
 90
        0
176
     1
 90
        0
176
     1
290
     0
176
     1
 90
        1
176
     1
 40
-50.0
176
     1
 90
        0
176
     1
290
     0
176
     1
290
     1
176
     1
290
     1
176
     1
290
     0
176
     1
290
     0
176
     1
290
     0
176
     1
290
     0
176
     1
290
     0
176
     1
290
     0
176
     1
 90
       50
176
     1
 40
0.0
176
     1
 40
1.0
176
     1
 90
        0
176
     1
 62
    18
420
        0
176
     1
 90
       50
176
     1
 90
        3
176
     1
 62
     5
420
      255
176
     1
290
     0
176
     1
 90
       50
176
     1
 90
       50
176
     1
 90
       50
176
     1
290
     0
176
     1
 90
       50
176
     1
 62
   256
176
     0
 40
1.0
176
     0
 90
        2
176
     1
  1
strokes_ogs.tif
176
     1
290
     0
176
     1
 40
1.0
176
     1
 40
1.0
176
     1
  0
VISUALSTYLE
  5
41
102
{ACAD_REACTORS
330
29
102
}
330
29
100
AcDbVisualStyle
  2
EdgeColorOff
 70
    22
177
     3
291
     1
 70
    58
 90
        2
176
     0
 90
        2
176
     0
 90
        0
176
     0
 90
        0
176
     0
 40
0.6
176
     0
 40
30.0
176
     0
 62
     7
420
 16777215
176
     0
 90
        1
176
     0
 90
        4
176
     0
 62
     7
176
     0
 62
   257
176
     0
 90
        1
176
     0
 90
        1
176
     0
 40
1.0
176
     0
 90
        8
176
     2
 62
     7
176
     0
 40
1.0
176
     0
 90
        1
176
     0
 90
        6
176
     0
 90
        2
176
     0
 62
     7
176
     0
 90
        5
176
     0
 90
        0
176
     0
 90
        0
176
     0
290
     0
176
     0
 90
        1
176
     0
 40
0.0
176
     0
 90
        0
176
     0
290
     0
176
     0
290
     1
176
     0
290
     1
176
     0
290
     0
176
     0
290
     0
176
     0
290
     0
176
     0
290
     0
176
     0
290
     0
176
     0
290
     0
176
     0
 90
       50
176
     0
 40
0.0
176
     0
 40
1.0
176
     0
 90
        0
176
     0
 62
    18
420
        0
176
     0
 90
       50
176
     0
 90
        3
176
     0
 62
     5
420
      255
176
     0
290
     0
176
     0
 90
       50
176
     0
 90
       50
176
     0
 90
       50
176
     0
290
     0
176
     0
 90
       50
176
     0
 62
   256
176
     0
 40
1.0
176
     0
 90
        2
176
     0
  1
strokes_ogs.tif
176
     0
290
     0
176
     0
 40
1.0
176
     0
 40
1.0
176
     0
  0
VISUALSTYLE
  5
38
102
{ACAD_REACTORS
330
29
102
}
330
29
100
AcDbVisualStyle
  2
Facepattern
 70
    15
177
     3
291
     1
 70
    58
 90
        2
176
     1
 90
        2
176
     1
 90
        0
176
     1
 90
        0
176
     1
 40
0.6
176
     1
 40
30.0
176
     1
 62
     7
420
 16777215
176
     1
 90
        1
176
     1
 90
        4
176
     1
 62
     7
176
     1
 62
   257
176
     1
 90
        1
176
     1
 90
        1
176
     1
 40
1.0
176
     1
 90
        8
176
     1
 62
     7
176
     1
 40
1.0
176
     1
 90
        1
176
     1
 90
        6
176
     1
 90
        2
176
     1
 62
     7
176
     1
 90
        5
176
     1
 90
        0
176
     1
 90
        0
176
     1
290
     0
176
     1
 90
        1
176
     1
 40
0.0
176
     1
 90
        0
176
     1
290
     0
176
     1
290
     1
176
     1
290
     1
176
     1
290
     0
176
     1
290
     0
176
     1
290
     0
176
     1
290
     0
176
     1
290
     0
176
     1
290
     0
176
     1
 90
       50
176
     1
 40
0.0
176
     1
 40
1.0
176
     1
 90
        0
176
     1
 62
    18
420
        0
176
     1
 90
       50
176
     1
 90
        3
176
     1
 62
     5
420
      255
176
     1
290
     0
176
     1
 90
       50
176
     1
 90
       50
176
     1
 90
       50
176
     1
290
     0
176
     1
 90
       50
176
     1
 62
   256
176
     0
 40
1.0
176
     0
 90
        2
176
     1
  1
strokes_ogs.tif
176
     1
290
     0
176
     1
 40
1.0
176
     1
 40
1.0
176
     1
  0
VISUALSTYLE
  5
2A
102
{ACAD_REACTORS
330
29
102
}
330
29
100
AcDbVisualStyle
  2
Flat
 70
     0
177
     3
291
     1
 70
    58
 90
        2
176
     1
 90
        1
176
     1
 90
        1
176
     1
 90
        2
176
     1
 40
0.6
176
     1
 40
30.0
176
     1
 62
     7
420
 16777215
176
     1
 90
        0
176
     1
 90
        0
176
     1
 62
     7
176
     1
 62
   257
176
     1
 90
        1
176
     1
 90
        1
176
     1
 40
1.0
176
     1
 90
        8
176
     1
 62
     7
176
     1
 40
1.0
176
     1
 90
        1
176
     1
 90
        6
176
     1
 90
        2
176
     1
 62
     7
176
     1
 90
        5
176
     1
 90
        0
176
     1
 90
        0
176
     1
290
     0
176
     1
 90
       13
176
     1
 40
0.0
176
     1
 90
        0
176
     1
290
     0
176
     1
290
     1
176
     1
290
     1
176
     1
290
     0
176
     1
290
     0
176
     1
290
     0
176
     1
290
     0
176
     1
290
     0
176
     1
290
     0
176
     1
 90
       50
176
     1
 40
0.0
176
     1
 40
1.0
176
     1
 90
        0
176
     1
 62
    18
420
        0
176
     1
 90
       50
176
     1
 90
        3
176
     1
 62
     5
420
      255
176
     1
290
     0
176
     1
 90
       50
176
     1
 90
       50
176
     1
 90
       50
176
     1
290
     0
176
     1
 90
       50
176
     1
 62
   256
176
     0
 40
1.0
176
     0
 90
        2
176
     1
  1
strokes_ogs.tif
176
     1
290
     0
176
     1
 40
1.0
176
     1
 40
1.0
176
     1
  0
VISUALSTYLE
  5
2B
102
{ACAD_REACTORS
330
29
102
}
330
29
100
AcDbVisualStyle
  2
FlatWithEdges
 70
     1
177
     3
291
     1
 70
    58
 90
        2
176
     1
 90
        1
176
     1
 90
        1
176
     1
 90
        2
176
     1
 40
0.6
176
     1
 40
30.0
176
     1
 62
     7
420
 16777215
176
     1
 90
        1
176
     1
 90
        0
176
     1
 62
     7
176
     1
 62
   257
176
     1
 90
        1
176
     1
 90
        1
176
     1
 40
1.0
176
     1
 90
        0
176
     1
 62
   257
176
     1
 40
1.0
176
     1
 90
        1
176
     1
 90
        6
176
     1
 90
        2
176
     1
 62
     7
176
     1
 90
        5
176
     1
 90
        0
176
     1
 90
        0
176
     1
290
     0
176
     1
 90
       13
176
     1
 40
0.0
176
     1
 90
        0
176
     1
290
     0
176
     1
290
     1
176
     1
290
     1
176
     1
290
     0
176
     1
290
     0
176
     1
290
     0
176
     1
290
     0
176
     1
290
     0
176
     1
290
     0
176
     1
 90
       50
176
     1
 40
0.0
176
     1
 40
1.0
176
     1
 90
        0
176
     1
 62
    18
420
        0
176
     1
 90
       50
176
     1
 90
        3
176
     1
 62
     5
420
      255
176
     1
290
     0
176
     1
 90
       50
176
     1
 90
       50
176
     1
 90
       50
176
     1
290
     0
176
     1
 90
       50
176
     1
 62
   256
176
     0
 40
1.0
176
     0
 90
        2
176
     1
  1
strokes_ogs.tif
176
     1
290
     0
176
     1
 40
1.0
176
     1
 40
1.0
176
     1
  0
VISUALSTYLE
  5
2C
102
{ACAD_REACTORS
330
29
102
}
330
29
100
AcDbVisualStyle
  2
Gouraud
 70
     2
177
     3
291
     1
 70
    58
 90
        2
176
     1
 90
        2
176
     1
 90
        1
176
     1
 90
        2
176
     1
 40
0.6
176
     1
 40
30.0
176
     1
 62
     7
420
 16777215
176
     1
 90
        0
176
     1
 90
        0
176
     1
 62
     7
176
     1
 62
   257
176
     1
 90
        1
176
     1
 90
        1
176
     1
 40
1.0
176
     1
 90
        0
176
     1
 62
     7
176
     1
 40
1.0
176
     1
 90
        1
176
     1
 90
        6
176
     1
 90
        2
176
     1
 62
     7
176
     1
 90
        5
176
     1
 90
        0
176
     1
 90
        0
176
     1
290
     0
176
     1
 90
       13
176
     1
 40
0.0
176
     1
 90
        0
176
     1
290
     0
176
     1
290
     1
176
     1
290
     1
176
     1
290
     0
176
     1
290
     0
176
     1
290
     0
176
     1
290
     0
176
     1
290
     0
176
     1
290
     0
176
     1
 90
       50
176
     1
 40
0.0
176
     1
 40
1.0
176
     1
 90
        0
176
     1
 62
    18
420
        0
176
     1
 90
       50
176
     1
 90
        3
176
     1
 62
     5
420
      255
176
     1
290
     0
176
     1
 90
       50
176
     1
 90
       50
176
     1
 90
       50
176
     1
290
     0
176
     1
 90
       50
176
     1
 62
   256
176
     0
 40
1.0
176
     0
 90
        2
176
     1
  1
strokes_ogs.tif
176
     1
290
     0
176
     1
 40
1.0
176
     1
 40
1.0
176
     1
  0
VISUALSTYLE
  5
2D
102
{ACAD_REACTORS
330
29
102
}
330
29
100
AcDbVisualStyle
  2
GouraudWithEdges
 70
     3
177
     3
291
     1
 70
    58
 90
        2
176
     1
 90
        2
176
     1
 90
        1
176
     1
 90
        2
176
     1
 40
0.6
176
     1
 40
30.0
176
     1
 62
     7
420
 16777215
176
     1
 90
        1
176
     1
 90
        0
176
     1
 62
     7
176
     1
 62
   257
176
     1
 90
        1
176
     1
 90
        1
176
     1
 40
1.0
176
     1
 90
        0
176
     1
 62
   257
176
     1
 40
1.0
176
     1
 90
        1
176
     1
 90
        6
176
     1
 90
        2
176
     1
 62
     7
176
     1
 90
        5
176
     1
 90
        0
176
     1
 90
        0
176
     1
290
     0
176
     1
 90
       13
176
     1
 40
0.0
176
     1
 90
        0
176
     1
290
     0
176
     1
290
     1
176
     1
290
     1
176
     1
290
     0
176
     1
290
     0
176
     1
290
     0
176
     1
290
     0
176
     1
290
     0
176
     1
290
     0
176
     1
 90
       50
176
     1
 40
0.0
176
     1
 40
1.0
176
     1
 90
        0
176
     1
 62
    18
420
        0
176
     1
 90
       50
176
     1
 90
        3
176
     1
 62
     5
420
      255
176
     1
290
     0
176
     1
 90
       50
176
     1
 90
       50
176
     1
 90
       50
176
     1
290
     0
176
     1
 90
       50
176
     1
 62
   256
176
     0
 40
1.0
176
     0
 90
        2
176
     1
  1
strokes_ogs.tif
176
     1
290
     0
176
     1
 40
1.0
176
     1
 40
1.0
176
     1
  0
VISUALSTYLE
  5
31
102
{ACAD_REACTORS
330
29
102
}
330
29
100
AcDbVisualStyle
  2
Hidden
 70
     6
177
     3
291
     0
 70
    58
 90
        1
176
     1
 90
        2
176
     1
 90
        2
176
     1
 90
        0
176
     1
 40
0.6
176
     1
 40
30.0
176
     1
 62
     7
420
 16777215
176
     1
 90
        2
176
     1
 90
        2
176
     1
 62
     7
176
     1
 62
   257
176
     1
 90
        2
176
     1
 90
        1
176
     1
 40
40.0
176
     1
 90
        0
176
     1
 62
   257
176
     1
 40
1.0
176
     1
 90
        1
176
     1
 90
        6
176
     1
 90
        2
176
     1
 62
     7
176
     1
 90
        3
176
     1
 90
        0
176
     1
 90
        0
176
     1
290
     0
176
     1
 90
        1
176
     1
 40
0.0
176
     1
 90
        0
176
     1
290
     0
176
     1
290
     1
176
     1
290
     1
176
     1
290
     0
176
     1
290
     0
176
     1
290
     0
176
     1
290
     0
176
     1
290
     0
176
     1
290
     0
176
     1
 90
       50
176
     1
 40
0.0
176
     1
 40
1.0
176
     1
 90
        0
176
     1
 62
    18
420
        0
176
     1
 90
       50
176
     1
 90
        3
176
     1
 62
     5
420
      255
176
     1
290
     0
176
     1
 90
       50
176
     1
 90
       50
176
     1
 90
       50
176
     1
290
     0
176
     1
 90
       50
176
     1
 62
   256
176
     0
 40
1.0
176
     0
 90
        2
176
     1
  1
strokes_ogs.tif
176
     1
290
     0
176
     1
 40
1.0
176
     1
 40
1.0
176
     1
  0
VISUALSTYLE
  5
3F
102
{ACAD_REACTORS
330
29
102
}
330
29
100
AcDbVisualStyle
  2
JitterOff
 70
    20
177
     3
291
     1
 70
    58
 90
        2
176
     0
 90
        2
176
     0
 90
        0
176
     0
 90
        0
176
     0
 40
0.6
176
     0
 40
30.0
176
     0
 62
     7
420
 16777215
176
     0
 90
        1
176
     0
 90
        4
176
     0
 62
     7
176
     0
 62
   257
176
     0
 90
        1
176
     0
 90
        1
176
     0
 40
1.0
176
     0
 90
       10
176
     2
 62
     7
176
     0
 40
1.0
176
     0
 90
        1
176
     0
 90
        6
176
     0
 90
        2
176
     0
 62
     7
176
     0
 90
        5
176
     0
 90
        0
176
     0
 90
        0
176
     0
290
     0
176
     0
 90
        1
176
     0
 40
0.0
176
     0
 90
        0
176
     0
290
     0
176
     0
290
     1
176
     0
290
     1
176
     0
290
     0
176
     0
290
     0
176
     0
290
     0
176
     0
290
     0
176
     0
290
     0
176
     0
290
     0
176
     0
 90
       50
176
     0
 40
0.0
176
     0
 40
1.0
176
     0
 90
        0
176
     0
 62
    18
420
        0
176
     0
 90
       50
176
     0
 90
        3
176
     0
 62
     5
420
      255
176
     0
290
     0
176
     0
 90
       50
176
     0
 90
       50
176
     0
 90
       50
176
     0
290
     0
176
     0
 90
       50
176
     0
 62
   256
176
     0
 40
1.0
176
     0
 90
        2
176
     0
  1
strokes_ogs.tif
176
     0
290
     0
176
     0
 40
1.0
176
     0
 40
1.0
176
     0
  0
VISUALSTYLE
  5
37
102
{ACAD_REACTORS
330
29
102
}
330
29
100
AcDbVisualStyle
  2
Linepattern
 70
    14
177
     3
291
     1
 70
    58
 90
        2
176
     1
 90
        2
176
     1
 90
        0
176
     1
 90
        0
176
     1
 40
0.6
176
     1
 40
30.0
176
     1
 62
     7
420
 16777215
176
     1
 90
        1
176
     1
 90
        4
176
     1
 62
     7
176
     1
 62
   257
176
     1
 90
        7
176
     1
 90
        7
176
     1
 40
1.0
176
     1
 90
        8
176
     1
 62
     7
176
     1
 40
1.0
176
     1
 90
        1
176
     1
 90
        6
176
     1
 90
        2
176
     1
 62
     7
176
     1
 90
        5
176
     1
 90
        0
176
     1
 90
        0
176
     1
290
     0
176
     1
 90
        1
176
     1
 40
0.0
176
     1
 90
        0
176
     1
290
     0
176
     1
290
     1
176
     1
290
     1
176
     1
290
     0
176
     1
290
     0
176
     1
290
     0
176
     1
290
     0
176
     1
290
     0
176
     1
290
     0
176
     1
 90
       50
176
     1
 40
0.0
176
     1
 40
1.0
176
     1
 90
        0
176
     1
 62
    18
420
        0
176
     1
 90
       50
176
     1
 90
        3
176
     1
 62
     5
420
      255
176
     1
290
     0
176
     1
 90
       50
176
     1
 90
       50
176
     1
 90
       50
176
     1
290
     0
176
     1
 90
       50
176
     1
 62
   256
176
     0
 40
1.0
176
     0
 90
        2
176
     1
  1
strokes_ogs.tif
176
     1
290
     0
176
     1
 40
1.0
176
     1
 40
1.0
176
     1
  0
VISUALSTYLE
  5
40
102
{ACAD_REACTORS
330
29
102
}
330
29
100
AcDbVisualStyle
  2
OverhangOff
 70
    21
177
     3
291
     1
 70
    58
 90
        2
176
     0
 90
        2
176
     0
 90
        0
176
     0
 90
        0
176
     0
 40
0.6
176
     0
 40
30.0
176
     0
 62
     7
420
 16777215
176
     0
 90
        1
176
     0
 90
        4
176
     0
 62
     7
176
     0
 62
   257
176
     0
 90
        1
176
     0
 90
        1
176
     0
 40
1.0
176
     0
 90
        9
176
     2
 62
     7
176
     0
 40
1.0
176
     0
 90
        1
176
     0
 90
        6
176
     0
 90
        2
176
     0
 62
     7
176
     0
 90
        5
176
     0
 90
        0
176
     0
 90
        0
176
     0
290
     0
176
     0
 90
        1
176
     0
 40
0.0
176
     0
 90
        0
176
     0
290
     0
176
     0
290
     1
176
     0
290
     1
176
     0
290
     0
176
     0
290
     0
176
     0
290
     0
176
     0
290
     0
176
     0
290
     0
176
     0
290
     0
176
     0
 90
       50
176
     0
 40
0.0
176
     0
 40
1.0
176
     0
 90
        0
176
     0
 62
    18
420
        0
176
     0
 90
       50
176
     0
 90
        3
176
     0
 62
     5
420
      255
176
     0
290
     0
176
     0
 90
       50
176
     0
 90
       50
176
     0
 90
       50
176
     0
290
     0
176
     0
 90
       50
176
     0
 62
   256
176
     0
 40
1.0
176
     0
 90
        2
176
     0
  1
strokes_ogs.tif
176
     0
290
     0
176
     0
 40
1.0
176
     0
 40
1.0
176
     0
  0
VISUALSTYLE
  5
33
102
{ACAD_REACTORS
330
29
102
}
330
29
100
AcDbVisualStyle
  2
Realistic
 70
     8
177
     3
291
     0
 70
    58
 90
        2
176
     1
 90
        3
176
     1
 90
        0
176
     1
 90
        2
176
     1
 40
0.6
176
     1
 40
30.0
176
     1
 62
     7
420
 16777215
176
     1
 90
        0
176
     1
 90
        0
176
     1
 62
     7
176
     1
 62
   257
176
     1
 90
        1
176
     1
 90
        1
176
     1
 40
1.0
176
     1
 90
        8
176
     1
 62
   257
176
     1
 40
1.0
176
     1
 90
        1
176
     1
 90
        6
176
     1
 90
        2
176
     1
 62
     7
176
     1
 90
        3
176
     1
 90
        0
176
     1
 90
        0
176
     1
290
     0
176
     1
 90
       13
176
     1
 40
0.0
176
     1
 90
        0
176
     1
290
     0
176
     1
290
     1
176
     1
290
     1
176
     1
290
     0
176
     1
290
     0
176
     1
290
     0
176
     1
290
     0
176
     1
290
     0
176
     1
290
     0
176
     1
 90
       50
176
     1
 40
0.0
176
     1
 40
1.0
176
     1
 90
        0
176
     1
 62
    18
420
        0
176
     1
 90
       50
176
     1
 90
        3
176
     1
 62
     5
420
      255
176
     1
290
     0
176
     1
 90
       50
176
     1
 90
       50
176
     1
 90
       50
176
     1
290
     0
176
     1
 90
       50
176
     1
 62
   256
176
     0
 40
1.0
176
     0
 90
        2
176
     1
  1
strokes_ogs.tif
176
     1
290
     0
176
     1
 40
1.0
176
     1
 40
1.0
176
     1
  0
VISUALSTYLE
  5
3E
102
{ACAD_REACTORS
330
29
102
}
330
29
100
AcDbVisualStyle
  2
Shaded
 70
    27
177
     3
291
     0
 70
    58
 90
        2
176
     1
 90
        2
176
     1
 90
        1
176
     1
 90
        2
176
     1
 40
0.6
176
     1
 40
30.0
176
     1
 62
     7
420
 16777215
176
     1
 90
        0
176
     1
 90
        4
176
     1
 62
     7
176
     1
 62
   257
176
     1
 90
        1
176
     1
 90
        1
176
     1
 40
1.0
176
     1
 90
        8
176
     1
 62
   257
176
     1
 40
1.0
176
     1
 90
        1
176
     1
 90
        6
176
     1
 90
        2
176
     1
 62
     8
420
  7895160
176
     1
 90
        3
176
     1
 90
        0
176
     1
 90
        0
176
     1
290
     0
176
     1
 90
        5
176
     1
 40
0.0
176
     1
 90
        0
176
     1
290
     0
176
     1
290
     1
176
     1
290
     1
176
     1
290
     0
176
     1
290
     0
176
     1
290
     0
176
     1
290
     0
176
     1
290
     0
176
     1
290
     0
176
     1
 90
       50
176
     1
 40
0.0
176
     1
 40
1.0
176
     1
 90
        0
176
     1
 62
    18
420
        0
176
     1
 90
       50
176
     1
 90
        3
176
     1
 62
     5
420
      255
176
     1
290
     0
176
     1
 90
       50
176
     1
 90
       50
176
     1
 90
       50
176
     1
290
     0
176
     1
 90
       50
176
     1
 62
   256
176
     0
 40
1.0
176
     0
 90
        2
176
     1
  1
strokes_ogs.tif
176
     1
290
     0
176
     1
 40
1.0
176
     1
 40
1.0
176
     1
  0
VISUALSTYLE
  5
3D
102
{ACAD_REACTORS
330
29
102
}
330
29
100
AcDbVisualStyle
  2
Shaded with edges
 70
    26
177
     3
291
     0
 70
    58
 90
        2
176
     1
 90
        2
176
     1
 90
        1
176
     1
 90
        2
176
     1
 40
0.6
176
     1
 40
30.0
176
     1
 62
     7
420
 16777215
176
     1
 90
        1
176
     1
 90
        2
176
     1
 62
     7
176
     1
 62
   257
176
     1
 90
        2
176
     1
 90
        1
176
     1
 40
1.0
176
     1
 90
        8
176
     1
 62
   257
176
     1
 40
1.0
176
     1
 90
        1
176
     1
 90
        6
176
     1
 90
        2
176
     1
 62
     7
176
     1
 90
        3
176
     1
 90
        0
176
     1
 90
        0
176
     1
290
     0
176
     1
 90
        5
176
     1
 40
0.0
176
     1
 90
        0
176
     1
290
     0
176
     1
290
     1
176
     1
290
     1
176
     1
290
     0
176
     1
290
     0
176
     1
290
     0
176
     1
290
     0
176
     1
290
     0
176
     1
290
     0
176
     1
 90
       50
176
     1
 40
0.0
176
     1
 40
1.0
176
     1
 90
        0
176
     1
 62
    18
420
        0
176
     1
 90
       50
176
     1
 90
        3
176
     1
 62
     5
420
      255
176
     1
290
     0
176
     1
 90
       50
176
     1
 90
       50
176
     1
 90
       50
176
     1
290
     0
176
     1
 90
       50
176
     1
 62
   256
176
     0
 40
1.0
176
     0
 90
        2
176
     1
  1
strokes_ogs.tif
176
     1
290
     0
176
     1
 40
1.0
176
     1
 40
1.0
176
     1
  0
VISUALSTYLE
  5
3A
102
{ACAD_REACTORS
330
29
102
}
330
29
100
AcDbVisualStyle
  2
Shades of Gray
 70
    23
177
     3
291
     0
 70
    58
 90
        2
176
     1
 90
        2
176
     1
 90
        3
176
     1
 90
        0
176
     1
 40
0.6
176
     1
 40
30.0
176
     1
 62
     7
420
 16777215
176
     1
 90
        2
176
     1
 90
        2
176
     1
 62
     7
176
     1
 62
     7
176
     1
 90
        1
176
     1
 90
        1
176
     1
 40
40.0
176
     1
 90
        8
176
     1
 62
     7
176
     1
 40
1.0
176
     1
 90
        1
176
     1
 90
        6
176
     1
 90
        2
176
     1
 62
     7
176
     1
 90
        3
176
     1
 90
        0
176
     1
 90
        0
176
     1
290
     0
176
     1
 90
        1
176
     1
 40
0.0
176
     1
 90
        0
176
     1
290
     0
176
     1
290
     1
176
     1
290
     1
176
     1
290
     0
176
     1
290
     0
176
     1
290
     0
176
     1
290
     0
176
     1
290
     0
176
     1
290
     0
176
     1
 90
       50
176
     1
 40
0.0
176
     1
 40
1.0
176
     1
 90
        0
176
     1
 62
    18
420
        0
176
     1
 90
       50
176
     1
 90
        3
176
     1
 62
     5
420
      255
176
     1
290
     0
176
     1
 90
       50
176
     1
 90
       50
176
     1
 90
       50
176
     1
290
     0
176
     1
 90
       50
176
     1
 62
   256
176
     0
 40
1.0
176
     0
 90
        2
176
     1
  1
strokes_ogs.tif
176
     1
290
     0
176
     1
 40
1.0
176
     1
 40
1.0
176
     1
  0
VISUALSTYLE
  5
3B
102
{ACAD_REACTORS
330
29
102
}
330
29
100
AcDbVisualStyle
  2
Sketchy
 70
    24
177
     3
291
     0
 70
    58
 90
        1
176
     1
 90
        2
176
     1
 90
        2
176
     1
 90
        0
176
     1
 40
0.6
176
     1
 40
30.0
176
     1
 62
     7
420
 16777215
176
     1
 90
        2
176
     1
 90
        2
176
     1
 62
     7
176
     1
 62
     7
176
     1
 90
        1
176
     1
 90
        1
176
     1
 40
40.0
176
     1
 90
       11
176
     1
 62
     7
176
     1
 40
1.0
176
     1
 90
        1
176
     1
 90
        6
176
     1
 90
        2
176
     1
 62
     7
176
     1
 90
        6
176
     1
 90
        0
176
     1
 90
        0
176
     1
290
     0
176
     1
 90
        1
176
     1
 40
0.0
176
     1
 90
        0
176
     1
290
     0
176
     1
290
     1
176
     1
290
     1
176
     1
290
     0
176
     1
290
     0
176
     1
290
     0
176
     1
290
     0
176
     1
290
     0
176
     1
290
     0
176
     1
 90
       50
176
     1
 40
0.0
176
     1
 40
1.0
176
     1
 90
        0
176
     1
 62
    18
420
        0
176
     1
 90
       50
176
     1
 90
        3
176
     1
 62
     5
420
      255
176
     1
290
     0
176
     1
 90
       50
176
     1
 90
       50
176
     1
 90
       50
176
     1
290
     0
176
     1
 90
       50
176
     1
 62
   256
176
     0
 40
1.0
176
     0
 90
        2
176
     1
  1
strokes_ogs.tif
176
     1
290
     0
176
     1
 40
1.0
176
     1
 40
1.0
176
     1
  0
VISUALSTYLE
  5
36
102
{ACAD_REACTORS
330
29
102
}
330
29
100
AcDbVisualStyle
  2
Thicken
 70
    13
177
     3
291
     1
 70
    58
 90
        2
176
     1
 90
        2
176
     1
 90
        0
176
     1
 90
        0
176
     1
 40
0.6
176
     1
 40
30.0
176
     1
 62
     7
420
 16777215
176
     1
 90
        1
176
     1
 90
        4
176
     1
 62
     7
176
     1
 62
   257
176
     1
 90
        1
176
     1
 90
        1
176
     1
 40
1.0
176
     1
 90
       12
176
     1
 62
     7
176
     1
 40
1.0
176
     1
 90
        1
176
     1
 90
        6
176
     1
 90
        2
176
     1
 62
     7
176
     1
 90
        5
176
     1
 90
        0
176
     1
 90
        0
176
     1
290
     0
176
     1
 90
        1
176
     1
 40
0.0
176
     1
 90
        0
176
     1
290
     0
176
     1
290
     1
176
     1
290
     1
176
     1
290
     0
176
     1
290
     0
176
     1
290
     0
176
     1
290
     0
176
     1
290
     0
176
     1
290
     0
176
     1
 90
       50
176
     1
 40
0.0
176
     1
 40
1.0
176
     1
 90
        0
176
     1
 62
    18
420
        0
176
     1
 90
       50
176
     1
 90
        3
176
     1
 62
     5
420
      255
176
     1
290
     0
176
     1
 90
       50
176
     1
 90
       50
176
     1
 90
       50
176
     1
290
     0
176
     1
 90
       50
176
     1
 62
   256
176
     0
 40
1.0
176
     0
 90
        2
176
     1
  1
strokes_ogs.tif
176
     1
290
     0
176
     1
 40
1.0
176
     1
 40
1.0
176
     1
  0
VISUALSTYLE
  5
30
102
{ACAD_REACTORS
330
29
102
}
330
29
100
AcDbVisualStyle
  2
Wireframe
 70
     5
177
     3
291
     0
 70
    58
 90
        0
176
     1
 90
        2
176
     1
 90
        0
176
     1
 90
        0
176
     1
 40
0.6
176
     1
 40
30.0
176
     1
 62
     7
420
 16777215
176
     1
 90
        1
176
     1
 90
        4
176
     1
 62
     7
176
     1
 62
   257
176
     1
 90
        1
176
     1
 90
        1
176
     1
 40
1.0
176
     1
 90
        0
176
     1
 62
   257
176
     1
 40
1.0
176
     1
 90
        1
176
     1
 90
        6
176
     1
 90
        2
176
     1
 62
     7
176
     1
 90
        3
176
     1
 90
        0
176
     1
 90
        0
176
     1
290
     0
176
     1
 90
        1
176
     1
 40
0.0
176
     1
 90
        0
176
     1
290
     0
176
     1
290
     1
176
     1
290
     1
176
     1
290
     0
176
     1
290
     0
176
     1
290
     0
176
     1
290
     0
176
     1
290
     0
176
     1
290
     0
176
     1
 90
       50
176
     1
 40
0.0
176
     1
 40
1.0
176
     1
 90
        0
176
     1
 62
    18
420
        0
176
     1
 90
       50
176
     1
 90
        3
176
     1
 62
     5
420
      255
176
     1
290
     0
176
     1
 90
       50
176
     1
 90
       50
176
     1
 90
       50
176
     1
290
     0
176
     1
 90
       50
176
     1
 62
   256
176
     0
 40
1.0
176
     0
 90
        2
176
     1
  1
strokes_ogs.tif
176
     1
290
     0
176
     1
 40
1.0
176
     1
 40
1.0
176
     1
  0
VISUALSTYLE
  5
3C
102
{ACAD_REACTORS
330
29
102
}
330
29
100
AcDbVisualStyle
  2
X-Ray
 70
    25
177
     3
291
     0
 70
    58
 90
        2
176
     1
 90
        2
176
     1
 90
        1
176
     1
 90
        1
176
     1
 40
0.5
176
     1
 40
30.0
176
     1
 62
     7
420
 16777215
176
     1
 90
        1
176
     1
 90
        0
176
     1
 62
     7
176
     1
 62
   257
176
     1
 90
        1
176
     1
 90
        1
176
     1
 40
1.0
176
     1
 90
        8
176
     1
 62
     7
176
     1
 40
1.0
176
     1
 90
        1
176
     1
 90
        6
176
     1
 90
        2
176
     1
 62
     7
176
     1
 90
        3
176
     1
 90
        0
176
     1
 90
        0
176
     1
290
     0
176
     1
 90
       13
176
     1
 40
0.0
176
     1
 90
        0
176
     1
290
     0
176
     1
290
     1
176
     1
290
     1
176
     1
290
     0
176
     1
290
     0
176
     1
290
     0
176
     1
290
     0
176
     1
290
     0
176
     1
290
     0
176
     1
 90
       50
176
     1
 40
0.0
176
     1
 40
1.0
176
     1
 90
        0
176
     1
 62
    18
420
        0
176
     1
 90
       50
176
     1
 90
        3
176
     1
 62
     5
420
      255
176
     1
290
     0
176
     1
 90
       50
176
     1
 90
       50
176
     1
 90
       50
176
     1
290
     0
176
     1
 90
       50
176
     1
 62
   256
176
     0
 40
1.0
176
     0
 90
        2
176
     1
  1
strokes_ogs.tif
176
     1
290
     0
176
     1
 40
1.0
176
     1
 40
1.0
176
     1
  0
DICTIONARYVAR
  5
87
102
{ACAD_REACTORS
330
82
102
}
330
82
100
DictionaryVariables
280
     0
  1
1:1
  0
DICTIONARYVAR
  5
84
102
{ACAD_REACTORS
330
82
102
}
330
82
100
DictionaryVariables
280
     0
  1
STANDARD
  0
DICTIONARYVAR
  5
83
102
{ACAD_REACTORS
330
82
102
}
330
82
100
DictionaryVariables
280
     0
  1
STANDARD
  0
DICTIONARYVAR
  5
85
102
{ACAD_REACTORS
330
82
102
}
330
82
100
DictionaryVariables
280
     0
  1
Imperial24
  0
DICTIONARYVAR
  5
86
102
{ACAD_REACTORS
330
82
102
}
330
82
100
DictionaryVariables
280
     0
  1
Imperial24
  0
DICTIONARY
  5
1A
330
19
100
AcDbDictionary
280
     1
281
     1
  3
BUMPTILE
360
1C
  3
DIFFUSETILE
360
1B
  3
OPACITYTILE
360
1F
  3
REFLECTIONTILE
360
1E
  3
REFRACTIONTILE
360
20
  3
SPECULARTILE
360
1D
  0
DICTIONARY
  5
12
330
11
100
AcDbDictionary
280
     1
281
     1
  3
BUMPTILE
360
14
  3
DIFFUSETILE
360
13
  3
OPACITYTILE
360
17
  3
REFLECTIONTILE
360
16
  3
REFRACTIONTILE
360
18
  3
SPECULARTILE
360
15
  0
DICTIONARY
  5
22
330
21
100
AcDbDictionary
280
     1
281
     1
  3
BUMPTILE
360
24
  3
DIFFUSETILE
360
23
  3
OPACITYTILE
360
27
  3
REFLECTIONTILE
360
26
  3
REFRACTIONTILE
360
28
  3
SPECULARTILE
360
25
  0
DICTIONARY
  5
88
330
65
100
AcDbDictionary
280
     1
281
     1
  3
ACAD_ROUNDTRIP_2008_TABLESTYLE_CELLSTYLEMAP
360
89
  0
XRECORD
  5
1C
102
{ACAD_REACTORS
330
1A
102
}
330
1A
100
AcDbXrecord
280
     1
270
     1
271
     1
  0
XRECORD
  5
1B
102
{ACAD_REACTORS
330
1A
102
}
330
1A
100
AcDbXrecord
280
     1
270
     1
271
     1
  0
XRECORD
  5
1F
102
{ACAD_REACTORS
330
1A
102
}
330
1A
100
AcDbXrecord
280
     1
270
     1
271
     1
  0
XRECORD
  5
1E
102
{ACAD_REACTORS
330
1A
102
}
330
1A
100
AcDbXrecord
280
     1
270
     1
271
     1
  0
XRECORD
  5
20
102
{ACAD_REACTORS
330
1A
102
}
330
1A
100
AcDbXrecord
280
     1
270
     1
271
     1
  0
XRECORD
  5
1D
102
{ACAD_REACTORS
330
1A
102
}
330
1A
100
AcDbXrecord
280
     1
270
     1
271
     1
  0
XRECORD
  5
14
102
{ACAD_REACTORS
330
12
102
}
330
12
100
AcDbXrecord
280
     1
270
     1
271
     1
  0
XRECORD
  5
13
102
{ACAD_REACTORS
330
12
102
}
330
12
100
AcDbXrecord
280
     1
270
     1
271
     1
  0
XRECORD
  5
17
102
{ACAD_REACTORS
330
12
102
}
330
12
100
AcDbXrecord
280
     1
270
     1
271
     1
  0
XRECORD
  5
16
102
{ACAD_REACTORS
330
12
102
}
330
12
100
AcDbXrecord
280
     1
270
     1
271
     1
  0
XRECORD
  5
18
102
{ACAD_REACTORS
330
12
102
}
330
12
100
AcDbXrecord
280
     1
270
     1
271
     1
  0
XRECORD
  5
15
102
{ACAD_REACTORS
330
12
102
}
330
12
100
AcDbXrecord
280
     1
270
     1
271
     1
  0
XRECORD
  5
24
102
{ACAD_REACTORS
330
22
102
}
330
22
100
AcDbXrecord
280
     1
270
     1
271
     1
  0
XRECORD
  5
23
102
{ACAD_REACTORS
330
22
102
}
330
22
100
AcDbXrecord
280
     1
270
     1
271
     1
  0
XRECORD
  5
27
102
{ACAD_REACTORS
330
22
102
}
330
22
100
AcDbXrecord
280
     1
270
     1
271
     1
  0
XRECORD
  5
26
102
{ACAD_REACTORS
330
22
102
}
330
22
100
AcDbXrecord
280
     1
270
     1
271
     1
  0
XRECORD
  5
28
102
{ACAD_REACTORS
330
22
102
}
330
22
100
AcDbXrecord
280
     1
270
     1
271
     1
  0
XRECORD
  5
25
102
{ACAD_REACTORS
330
22
102
}
330
22
100
AcDbXrecord
280
     1
270
     1
271
     1
  0
CELLSTYLEMAP
  5
89
102
{ACAD_REACTORS
330
88
102
}
330
88
100
AcDbCellStyleMap
 90
        3
300
CELLSTYLE
  1
TABLEFORMAT_BEGIN
 90
        5
170
     1
 91
        0
 92
    32768
 62
   257
 93
        1
300
CONTENTFORMAT
  1
CONTENTFORMAT_BEGIN
 90
        0
 91
        0
 92
      512
 93
        0
300

 40
0.0
140
1.0
 94
        5
 62
     0
340
55
144
0.25
309
CONTENTFORMAT_END
171
     0
 94
        0
309
TABLEFORMAT_END
  1
CELLSTYLE_BEGIN
 90
        1
 91
        1
300
_TITLE
309
CELLSTYLE_END
300
CELLSTYLE
  1
TABLEFORMAT_BEGIN
 90
        5
170
     1
 91
        0
 92
        0
 62
   257
 93
        1
300
CONTENTFORMAT
  1
CONTENTFORMAT_BEGIN
 90
        0
 91
        0
 92
      512
 93
        0
300

 40
0.0
140
1.0
 94
        5
 62
     0
340
55
144
0.18
309
CONTENTFORMAT_END
171
     0
 94
        0
309
TABLEFORMAT_END
  1
CELLSTYLE_BEGIN
 90
        2
 91
        1
300
_HEADER
309
CELLSTYLE_END
300
CELLSTYLE
  1
TABLEFORMAT_BEGIN
 90
        5
170
     1
 91
        0
 92
        0
 62
   257
 93
        1
300
CONTENTFORMAT
  1
CONTENTFORMAT_BEGIN
 90
        0
 91
        0
 92
      512
 93
        0
300

 40
0.0
140
1.0
 94
        2
 62
     0
340
55
144
0.18
309
CONTENTFORMAT_END
171
     0
 94
        0
309
TABLEFORMAT_END
  1
CELLSTYLE_BEGIN
 90
        3
 91
        2
300
_DATA
309
CELLSTYLE_END
  0
ENDSEC
  0
EOF
